<svg xmlns="http://www.w3.org/2000/svg" data-name="Layer 1" viewBox="0 0 100 125" x="0px" y="0px"><title>Artboard 7</title><path d="M50.15,18H50A32,32,0,0,0,18,50.15C18.08,67.71,32.81,82,50.83,82H52a4,4,0,0,0,0-8H50.83C37.2,74,26.06,63.28,26,50.11A24,24,0,0,1,50,26h.11C63.28,26.06,74,37.2,74,50.83V60a4,4,0,0,1-8,0V50a16.05,16.05,0,1,0-7.47,13.51A12,12,0,0,0,82,60V50.83C82,32.81,67.71,18.08,50.15,18ZM50,58a8,8,0,1,1,8-8A8,8,0,0,1,50,58Z"/><text x="0" y="115" fill="#000000" font-size="5px" font-weight="bold" font-family="'Helvetica Neue', Helvetica, Arial-Unicode, Arial, Sans-serif">Created by Gregor Cresnar</text><text x="0" y="120" fill="#000000" font-size="5px" font-weight="bold" font-family="'Helvetica Neue', Helvetica, Arial-Unicode, Arial, Sans-serif">from the Noun Project</text></svg>