<svg id="Layer_1" data-name="Layer 1" xmlns="http://www.w3.org/2000/svg" viewBox="0 0 687.41 188.05"><defs><style>.cls-1{fill:#010101;}</style></defs><title>adweek</title><path class="cls-1" d="M630.59,208.49H587.4v-188h43.19V85.23l21.59-64.78h42.29L669.28,96,699,208.49H654.88l-24.29-89.08v89.08ZM578.4,166.21h-45V125.73h45v-36h-45V56.44h45v-36H491.13v188H578.4V166.21ZM482.13,56.44v-36H360.66l-15.3,88.18-12.6-88.18H294.08l-11.7,88.18-15.3-88.18H224.8L227.35,37a35.77,35.77,0,0,0-29.54-16.57H120.43V139.21L103.33,20.45H38.55l-27,188H52.95l4.5-28.79h27l4.5,28.79H197.81c19.36,0.07,35.32-15.88,35.09-36V73.34l20.69,135.16h45l15.3-107.07,15.3,107.07h45L394,79.22V208.49h88.18V166.21h-45V125.73h45v-36h-45V56.44h45ZM62.84,139.21l8.1-54,7.89,54h-16Zm127.76,13.5a14,14,0,0,1-13.5,13.48h-13.5V56.44h13.5a13.88,13.88,0,0,1,13.5,13.5v82.78Z" transform="translate(-11.56 -20.45)"/></svg>