<svg xmlns="http://www.w3.org/2000/svg" xmlns:xlink="http://www.w3.org/1999/xlink" version="1.1" x="0px" y="0px" viewBox="0 0 100 125" enable-background="new 0 0 100 100" xml:space="preserve"><g><path d="M32.4,45.4c0,0.1,0,0.2,0,0.2c0,0.1,0,0.1,0,0.2c0,0.1,0,0.2,0,0.3c0,0.1,0,0.1,0,0.2c0,0.1,0,0.2,0.1,0.3   c0,0,0,0.1,0.1,0.1c0,0.1,0.1,0.2,0.1,0.2C32.8,47.4,37.3,56,50,56c12.7,0,17.2-8.6,17.4-8.9c0-0.1,0-0.1,0.1-0.2   c0-0.1,0.1-0.2,0.1-0.2c0-0.1,0-0.2,0.1-0.2c0-0.1,0-0.2,0-0.2c0-0.1,0-0.2,0-0.2c0-0.1,0-0.2,0-0.3c0-0.1,0-0.1,0-0.2   c0-0.1,0-0.2-0.1-0.3c0,0,0-0.1-0.1-0.1c0-0.1-0.1-0.2-0.1-0.2c-0.2-0.4-4.6-8.9-17.4-8.9c-12.2,0-16.8,7.8-17.3,8.8c0,0,0,0,0,0   c0,0,0,0.1-0.1,0.1c0,0,0,0.1-0.1,0.1c0,0.1-0.1,0.2-0.1,0.3C32.5,45.3,32.5,45.3,32.4,45.4z M50,42.7c1.6,0,3,1.3,3,3   c0,1.6-1.3,3-3,3c-1.6,0-3-1.3-3-3C47,44.1,48.4,42.7,50,42.7z M62.1,45.9c-0.9,1.1-2.5,2.7-5.2,3.8c0.7-1.2,1-2.5,1-3.9   c0-1.3-0.3-2.5-0.8-3.5C59.7,43.3,61.3,44.9,62.1,45.9z M42.8,42.2c-0.5,1.1-0.8,2.3-0.8,3.5c0,1.4,0.4,2.8,1,3.9   c-2.7-1.1-4.3-2.7-5.2-3.8C38.7,44.9,40.3,43.3,42.8,42.2z M89.8,64.4c0-0.1,0-0.2,0-0.4c0-0.1,0-0.2-0.1-0.3c0-0.1,0-0.1-0.1-0.2   c-0.1-0.1-0.1-0.2-0.2-0.4c0,0,0-0.1,0-0.1l0,0c0,0,0,0,0,0l-37.3-56c0,0,0,0,0,0l0,0c0,0,0-0.1-0.1-0.1c-0.1-0.1-0.2-0.2-0.2-0.3   c-0.1-0.1-0.2-0.2-0.3-0.3c0,0,0,0,0,0c0,0,0,0,0,0c-0.1-0.1-0.3-0.2-0.4-0.2c-0.1,0-0.2-0.1-0.3-0.1c-0.1,0-0.1,0-0.2,0   c-0.1,0-0.2,0-0.3,0c-0.1,0-0.1,0-0.2,0c-0.1,0-0.2,0-0.3,0c-0.1,0-0.1,0-0.2,0c-0.1,0-0.2,0.1-0.3,0.1c0,0-0.1,0-0.1,0   c-0.2,0.1-0.3,0.1-0.4,0.2c0,0,0,0,0,0c0,0,0,0,0,0c-0.1,0.1-0.2,0.2-0.3,0.3C48.1,6.9,48.1,7,48,7.1c0,0,0,0-0.1,0.1l0,0   c0,0,0,0,0,0l-37.3,56c0,0,0,0,0,0l0,0c0,0,0,0.1,0,0.1c-0.1,0.1-0.1,0.2-0.2,0.4c0,0.1,0,0.1-0.1,0.2c0,0.1-0.1,0.2-0.1,0.2   c0,0.1,0,0.2,0,0.4c0,0,0,0.1,0,0.1c0,0,0,0,0,0c0,0.2,0,0.3,0,0.5c0,0.1,0.1,0.2,0.1,0.3c0,0.1,0,0.1,0.1,0.2   c0,0.1,0.1,0.2,0.1,0.2c0,0.1,0.1,0.1,0.1,0.2c0.1,0.1,0.1,0.2,0.2,0.2c0,0,0.1,0.1,0.1,0.2c0.1,0.1,0.2,0.2,0.4,0.3c0,0,0,0,0,0   c0,0,0,0,0,0c0.2,0.1,0.4,0.2,0.6,0.3c0.1,0,0.1,0,0.2,0c0.2,0.1,0.4,0.1,0.6,0.1c0,0,0,0,0,0c0,0,0,0,0,0h74.7c0,0,0,0,0,0   c0,0,0,0,0,0c0.2,0,0.4,0,0.6-0.1c0.1,0,0.1,0,0.2,0c0.2-0.1,0.4-0.2,0.6-0.3c0,0,0,0,0,0c0,0,0,0,0,0c0.1-0.1,0.3-0.2,0.4-0.3   c0,0,0.1-0.1,0.1-0.2c0.1-0.1,0.1-0.1,0.2-0.2c0-0.1,0.1-0.1,0.1-0.2c0-0.1,0.1-0.2,0.1-0.2c0-0.1,0-0.1,0.1-0.2   c0-0.1,0.1-0.2,0.1-0.3c0-0.2,0-0.3,0-0.5c0,0,0,0,0,0C89.8,64.5,89.8,64.5,89.8,64.4z M50,13.1l32.7,49H17.3L50,13.1z M52.5,72.8   v18.7c0,1.4-1.1,2.5-2.5,2.5s-2.5-1.1-2.5-2.5V72.8c0-1.4,1.1-2.5,2.5-2.5S52.5,71.4,52.5,72.8z M61.8,72.8v9.3   c0,1.4-1.1,2.5-2.5,2.5s-2.5-1.1-2.5-2.5v-9.3c0-1.4,1.1-2.5,2.5-2.5S61.8,71.4,61.8,72.8z M43.2,72.8v9.3c0,1.4-1.1,2.5-2.5,2.5   s-2.5-1.1-2.5-2.5v-9.3c0-1.4,1.1-2.5,2.5-2.5S43.2,71.4,43.2,72.8z M33.8,72.8v4.1c0,1.4-1.1,2.5-2.5,2.5s-2.5-1.1-2.5-2.5v-4.1   c0-1.4,1.1-2.5,2.5-2.5S33.8,71.4,33.8,72.8z M71.2,72.8v4.1c0,1.4-1.1,2.5-2.5,2.5s-2.5-1.1-2.5-2.5v-4.1c0-1.4,1.1-2.5,2.5-2.5   S71.2,71.4,71.2,72.8z M93.9,24.1L78.4,34.6C78,34.9,77.5,35,77,35c-0.8,0-1.6-0.4-2.1-1.1c-0.8-1.1-0.5-2.7,0.7-3.5L91.1,20   c1.1-0.8,2.7-0.5,3.5,0.7C95.3,21.8,95,23.4,93.9,24.1z M80.2,41.6c-0.8-1.1-0.5-2.7,0.7-3.5l7.7-5.2c1.1-0.8,2.7-0.5,3.5,0.7   c0.8,1.1,0.5,2.7-0.7,3.5l-7.7,5.2c-0.4,0.3-0.9,0.4-1.4,0.4C81.4,42.7,80.7,42.3,80.2,41.6z M70.4,22.7l7.7-5.2   c1.1-0.8,2.7-0.5,3.5,0.7c0.8,1.1,0.5,2.7-0.7,3.5l-7.7,5.2c-0.4,0.3-0.9,0.4-1.4,0.4c-0.8,0-1.6-0.4-2.1-1.1   C69,25,69.3,23.5,70.4,22.7z M64.5,18.4c-0.8-1.1-0.5-2.7,0.7-3.5l3.4-2.3c1.1-0.8,2.7-0.5,3.5,0.7c0.8,1.1,0.5,2.7-0.7,3.5   L68,19.1c-0.4,0.3-0.9,0.4-1.4,0.4C65.8,19.5,65,19.1,64.5,18.4z M93,44.3c0.8,1.1,0.5,2.7-0.7,3.5L88.9,50   c-0.4,0.3-0.9,0.4-1.4,0.4c-0.8,0-1.6-0.4-2.1-1.1c-0.8-1.1-0.5-2.7,0.7-3.5l3.4-2.3C90.6,42.8,92.2,43.1,93,44.3z M21.6,34.6   L6.1,24.1c-1.1-0.8-1.4-2.3-0.7-3.5c0.8-1.1,2.3-1.4,3.5-0.7l15.5,10.4c1.1,0.8,1.4,2.3,0.7,3.5C24.6,34.6,23.8,35,23,35   C22.5,35,22,34.9,21.6,34.6z M19.2,38.2c1.1,0.8,1.4,2.3,0.7,3.5c-0.5,0.7-1.3,1.1-2.1,1.1c-0.5,0-1-0.1-1.4-0.4l-7.7-5.2   c-1.1-0.8-1.4-2.3-0.7-3.5c0.8-1.1,2.3-1.4,3.5-0.7L19.2,38.2z M18.4,18.1c0.8-1.1,2.3-1.4,3.5-0.7l7.7,5.2   c1.1,0.8,1.4,2.3,0.7,3.5c-0.5,0.7-1.3,1.1-2.1,1.1c-0.5,0-1-0.1-1.4-0.4l-7.7-5.2C17.9,20.8,17.6,19.3,18.4,18.1z M27.9,13.3   c0.8-1.1,2.3-1.4,3.5-0.7l3.4,2.3c1.1,0.8,1.4,2.3,0.7,3.5c-0.5,0.7-1.3,1.1-2.1,1.1c-0.5,0-1-0.1-1.4-0.4l-3.4-2.3   C27.4,16,27.1,14.4,27.9,13.3z M11.1,50l-3.4-2.3C6.6,47,6.3,45.4,7,44.3c0.8-1.1,2.3-1.4,3.5-0.7l3.4,2.3c1.1,0.8,1.4,2.3,0.7,3.5   c-0.5,0.7-1.3,1.1-2.1,1.1C12.1,50.5,11.6,50.3,11.1,50z"/></g><text x="0" y="115" fill="#000000" font-size="5px" font-weight="bold" font-family="'Helvetica Neue', Helvetica, Arial-Unicode, Arial, Sans-serif">Created by Erich Grois</text><text x="0" y="120" fill="#000000" font-size="5px" font-weight="bold" font-family="'Helvetica Neue', Helvetica, Arial-Unicode, Arial, Sans-serif">from the Noun Project</text></svg>