<?xml version="1.0" encoding="UTF-8"?>
<svg width="731px" height="622px" viewBox="0 0 731 622" version="1.1" xmlns="http://www.w3.org/2000/svg" xmlns:xlink="http://www.w3.org/1999/xlink">
    <!-- Generator: Sketch 42 (36781) - http://www.bohemiancoding.com/sketch -->
    <title>automation@svg</title>
    <desc>Created with Sketch.</desc>
    <defs></defs>
    <g id="svg" stroke="none" stroke-width="1" fill="none" fill-rule="evenodd">
        <path d="M427.920782,373.620508 C429.11405,376.015559 429.981871,378.61427 430.461926,381.364709 C432.340264,397.637256 432.340264,414.071878 430.461926,430.344425 C428.940657,443.622563 417.735426,453.668633 404.3706,453.736649 L402.751138,453.736649 L400.771796,453.736649 C388.774767,453.794907 378.049948,461.228406 373.784647,472.44176 C369.519347,483.655115 372.592696,496.337117 381.518197,504.353821 C391.78095,513.812876 393.035177,529.576951 384.39724,540.539791 C374.074605,553.367044 362.299919,564.954543 349.308905,575.070311 C344.685121,578.69252 338.987871,580.673898 333.114289,580.702439 C325.669611,580.682566 318.566972,577.574347 313.50081,572.119292 C307.601924,566.04829 299.472731,562.660042 291.008287,562.744409 C287.559863,562.72818 284.13995,563.369413 280.931637,564.633781 C269.6951,569.356473 262.537486,580.522352 262.937619,592.704449 C263.381055,606.540978 253.122061,618.397556 239.365456,619.947392 C223.218034,621.740012 206.919517,621.697756 190.781608,619.821434 C176.871403,618.194215 166.670354,605.960864 167.569325,591.984688 C168.179499,579.688069 161.07302,568.310525 149.755247,563.46417 C146.496655,562.14896 143.012599,561.482711 139.498657,561.502822 C131.039742,561.428464 122.916494,564.807735 117.006134,570.859711 C107.553819,581.272106 91.6318719,582.53325 80.6582183,573.738754 C68.0427331,563.535705 56.6326976,551.926446 46.6495245,539.136257 C38.0144236,528.309153 39.2745331,512.636542 49.5285674,503.328162 C58.4815559,495.046853 61.4138301,482.109087 56.9061147,470.776984 C52.5902812,460.100748 42.3278556,453.023213 30.8147888,452.782966 L29.7351477,452.782966 C15.8252219,452.96718 3.84609084,443.010005 1.48453969,429.300772 C-0.494846562,412.992054 -0.494846562,396.503816 1.48453969,380.195098 C2.91524579,366.505292 14.7213948,356.273296 28.4755665,356.802874 C40.9200764,357.284238 52.4551606,350.306573 57.8058156,339.060773 C62.5132293,327.664963 59.5615224,314.540666 50.4282683,306.257678 C40.167978,296.804789 38.9136062,281.046744 47.5492254,270.089702 C57.8366539,257.286183 69.5481852,245.695389 82.4576201,235.541188 C87.1529592,231.923531 92.9049216,229.945109 98.8321764,229.90906 C106.287345,229.931981 113.395392,233.062131 118.445656,238.546189 C124.367491,244.574809 132.488014,247.933457 140.938178,247.849096 C144.380084,247.885334 147.79819,247.274958 151.014828,246.049694 C162.263344,241.311684 169.42135,230.12372 169.008846,217.925044 C168.575794,204.099035 178.83428,192.258706 192.581009,190.718089 C208.728878,188.933772 225.026458,188.976025 241.164858,190.844048 C255.063037,192.4796 265.256868,204.696393 264.377141,218.662799 C263.686941,230.988928 270.81725,242.419028 282.191218,247.219305 C285.453859,248.51871 288.935968,249.178478 292.447809,249.162659 C295.835424,249.191835 299.169335,248.668072 302.329332,247.641283 C301.14221,245.243222 300.280507,242.642248 299.806415,239.890058 C297.827029,223.58134 297.827029,207.093102 299.806415,190.784383 C301.237121,177.094578 313.04327,166.862582 326.797442,167.39216 C339.241952,167.873523 350.777036,160.895859 356.127691,149.650058 C360.835104,138.254248 357.883398,125.129952 348.750143,116.846964 C338.489853,107.394074 337.235481,91.6360291 345.871101,80.6789878 C356.158529,67.8754681 367.87006,56.2846742 380.779495,46.1304735 C385.474834,42.5128168 391.226797,40.5343946 397.154052,40.4983459 C404.60922,40.5212671 411.717267,43.6514162 416.767531,49.1354745 C422.689366,55.1640944 430.809889,58.5227429 439.260053,58.4383817 C442.701959,58.4746196 446.120066,57.8642434 449.336703,56.6389799 C460.585219,51.9009695 467.743225,40.7130053 467.330721,28.51433 C466.897669,14.6883205 477.156155,2.84799152 490.902885,1.30737497 C507.050754,-0.476942784 523.348333,-0.434689801 539.486733,1.43333309 C553.384912,3.06888546 563.578744,15.2856785 562.699016,29.2520847 C562.008816,41.5782133 569.139125,53.008314 580.513094,57.8085911 C583.775734,59.1079956 587.257843,59.7677636 590.769684,59.751945 C599.224729,59.8247629 607.345236,56.4531287 613.262206,50.4130497 C622.655132,40.0394603 638.497131,38.7626425 649.430182,47.4980188 C662.117963,57.6668684 673.590039,69.2657411 683.618816,82.0645272 C692.313158,92.9386163 691.052325,108.699025 680.739773,118.052563 C671.776112,126.16414 668.783171,138.984495 673.228701,150.226478 C677.67423,161.468461 688.625964,168.774533 700.713133,168.561771 C714.53198,168.443991 726.407727,178.340447 728.783801,191.953994 C730.662139,208.226542 730.662139,224.661163 728.783801,240.933711 C727.262532,254.211849 716.057301,264.257918 702.692475,264.325934 L701.073013,264.325934 L699.093671,264.325934 C687.096642,264.384192 676.371823,271.817691 672.106523,283.031046 C667.841223,294.2444 670.914571,306.926403 679.840072,314.943106 C690.102825,324.402162 691.357053,340.166237 682.719115,351.129076 C672.39648,363.956329 660.621794,375.543828 647.63078,385.659597 C643.006996,389.281806 637.309746,391.263183 631.436164,391.291724 C623.991487,391.271852 616.888847,388.163633 611.822685,382.708578 C605.923799,376.637575 597.794606,373.249328 589.330162,373.333694 C585.881738,373.317465 582.461825,373.958699 579.253512,375.223066 C568.016975,379.945759 560.859361,391.111637 561.259495,403.293734 C561.70293,417.130263 551.443936,428.986841 537.687331,430.536677 C521.53991,432.329297 505.241392,432.287042 489.103483,430.410719 C475.193278,428.7835 464.992229,416.550149 465.8912,402.573973 C466.501374,390.277355 459.394895,378.899811 448.077122,374.053455 C444.81853,372.738246 441.334474,372.071997 437.820532,372.092107 C434.426131,372.062269 431.085781,372.588556 427.920782,373.620508 Z M394.83377,388.544322 C371.874357,388.005473 351.406202,373.940662 342.671613,352.700794 C333.937025,331.460926 338.589083,307.065791 354.52717,290.530907 C347.507732,281.910622 339.674138,273.98664 331.134947,266.868773 C319.949008,277.295262 305.220359,283.083814 289.928646,283.063389 C282.582852,283.107745 275.302395,281.682244 268.515765,278.870783 C247.179887,269.848012 233.248152,249.006986 233.06755,225.842412 C221.994933,224.816888 210.851233,224.816888 199.778617,225.842412 C198.528731,248.153476 183.752525,267.426788 162.531,274.426261 C156.511463,278.246137 149.776629,280.799252 142.73758,281.929766 C127.529961,281.948691 112.876476,276.222263 101.711219,265.897096 C92.9259851,272.997626 84.850786,280.93422 77.5992353,289.595218 C93.7175592,306.247895 98.3861204,330.892239 89.4752871,352.286376 C80.182443,373.330387 59.5708283,387.113528 36.5728745,387.662615 C35.5229612,398.911869 35.46275,410.231583 36.3929344,421.491369 C59.4085421,421.935841 79.9644613,436.000113 88.716901,457.291205 C97.4693407,478.582296 92.7482151,503.037572 76.6995344,519.540772 C83.8086238,528.085661 91.634466,536.007821 100.091758,543.220899 C111.310483,532.846545 126.017829,527.066365 141.298059,527.026283 C148.704943,526.970382 156.047658,528.402211 162.89088,531.236884 C184.236823,540.227849 198.177199,561.067648 198.339095,584.229266 C209.411274,585.26422 220.55585,585.26422 231.628028,584.229266 C232.343068,561.363036 246.337857,541.017848 267.436124,532.172572 C274.127226,529.48062 281.276875,528.111798 288.489125,528.141912 C303.758928,528.094928 318.480618,533.829315 329.695426,544.192576 C338.422008,537.026532 346.491369,529.095674 353.80741,520.494455 C337.605233,503.88534 332.926549,479.187559 341.931358,457.803297 C351.015028,436.564419 371.736855,422.651192 394.83377,422.283105 C395.919161,411.038985 395.919161,399.716467 394.83377,388.472346 L394.83377,388.544322 Z M514.295108,287.718157 C485.11392,287.834708 458.741234,270.346086 447.493225,243.419564 C436.245216,216.493042 442.341153,185.44131 462.934202,164.765681 C483.527252,144.090053 514.554339,137.869897 541.52566,149.010056 C568.496981,160.150215 586.091006,186.452701 586.091239,215.634122 C586.150948,255.357378 554.018284,287.618894 514.295108,287.718157 L514.295108,287.718157 Z M514.295108,179.898002 C494.443191,179.997263 478.42112,196.153344 478.487212,216.005399 C478.553303,235.857454 494.682591,251.906496 514.534728,251.873574 C534.386866,251.840653 550.462836,235.738203 550.463084,215.886038 C550.467993,206.307041 546.653829,197.121334 539.865273,190.363175 C533.076717,183.605015 523.873987,179.832112 514.295108,179.880008 L514.295108,179.898002 Z M215.973233,369.308717 C196.121316,369.407978 180.099245,385.564058 180.165337,405.416113 C180.231428,425.268168 196.360716,441.317211 216.212853,441.284289 C236.064991,441.251367 252.14096,425.148918 252.141209,405.296752 C252.146118,395.717755 248.331954,386.532049 241.543398,379.773889 C234.754842,373.01573 225.552111,369.242826 215.973233,369.290723 L215.973233,369.308717 Z M215.973233,477.128872 C186.792045,477.245423 160.419359,459.7568 149.17135,432.830278 C137.923341,405.903756 144.019277,374.852024 164.612327,354.176396 C185.205377,333.500768 216.232464,327.280611 243.203785,338.420771 C270.175106,349.56093 287.769131,375.863416 287.769364,405.044836 C287.829073,444.768092 255.696409,477.029608 215.973233,477.128872 L215.973233,477.128872 Z" id="automation" fill="#000000"></path>
    </g>
</svg>