<?xml version="1.0" encoding="utf-8"?>
<!-- Generator: Adobe Illustrator 19.2.1, SVG Export Plug-In . SVG Version: 6.00 Build 0)  -->
<svg version="1.1" id="Layer_1" xmlns="http://www.w3.org/2000/svg" xmlns:xlink="http://www.w3.org/1999/xlink" x="0px" y="0px"
	 viewBox="0 0 714 200" style="enable-background:new 0 0 714 200;" xml:space="preserve">
<style type="text/css">
	.st0{fill:#0F0F10;}
</style>
<g id="Page-1">
	<g id="Group">
		<path id="Shape" class="st0" d="M118.3,168c0,8.1-2.6,14.5-8.1,18.8c-5.8,4.6-14.2,7.2-25.2,7.2H7.2V80.3H85c22,0,33,8.7,33,25.8
			v9.3c0,5.5-0.9,9.8-2.6,12.4c-2,3.5-6.1,6.7-12.4,9.3c1.7,0.9,4.1,1.7,7.2,3.2c4.1,2.6,6.7,6.9,7.5,13
			C118,155,118.3,159.9,118.3,168 M95.7,165.1v-7.5c0-7.8-5.8-11.9-17.4-11.9H29.7v32.1h48.6C89.9,177.6,95.7,173.2,95.7,165.1
			 M96,117.4V109c0-8.1-6.1-12.2-18.5-12.2H30v32.4h48.1C89.9,128.9,96,125.2,96,117.4"/>
		<rect id="Rectangle-path" x="140" y="108.7" class="st0" width="20" height="85.4"/>
		<path id="Shape_1_" class="st0" d="M236.4,122c-15.3,0-24.3,0.3-26.9,0.9c-5.2,1.4-7.8,5.5-7.8,11.6v59.1h-20.8v-63.1
			c0-15.3,10.7-23.2,32.4-23.2h23.2V122L236.4,122z"/>
		<path id="Shape_2_" class="st0" d="M277.5,194.1h-20V80h20V194.1L277.5,194.1z M349.3,194.1h-24.6l-42.6-37.9
			c-2.3-2-3.5-3.8-3.5-5.8s1.4-4.1,4.1-6.7l40.2-35h24l-46.9,41.7L349.3,194.1L349.3,194.1z"/>
		<path id="Shape_3_" class="st0" d="M470.6,97.1h-57.9c-9.6,0-15.3,1.7-17.7,5.2c-1.4,2-2,6.9-2,14.5c0,4.1,1.7,6.9,5.2,9.3
			c2.9,1.7,7.8,2.6,14.5,2.6h24c10.1,0,18.5,2,24.6,6.1c6.1,4.1,9.3,9.8,9.3,17.4v17.9c0,7.8-3.2,13.9-9.6,17.9
			c-6.4,4.1-14.8,6.4-25.8,6.4h-64.6v-16.5h57.9c9.6,0,15.6-2,17.9-5.8c1.2-2,1.4-6.9,1.4-15.3c0-7.8-6.4-11.6-18.8-11.6h-24
			c-9.8,0-17.9-2-24.3-5.8c-6.9-4.1-10.4-9.8-10.4-17.1v-17.7c0-7.8,3.8-14.2,11.3-18.8c5.2-3.5,13-4.9,23.2-4.9h65.7V97.1
			L470.6,97.1z"/>
		<path id="Shape_4_" class="st0" d="M511.4,108.7v53c0,4.3,1.4,8.1,4.3,10.7c2.3,2,6.9,3.2,13.6,3.2h21.4
			c11.9,0,17.7-4.6,17.7-13.6v-53.3h20v58.5c0,17.9-10.4,26.9-31.3,26.9H523c-20.8,0-31.3-9-31.3-26.9v-58.5H511.4L511.4,108.7z"/>
		<path id="Shape_5_" class="st0" d="M687.2,193.8v-54.1c0-8.7-5.5-13-16.8-13h-22.3c-11.3,0-17.1,4.3-17.1,13v54.1h-20v-59.3
			c0-17.4,10.1-26.1,30.4-26.1h35.3c20.3,0,30.1,8.7,30.1,26.1v59.3H687.2L687.2,193.8z"/>
		<rect id="Rectangle-path_1_" x="568.5" y="5.6" class="st0" width="20" height="85.4"/>
		<rect id="Rectangle-path_2_" x="530" y="5.6" class="st0" width="20" height="85.4"/>
		<rect id="Rectangle-path_3_" x="491.5" y="5.6" class="st0" width="20" height="85.4"/>
	</g>
</g>
</svg>
