<?xml version="1.0" encoding="UTF-8"?>
<svg width="108px" height="127px" viewBox="0 0 108 127" version="1.1" xmlns="http://www.w3.org/2000/svg" xmlns:xlink="http://www.w3.org/1999/xlink">
    <!-- Generator: Sketch 42 (36781) - http://www.bohemiancoding.com/sketch -->
    <title>gatsby-logo-G-favicon Copy 2@svg</title>
    <desc>Created with Sketch.</desc>
    <defs></defs>
    <g id="mockup" stroke="none" stroke-width="1" fill="none" fill-rule="evenodd">
        <g id="Pricing" transform="translate(-742.000000, -1176.000000)" fill-rule="nonzero" fill="#000000">
            <g id="Group-31" transform="translate(200.000000, 1167.000000)">
                <g id="Group-28" transform="translate(542.000000, 0.000000)">
                    <g id="Group-22">
                        <path d="M108,111.962792 C108,111.962792 108,115.587021 104.141757,115.587021 L77.4041265,115.606129 C65.1596181,124.725694 39.1896941,136.807366 17.6172244,135.417608 C16.3663519,135.336928 15.2842332,134.416692 17.2492301,133.750627 C19.9000205,132.852228 28.4260932,126.980183 30.0495791,115.59703 L3.85824266,115.576405 C3.85824266,115.576405 0,115.88032 0,111.941864 L0,12.6136129 C0,12.6136129 0.0110860193,9 3.85824266,9 L104.141757,9 C104.141757,9 108,9.01061578 108,12.6242286 L108,111.962792 Z M58.6661979,28.7798746 C67.867286,28.7798746 75.899107,31.8235716 82.7619688,37.9106621 L86.2124923,34.8481601 C78.4067029,27.7022209 69.2247075,24.1295547 58.6661979,24.1295547 C47.3159618,24.1295547 37.6532642,28.1465673 29.6777972,36.1808959 C21.7023301,44.2152245 17.7144426,53.8846872 17.7144426,65.1895872 C17.7144426,76.5703142 21.7023301,86.258582 29.6777972,94.2549971 C37.6532642,102.251716 47.3159618,106.249923 58.6661979,106.249923 C69.2247075,106.249923 78.2936871,102.60143 85.8731369,95.3044432 L85.8731369,72.4307651 L85.8737528,68.4058664 L57.8593821,68.4058664 L57.8593821,72.4307651 L81.4048553,72.4307651 L81.4048553,93.7163219 C74.8431636,99.0096551 67.2637138,101.656322 58.6661979,101.656322 C48.635814,101.656322 40.066629,98.1021572 32.958335,90.9941316 C25.8500411,83.8861059 22.296356,75.2845911 22.296356,65.1895872 C22.296356,55.1324968 25.8500411,46.5500904 32.958335,39.4420648 C40.066629,32.3337358 48.635814,28.7798746 58.6661979,28.7798746 Z" id="gatsby-logo-G-favicon-Copy-2"></path>
                    </g>
                </g>
            </g>
        </g>
    </g>
</svg>