<?xml version="1.0" encoding="UTF-8"?>
<svg width="60px" height="60px" viewBox="0 0 60 60" version="1.1" xmlns="http://www.w3.org/2000/svg" xmlns:xlink="http://www.w3.org/1999/xlink">
    <!-- Generator: Sketch 43.2 (39069) - http://www.bohemiancoding.com/sketch -->
    <title>Combined Shape</title>
    <desc>Created with Sketch.</desc>
    <defs></defs>
    <g id="Page-1" stroke="none" stroke-width="1" fill="none" fill-rule="evenodd">
        <path d="M30,60 C13.4314575,60 0,46.5685425 0,30 C0,13.4314575 13.4314575,0 30,0 C46.5685425,0 60,13.4314575 60,30 C60,46.5685425 46.5685425,60 30,60 Z M30,57 C44.9116882,57 57,44.9116882 57,30 C57,15.0883118 44.9116882,3 30,3 C15.0883118,3 3,15.0883118 3,30 C3,44.9116882 15.0883118,57 30,57 Z M33.12,47 L17.39,47 C17.225,47 17.06,47 16.895,46.835 C16.73,46.67 16.675,46.505 16.675,46.34 L16.675,14.66 C16.675,14.495 16.73,14.33 16.895,14.165 C17.06,14 17.225,13.945 17.39,13.945 L32.845,13.945 C36.42,13.945 39.17,14.77 41.095,16.42 C43.02,18.07 44.01,20.215 44.01,22.855 C44.01,25.605 43.02,27.75 40.985,29.29 L40.985,29.4 C43.9,31.105 45.385,33.745 45.385,37.32 C45.385,40.455 44.34,42.875 42.195,44.525 C40.05,46.175 37.025,47 33.12,47 Z M21.57,42.875 L33.01,42.875 C38.07,42.875 40.6,41.005 40.6,37.32 C40.6,33.635 38.07,31.82 33.01,31.82 L21.57,31.82 L21.57,42.875 Z M32.735,18.235 L21.57,18.235 L21.57,27.64 L33.835,27.64 C35.87,27.64 37.3,27.2 38.07,26.375 C38.84,25.55 39.225,24.395 39.225,22.91 C39.225,19.775 37.08,18.235 32.735,18.235 Z" id="Combined-Shape" fill="#000000"></path>
    </g>
</svg>