<svg id="Layer_1" data-name="Layer 1" xmlns="http://www.w3.org/2000/svg" viewBox="0 0 633.01 221.73"><title>builtinla</title><path d="M54.32,102.87q0-38,0-76c0-8.81,1.24-10,9.8-10.18,4.22-.08,8.45-0.09,12.67,0,7.83,0.2,9.18,1.48,9.27,9.17,0.12,9.44.24,18.89,0,28.32-0.15,5.68,1.82,8,7.78,7.81,13.66-.34,27.33-0.16,41-0.08,16.31,0.1,30.2,11.86,30.69,28,0.76,25.27.62,50.59-.21,75.86-0.45,13.76-11.33,23.32-24.86,23.46-25.84.26-51.68,0.18-77.53,0.1-7.24,0-8.58-1.48-8.6-8.94C54.28,154.55,54.33,128.71,54.32,102.87ZM134,127.22h0.11c0-7,.16-13.91,0-20.86-0.22-7.42-2.23-10.24-9.46-10.7a216.78,216.78,0,0,0-29,.11c-5.54.39-9.59,3.6-9.53,10.25,0.15,14.9.11,29.8,0,44.69,0,4.56,1.54,6.82,6.5,6.73,10.92-.22,21.85-0.2,32.77,0,6.07,0.1,8.58-2.93,8.62-8.6C134.08,141.62,134,134.42,134,127.22Z" transform="translate(-14.71 -16.58)"/><path d="M177.17,115.71c0-14.66-.1-29.32,0-44,0.08-8.73,1.4-9.91,10-10,5,0,9.94,0,14.91,0,7.67,0.08,9.07,1.37,9.1,9.19,0.08,22.36.18,44.72,0,67.08-0.18,20.74.5,19.38,19.1,19.24,5.47,0,10.93.05,16.4,0,8.51-.13,11.12-2.55,11.17-11.2,0.14-23.6.07-47.21,0.1-70.81,0-2.48,0-5,.18-7.45,0.23-3.82,2.26-6,6.16-6,6.71,0,13.48-.52,20.09.26,2.34,0.27,5.14,3.29,6.24,5.73s0.57,5.85.57,8.83c0,21.62.24,43.23-.08,64.85-0.15,10.39-1.25,20.77-2.07,31.14-0.62,7.76-10.54,16.08-17.22,16.22-25,.52-50.12.48-75.17,0.11-7.67-.11-18.14-11-18.32-18.87-0.43-18.11-.14-36.23-0.14-54.35h-1Z" transform="translate(-14.71 -16.58)"/><path d="M536,135.39c0-14.18-.11-28.36,0-42.53,0.19-19.45,12.92-29.95,31.13-30.8,17.12-.8,34.33-0.65,51.47,0,14,0.52,25.7,8.2,27.72,23a91.22,91.22,0,0,1,1.28,11.83q0.17,40.29,0,80.59c0,10.8-1.25,12-12,11.93-18.43-.1-19.39,2.87-19.24-19,0.12-17.91,0-35.82,0-53.72A84.15,84.15,0,0,0,616,107c-1-8.43-4.09-11.41-12.52-11.68-8-.25-15.92-0.26-23.87,0-8.77.3-12.15,3.7-12.22,12.54-0.17,22.88-.07,45.76-0.11,68.65,0,12.34-.52,12.86-12.44,12.88-20.54,0-18.92,1.49-18.94-18.94q0-17.54,0-35.07H536Z" transform="translate(-14.71 -16.58)"/><path d="M430.7,40.51c0,5.22.09,10.44,0,15.66-0.09,4.11,1.75,5.84,5.83,5.72,4.72-.14,9.45.12,14.16,0,5.88-.18,8.81,2.26,8.6,8.39-0.2,6-.09,11.93-0.05,17.89,0,4.65-2.38,6.84-6.86,7-4.22.1-8.45,0-12.67,0.18-7.66.32-9,1.62-9,9.47-0.07,23.86,0,47.72,0,71.58,0,2.24.67,4.88-.28,6.61-1.35,2.46-3.74,5.77-6,6a93,93,0,0,1-20.81,0c-2.33-.26-4.94-3.36-6.27-5.79-1.07-2-.48-4.86-0.48-7.34q0-72.32,0-144.64c0-2.73-.56-5.83.52-8.09,1.2-2.51,3.81-5.75,6.13-6,6.61-.82,13.38-0.46,20.08-0.23,4.9,0.17,6.9,3.47,7,8,0.12,5.22,0,10.44,0,15.66h0.13Z" transform="translate(-14.71 -16.58)"/><path d="M381.83,103c0,25.33,0,50.66,0,76,0,9.28-1.15,10.33-10.26,10.44-4.72.06-9.44-.09-14.15,0-5.66.1-8.16-2.78-8.14-8.23,0-1.49-.07-3-0.07-4.47q0-73.38,0-146.76c0-12.27,1-13.26,13.08-13.27,20.26,0,19.62-1.75,19.57,19.26C381.8,58.25,381.83,80.6,381.83,103Z" transform="translate(-14.71 -16.58)"/><path d="M335.33,126.4c0,18.15,0,36.3,0,54.45,0,7.87-1.14,8.93-9.16,9.13-5,.12-9.95-0.12-14.92,0-5.94.17-8.61-2.44-8.51-8.47,0.17-10.44,0-20.89,0-31.33q0-38.79,0-77.58c0-10.17.81-10.85,11.18-10.87,4.48,0,9,.17,13.42,0,5.76-.28,8.05,2.31,8,8C335.25,88.6,335.33,107.5,335.33,126.4Z" transform="translate(-14.71 -16.58)"/><path d="M490.22,126c0-17.62,0-35.24,0-52.86,0-9.52,1.8-11.2,11.37-11.27,4.22,0,8.44,0,12.66,0,5.21,0,7.74,2.67,7.79,7.82,0,2,.08,4,0.08,6q0,50.26,0,100.51c0,13-.24,13.16-13.5,13.2-3.23,0-6.46.07-9.68,0-7.14-.24-8.64-1.64-8.68-9C490.14,162.26,490.22,144.14,490.22,126Z" transform="translate(-14.71 -16.58)"/><path d="M335.34,223c0,15.31,0,15.31-15.49,15.31-17.13,0-17.13,0-17.12-16.88,0-15.8,0-15.71,16.06-15.85C338,205.42,335.2,206.49,335.34,223Z" transform="translate(-14.71 -16.58)"/><path d="M506.84,48.62c-16.64,0-16.65,0-16.63-17,0-2.23,0-4.46.07-6.69,0.18-5.4,2.92-8.21,8.41-8.2,5.21,0,10.41,0,15.62,0S522,19.44,522,24.53c0,4.71.14,9.42,0.05,14.13-0.16,8.57-1.49,9.85-10,10C510.31,48.64,508.57,48.62,506.84,48.62Z" transform="translate(-14.71 -16.58)"/><path d="M31.52,81.62c1.62,0,3.24.06,4.86,0a36.89,36.89,0,0,1,7.24.55,5.68,5.68,0,0,1,4.53,3.27,8.62,8.62,0,0,1,1,4.31,26.58,26.58,0,0,0,0,2.89,9.83,9.83,0,0,1-1.29,4.94,6.14,6.14,0,0,1-2.61,2.35,2.14,2.14,0,0,1-.9.19,0.7,0.7,0,0,1-.86-0.7,4,4,0,0,1-.05-0.69c0-.81,0-1.62,0-2.43a2.84,2.84,0,0,1,.87-2.15,4.12,4.12,0,0,0,.86-3.56c0-.34-0.18-0.67-0.24-1a3.08,3.08,0,0,0-2.49-2.48,11.65,11.65,0,0,1-2.51-.3c-0.42-.15-0.61.17-0.41,0.62a2.56,2.56,0,0,0,.36.58,7.12,7.12,0,0,1,1.46,2.84,4.54,4.54,0,0,1-.25,3.59,1.81,1.81,0,0,0-.24.64,5.73,5.73,0,0,1-2.45,3.62A8.71,8.71,0,0,1,35,100.45a16.07,16.07,0,0,1-6.76,0,5.49,5.49,0,0,1-1.84-.58,14.21,14.21,0,0,1-1.82-1.18,9.55,9.55,0,0,1-2.45-2.84,3.67,3.67,0,0,1-.36-1.2,25.42,25.42,0,0,1-.06-3.81,3.5,3.5,0,0,1,1-2.23A13.64,13.64,0,0,0,24,87.13a0.32,0.32,0,0,0-.18-0.54,4.77,4.77,0,0,0-.91-0.13,1,1,0,0,1-1.1-1.16c0-.81,0-1.62,0-2.43a1.06,1.06,0,0,1,1.28-1.24c0.27,0,.54,0,0.81,0h7.63Zm0,5.46a7.58,7.58,0,0,0-2.41.05,6.12,6.12,0,0,0-2.88,2.33,3.05,3.05,0,0,0-.27,1.9c0,0.08,0,.15,0,0.23a2.85,2.85,0,0,0,1.56,2.73,7.54,7.54,0,0,0,4.61,1.14A11.31,11.31,0,0,0,34,95c2.17-.45,2.72-1.78,3.19-3.59a3,3,0,0,0-.54-2.06,3.86,3.86,0,0,0-3.09-2.25A14,14,0,0,0,31.56,87.08Z" transform="translate(-14.71 -16.58)"/><path d="M32.3,122.53c1.62,0,3.24,0,4.86,0a5.58,5.58,0,0,0,3.2-.76c0.61-.37,1.08-0.14,1.11.54,0.05,1.27,0,2.54,0,3.82A1,1,0,0,1,41,127c-0.23.14-.48,0.25-0.7,0.4-0.62.44-.59,0.48-0.12,1.14a5.9,5.9,0,0,1,1.48,2.91,1.46,1.46,0,0,0,.2.54,3.4,3.4,0,0,1,0,3.3,0.84,0.84,0,0,0-.14.31,4.32,4.32,0,0,1-1.32,2.6,2.42,2.42,0,0,1-1.36,1,12.69,12.69,0,0,1-2.44.64,7.75,7.75,0,0,1-3.57-.72,2.73,2.73,0,0,1-.82-0.62,16.63,16.63,0,0,1-1.91-2.84,0.44,0.44,0,0,1-.09-0.21c0-1.18-.56-2.25-0.59-3.4a13.28,13.28,0,0,0-.67-3.39,1.39,1.39,0,0,0-1.13-1,1.71,1.71,0,0,0-1.7.77,4.56,4.56,0,0,0,.12,4.81,3.58,3.58,0,0,0,1.42.93,0.81,0.81,0,0,1,.52.8c0,1.08,0,2.16,0,3.24a0.84,0.84,0,0,1-1.14.92,6.51,6.51,0,0,1-3.85-2.29,4.3,4.3,0,0,1-.56-0.73,5.32,5.32,0,0,1-.87-2.57c-0.06-1.85-.07-3.69,0-5.55A5.79,5.79,0,0,1,23.6,124a12.69,12.69,0,0,1,1.9-1.27,1.69,1.69,0,0,1,1-.16c1,0,1.93-.07,2.89-0.08s1.93,0,2.89,0h0Zm1.52,5a4.32,4.32,0,0,0-1.29.1c-0.23.09-.47,0.28-0.34,0.51,0.4,0.73.23,1.6,0.6,2.33a3.77,3.77,0,0,1,.4,1.54,3.54,3.54,0,0,0,2.32,2.72,0.83,0.83,0,0,0,.78-0.08,6.45,6.45,0,0,0,1-.88A4.11,4.11,0,0,0,33.83,127.56Z" transform="translate(-14.71 -16.58)"/><path d="M33.16,42c0,1.81,0,3.62,0,5.43,0,1,.28,1.17,1.2,1a5.66,5.66,0,0,0,1.32-.4,3.18,3.18,0,0,0,1.75-1.87,5,5,0,0,0-.28-4.33,3.34,3.34,0,0,0-.85-0.91,1.2,1.2,0,0,1-.51-1c0-1.08-.05-2.16,0-3.23,0-.83.5-1.06,1.26-0.7a8.21,8.21,0,0,1,3.89,3.73,5.11,5.11,0,0,1,.68,2.15,1.32,1.32,0,0,0,.16.66c0.64,0.91.37,1.93,0.41,2.91a1.17,1.17,0,0,1-.26.75,1.82,1.82,0,0,0-.35,1,6.37,6.37,0,0,1-2,3.9,7.65,7.65,0,0,1-3.43,2,0.9,0.9,0,0,0-.22.05c-1.51,1-3.2.61-4.83,0.66-0.46,0-.92,0-1.39,0a2.33,2.33,0,0,1-.8-0.07c-1.53-.67-3.2-1.06-4.53-2.17a11.46,11.46,0,0,1-2-2.62,5.7,5.7,0,0,1-.77-3.08,38,38,0,0,1,.11-4.27,2.93,2.93,0,0,1,.64-1.45,7.53,7.53,0,0,1,3.29-3.25,10.47,10.47,0,0,1,3-1,7.34,7.34,0,0,0,2.15-.39,1.44,1.44,0,0,1,.45-0.08c1.23-.05,1.93-0.1,1.85,1.69s0,3.31,0,5h0Zm-3.78,2.42h0c0-.92,0-1.84,0-2.76a0.75,0.75,0,0,0-1.18-.73,4.15,4.15,0,0,0-2.34,2.32A3.89,3.89,0,0,0,27.67,48a1,1,0,0,0,1.7-1C29.4,46.13,29.38,45.28,29.38,44.43Z" transform="translate(-14.71 -16.58)"/><path d="M21.68,173.54c0-.81,0-1.62,0-2.43a7.62,7.62,0,0,1,3-5.57,10.25,10.25,0,0,1,6.75-2.44,11.16,11.16,0,0,1,4.75.76A8,8,0,0,1,41,168.36a6.92,6.92,0,0,1,.65,2.18,0.8,0.8,0,0,0,.12.44c0.69,0.89.39,1.92,0.44,2.9a1.18,1.18,0,0,1-.23.76,2.33,2.33,0,0,0-.36,1.2,7.66,7.66,0,0,1-2.52,4.73,8.69,8.69,0,0,1-3,1.7c-2.23.92-4.56,0.71-6.84,0.5a8.74,8.74,0,0,1-4.69-2.07A11.41,11.41,0,0,1,23.2,179,15.26,15.26,0,0,1,22,177.08a1.66,1.66,0,0,1-.23-0.77c-0.05-.92-0.12-1.85-0.18-2.77h0.08Zm16-.59a5.17,5.17,0,0,0-.84-2.29,5.27,5.27,0,0,0-3.52-1.92,12.16,12.16,0,0,0-3.54.06,4.86,4.86,0,0,0-2.66,1.25,3.2,3.2,0,0,0-1.24,2.46c0,1.2-.08,2.37,1,3.24a3.87,3.87,0,0,1,.49.48,3.19,3.19,0,0,0,2.35,1.22,5.55,5.55,0,0,1,1,.17,4.09,4.09,0,0,0,1.94,0,4.52,4.52,0,0,1,1.14-.17C35.56,177.48,37.67,175.16,37.69,173Z" transform="translate(-14.71 -16.58)"/><path d="M33.17,68.73c0,1.81,0,3.62,0,5.43,0,0.81.17,1,1,.86A4,4,0,0,0,36.61,74a4.88,4.88,0,0,0,1-4.6,3.41,3.41,0,0,0-1.28-1.83,1.08,1.08,0,0,1-.5-1c0-1.16,0-2.31,0-3.46a0.65,0.65,0,0,1,1-.66,7.62,7.62,0,0,1,3.79,3.17,5.19,5.19,0,0,1,1,2.74,0.75,0.75,0,0,0,.1.45,4.86,4.86,0,0,1,.48,2.91A2.46,2.46,0,0,1,41.88,73a1.46,1.46,0,0,0-.25.64,7,7,0,0,1-1.05,2.62,4.75,4.75,0,0,1-2.66,2.56c-0.35.14-.6,0.44-1,0.58a16,16,0,0,1-6,.72c-0.54,0-1.07-.12-1.61-0.16A8.08,8.08,0,0,1,23,76.35a6.49,6.49,0,0,1-1.34-3.67c0-1,0-1.93-.05-2.89-0.12-2.47,1.23-4.19,2.94-5.68a8.48,8.48,0,0,1,2.75-1.33,14.53,14.53,0,0,1,4.08-.66,4.82,4.82,0,0,1,.58,0,1,1,0,0,1,1.19,1.2c0,1,0,2,0,3q0,1.21,0,2.43h0Zm-3.79,2.46h0c0-1,0-1.92,0-2.88s-0.44-1.06-1.31-.74a3.55,3.55,0,0,0-2.35,2.55,4.26,4.26,0,0,0,.59,3.3,2.94,2.94,0,0,0,1.86,1.25c0.82,0.21,1.17,0,1.21-.82S29.37,72.07,29.37,71.18Z" transform="translate(-14.71 -16.58)"/><path d="M31.55,120H23.68c-0.31,0-.62,0-0.92,0a0.87,0.87,0,0,1-.95-0.94c0-1,0-2,0-3a1,1,0,0,1,1-1.06c0.15,0,.31,0,0.46-0.05a0.52,0.52,0,0,0,.52-0.38,0.44,0.44,0,0,0-.26-0.47,7.44,7.44,0,0,1-1.56-2,1.69,1.69,0,0,1-.24-0.88,29,29,0,0,1-.08-3.7,4.3,4.3,0,0,1,1.45-3.12,7.35,7.35,0,0,1,1.54-1.33,6.24,6.24,0,0,1,1.41-.45,29.27,29.27,0,0,1,7.47-.48c2,0,4.09,0,6.13,0a5.66,5.66,0,0,1,1,.07,0.87,0.87,0,0,1,.78.87c0,1.19,0,2.39,0,3.58a0.9,0.9,0,0,1-.95,1,9,9,0,0,1-.92,0c-3.43,0-6.86.06-10.29,0a3.63,3.63,0,0,0-2.92,1.32,2.87,2.87,0,0,0-.62,2.26,3.61,3.61,0,0,0,2.6,3.14,10.15,10.15,0,0,0,3.62.56h7.63c0.35,0,.7,0,1,0a0.81,0.81,0,0,1,.8.82q0,1.68,0,3.35a0.82,0.82,0,0,1-.79.84,9.06,9.06,0,0,1-1,0h-8.1Z" transform="translate(-14.71 -16.58)"/><path d="M21.59,153.45c0-.84.1-1.65,0.12-2.46a5.71,5.71,0,0,1,2.54-4.51,9.29,9.29,0,0,1,2-1.11,2,2,0,0,1,.9-0.17,0.78,0.78,0,0,1,.91.82c0,1.16,0,2.31,0,3.47a1.14,1.14,0,0,1-.94,1.05,2.09,2.09,0,0,0-1.48,1.74,5.05,5.05,0,0,0,.46,3.91,1.48,1.48,0,0,0,2,.11,3.61,3.61,0,0,0,.67-1.07,7.88,7.88,0,0,0,.53-2,31.88,31.88,0,0,1,.79-3.94,8.4,8.4,0,0,1,1.62-3,4.08,4.08,0,0,1,4-1.72,6,6,0,0,1,5,3.17,4.47,4.47,0,0,1,.77,2.36,1.25,1.25,0,0,0,.14.56,6.24,6.24,0,0,1,0,5,2,2,0,0,0-.18.66,7,7,0,0,1-1.95,4.42,4.94,4.94,0,0,1-3.41,1.66,0.68,0.68,0,0,1-.88-0.79c0-1.16,0-2.31,0-3.47a1.48,1.48,0,0,1,.89-1.26,3.51,3.51,0,0,0,1.64-3.22q0-.87,0-1.73a2.84,2.84,0,0,0-.44-1.29,1.39,1.39,0,0,0-1.41-.79A1.51,1.51,0,0,0,34.63,151a2.21,2.21,0,0,1-.57,1.23,0.49,0.49,0,0,0-.13.31c0,1.17-.61,2.24-0.69,3.38a8.93,8.93,0,0,1-1.82,4.5,3.09,3.09,0,0,1-2.1,1.29,6.57,6.57,0,0,1-4.28-.46,7,7,0,0,1-1.7-1.51,5.23,5.23,0,0,1-1.64-3.66C21.7,155.18,21.63,154.3,21.59,153.45Z" transform="translate(-14.71 -16.58)"/><path d="M21.59,25.31c0-.81.06-1.62,0.12-2.42,0.18-2.75,1.82-4.45,4.17-5.52,1.52-.69,2.19-0.15,2.19,1.53,0,0.69,0,1.39,0,2.08a1.18,1.18,0,0,1-.65,1.11A4.23,4.23,0,0,0,26,27.8a1.25,1.25,0,0,0,1.92.44,2.34,2.34,0,0,0,1-1.57c0.17-1.18.58-2.3,0.73-3.49a6.16,6.16,0,0,0,.26-0.88c-0.07-1.62,1-2.8,1.64-4.1a3.08,3.08,0,0,1,2.56-1.55,10.49,10.49,0,0,1,2.54,0,5.44,5.44,0,0,1,4.17,3c0.47,0.91.54,1.91,0.91,2.8a8,8,0,0,1,.45,2.93,4,4,0,0,1-.45,2.34,1.09,1.09,0,0,0-.17.55,5.82,5.82,0,0,1-.63,2.18,4.78,4.78,0,0,1-3.18,3.18,2.18,2.18,0,0,0-.68.42,1.56,1.56,0,0,1-.85.32,0.69,0.69,0,0,1-.88-0.77c0-.54,0-1.08,0-1.62,0-.69,0-1.39,0-2.08a1.07,1.07,0,0,1,.76-1.15,2.52,2.52,0,0,0,1.62-2.07,9.45,9.45,0,0,0,.13-2.88,3.81,3.81,0,0,0-.51-1.52,1.31,1.31,0,0,0-1.3-.77,1.6,1.6,0,0,0-1.37,1.08,36.84,36.84,0,0,0-1.55,5.85A7,7,0,0,1,31.59,32a5,5,0,0,1-3.54,1.61,5.86,5.86,0,0,1-5.4-2.86,4.72,4.72,0,0,1-.95-2.66C21.71,27.16,21.6,26.24,21.59,25.31Z" transform="translate(-14.71 -16.58)"/><path d="M28.05,189.4H16.38c-1.64,0-1.66,0-1.66-1.69,0-.77,0-1.54,0-2.31a0.82,0.82,0,0,1,.91-1,6.76,6.76,0,0,1,.81,0H39.68c1.74,0,1.82.08,1.82,1.83,0,0.65,0,1.31,0,2a1,1,0,0,1-1.19,1.18c-0.35,0-.69,0-1,0H28.05Z" transform="translate(-14.71 -16.58)"/><path d="M28,55.19H39.71c1.69,0,1.78.09,1.78,1.75,0,0.73,0,1.47,0,2.2a1,1,0,0,1-.95,1.09,5.71,5.71,0,0,1-1,.07h-23c-1.67,0-1.77-.12-1.78-1.77,0-.81,0-1.62,0-2.43s0.19-.84.93-0.89c0.35,0,.69,0,1,0H28Z" transform="translate(-14.71 -16.58)"/></svg>