<?xml version="1.0" encoding="utf-8"?>
<!-- Generator: Adobe Illustrator 19.2.1, SVG Export Plug-In . SVG Version: 6.00 Build 0)  -->
<svg version="1.1" id="Layer_1" xmlns="http://www.w3.org/2000/svg" xmlns:xlink="http://www.w3.org/1999/xlink" x="0px" y="0px"
	 viewBox="0 0 246.3 143" style="enable-background:new 0 0 246.3 143;" xml:space="preserve">
<style type="text/css">
	.st0{fill:#020202;}
</style>
<path class="st0" d="M4.3,122.8c0-0.2,0.2-0.3,0.3-0.3h2c0.2,0,0.3,0.2,0.3,0.3v5.7h6.9v-5.7c0-0.2,0.2-0.3,0.3-0.3h2
	c0.2,0,0.3,0.2,0.3,0.3V137c0,0.2-0.2,0.3-0.3,0.3h-1.7c-0.2,0-0.3-0.2-0.3-0.3v-5.9H7.2v5.9c0,0.2-0.2,0.3-0.3,0.3h-2
	c-0.2,0-0.3-0.2-0.3-0.3v-14.1H4.3z M21.6,136.8l6.6-14.3c0-0.2,0.2-0.2,0.3-0.2h0.3c0.2,0,0.3,0.2,0.3,0.2l6.6,14.3
	c0.2,0.3,0,0.5-0.3,0.5h-1.8c-0.3,0-0.5-0.2-0.7-0.5l-1-2.4h-6.4l-1,2.4c-0.2,0.2-0.3,0.5-0.7,0.5H22
	C21.6,137.3,21.5,137,21.6,136.8z M30.9,132.3l-2.2-4.7l0,0l-2,4.7H30.9z M40.4,122.8c0-0.2,0.2-0.3,0.3-0.3h2
	c0.2,0,0.3,0.2,0.3,0.3V137c0,0.2-0.2,0.3-0.3,0.3h-2c-0.2,0-0.3-0.2-0.3-0.3V122.8z M49.8,122.8c0-0.2,0.2-0.3,0.3-0.3h6
	c2.5,0,4.7,2,4.7,4.5c0,2-1.3,3.5-3.2,4.4l3,5.2c0.2,0.3,0,0.7-0.3,0.7h-2.2c-0.2,0-0.3-0.2-0.3-0.2l-2.9-5.7h-2.4v5.4
	c0,0.2-0.2,0.3-0.3,0.3h-2c-0.2,0-0.3-0.2-0.3-0.3v-13.9H49.8z M56.2,129.2c1.2,0,2.2-1,2.2-2.2c0-1.2-1-2-2.2-2h-3.5v4.2H56.2z
	 M66.8,122.8c0-0.2,0.2-0.3,0.3-0.3h5c4,0,7.6,3.4,7.6,7.4c0,4.2-3.4,7.6-7.6,7.6h-5c-0.2,0-0.3-0.2-0.3-0.3V122.8z M72,134.6
	c2.9,0,4.9-2,4.9-4.9c0-2.7-2-4.9-4.9-4.9h-2.4v9.7H72z M92,122.2c4.2,0,7.7,3.4,7.7,7.7c0,4.2-3.4,7.7-7.7,7.7
	c-4.2,0-7.7-3.4-7.7-7.7C84.3,125.5,87.6,122.2,92,122.2z M92,134.8c2.7,0,4.9-2.2,4.9-4.9c0-2.7-2.2-4.9-4.9-4.9s-4.9,2.2-4.9,4.9
	C87.1,132.6,89.3,134.8,92,134.8z M112.7,122.8c0-0.2,0.2-0.3,0.3-0.3h5c2.7,0,4.7,2.2,4.7,4.7c0,2.7-2.2,4.9-4.7,4.9h-2.7v5
	c0,0.2-0.2,0.3-0.3,0.3h-2c-0.2,0-0.3-0.2-0.3-0.3C112.7,137.1,112.7,122.8,112.7,122.8z M118,129.2c1.2,0,2.2-1,2.2-2.2
	c0-1.2-1-2-2.2-2h-2.5v4.2H118z M128.1,122.8c0-0.2,0.2-0.3,0.3-0.3h6.2c2.5,0,4.7,2,4.7,4.5c0,2-1.3,3.5-3.2,4.4l2.9,5.4
	c0.2,0.3,0,0.7-0.3,0.7h-2.2c-0.2,0-0.3-0.2-0.3-0.2l-2.9-5.7H131v5.4c0,0.2-0.2,0.3-0.3,0.3h-2c-0.2,0-0.3-0.2-0.3-0.3v-14.1H128.1
	z M134.3,129.2c1.2,0,2.2-1,2.2-2.2c0-1.2-1-2-2.2-2h-3.5v4.2H134.3z M151.6,122.2c4.2,0,7.7,3.4,7.7,7.7c0,4.2-3.4,7.7-7.7,7.7
	c-4.2,0-7.7-3.4-7.7-7.7C144.1,125.5,147.4,122.2,151.6,122.2z M151.6,134.8c2.7,0,4.9-2.2,4.9-4.9c0-2.7-2.2-4.9-4.9-4.9
	s-4.9,2.2-4.9,4.9C146.8,132.6,148.9,134.8,151.6,134.8z M164.9,122.8c0-0.2,0.2-0.3,0.3-0.3h5c4,0,7.6,3.4,7.6,7.4
	c0,4.2-3.4,7.6-7.6,7.6h-5c-0.2,0-0.3-0.2-0.3-0.3V122.8z M170.1,134.6c2.9,0,4.9-2,4.9-4.9c0-2.7-2-4.9-4.9-4.9h-2.4v9.7H170.1z
	 M183.2,122.8c0-0.2,0.2-0.3,0.3-0.3h2c0.2,0,0.3,0.2,0.3,0.3v8.7c0,1.8,1.2,3.2,3,3.2c1.8,0,3-1.3,3-3.2v-8.7
	c0-0.2,0.2-0.3,0.3-0.3h2c0.2,0,0.3,0.2,0.3,0.3v8.7c0,3.2-2.5,5.9-5.9,5.9c-3.4,0-5.9-2.7-5.9-5.9v-8.7H183.2z M208.2,122.2
	c2.2,0,3.7,0.7,5.2,2c0.2,0.2,0.2,0.5,0,0.7l-1.3,1.3c-0.2,0.2-0.3,0.2-0.5,0c-0.8-0.8-2-1.2-3.4-1.2c-2.7,0-4.7,2.4-4.7,5
	c0,2.7,2,4.9,4.7,4.9c1.3,0,2.4-0.5,3.2-1.2c0.2-0.2,0.3-0.2,0.5,0l1.3,1.3c0.2,0.2,0.2,0.5,0,0.5c-1.5,1.3-3.2,2-5.2,2
	c-4.2,0-7.7-3.4-7.7-7.7C200.5,125.5,203.9,122.2,208.2,122.2z M221,124.9h-3.2c-0.2,0-0.3-0.2-0.3-0.3v-1.7c0-0.2,0.2-0.3,0.3-0.3
	h9.2c0.2,0,0.3,0.2,0.3,0.3v1.7c0,0.2-0.2,0.3-0.3,0.3h-3.4v11.9c0,0.2-0.2,0.3-0.3,0.3h-2c-0.2,0-0.3-0.2-0.3-0.3L221,124.9
	L221,124.9z M231.6,135.3l0.8-1.3c0.2-0.3,0.5-0.3,0.7-0.2c0.2,0,1.8,1.3,3.2,1.3c1.2,0,2-0.7,2-1.7s-0.8-1.8-2.7-2.5
	c-2-0.8-4-2-4-4.5c0-1.8,1.3-4,4.9-4c2.2,0,3.9,1.2,4.2,1.5c0.2,0.2,0.3,0.5,0.2,0.7l-0.8,1.2c-0.2,0.3-0.5,0.5-0.7,0.3
	c-0.2-0.2-1.8-1.2-3-1.2s-1.8,0.8-1.8,1.5c0,1,0.8,1.7,2.5,2.4c2,0.8,4.5,2,4.5,4.9c0,2.2-1.8,4.2-4.9,4.2c-2.7,0-4.2-1.2-4.7-1.7
	C231.4,135.6,231.4,135.6,231.6,135.3z M189.6,15.2c0.2,2.7,0.3,5,0.3,6.9v55.8c0,1.2,0,2.7-0.2,4.2c-0.2,1.7-0.3,3.5-0.5,5.7
	c0,0.3,0.2,0.8,0.3,1.2c0.3,0.3,0.7,0.5,1,0.5h14.3c6,0,11.1-0.7,15.1-2c4.2-1.3,7.6-3.7,10.1-7.1c2.5-3.4,4.2-7.7,5.2-13.4
	c1-5.4,1.5-12.4,1.5-20.7s-0.7-14.9-2-20c-1.3-5.2-3.5-9.2-6.4-12.3c-2.9-2.9-6.6-4.9-10.7-5.7C213.4,7.5,208.6,7,203,7h-12.9
	c-0.5,0-0.8,0.2-1.2,0.5s-0.3,0.8-0.3,1.2C189.1,10.3,189.4,12.5,189.6,15.2z M205.9,72.1V32.7c0-4.9,0.2-7.1,0.2-8.1h0.8
	c2.9,0,5.2,0.3,6.9,1c1.5,0.5,2.7,1.5,3.5,3c0.8,1.5,1.5,3.7,1.8,6.6c0.3,2.9,0.5,6.7,0.5,11.3c0,5.4-0.2,9.9-0.5,13.4
	c-0.3,3.4-1,6-1.8,7.9c-0.8,1.7-2,2.9-3.5,3.5c-1.7,0.7-3.9,1-6.6,1h-1.3V72.1z M120.9,6.8c0.2,0.5,0.2,1,0,1.5
	c-0.5,0.8-1.3,2.7-2.2,5.2c-1,2.5-2.4,6.2-4,11.3c-1.7,4.9-4,11.3-6.7,18.8c-2.7,7.4-6.2,16.6-10.4,27.2v20.5c0,3.2,0.2,6.4,0.3,9.4
	c0.2,3,0.5,6.2,0.8,9.2c0,0.3,0,0.8-0.3,1.2c-0.3,0.3-0.7,0.5-1,0.5h-18c-0.5,0-0.8-0.2-1.2-0.5c-0.3-0.3-0.3-0.7-0.3-1.2
	c1.2-7.9,1.7-14.4,1.7-19.5V72.8C75.4,60.4,72,50.1,69.5,42.2c0,0-5.2-15.8-6.4-19.3c-1.5-4.7-2.9-8.2-3.5-10.4
	c-1-2.5-1.5-3.7-1.8-4c-0.5-0.5-0.5-1.2-0.3-1.7C57.6,6.3,58.1,6,58.7,6h18.8c0.8,0,1.5,0.7,1.5,1.5c0,0.7,0.2,2.2,0.8,5.7
	c0.7,3,1.5,6.6,2.5,10.9s2.2,9.2,3.5,14.3c1,3.7,2,7.7,3,11.9c1.3-4.4,2.7-8.6,3.9-12.4c1.7-5.4,3.2-10.2,4.4-14.4
	c1.2-4.2,2.2-7.7,2.9-10.6c0.7-2.9,1-4.7,1-5.7c0-0.3,0.2-0.8,0.5-1c0.3-0.3,0.7-0.5,1-0.5c0,0,0,0,17,0.5
	C120,6.1,120.6,6.3,120.9,6.8z M240.5,96c-0.3-0.2-0.7-0.3-1-0.3h-0.2c-2.2,0.3-4.5,0.5-7.2,0.5h-43.2c-3,0-5.2-0.5-6.2-1.2
	s-1.5-2.4-1.5-4.7c0-6.4-1.2-11.6-3.5-15.1c-1.8-2.7-4-4.7-6.9-6.2c3.5-2,6.4-5.2,8.2-9.4c2.5-5.2,3.7-11.9,3.7-20
	c0-5.2-0.5-9.7-1.7-13.9s-2.9-7.7-5.4-10.6c-2.4-2.7-5.7-4.9-9.7-6.4c-3.9-1.5-8.7-2.2-14.4-2.2h-13.1c-4.5,0-8.9-0.2-12.9-0.5
	c0,0,0,0-0.2,0c-0.3,0-0.8,0.2-1,0.5c-0.3,0.3-0.5,0.8-0.3,1.2c0.3,1.3,0.3,3,0.5,4.9c0.2,2,0.2,4.4,0.2,6.7v80.3
	c0,3.5-0.5,7.2-1.3,10.9c-0.2,0.5,0,0.8,0.3,1.2s0.7,0.5,1.2,0.5h17.3c0.5,0,0.8-0.2,1.2-0.5s0.3-0.7,0.3-1.2
	c-0.5-3.7-0.8-7.7-0.8-12.3V86.2c0-3.4,0.3-9.1,2.9-9.1h4.5c5.4,0,9.1,1,10.9,3.2s2.9,5.2,2.9,9.4c0,7.2,1.5,12.9,4.7,16.8
	c3.2,4,8.1,6,14.3,6h47.9c1.3,0,2.7,0,4,0.2c1.5,0.2,3,0.3,4.5,0.5h0.2c0.3,0,0.7-0.2,1-0.3c0.3-0.3,0.5-0.7,0.5-1V97
	C241,96.6,240.6,96.3,240.5,96z M165.4,40.2c0,7.6-1.3,13.1-4.2,16.3c-2.7,3.2-6.2,4.7-10.7,4.7h-8.4c-0.2-0.3-0.2-0.8-0.3-1.2V32.7
	c0-6.2,1.3-9.4,4.2-9.4h5.5c2.5,0,4.7,0.3,6.6,0.8c1.7,0.5,3.2,1.3,4.2,2.5c1.2,1.2,2,2.9,2.5,5C165.2,34,165.4,36.9,165.4,40.2z
	 M50.7,66.8c3.4-1.8,5.9-4.5,7.7-7.9c2.4-4.4,3.5-10.7,3.5-18.8c0-5-0.5-9.7-1.5-13.9c-1-4.2-2.9-7.7-5.4-10.7
	c-2.5-2.9-5.7-5-9.7-6.7c-3.9-1.5-8.7-2.4-14.4-2.4H18.9C14.4,6.3,10,6.1,6,5.8c0,0,0,0-0.2,0C5.5,5.8,5,6,4.8,6.3
	c-0.3,0.5-0.5,1-0.5,1.3c0.3,1.3,0.3,3,0.5,4.9C5,14.5,5,16.7,5,19.2V100c0,3.5-0.5,7.2-1.3,10.9c0,0.5,0,1,0.3,1.3s0.7,0.5,1.2,0.5
	h29.7c5,0,9.4-0.7,12.8-2.2c3.5-1.5,6.4-3.4,8.6-5.7c2.2-2.2,3.7-4.9,4.7-7.6c1-2.7,1.5-5.5,1.5-8.2c0-6.7-1.5-12.3-4.4-16.1
	C55.9,70.3,53.4,68.1,50.7,66.8z M43.6,50.3c-0.7,2.4-1.7,4.2-2.9,5.5c-1.2,1.3-2.7,2.2-4.4,2.9c-1.8,0.5-3.9,0.8-6.2,0.8h-7.9
	c-0.2-0.3-0.2-0.8-0.3-1.2V32.7c0-6.2,1.3-9.4,4.2-9.4h4.4c4.9,0,8.4,1.2,10.6,3.5c2.2,2.4,3.4,7.1,3.4,13.8
	C44.6,44.6,44.3,47.9,43.6,50.3z M23,85.1c0-3.4,0.3-6,1-8.1c0.8-2.4,1.7-2.4,1.8-2.4H32c2.4,0,4.4,0.3,6,1c1.7,0.7,3,1.7,4.2,2.7
	c1,1.2,1.8,2.5,2.5,4c0.5,1.5,0.8,3.2,0.8,4.9c0,3.4-1,5.9-3,7.7c-2,1.8-5,2.9-8.7,2.9h-9.7c-0.7,0-1,0-1-1.2V85.1H23z"/>
</svg>
