<?xml version="1.0" encoding="UTF-8"?>
<svg width="77px" height="78px" viewBox="0 0 77 78" version="1.1" xmlns="http://www.w3.org/2000/svg" xmlns:xlink="http://www.w3.org/1999/xlink">
    <!-- Generator: Sketch 42 (36781) - http://www.bohemiancoding.com/sketch -->
    <title>Combined Shape</title>
    <desc>Created with Sketch.</desc>
    <defs></defs>
    <g id="Page-7" stroke="none" stroke-width="1" fill="none" fill-rule="evenodd">
        <path d="M38.5000229,0.708684375 C48.9280229,0.708684375 50.2350229,0.753684375 54.3300229,0.939684375 C58.4170229,1.12668437 61.2080229,1.77568437 63.6520229,2.72468437 C66.1770229,3.70568437 68.3180229,5.01968437 70.4520229,7.15368437 C72.5860229,9.28768437 73.9000229,11.4296844 74.8800229,13.9536844 C75.8300229,16.3966844 76.4790229,19.1886844 76.6660229,23.2756844 C76.8520229,27.3706844 76.8970229,28.6776844 76.8970229,39.1056844 C76.8970229,49.5346844 76.8520229,50.8416844 76.6660229,54.9376844 C76.4790229,59.0236844 75.8300229,61.8146844 74.8800229,64.2576844 C73.9000229,66.7836844 72.5860229,68.9246844 70.4520229,71.0586844 C68.3180229,73.1936844 66.1770229,74.5066844 63.6520229,75.4886844 C61.2080229,76.4366844 58.4170229,77.0856844 54.3300229,77.2716844 C50.2350229,77.4586844 48.9280229,77.5026844 38.5000229,77.5026844 C28.0710229,77.5026844 26.7640229,77.4586844 22.6690229,77.2716844 C18.5820229,77.0856844 15.7910229,76.4366844 13.3480229,75.4886844 C10.8220229,74.5066844 8.68102286,73.1936844 6.54702286,71.0586844 C4.41302286,68.9246844 3.09902286,66.7836844 2.11902286,64.2576844 C1.16902286,61.8146844 0.520022862,59.0236844 0.334022862,54.9376844 C0.147022862,50.8416844 0.103022862,49.5346844 0.103022862,39.1056844 C0.103022862,28.6776844 0.147022862,27.3706844 0.334022862,23.2756844 C0.520022862,19.1886844 1.16902286,16.3966844 2.11902286,13.9536844 C3.09902286,11.4296844 4.41302286,9.28768437 6.54702286,7.15368437 C8.68102286,5.01968437 10.8220229,3.70568437 13.3480229,2.72468437 C15.7910229,1.77568437 18.5820229,1.12668437 22.6690229,0.939684375 C26.7640229,0.753684375 28.0710229,0.708684375 38.5000229,0.708684375 Z M63.6040229,18.6096844 C63.6040229,21.1546844 61.5410229,23.2166844 58.9970229,23.2166844 C56.4510229,23.2166844 54.3880229,21.1546844 54.3880229,18.6096844 C54.3880229,16.0646844 56.4510229,14.0026844 58.9970229,14.0026844 C61.5410229,14.0026844 63.6040229,16.0646844 63.6040229,18.6096844 Z M38.5000229,19.3886844 C49.3890229,19.3886844 58.2170229,28.2156844 58.2170229,39.1066844 C58.2170229,49.9956844 49.3890229,58.8236844 38.5000229,58.8236844 C27.6110229,58.8236844 18.7820229,49.9956844 18.7820229,39.1066844 C18.7820229,28.2156844 27.6110229,19.3886844 38.5000229,19.3886844 Z M38.5000229,51.9056844 C45.5690229,51.9056844 51.2990229,46.1756844 51.2990229,39.1066844 C51.2990229,32.0376844 45.5690229,26.3076844 38.5000229,26.3076844 C31.4310229,26.3076844 25.7010229,32.0376844 25.7010229,39.1066844 C25.7010229,46.1756844 31.4310229,51.9056844 38.5000229,51.9056844 Z M38.5000229,7.62768437 C28.2470229,7.62768437 27.0330229,7.66668437 22.9830229,7.85068437 C19.2400229,8.02268437 17.2060229,8.64668437 15.8540229,9.17368437 C14.0620229,9.86968437 12.7820229,10.7016844 11.4390229,12.0456844 C10.0960229,13.3896844 9.26302286,14.6686844 8.56702286,16.4606844 C8.04102286,17.8136844 7.41502286,19.8466844 7.24402286,23.5906844 C7.06002286,27.6396844 7.02102286,28.8536844 7.02102286,39.1056844 C7.02102286,49.3586844 7.06002286,50.5726844 7.24402286,54.6226844 C7.41502286,58.3656844 8.04102286,60.3986844 8.56702286,61.7516844 C9.26302286,63.5436844 10.0960229,64.8236844 11.4390229,66.1666844 C12.7820229,67.5096844 14.0620229,68.3426844 15.8540229,69.0386844 C17.2060229,69.5646844 19.2400229,70.1906844 22.9830229,70.3616844 C27.0320229,70.5456844 28.2460229,70.5846844 38.5000229,70.5846844 C48.7530229,70.5846844 49.9680229,70.5456844 54.0160229,70.3616844 C57.7590229,70.1906844 59.7930229,69.5646844 61.1450229,69.0386844 C62.9370229,68.3426844 64.2170229,67.5096844 65.5600229,66.1666844 C66.9030229,64.8236844 67.7360229,63.5436844 68.4320229,61.7516844 C68.9590229,60.3986844 69.5840229,58.3656844 69.7550229,54.6226844 C69.9390229,50.5726844 69.9780229,49.3586844 69.9780229,39.1056844 C69.9780229,28.8536844 69.9390229,27.6396844 69.7550229,23.5896844 C69.5840229,19.8466844 68.9590229,17.8136844 68.4320229,16.4606844 C67.7360229,14.6686844 66.9030229,13.3896844 65.5600229,12.0456844 C64.2170229,10.7016844 62.9370229,9.86968437 61.1450229,9.17368437 C59.7930229,8.64668437 57.7590229,8.02268437 54.0160229,7.85068437 C49.9660229,7.66668437 48.7520229,7.62768437 38.5000229,7.62768437 Z" id="Combined-Shape" fill="#000000"></path>
    </g>
</svg>