<?xml version="1.0" encoding="UTF-8"?>
<svg width="36px" height="36px" viewBox="0 0 36 36" version="1.1" xmlns="http://www.w3.org/2000/svg" xmlns:xlink="http://www.w3.org/1999/xlink">
    <!-- Generator: Sketch 44.1 (41455) - http://www.bohemiancoding.com/sketch -->
    <title>Combined Shape</title>
    <desc>Created with Sketch.</desc>
    <defs></defs>
    <g id="Page-1" stroke="none" stroke-width="1" fill="none" fill-rule="evenodd">
        <path d="M32.994781,8.99727146 L32.994781,8.99727146 L32.994781,8.99727146 C31.4921715,6.33673382 29.3455864,4.10763471 26.6981316,2.5256934 C18.3980028,-2.5077562 7.52197207,0.22468787 2.51327369,8.56583293 C-2.49542469,16.906978 0.223583002,27.8367543 8.52371175,32.8702039 C11.1711666,34.4521452 14.1763856,35.3150222 17.1816047,35.3869287 L17.1816047,35.3869287 L17.1816047,35.3869287 L17.3962632,35.3869287 C17.6109217,35.3150222 17.7540273,35.2431158 17.8255802,35.0273966 L32.994781,9.71633569 C33.1378866,9.50061643 33.1378866,9.21299073 32.994781,8.99727146 Z M3.8012247,9.28489716 C8.38060608,1.59090991 18.32645,-0.925814896 25.9826032,3.67619617 C28.0576354,4.89860536 29.7749034,6.62435951 31.1344073,8.63773935 C25.4101806,8.99727146 20.043718,12.2330605 17.038499,17.2665101 C14.03328,22.2999597 13.6755158,28.5558185 16.1083121,33.8049874 C13.7470686,33.5892681 11.3858251,32.7982974 9.38234575,31.5758883 C1.65463968,26.9738772 -0.778156674,16.9788844 3.8012247,9.28489716 Z M17.3247103,33.0859231 C15.1781253,28.2681928 15.4643366,22.5875854 18.2548972,17.9855743 C20.5445879,14.1745339 24.1937824,11.5139963 28.2722939,10.5073063 C29.2024808,10.2915871 30.1326676,10.1477742 31.0628545,10.0758678 L17.3247103,33.0859231 Z M34.4973905,22.2280533 C34.8551547,22.3718661 35.0698132,22.8033047 34.8551547,23.1628368 C34.5689433,24.0257139 34.2111792,24.8885909 33.7818621,25.751468 C33.7103093,25.9671873 33.5672036,26.0390937 33.3525451,26.1110001 C33.2094395,26.1110001 32.994781,26.1110001 32.8516753,26.0390937 C32.4939111,25.8952808 32.3508055,25.4638423 32.565464,25.1043102 C32.9232281,24.3133395 33.2809923,23.4504625 33.5672036,22.6594918 C33.7103093,22.2999597 34.1396263,22.0842404 34.4973905,22.2280533 Z M35.2844717,16.8350716 C35.7137887,16.8350716 36,17.1946037 36,17.6260422 C35.9284472,18.5608257 35.7853415,19.4956092 35.6422358,20.4303927 C35.6422358,20.7180184 35.4275773,20.9337377 35.141366,21.0056441 L34.8551547,21.0056441 C34.4973905,20.9337377 34.2111792,20.5022991 34.282732,20.142767 C34.4258377,19.2798899 34.4973905,18.4170129 34.5689433,17.5541358 C34.5689433,17.1226973 34.8551547,16.8350716 35.2844717,16.8350716 Z M35.3560245,11.9454348 L35.4275773,12.0892476 C35.6422358,12.9521247 35.7853415,13.8869082 35.8568943,14.7497853 C35.8568943,15.1093174 35.6422358,15.4688495 35.2844717,15.5407559 L35.2129188,15.5407559 C34.8551547,15.5407559 34.4973905,15.2531303 34.4258377,14.8935981 C34.3542848,14.1026275 34.2111792,13.2397504 33.9965206,12.4487798 L33.9965206,12.3049669 C33.853415,11.9454348 34.1396263,11.5139963 34.4973905,11.4420898 C34.8551547,11.3701834 35.2844717,11.5859027 35.3560245,11.9454348 Z M23.1204899,33.8049874 C23.4782541,33.6611745 23.9075711,33.8768938 24.1222296,34.1645195 C24.2653352,34.5240516 24.0506767,34.9554901 23.6929126,35.099303 C22.9058314,35.3869287 22.0471974,35.6745544 21.1885634,35.8902736 L20.9739049,35.9621801 C20.6161407,36.1059929 20.1868237,35.8183672 20.1152709,35.4588351 C19.9721652,35.099303 20.2583765,34.6678644 20.6161407,34.595958 L20.8307992,34.5240516 C21.6178804,34.3802388 22.3334087,34.0926131 23.1204899,33.8049874 Z M31.2059601,27.3334093 C31.4206186,27.0457836 31.8499356,26.9738772 32.2076998,27.0457836 C32.4939111,27.2615029 32.565464,27.6929414 32.3508055,28.0524735 C31.7783828,28.8434442 31.2059601,29.5625084 30.5619846,30.2815726 C30.4904318,30.4253855 30.3473261,30.4972919 30.2042204,30.4972919 C29.9895619,30.5691983 29.7749034,30.4972919 29.5602449,30.3534791 C29.2740336,30.0658534 29.2740336,29.6344148 29.5602449,29.3467891 C30.1326676,28.7715378 30.7050903,28.0524735 31.2059601,27.3334093 Z M27.6283184,31.2163561 C27.9145298,30.9287305 28.4153996,31.0006369 28.6300581,31.4320754 C28.8447166,31.7197011 28.7731638,32.2230461 28.4869524,32.4387653 C27.7714241,33.0140167 26.9843429,33.5173617 26.1972617,34.0207066 C26.1257089,34.0207066 26.0541561,34.0926131 25.9826032,34.0926131 C25.6963919,34.1645195 25.3386277,34.0207066 25.1955221,33.7330809 C25.0524164,33.3735488 25.1239692,32.9421103 25.4817334,32.726391 C26.1972617,32.2949525 26.9843429,31.7916075 27.6283184,31.2163561 Z" id="Combined-Shape" fill="#000000" fill-rule="nonzero"></path>
    </g>
</svg>