<?xml version="1.0" encoding="UTF-8"?>
<svg width="43px" height="43px" viewBox="0 0 43 43" version="1.1" xmlns="http://www.w3.org/2000/svg" xmlns:xlink="http://www.w3.org/1999/xlink">
    <!-- Generator: Sketch 44.1 (41455) - http://www.bohemiancoding.com/sketch -->
    <title>Combined Shape@svg</title>
    <desc>Created with Sketch.</desc>
    <defs></defs>
    <g id="Page-2" stroke="none" stroke-width="1" fill="none" fill-rule="evenodd">
        <path d="M35.9962409,0 C31.9966586,0 28.8541296,3.14252897 28.8541296,7.1421113 L28.8541296,11.2845358 C27.2828652,11.4273781 25.7116007,11.5702203 24.2831784,11.8559048 L23.5689673,8.42769133 C23.8546517,8.42769133 23.997494,8.2848491 24.2831784,8.2848491 C24.9973895,8.14200688 25.5687584,7.42779575 25.4259162,6.57074239 C25.283074,5.85653126 24.5688629,5.28516236 23.7118095,5.42800459 C22.2833872,5.71368904 20.854965,5.99937349 19.4265427,6.42790017 C18.7123316,6.71358462 18.2838049,7.42779575 18.4266471,8.2848491 C18.5694894,8.85621801 19.1408583,9.28474469 19.8550694,9.28474469 C19.9979116,9.28474469 20.1407539,9.28474469 20.2835961,9.14190246 C20.4264383,9.14190246 20.7121228,8.99906023 20.854965,8.99906023 L21.5691761,12.4272737 C19.8550694,12.9986426 18.1409627,13.7128537 16.5696982,14.4270648 L14.7127493,11.4273781 C14.8555915,11.2845358 14.9984337,11.2845358 15.2841182,11.1416936 C15.9983293,10.7131669 16.2840138,9.85611359 15.9983293,9.28474469 C15.5698026,8.57053356 14.8555915,8.2848491 14.1413804,8.57053356 C12.8558003,9.28474469 11.5702203,9.99895582 10.2846403,10.8560092 C9.57042914,11.2845358 9.42758691,12.1415892 9.85611359,12.8558003 C10.141798,13.284327 10.5703247,13.4271692 10.9988514,13.4271692 C11.2845358,13.4271692 11.5702203,13.284327 11.8559048,13.1414848 C11.998747,12.9986426 12.2844314,12.8558003 12.4272737,12.8558003 L14.2842226,15.8554871 C12.5701159,16.9982249 11.1416936,18.1409627 9.71327136,19.569385 L7.1421113,17.1410671 C7.28495352,16.9982249 7.42779575,16.8553827 7.57063797,16.7125404 C8.14200688,16.1411715 8.14200688,15.2841182 7.57063797,14.7127493 C6.99926907,14.1413804 6.14221572,14.1413804 5.57084681,14.7127493 C4.428109,15.7126449 3.42821342,16.8553827 2.42831784,17.9981205 C1.99979116,18.5694894 1.99979116,19.569385 2.57116007,19.9979116 C2.85684452,20.1407539 3.14252897,20.2835961 3.57105565,20.2835961 C3.99958233,20.2835961 4.428109,20.1407539 4.71379346,19.7122272 C4.428109,19.569385 4.57095123,19.4265427 4.71379346,19.2837005 L7.28495352,21.7120183 C2.71400229,26.9971807 0,33.8536075 0,41.2814033 C0,42.1384567 0.71421113,42.7098256 1.42842226,42.7098256 L41.5670877,42.7098256 C42.2812989,42.7098256 42.99551,42.1384567 42.99551,41.2814033 L42.99551,6.99926907 C43.1383522,3.14252897 39.852981,0 35.9962409,0 Z M40.2815077,39.9958233 L2.99968674,39.9958233 C3.71389787,25.5687584 15.7126449,14.1413804 30.2825519,14.1413804 C30.996763,14.1413804 31.7109742,13.5700115 31.7109742,12.7129581 L31.7109742,7.1421113 C31.7109742,4.85663568 33.5679231,2.85684452 35.9962409,2.85684452 C38.4245588,2.85684452 40.2815077,4.85663568 40.2815077,7.1421113 L40.2815077,39.9958233 Z M31.4252897,37.1389787 C34.7106609,37.1389787 37.4246632,34.4249764 37.4246632,31.1396053 C37.4246632,27.8542341 34.7106609,25.1402318 31.4252897,25.1402318 C28.1399185,25.1402318 25.4259162,27.8542341 25.4259162,31.1396053 C25.4259162,34.4249764 28.1399185,37.1389787 31.4252897,37.1389787 Z M31.4252897,27.9970763 C33.1393964,27.9970763 34.5678187,29.4254985 34.5678187,31.1396053 C34.5678187,32.853712 33.1393964,34.2821342 31.4252897,34.2821342 C29.711183,34.2821342 28.2827607,32.853712 28.2827607,31.1396053 C28.2827607,29.4254985 29.711183,27.9970763 31.4252897,27.9970763 Z" id="Combined-Shape" fill="#000000" fill-rule="nonzero"></path>
    </g>
</svg>