<?xml version="1.0" encoding="UTF-8"?>
<svg width="35px" height="26px" viewBox="0 0 35 26" version="1.1" xmlns="http://www.w3.org/2000/svg" xmlns:xlink="http://www.w3.org/1999/xlink">
    <!-- Generator: Sketch 43.2 (39069) - http://www.bohemiancoding.com/sketch -->
    <title>Group</title>
    <desc>Created with Sketch.</desc>
    <defs></defs>
    <g id="Page-1" stroke="none" stroke-width="1" fill="none" fill-rule="evenodd">
        <g id="Group" fill-rule="nonzero" fill="#25D8FC">
            <path d="M31.6088905,7.89142196 L33.1735983,6.33536693 L33.8441874,5.6684862 C35.1853655,4.33472474 35.1853655,2.33408255 33.8441874,1.00032109 C32.5030092,-0.333440365 30.4912421,-0.333440365 29.150064,1.00032109 L28.4794749,1.66720182 L26.9147671,3.22325686 L25.3500593,1.66720182 L22.2206437,4.77931189 L23.7853515,6.33536693 L11.0441595,19.0061008 C11.0441595,19.0061008 7.69121419,23.4519723 8.58533293,25.6749081 C10.8206298,26.5640824 15.7382829,23.6742659 15.7382829,23.6742659 L28.4794749,11.003532 L30.0441827,12.5595871 L33.1735983,9.44747699 L31.6088905,7.89142196 Z M14.1735751,22.1182108 L11.7147485,23.0073852 L12.6088673,20.5621558 L25.3500593,7.89142196 L26.9147671,9.44747699 L14.1735751,22.1182108 Z" id="Shape" transform="translate(21.641903, 12.922420) scale(1, -1) translate(-21.641903, -12.922420) "></path>
            <path d="M8.43373494,0.419354839 C4.05384337,5.28289806 0,11.0546842 0,16.2237694 C0,21.3928629 3.7786506,25.5806661 8.43373494,25.5806661 C13.0889458,25.5806661 16.8674699,21.3928629 16.8674699,16.2237694 C16.8674699,11.0546842 12.8136265,5.28289806 8.43373494,0.419354839 Z M3.32078313,15.5030242 C3.57736999,15.4768106 3.83191325,15.5687948 4.01171996,15.7527077 C4.19152667,15.9366206 4.2768286,16.1922426 4.24326506,16.4465726 C4.04056024,18.1234468 5.40695181,20.5312565 7.15551807,21.4788306 C7.56672235,21.6995717 7.7201282,22.2100213 7.49815964,22.6189516 C7.27619107,23.0278819 6.76290307,23.1804395 6.3516988,22.9596984 C3.94901205,21.6576435 2.254,18.8621823 2.5696747,16.249979 C2.61114716,15.8557912 2.92440331,15.5442673 3.32078313,15.5030242 L3.32078313,15.5030242 Z" id="Shape"></path>
        </g>
    </g>
</svg>