<svg xmlns="http://www.w3.org/2000/svg" xmlns:xlink="http://www.w3.org/1999/xlink" version="1.1" x="0px" y="0px" viewBox="0 0 100 125" enable-background="new 0 0 100 100" xml:space="preserve"><path d="M50,22.5c-12.4,0-22.5,10.1-22.5,22.5c0,9.8,6.3,18.1,15,21.2v6.3c0,4.1,3.4,7.5,7.5,7.5s7.5-3.4,7.5-7.5v-6.3  c8.7-3.1,15-11.4,15-21.2C72.5,32.6,62.4,22.5,50,22.5z M52.5,72.5c0,1.4-1.1,2.5-2.5,2.5s-2.5-1.1-2.5-2.5v-5.1  c0.8,0.1,1.7,0.1,2.5,0.1s1.7-0.1,2.5-0.1V72.5z M50,62.5c-9.6,0-17.5-7.9-17.5-17.5S40.4,27.5,50,27.5S67.5,35.4,67.5,45  S59.6,62.5,50,62.5z"/><path d="M50,37.5c2.7,0,5.2,1.4,6.5,3.8c0.7,1.2,2.2,1.6,3.4,0.9c1.2-0.7,1.6-2.2,0.9-3.4c-2.2-3.9-6.4-6.3-10.8-6.3  s-8.6,2.4-10.8,6.3c-2.2,3.9-2.2,8.6,0,12.5c2.2,3.9,6.4,6.3,10.8,6.3s8.6-2.4,10.8-6.3c0.7-1.2,0.3-2.7-0.9-3.4  c-1.2-0.7-2.7-0.3-3.4,0.9c-1.3,2.3-3.8,3.8-6.5,3.8s-5.2-1.4-6.5-3.8s-1.3-5.2,0-7.5S47.3,37.5,50,37.5z"/><path d="M50,18.8c1.4,0,2.5-1.1,2.5-2.5V7.5C52.5,6.1,51.4,5,50,5s-2.5,1.1-2.5,2.5v8.8C47.5,17.6,48.6,18.8,50,18.8z"/><path d="M33.5,21.4c0.5,0.8,1.3,1.3,2.2,1.3c0.4,0,0.9-0.1,1.2-0.3c1.2-0.7,1.6-2.2,0.9-3.4l-4.4-7.6c-0.7-1.2-2.2-1.6-3.4-0.9  c-1.2,0.7-1.6,2.2-0.9,3.4L33.5,21.4z"/><path d="M16.3,28.4l7.6,4.4c0.4,0.2,0.8,0.3,1.2,0.3c0.9,0,1.7-0.4,2.2-1.3c0.7-1.2,0.3-2.7-0.9-3.4l-7.6-4.4  c-1.2-0.7-2.7-0.3-3.4,0.9C14.7,26.2,15.1,27.7,16.3,28.4z"/><path d="M23.8,45c0-1.4-1.1-2.5-2.5-2.5h-8.8c-1.4,0-2.5,1.1-2.5,2.5s1.1,2.5,2.5,2.5h8.8C22.6,47.5,23.8,46.4,23.8,45z"/><path d="M23.9,57.2l-7.6,4.4c-1.2,0.7-1.6,2.2-0.9,3.4c0.5,0.8,1.3,1.3,2.2,1.3c0.4,0,0.9-0.1,1.2-0.3l7.6-4.4  c1.2-0.7,1.6-2.2,0.9-3.4S25,56.5,23.9,57.2z"/><path d="M63.1,22.3c0.4,0.2,0.8,0.3,1.2,0.3c0.9,0,1.7-0.4,2.2-1.3l4.4-7.6c0.7-1.2,0.3-2.7-0.9-3.4c-1.2-0.7-2.7-0.3-3.4,0.9  l-4.4,7.6C61.5,20,61.9,21.6,63.1,22.3z"/><path d="M74.9,33.1c0.4,0,0.9-0.1,1.2-0.3l7.6-4.4c1.2-0.7,1.6-2.2,0.9-3.4c-0.7-1.2-2.2-1.6-3.4-0.9l-7.6,4.4  c-1.2,0.7-1.6,2.2-0.9,3.4C73.2,32.7,74,33.1,74.9,33.1z"/><path d="M87.5,42.5h-8.8c-1.4,0-2.5,1.1-2.5,2.5s1.1,2.5,2.5,2.5h8.8c1.4,0,2.5-1.1,2.5-2.5S88.9,42.5,87.5,42.5z"/><path d="M83.7,61.6l-7.6-4.4c-1.2-0.7-2.7-0.3-3.4,0.9c-0.7,1.2-0.3,2.7,0.9,3.4l7.6,4.4c0.4,0.2,0.8,0.3,1.2,0.3  c0.9,0,1.7-0.4,2.2-1.3C85.3,63.8,84.9,62.3,83.7,61.6z"/><text x="0" y="115" fill="#000000" font-size="5px" font-weight="bold" font-family="'Helvetica Neue', Helvetica, Arial-Unicode, Arial, Sans-serif">Created by Arthur Shlain</text><text x="0" y="120" fill="#000000" font-size="5px" font-weight="bold" font-family="'Helvetica Neue', Helvetica, Arial-Unicode, Arial, Sans-serif">from the Noun Project</text></svg>