<svg xmlns="http://www.w3.org/2000/svg" xmlns:xlink="http://www.w3.org/1999/xlink" version="1.1" x="0px" y="0px" viewBox="0 0 100 125" enable-background="new 0 0 100 100" xml:space="preserve"><g><path d="M88.395,50.36c0,18.438-13.067,33.432-30.392,37.585c-2.025,0.505-4.052-1.216-4.052-3.345   c0-1.619,1.114-2.938,2.634-3.241c14.385-2.938,25.124-15.804,25.124-31c0-17.525-14.184-31.708-31.709-31.708   c-17.424,0-31.607,14.183-31.607,31.708c0,15.196,10.738,28.062,25.022,31c1.52,0.304,2.635,1.622,2.635,3.241   c0,2.129-1.927,3.85-4.053,3.345C24.674,83.993,11.605,68.798,11.605,50.36c0-21.173,17.221-38.394,38.395-38.394   S88.395,29.187,88.395,50.36z M61.954,30.302c1.316,1.317,1.316,3.444,0,4.761c-1.317,1.317-3.444,1.317-4.762,0   c-2.025-1.925-4.559-2.938-7.192-2.938c-5.571,0-10.13,4.559-10.13,10.029v16.412c0,5.571,4.559,10.13,10.13,10.13   c2.634,0,5.167-1.013,7.192-2.938c1.317-1.317,3.444-1.317,4.762,0c1.316,1.316,1.316,3.444,0,4.761   C58.61,73.762,54.356,75.483,50,75.483c-9.319,0-16.817-7.598-16.817-16.917V42.154c0-9.218,7.498-16.816,16.817-16.816   C54.356,25.338,58.915,27.161,61.954,30.302z"/></g><text x="0" y="115" fill="#000000" font-size="5px" font-weight="bold" font-family="'Helvetica Neue', Helvetica, Arial-Unicode, Arial, Sans-serif">Created by Sasha Korobov</text><text x="0" y="120" fill="#000000" font-size="5px" font-weight="bold" font-family="'Helvetica Neue', Helvetica, Arial-Unicode, Arial, Sans-serif">from the Noun Project</text></svg>