<svg xmlns="http://www.w3.org/2000/svg" xmlns:xlink="http://www.w3.org/1999/xlink" version="1.1" x="0px" y="0px" viewBox="0 0 100 125" enable-background="new 0 0 100 100" xml:space="preserve"><symbol id="a" viewBox="-121.7 -135.2 243.4 270.4"><path fill="#000000" d="M118.5-67.6c3.3,5.8,4.1,12.5,2.2,18.9c-2.9,10.5-12.2,17.8-23.2,18.1c-0.3,0-0.5,0-0.7,0   c-2.3,0-4.5-0.3-6.7-0.9L50.9-42.3c1,1.9,1.9,3.6,2.6,5.2c3,6.2,3.6,6.8,4.8,7.1c24.4,6.9,39.2,35,40.7,58   C102.7,83.4,60.6,131.4,5.3,135c-2.2,0.1-4.4,0.2-6.7,0.2c-25.7,0-52-9.6-72.1-26.4c-21.9-18.3-34.1-42.6-34.4-68.5   c-0.3-30.4,11.6-48.8,21.6-58.8C-74.9-30-59.7-37.1-44.4-38.1h0.1c0.9-0.7,2.6-3.3,3.9-5.3l-49.1,14.8c-2.1,0.6-4.3,1-6.5,1.1   c-0.3,0-0.5,0-0.8,0c-10.9,0-20.7-7.3-23.9-17.7c-1.9-6.4-1.3-13.1,1.9-19c3.2-5.9,8.4-10.2,14.8-12.1l16.2-4.9l-12.8-3.6   c-13.2-3.7-20.9-17.5-17.2-30.7c3-10.6,12.3-17.9,23.2-18.2h0.7c2.2,0,4.5,0.3,6.6,0.9l0,0h0l88.6,24.7l86.2-26   c2.1-0.6,4.3-1,6.5-1.1l0.1,0h0.8c11,0.1,20.5,7.2,23.7,17.7c1.9,6.4,1.3,13.1-1.9,19c-3.1,5.9-8.4,10.2-14.8,12.1l-11.4,3.4   l12.7,3.5C109.9-77.6,115.2-73.4,118.5-67.6z M-43.4-22.1c-19.1,1.3-48.8,17.6-48.4,62.2c0.4,44.8,45.7,79,90.5,79   c1.9,0,3.8-0.1,5.6-0.2c46.5-3,81.8-43.3,78.7-89.9C82,12.4,71.1-9.7,54-14.6C34.8-20,43.3-45.6,13.9-51.2c-4.5-0.9-8.5-1.2-12-1.2   C-28.6-52.4-23.8-23.3-43.4-22.1z M-91.4-117.3c-0.8-0.2-1.6-0.3-2.4-0.3h-0.2c-3.9,0.1-7.2,2.7-8.2,6.4c-1.3,4.7,1.4,9.6,6.1,10.9   l37.1,10.4l31.6-9.5L-91.4-117.3z M97.5-101.7c2.3-0.7,4.2-2.2,5.3-4.3c1.1-2.1,1.3-4.5,0.7-6.8c-1.1-3.7-4.5-6.3-8.4-6.3h-0.3   c-0.8,0-1.6,0.2-2.3,0.4L-99.3-60.9c-2.3,0.7-4.2,2.2-5.3,4.3c-2.2,4.1-0.8,9.3,3.2,11.7c2.2,1.3,4.9,1.7,7.3,1L97.5-101.7z    M61.9-74.2l-31.6,9.5l64.1,17.8c0.2,0.1,0.4,0.1,0.6,0.1c0.2,0,0.4,0.1,0.6,0.1c0.4,0,0.8,0.1,1.2,0.1h0.3   c3.9-0.1,7.2-2.7,8.2-6.5c0.6-2.3,0.4-4.6-0.8-6.7c-1.2-2.1-3-3.5-5.3-4.2L61.9-74.2z"/><path fill="#000000" d="M0.5-23.4c0.1,0,0.2,0,0.3,0l19.5,0.9c4.6,0.2,7.6,4.9,6,9.2l-9.8,26c-1.1,3-3.7,4.4-6.4,4.4   c-2.7,0-5.3-1.5-6.4-4.5l-9.7-27C-7.5-18.8-4.2-23.4,0.5-23.4z"/><path fill="#000000" d="M-39.8,1.7c0.5,0,1,0,1.5,0c11.9,0,21.9,9.2,22.6,21.3c0.8,12.5-8.7,23.4-21.2,24.2c-0.5,0-1,0.1-1.5,0.1   c-11.9,0-21.9-9.2-22.6-21.3C-61.8,13.4-52.3,2.5-39.8,1.7z"/><path fill="#000000" d="M47.1,10.1c0.5,0,1,0,1.5,0c11.9,0,21.9,9.2,22.6,21.3c0.8,12.5-8.7,23.4-21.2,24.2c-0.5,0-1,0.1-1.5,0.1   c-11.9,0-21.9-9.2-22.6-21.3C25.1,21.7,34.6,10.9,47.1,10.1z"/><path fill="#000000" d="M-95.9-46.2c0.2,0,0.4,0,0.6,0c-0.2,0-0.3,0-0.5,0C-95.8-46.1-95.9-46.2-95.9-46.2z"/></symbol><g><rect x="-82.1" y="-810.8" fill="none" width="75.1" height="1157.8"/><text transform="matrix(1 0 0 1 -82.0972 -758.7336)"><tspan x="0" y="0" font-family="'OratorStd-Slanted'" font-size="100">0</tspan><tspan x="0" y="120" font-family="'OratorStd-Slanted'" font-size="100">1 </tspan><tspan x="0" y="240" font-family="'OratorStd-Slanted'" font-size="100">2 </tspan><tspan x="0" y="360" font-family="'OratorStd-Slanted'" font-size="100">3 </tspan><tspan x="0" y="480" font-family="'OratorStd-Slanted'" font-size="100">4 </tspan><tspan x="0" y="600" font-family="'OratorStd-Slanted'" font-size="100">5 </tspan><tspan x="0" y="720" font-family="'OratorStd-Slanted'" font-size="100">6 </tspan><tspan x="0" y="840" font-family="'OratorStd-Slanted'" font-size="100">7 </tspan><tspan x="0" y="960" font-family="'OratorStd-Slanted'" font-size="100">8 </tspan><tspan x="0" y="1080" font-family="'OratorStd-Slanted'" font-size="100">9</tspan></text></g><g><use xlink:href="#a" width="243.4" height="270.4" x="-121.7" y="-135.2" transform="matrix(0.3318 0 0 -0.3318 50 50)" overflow="visible"/></g><text x="0" y="115" fill="#000000" font-size="5px" font-weight="bold" font-family="'Helvetica Neue', Helvetica, Arial-Unicode, Arial, Sans-serif">Created by Martyn Jasinski</text><text x="0" y="120" fill="#000000" font-size="5px" font-weight="bold" font-family="'Helvetica Neue', Helvetica, Arial-Unicode, Arial, Sans-serif">from the Noun Project</text></svg>