<?xml version="1.0" encoding="UTF-8"?>
<svg width="557px" height="557px" viewBox="0 0 557 557" version="1.1" xmlns="http://www.w3.org/2000/svg" xmlns:xlink="http://www.w3.org/1999/xlink">
    <!-- Generator: Sketch 42 (36781) - http://www.bohemiancoding.com/sketch -->
    <title>data@svg</title>
    <desc>Created with Sketch.</desc>
    <defs></defs>
    <g id="svg" stroke="none" stroke-width="1" fill="none" fill-rule="evenodd">
        <path d="M539.21561,521.829975 L521.821277,521.829975 L521.821277,278.30932 C521.821277,259.088582 506.218561,243.520655 487.032612,243.520655 L434.849615,243.520655 C415.663666,243.520655 400.06095,259.088582 400.06095,278.30932 L400.06095,521.829975 L382.666618,521.829975 L382.666618,104.365995 C382.666618,85.1452575 367.072598,69.5773299 347.877953,69.5773299 L295.703652,69.5773299 C276.509006,69.5773299 260.914987,85.1452575 260.914987,104.365995 L260.914987,521.829975 L243.520655,521.829975 L243.520655,365.280982 C243.520655,346.060245 227.917939,330.492317 208.73199,330.492317 L156.548992,330.492317 C137.363044,330.492317 121.760327,346.060245 121.760327,365.280982 L121.760327,521.829975 L34.788665,521.829975 L34.788665,452.252645 L69.5773299,452.252645 C79.1790015,452.252645 86.9716624,444.512167 86.9716624,434.858312 C86.9716624,425.291429 79.1790015,417.46398 69.5773299,417.46398 L34.788665,417.46398 L34.788665,365.280982 C44.3903365,365.280982 52.1829975,357.540504 52.1829975,347.88665 C52.1829975,338.319767 44.3903365,330.492317 34.788665,330.492317 L34.788665,278.30932 L69.5773299,278.30932 C79.1790015,278.30932 86.9716624,270.568842 86.9716624,260.914987 C86.9716624,251.348104 79.1790015,243.520655 69.5773299,243.520655 L34.788665,243.520655 L34.788665,191.337657 C44.3903365,191.337657 52.1829975,183.597179 52.1829975,173.943325 C52.1829975,164.376442 44.3903365,156.548992 34.788665,156.548992 L34.788665,104.365995 L69.5773299,104.365995 C79.1790015,104.365995 86.9716624,96.625517 86.9716624,86.9716624 C86.9716624,77.4047796 79.1790015,69.5773299 69.5773299,69.5773299 L34.788665,69.5773299 L34.788665,17.3943325 C34.788665,7.82744962 26.996004,0 17.3943325,0 C7.79266095,0 0,7.82744962 0,17.3943325 L0,521.829975 C0,541.050712 15.6027162,556.61864 34.788665,556.61864 L539.21561,556.61864 C548.825979,556.61864 556.609942,548.878162 556.609942,539.224307 C556.609942,529.657424 548.825979,521.829975 539.21561,521.829975 L539.21561,521.829975 Z M434.849615,278.30932 L487.032612,278.30932 L487.032612,521.829975 L434.849615,521.829975 L434.849615,278.30932 L434.849615,278.30932 Z M295.703652,104.365995 L347.877953,104.365995 L347.877953,521.829975 L295.703652,521.829975 L295.703652,104.365995 L295.703652,104.365995 Z M156.548992,365.280982 L208.73199,365.280982 L208.73199,521.829975 L156.548992,521.829975 L156.548992,365.280982 L156.548992,365.280982 Z" id="data" fill="#000000"></path>
    </g>
</svg>