<?xml version="1.0" encoding="UTF-8"?>
<svg width="31px" height="33px" viewBox="0 0 31 33" version="1.1" xmlns="http://www.w3.org/2000/svg" xmlns:xlink="http://www.w3.org/1999/xlink">
    <!-- Generator: Sketch 43.2 (39069) - http://www.bohemiancoding.com/sketch -->
    <title>Group 2@svg</title>
    <desc>Created with Sketch.</desc>
    <defs></defs>
    <g id="Page-1" stroke="none" stroke-width="1" fill="none" fill-rule="evenodd">
        <g id="Group-2" transform="translate(0.000000, -2.000000)" fill-rule="nonzero" fill="#25D8FC">
            <path d="M21.8079992,1.79747056 L10.1747222,21.0598525 L8.89255996,30.0426382 L16.2102664,24.7921367 L27.8748157,5.52975474 L21.8079992,1.79747056 Z M14.9593765,23.6218442 L12.520141,25.3614682 L11.3317955,24.633989 L11.769607,21.6608135 L20.4632924,7.30100826 L23.6530619,9.26203893 L14.9593765,23.6218442 Z M24.5286849,7.80708069 L21.3389154,5.84605001 L22.3708997,4.10642603 L25.5606692,6.0674567 L24.5286849,7.80708069 Z" id="Shape" transform="translate(18.383688, 15.920054) scale(-1, 1) rotate(13.000000) translate(-18.383688, -15.920054) "></path>
            <path d="M30.6777842,34.67804 L0.0173183457,34.67804 L0.0173183457,3.66694976 L30.6777842,34.67804 Z M1.68254389,32.9937897 L26.6579297,32.9937897 L1.68254389,7.73306684 L1.68254389,32.9937897 Z" id="Shape"></path>
            <path d="M19.7332558,30.5266999 L5.94585435,30.5266999 L5.94585435,16.5817811 L19.7332558,30.5266999 Z M7.61107989,28.8424496 L15.7134013,28.8424496 L7.61107989,20.6478982 L7.61107989,28.8424496 Z" id="Shape"></path>
            <path d="M4.0421685,15.7669408 L1.30586988,15.7669408 C0.845934579,15.7669408 0.473257101,15.3900056 0.473257101,14.9248156 C0.473257101,14.4596257 0.845934579,14.0826905 1.30586988,14.0826905 L4.0421685,14.0826905 C4.50210379,14.0826905 4.87478127,14.4596257 4.87478127,14.9248156 C4.87478127,15.3900056 4.50210379,15.7669408 4.0421685,15.7669408 Z" id="Shape"></path>
            <path d="M3.12995794,19.4567964 L1.30586988,19.4567964 C0.845934579,19.4567964 0.473257101,19.0798611 0.473257101,18.6146712 C0.473257101,18.1494813 0.845934579,17.7725461 1.30586988,17.7725461 L3.12995794,17.7725461 C3.58989324,17.7725461 3.96257072,18.1494813 3.96257072,18.6146712 C3.96257072,19.0798611 3.58989324,19.4567964 3.12995794,19.4567964 Z" id="Shape"></path>
            <path d="M4.0421685,23.1469888 L1.30586988,23.1469888 C0.845934579,23.1469888 0.473257101,22.7700536 0.473257101,22.3048636 C0.473257101,21.8396737 0.845934579,21.4627385 1.30586988,21.4627385 L4.0421685,21.4627385 C4.50210379,21.4627385 4.87478127,21.8396737 4.87478127,22.3048636 C4.87478127,22.7700536 4.50210379,23.1469888 4.0421685,23.1469888 Z" id="Shape"></path>
            <path d="M3.12995794,26.8368443 L1.30586988,26.8368443 C0.845934579,26.8368443 0.473257101,26.4599091 0.473257101,25.9947192 C0.473257101,25.5295292 0.845934579,25.152594 1.30586988,25.152594 L3.12995794,25.152594 C3.58989324,25.152594 3.96257072,25.5295292 3.96257072,25.9947192 C3.96257072,26.4599091 3.58989324,26.8368443 3.12995794,26.8368443 Z" id="Shape"></path>
            <path d="M4.0421685,30.5266999 L1.30586988,30.5266999 C0.845934579,30.5266999 0.473257101,30.1497647 0.473257101,29.6845747 C0.473257101,29.2193848 0.845934579,28.8424496 1.30586988,28.8424496 L4.0421685,28.8424496 C4.50210379,28.8424496 4.87478127,29.2193848 4.87478127,29.6845747 C4.87478127,30.1497647 4.50210379,30.5266999 4.0421685,30.5266999 Z" id="Shape"></path>
        </g>
    </g>
</svg>