<?xml version="1.0" encoding="UTF-8"?>
<svg width="29px" height="40px" viewBox="0 0 29 40" version="1.1" xmlns="http://www.w3.org/2000/svg" xmlns:xlink="http://www.w3.org/1999/xlink">
    <!-- Generator: Sketch 44.1 (41455) - http://www.bohemiancoding.com/sketch -->
    <title>Shape</title>
    <desc>Created with Sketch.</desc>
    <defs></defs>
    <g id="Page-1" stroke="none" stroke-width="1" fill="none" fill-rule="evenodd">
        <path d="M26.8669792,33.545128 C26.1422316,32.1660436 19.0847429,21.9072825 18.2853353,20.7655318 C18.2792654,20.7594619 18.2750164,20.752785 18.2707675,20.7455011 L17.391237,19.6092132 L25.7300844,7.6988286 L26.4123427,8.17653081 L19.1563679,18.5384804 C19.0525724,18.6865863 19.0889919,18.8917494 19.2370978,18.9955449 C19.2941549,19.0356064 19.360317,19.0550301 19.4258721,19.0550301 C19.5290606,19.0550301 19.6310351,19.0052568 19.6947692,18.9148151 L27.3264717,8.01507111 L26.1064191,7.16103425 L27.3707821,5.35462794 C27.5352767,5.12154326 27.4782196,4.79923084 27.2445279,4.63595016 L27.0096222,4.47084851 L28.0833899,2.93758832 C28.5829438,2.22437346 28.4081303,1.2367985 27.6943085,0.737244609 L27.0484697,0.28503604 C26.3352548,-0.214517855 25.3488938,-0.040311333 24.8493399,0.673510515 L23.7749652,2.20616372 L23.5394526,2.04166906 C23.4271592,1.96276018 23.2881581,1.93241061 23.154013,1.95608328 C23.018047,1.97975594 22.8984697,2.05684384 22.8201678,2.16853025 L13.8300186,15.0076117 L7.65873741,7.02992412 C7.78438463,6.33067006 7.64113466,5.5828567 7.2028869,4.95583461 C6.44050574,3.86749909 1.65984173,1.89902609 0.709900236,1.51601453 C0.493204318,1.42860778 0.244337857,1.4971978 0.10351586,1.68415114 C-0.0366991461,1.87049749 -0.0342711806,2.12786183 0.109585774,2.31178022 C1.72236184,4.37372989 1.93784377,5.5688959 2.1114433,6.52915624 C2.21220387,7.08819529 2.30750152,7.61567079 2.66805439,8.13100646 C3.09355534,8.73860482 3.74242911,9.14468204 4.46171388,9.26972226 L10.8096296,19.3214993 L1.34481321,32.8385901 C1.27622318,32.9375297 1.24830158,33.052251 1.25497848,33.1639375 L0.181210755,38.5194223 C0.140542333,38.7203364 0.223700151,38.9261065 0.391229768,39.0432558 C0.479850508,39.105776 0.58303904,39.1361255 0.686834564,39.1361255 C0.779704243,39.1361255 0.873180914,39.1118459 0.955124749,39.0614656 L5.62106739,36.220139 C5.73153982,36.1867545 5.82865844,36.1193784 5.89542749,36.0246878 L14.0424656,24.3886633 C15.6600976,26.6733788 21.8350208,35.3175428 22.807421,36.3882756 C24.2581303,37.9846629 26.1240218,39.7145883 27.3920268,39.7145883 C27.6269324,39.7145883 27.8412004,39.6538892 28.0293677,39.5246 C29.2263547,38.6857379 28.0578963,35.8098128 26.8669792,33.545128 Z M25.6930579,1.26472011 C25.8672645,1.01767462 26.2096076,0.956975484 26.4572601,1.13057502 L27.1024919,1.58278358 C27.3495374,1.75577612 27.4102365,2.09811926 27.237244,2.34577173 L26.1634762,3.87842494 L24.6198972,2.79737331 L25.6930579,1.26472011 Z M3.02071637,5.79712465 C2.87443145,5.11304538 2.61949508,4.26932738 1.95423254,3.16096114 C3.92695448,4.02774481 6.02289568,5.06994899 6.35734792,5.5476512 C6.71607982,6.0605589 6.75735523,6.7009348 6.52427055,7.23690817 C6.11333739,6.78591359 5.31999967,6.55707784 4.48235159,6.31731625 C3.94030829,6.16253345 3.3843042,6.00289472 3.02071637,5.79712465 Z M3.51359336,7.53311996 C3.32239108,7.25936685 3.24469619,6.96497604 3.17185722,6.58621343 C3.51420035,6.71975153 3.90267483,6.83325891 4.30207515,6.94737329 C5.03349975,7.15678531 5.86204296,7.39472593 6.09087871,7.74253198 C6.10362553,7.76195571 6.11880031,7.77895147 6.13518908,7.79412625 C6.07145499,7.85482539 6.00468594,7.90641965 5.93123998,7.95862091 C5.63745616,8.16439098 5.29389904,8.26697253 4.9382021,8.26697253 C4.37066517,8.26757952 3.83833375,7.99686137 3.51359336,7.53311996 Z M5.64898899,9.21691402 C5.95916158,9.1337562 6.25476638,8.99900411 6.52244957,8.81144378 C6.79559569,8.6202415 7.02382444,8.3883708 7.20470787,8.12979248 L10.0873099,11.8561125 L8.16557521,13.2018123 L5.64898899,9.21691402 Z M8.51641622,13.7578164 L10.4891382,12.3763041 L13.2096735,15.8932121 L11.4512195,18.4049423 L8.51641622,13.7578164 Z M1.42432908,37.5682668 L2.13511597,34.0216163 L4.51270115,35.6865936 L1.42432908,37.5682668 Z M5.3461003,35.0097982 L2.48595698,33.0073337 L4.00586336,30.8373395 L6.8653997,32.8398041 L5.3461003,35.0097982 Z M7.24234134,32.3020097 L4.382805,30.3001522 L4.97401459,29.4540062 L7.83355093,31.4564707 L7.24234134,32.3020097 Z M8.21049257,30.9192834 L5.35095623,28.9174258 L5.94337981,28.0712799 L8.80291614,30.0737444 L8.21049257,30.9192834 Z M9.17985778,29.5353431 L6.32032145,27.5328785 L6.91274502,26.6867326 L9.77228136,28.6891971 L9.17985778,29.5353431 Z M10.148616,28.1520097 L7.28907967,26.1495452 L23.370709,3.18281283 L26.2302453,5.18467036 L10.148616,28.1520097 Z M27.4375511,38.678454 C27.3926338,38.7088036 27.0411858,38.7100176 26.2557389,38.1710092 C25.5006417,37.6520316 24.5719449,36.7943528 23.5710161,35.6944845 C22.6289655,34.6565292 16.0358253,25.4302604 14.6719157,23.49153 L16.7708918,20.4942066 L17.4458662,21.3676672 C18.7423998,23.2189909 25.3070114,32.7979217 25.9534572,34.0252582 C27.7604705,37.4620433 27.5528795,38.5983312 27.4375511,38.678454 Z" id="Shape" fill="#000000" fill-rule="nonzero"></path>
    </g>
</svg>