<?xml version="1.0" encoding="UTF-8"?>
<svg width="871px" height="575px" viewBox="0 0 871 575" version="1.1" xmlns="http://www.w3.org/2000/svg" xmlns:xlink="http://www.w3.org/1999/xlink">
    <!-- Generator: Sketch 42 (36781) - http://www.bohemiancoding.com/sketch -->
    <title>drivesocial@svg</title>
    <desc>Created with Sketch.</desc>
    <defs></defs>
    <g id="svg" stroke="none" stroke-width="1" fill="none" fill-rule="evenodd">
        <path d="M522.153059,428.984239 C527.241883,436.811089 536.243561,447.182125 549.62333,450.558614 C550.413699,450.758069 536.427573,455.030459 497.343765,455.753085 C490.661357,455.876637 483.785939,455.163586 477.322197,454.062015 C426.416751,467.524022 372.677899,440.013223 354.256171,389.399941 C334.747763,335.801032 362.233455,276.590482 415.647181,257.149475 C469.060908,237.708469 528.175978,265.39892 547.684385,318.997829 C562.150049,358.741913 550.77667,401.57148 522.153059,428.984239 Z M658.965561,564.846678 C577.243213,535.102176 535.156679,444.60352 564.962656,362.712271 C594.768633,280.821023 685.180204,238.547733 766.902552,268.292235 C848.624899,298.036737 890.711434,388.535394 860.905457,470.426642 C831.09948,552.31789 740.687909,594.591181 658.965561,564.846678 Z M667.60052,541.122323 C736.247293,566.107705 812.193012,530.598141 837.230033,461.809492 C862.267053,393.020844 826.914364,317.001972 758.267592,292.01659 C689.62082,267.031209 613.675101,302.540772 588.63808,371.329421 C563.60106,440.11807 598.953748,516.136941 667.60052,541.122323 Z M637.032941,422.52774 C627.226259,418.958399 622.175875,408.098561 625.752593,398.271611 C629.32931,388.444661 640.178698,383.371866 649.98538,386.941206 C659.792062,390.510547 664.842446,401.370385 661.265729,411.197335 C657.689011,421.024285 646.839623,426.09708 637.032941,422.52774 Z M767.247773,469.922063 C757.441092,466.352722 752.390708,455.492884 755.967425,445.665934 C759.544142,435.838984 770.393531,430.766189 780.200212,434.335529 C790.006894,437.90487 795.057278,448.764708 791.480561,458.591658 C787.903844,468.418608 777.054455,473.491403 767.247773,469.922063 Z M640.06784,480.10444 C637.16056,473.775635 639.929278,466.277766 646.251946,463.357483 C652.574614,460.437199 660.056965,463.200352 662.964245,469.529157 C662.952025,469.502555 663.163238,469.891287 663.624261,470.604774 C664.551561,472.039879 665.784638,473.631006 667.35027,475.29467 C672.047734,480.286263 678.440442,484.616478 686.879785,487.688148 C695.334658,490.76547 703.094724,491.577366 710.019145,490.794601 C713.886663,490.357401 716.421779,489.601086 717.315114,489.191962 C723.647112,486.292075 731.120507,489.07936 734.007411,495.417538 C736.894314,501.755715 734.101513,509.244646 727.769516,512.144533 C724.576922,513.606656 719.505877,515.119529 712.812697,515.876154 C702.135955,517.083096 690.471712,515.862726 678.244825,511.412504 C666.002408,506.956628 656.320962,500.398726 649.000855,492.620274 C644.398523,487.729769 641.534778,483.29779 640.06784,480.10444 Z M211.517333,473.597721 C129.794985,503.342223 39.3834139,461.068933 9.57743708,379.177685 C-20.2285398,297.286436 21.8579944,206.78778 103.580342,177.043278 C185.30269,147.298776 275.714261,189.572066 305.520238,271.463314 C335.326215,353.354562 293.23968,443.853219 211.517333,473.597721 Z M202.882373,449.873366 C271.529145,424.887984 306.881834,348.869112 281.844814,280.080464 C256.807793,211.291815 180.862074,175.782251 112.215301,200.767633 C43.5685293,225.753015 8.21584058,301.771886 33.2528611,370.560535 C58.2898817,439.349184 134.235601,474.858747 202.882373,449.873366 Z M103.23512,378.673105 C93.4284385,382.242445 82.57905,377.169651 79.0023328,367.342701 C75.4256156,357.515751 80.4759997,346.655912 90.2826814,343.086572 C100.089363,339.517232 110.938752,344.590027 114.515469,354.416976 C118.092186,364.243926 113.041802,375.103765 103.23512,378.673105 Z M233.449953,331.278782 C223.643271,334.848122 212.793882,329.775328 209.217165,319.948378 C205.640448,310.121428 210.690832,299.261589 220.497514,295.692249 C230.304195,292.122909 241.153584,297.195704 244.730301,307.022653 C248.307018,316.849603 243.256634,327.709442 233.449953,331.278782 Z M169.420058,422.370954 C155.573174,421.952048 135.651815,413.425027 130.729487,399.901042 C128.371055,393.421304 154.544847,380.489844 174.928521,373.070792 C195.312195,365.65174 223.645125,358.652463 226.033101,365.213363 C231.647215,380.638026 218.929081,399.32195 211.442154,407.076162 C203.955227,414.830373 183.266942,422.789859 169.420058,422.370954 Z M433.360591,340.216715 L440.225564,335.52198 C437.750426,332.870311 435.076849,330.990263 432.204754,329.881778 C429.332659,328.773294 426.215432,328.21906 422.852979,328.21906 C419.023519,328.21906 415.509342,328.795028 412.310342,329.946983 C409.111342,331.098938 406.35604,332.739905 404.044354,334.869934 C401.732668,336.999963 399.923041,339.575521 398.615421,342.596685 C397.3078,345.617848 396.654,348.975854 396.654,352.670803 C396.654,356.278811 397.3078,359.560746 398.615421,362.516704 C399.923041,365.472663 401.732668,368.004752 404.044354,370.113046 C406.35604,372.22134 409.111342,373.85144 412.310342,375.003394 C415.509342,376.155349 419.023519,376.731318 422.852979,376.731318 C426.495636,376.731318 429.928088,376.079278 433.150439,374.775178 C436.372789,373.471079 439.104741,371.384551 441.346376,368.515532 L434.061099,363.690388 C432.426573,365.646537 430.663647,367.070158 428.772267,367.961292 C426.880888,368.852427 424.931161,369.297988 422.92303,369.297988 C420.35449,369.297988 418.031163,368.863294 415.952981,367.993895 C413.874798,367.124495 412.088522,365.929089 410.594099,364.407639 C409.099675,362.88619 407.943849,361.082213 407.126587,358.995653 C406.309324,356.909094 405.900698,354.626954 405.900698,352.149165 C405.900698,349.845256 406.309324,347.693525 407.126587,345.693905 C407.943849,343.694286 409.099675,341.944646 410.594099,340.444931 C412.088522,338.945217 413.874798,337.771545 415.952981,336.92388 C418.031163,336.076216 420.35449,335.65239 422.92303,335.65239 C424.650957,335.65239 426.367183,335.956675 428.07176,336.565255 C429.776336,337.173834 431.539263,338.390976 433.360591,340.216715 Z M444.848914,359.908519 C444.848914,362.386308 445.327589,364.635845 446.284954,366.6572 C447.242319,368.678554 448.538245,370.40646 450.17277,371.840969 C451.807296,373.275478 453.745347,374.383946 455.986982,375.166406 C458.228617,375.948866 460.610319,376.34009 463.132158,376.34009 C465.653998,376.34009 468.035699,375.948866 470.277335,375.166406 C472.51897,374.383946 474.457021,373.275478 476.091546,371.840969 C477.726072,370.40646 479.021998,368.678554 479.979363,366.6572 C480.936728,364.635845 481.415403,362.386308 481.415403,359.908519 C481.415403,357.43073 480.936728,355.181192 479.979363,353.159838 C479.021998,351.138483 477.726072,349.410577 476.091546,347.976068 C474.457021,346.541559 472.51897,345.433091 470.277335,344.650631 C468.035699,343.868171 465.653998,343.476947 463.132158,343.476947 C460.610319,343.476947 458.228617,343.868171 455.986982,344.650631 C453.745347,345.433091 451.807296,346.541559 450.17277,347.976068 C448.538245,349.410577 447.242319,351.138483 446.284954,353.159838 C445.327589,355.181192 444.848914,357.43073 444.848914,359.908519 Z M453.255003,359.908519 C453.255003,358.691359 453.476828,357.517687 453.920485,356.387468 C454.364142,355.257248 455.017943,354.257453 455.881906,353.388054 C456.74587,352.518654 457.784945,351.823145 458.999164,351.301505 C460.213383,350.779865 461.591034,350.519049 463.132158,350.519049 C464.673283,350.519049 466.050933,350.779865 467.265152,351.301505 C468.479371,351.823145 469.518447,352.518654 470.382411,353.388054 C471.246374,354.257453 471.900175,355.257248 472.343832,356.387468 C472.787488,357.517687 473.009314,358.691359 473.009314,359.908519 C473.009314,361.125678 472.787488,362.29935 472.343832,363.429569 C471.900175,364.559789 471.246374,365.559584 470.382411,366.428983 C469.518447,367.298383 468.479371,367.993892 467.265152,368.515532 C466.050933,369.037172 464.673283,369.297988 463.132158,369.297988 C461.591034,369.297988 460.213383,369.037172 458.999164,368.515532 C457.784945,367.993892 456.74587,367.298383 455.881906,366.428983 C455.017943,365.559584 454.364142,364.559789 453.920485,363.429569 C453.476828,362.29935 453.255003,361.125678 453.255003,359.908519 Z M489.261087,370.993309 C489.261087,371.688828 489.412862,372.340868 489.716417,372.949448 C490.019971,373.558028 490.428597,374.07966 490.942305,374.51436 C491.456013,374.949059 492.051438,375.296814 492.728599,375.557634 C493.405759,375.818454 494.117935,375.948862 494.865147,375.948862 C496.406271,375.948862 497.725547,375.448964 498.823014,374.449155 C499.920481,373.449345 500.469206,372.253939 500.469206,370.862899 C500.469206,369.47186 499.908806,368.298188 498.787988,367.341848 C497.667171,366.385509 496.35957,365.907346 494.865147,365.907346 C493.324022,365.907346 492.004747,366.407243 490.907279,367.407053 C489.809812,368.406863 489.261087,369.602269 489.261087,370.993309 Z M472.203929,-1.13686838e-13 C476.806072,-1.13686838e-13 480.537302,3.82779464 480.537302,8.55038281 L480.537302,207.040211 C480.537302,211.762799 476.806072,215.591195 472.203929,215.591195 L420.969899,215.415239 C414.405275,221.495631 389.896216,234.857481 389.896216,234.857481 C368.386773,245.892267 345.877653,251.047839 345.877653,251.047839 C323.597382,255.240157 312.699264,255.598675 308.033325,253.716005 C304.581278,252.32337 305.520085,247.853606 307.193432,247.319132 C326.930029,241.011739 330.901813,215.591195 330.901813,215.591195 L278.751217,215.591195 C274.149075,215.591195 270.417845,211.762799 270.417845,207.040211 L270.417845,8.55038281 C270.417845,3.82779464 274.149075,-1.13686838e-13 278.751217,-1.13686838e-13 L472.203929,-1.13686838e-13 Z M328.858562,50.2998545 C313.700112,65.8410808 306.120594,84.5452333 306.120594,106.412899 C306.120594,128.42724 313.700112,147.167768 328.858562,162.635656 C344.017013,178.104131 362.382273,185.838075 383.954928,185.838075 C404.022799,185.838075 421.259618,178.780602 435.665384,164.665655 L435.665384,120.419892 L435.666555,112.634317 L382.421465,112.634317 L382.421465,120.419892 L427.172813,120.419892 L427.172813,161.593669 C414.701433,171.832843 400.295666,176.95243 383.954928,176.95243 C364.89083,176.95243 348.603938,170.077422 335.093667,156.327992 C321.583396,142.578563 314.829138,125.940198 314.829138,106.412899 C314.829138,86.9589373 321.583396,70.3575352 335.093667,56.6081057 C348.603938,42.8580895 364.89083,35.9836681 383.954928,35.9836681 C401.442836,35.9836681 416.708395,41.8712518 429.75219,53.6458326 L436.310375,47.7218731 C421.47442,33.8991055 404.022799,26.9883084 383.954928,26.9883084 C362.382273,26.9883084 344.017013,34.7586282 328.858562,50.2998545 Z" id="drivesocial" fill="#000000" fill-rule="nonzero"></path>
    </g>
</svg>