<svg xmlns="http://www.w3.org/2000/svg" xmlns:xlink="http://www.w3.org/1999/xlink" version="1.1" x="0px" y="0px" viewBox="0 0 100 125" enable-background="new 0 0 100 100" xml:space="preserve"><path d="M94.575,20.297l-1.08-1.742c-1.505-2.332-4.621-3.019-6.949-1.524c-0.406,0.26-1.259,0.864-2.338,1.63  c-2.058,1.46-5.168,3.666-6.315,4.249c-4.442,2.254-7.033,1.249-7.059,1.238c0,0-0.101-0.038-0.155-0.051  c-0.259-0.065-0.531-0.019-0.758,0.119l-6.12,3.757c-0.47,0.288-0.617,0.902-0.33,1.373l0.893,1.466L30.331,51.999  c-1.049,0.63-2.067,1.334-3.027,2.092C23.093,57.414,12.648,65.55,6.606,69.319c-0.598,0.373-1.013,0.957-1.168,1.644  c-0.156,0.688-0.032,1.395,0.348,1.991c0.118,0.185,0.918,1.49,1.034,1.666c0.497,0.759,1.34,1.179,2.2,1.179  c0.427,0,0.857-0.103,1.253-0.319c3.479-1.903,15.411-8.347,22.873-11.323c1.172-0.467,2.272-0.999,3.27-1.582  c9.438-5.513,30.082-18.42,34.422-21.138l0.826,1.355c0.265,0.456,1.03,0.55,1.377,0.332l6.12-3.51  C79.47,39.424,79.622,39,79.621,39h0.017c-0.075-4.469,4.238-6.331,4.238-6.331c1.261-0.718,8.545-4.968,8.799-5.116  c1.251-0.658,2.174-1.851,2.533-3.219C95.566,22.965,95.332,21.469,94.575,20.297z M35.406,60.848c-0.911,0.532-1.92,1.021-3,1.451  c-7.567,3.019-19.589,9.509-23.093,11.426c-0.292,0.158-0.643,0.07-0.821-0.202c-0.11-0.166-0.897-1.453-1.021-1.646  c-0.09-0.142-0.12-0.31-0.083-0.473c0.037-0.162,0.135-0.3,0.276-0.388c6.127-3.823,16.642-12.013,20.877-15.355  c0.895-0.706,1.843-1.361,2.832-1.956L65.4,32.521l4.363,7.229C65.374,42.499,44.802,55.359,35.406,60.848z M72.85,40.894  l-7.152-11.737l4.415-2.711l7.152,11.738L72.85,40.894z M93.273,23.796c-0.22,0.838-0.764,1.522-1.566,1.945  c-0.071,0.042-7.113,4.128-8.795,5.053c0,0-3.882,2.144-4.831,4.885l-5.667-9.3c1.504,0.018,3.674-0.311,6.383-1.687  c1.28-0.649,4.212-2.729,6.568-4.4c1.032-0.733,1.88-1.335,2.26-1.578c1.399-0.898,3.281-0.483,4.18,0.909l1.08,1.743  C93.354,22.094,93.493,22.957,93.273,23.796z"/><path d="M61.917,36.46l-23.54,14.75c-0.468,0.294-0.609,0.91-0.316,1.379c0.19,0.303,0.516,0.469,0.849,0.469  c0.182,0,0.365-0.049,0.53-0.152l23.54-14.75c0.468-0.294,0.609-0.91,0.316-1.379C63.002,36.309,62.384,36.166,61.917,36.46z"/><path d="M34.75,53.325l-1.818,1.111c-0.472,0.288-0.62,0.903-0.332,1.375c0.188,0.309,0.518,0.479,0.854,0.479  c0.178,0,0.357-0.047,0.521-0.146l1.818-1.111c0.472-0.288,0.62-0.903,0.332-1.375S35.222,53.037,34.75,53.325z"/><path d="M88.715,19.814c-1.465,0.084-2.661,1.053-3.929,2.079c-0.543,0.439-1.104,0.894-1.729,1.323  c-0.456,0.312-0.571,0.935-0.259,1.39c0.193,0.283,0.507,0.435,0.825,0.435c0.194,0,0.392-0.057,0.564-0.176  c0.69-0.474,1.311-0.975,1.857-1.418c1.097-0.888,1.963-1.589,2.785-1.637c0.408-0.026,0.635,0.3,0.663,0.346  c0.255,0.49,0.861,0.681,1.349,0.423c0.49-0.255,0.679-0.859,0.423-1.349C90.971,20.667,90.113,19.718,88.715,19.814z"/><text x="0" y="115" fill="#000000" font-size="5px" font-weight="bold" font-family="'Helvetica Neue', Helvetica, Arial-Unicode, Arial, Sans-serif">Created by  Laymik</text><text x="0" y="120" fill="#000000" font-size="5px" font-weight="bold" font-family="'Helvetica Neue', Helvetica, Arial-Unicode, Arial, Sans-serif">from the Noun Project</text></svg>