<svg xmlns="http://www.w3.org/2000/svg" xmlns:xlink="http://www.w3.org/1999/xlink" version="1.1" x="0px" y="0px" viewBox="0 0 18 22.5" style="enable-background:new 0 0 18 18;" xml:space="preserve"><g><path d="M13.4,6.5l0.7-0.7l0.3-0.3c0.6-0.6,0.6-1.5,0-2.1c-0.6-0.6-1.5-0.6-2.1,0L12,3.7l-0.7,0.7l-0.7-0.7L9.2,5.1l0.7,0.7   l-5.7,5.7c0,0-1.5,2-1.1,3c1,0.4,3.2-0.9,3.2-0.9L12,7.9l0.7,0.7l1.4-1.4L13.4,6.5z M5.6,12.9l-1.1,0.4l0.4-1.1l5.7-5.7l0.7,0.7   L5.6,12.9z"/></g><polygon points="5.6,13 4.3,13.5 4.8,12.2 6.7,10.3 8.2,10.4 "/><text x="0" y="33" fill="#000000" font-size="5px" font-weight="bold" font-family="'Helvetica Neue', Helvetica, Arial-Unicode, Arial, Sans-serif">Created by Johan Ronsse</text><text x="0" y="38" fill="#000000" font-size="5px" font-weight="bold" font-family="'Helvetica Neue', Helvetica, Arial-Unicode, Arial, Sans-serif">from the Noun Project</text></svg>