<svg xmlns:dc="http://purl.org/dc/elements/1.1/" xmlns:cc="http://creativecommons.org/ns#" xmlns:rdf="http://www.w3.org/1999/02/22-rdf-syntax-ns#" xmlns:svg="http://www.w3.org/2000/svg" xmlns="http://www.w3.org/2000/svg" xmlns:sodipodi="http://sodipodi.sourceforge.net/DTD/sodipodi-0.dtd" xmlns:inkscape="http://www.inkscape.org/namespaces/inkscape" version="1.1" x="0px" y="0px" viewBox="0 0 100 125"><g transform="translate(0,-952.36218)"><path style="color:#000000;enable-background:accumulate;" d="m 50,972.36215 c -10.3866,11.59768 -20,25.36117 -20,37.68745 0,12.3263 8.9608,22.3126 20,22.3126 11.0395,0 20,-9.9863 20,-22.3126 0,-12.32628 -9.6134,-26.08977 -20,-37.68745 z m -12.125,35.96875 a 2.0002,2.0002 0 0 1 2.1876,2.25 c -0.4807,3.9987 2.7596,9.7404 6.9062,12 a 2.0064694,2.0064694 0 0 1 -1.9062,3.5313 c -5.6978,-3.1049 -9.7174,-9.771 -8.9688,-16.0001 a 2.0002,2.0002 0 0 1 1.7812,-1.7812 z" fill="#000000" stroke="none" marker="none" visibility="visible" display="inline" overflow="visible"/></g><text x="0" y="115" fill="#000000" font-size="5px" font-weight="bold" font-family="'Helvetica Neue', Helvetica, Arial-Unicode, Arial, Sans-serif">Created by iconsphere</text><text x="0" y="120" fill="#000000" font-size="5px" font-weight="bold" font-family="'Helvetica Neue', Helvetica, Arial-Unicode, Arial, Sans-serif">from the Noun Project</text></svg>