<?xml version="1.0" encoding="UTF-8"?>
<svg width="66px" height="66px" viewBox="0 0 66 66" version="1.1" xmlns="http://www.w3.org/2000/svg" xmlns:xlink="http://www.w3.org/1999/xlink">
    <!-- Generator: Sketch 42 (36781) - http://www.bohemiancoding.com/sketch -->
    <title>Excited</title>
    <desc>Created with Sketch.</desc>
    <defs></defs>
    <g id="scratchpad" stroke="none" stroke-width="1" fill="none" fill-rule="evenodd">
        <path d="M33,60.7114958 L33,60.7114958 C48.2604997,60.7114958 60.6315789,48.3576785 60.6315789,33.1184725 C60.6315789,17.8792666 48.2604997,5.52544928 33,5.52544928 C17.7395003,5.52544928 5.36842105,17.8792666 5.36842105,33.1184725 C5.36842105,48.3576785 17.7395003,60.7114958 33,60.7114958 L33,60.7114958 Z M33,65.9673097 C14.8327385,65.9673097 0.105263158,51.2603844 0.105263158,33.1184725 C0.105263158,14.9765607 14.8327385,0.269635327 33,0.269635327 C51.1672615,0.269635327 65.8947368,14.9765607 65.8947368,33.1184725 C65.8947368,51.2603844 51.1672615,65.9673097 33,65.9673097 Z M18.5263158,39.68824 C20.7063872,39.68824 22.4736842,37.9234089 22.4736842,35.7463795 C22.4736842,33.5693501 20.7063872,31.804519 18.5263158,31.804519 C16.3462444,31.804519 14.5789474,33.5693501 14.5789474,35.7463795 C14.5789474,37.9234089 16.3462444,39.68824 18.5263158,39.68824 Z M47.4736842,39.68824 C49.6537556,39.68824 51.4210526,37.9234089 51.4210526,35.7463795 C51.4210526,33.5693501 49.6537556,31.804519 47.4736842,31.804519 C45.2936128,31.804519 43.5263158,33.5693501 43.5263158,35.7463795 C43.5263158,37.9234089 45.2936128,39.68824 47.4736842,39.68824 Z M28.3963225,52.9488915 C31.0845359,54.0167436 35.7143302,53.9327112 37.7380317,52.9488915 C39.7617332,51.9650718 43.5932197,49.2156269 43.5932203,45.7984993 C43.5932197,44.3450194 37.5313862,43.6969114 32.9999997,43.6969116 C28.4686131,43.6969119 22.4067797,44.363 22.4067797,45.7984993 C22.4067797,48.7945576 25.7081091,51.8810394 28.3963225,52.9488915 Z" id="Excited" fill="#4A4A4A" fill-rule="nonzero" transform="translate(33.000000, 33.118473) rotate(-20.000000) translate(-33.000000, -33.118473) "></path>
    </g>
</svg>