<svg xmlns="http://www.w3.org/2000/svg" xmlns:xlink="http://www.w3.org/1999/xlink" version="1.1" x="0px" y="0px" viewBox="0 0 100 125" enable-background="new 0 0 100 100" xml:space="preserve"><g><path d="M50,78C15.792,78,3.283,52.29,2.767,51.196c-0.356-0.757-0.356-1.635,0-2.393C3.283,47.71,15.792,22,50,22   c34.209,0,46.717,25.71,47.233,26.804c0.357,0.757,0.357,1.635,0,2.393C96.717,52.29,84.209,78,50,78z M8.464,50.012   C11.239,54.876,23.106,72.4,50,72.4c26.674,0,38.752-17.629,41.536-22.413C88.76,45.124,76.893,27.6,50,27.6   C23.326,27.6,11.248,45.229,8.464,50.012z"/></g><g><path d="M50.002,68.375c-10.112,0-18.34-8.244-18.34-18.375c0-10.132,8.228-18.375,18.34-18.375   c10.109,0,18.333,8.243,18.333,18.375C68.336,60.131,60.111,68.375,50.002,68.375z M50.002,37.225   c-7.03,0-12.752,5.731-12.752,12.775s5.722,12.775,12.752,12.775c7.029,0,12.746-5.731,12.746-12.775S57.031,37.225,50.002,37.225z   "/></g><g><path d="M63.436,44.969H36.563c-1.543,0-2.794-1.253-2.794-2.8c0-1.547,1.251-2.8,2.794-2.8h26.873c1.545,0,2.793,1.253,2.793,2.8   C66.229,43.715,64.98,44.969,63.436,44.969z"/></g><g><path d="M63.971,52.713H36.029c-1.543,0-2.795-1.254-2.795-2.8s1.252-2.8,2.795-2.8h27.942c1.543,0,2.793,1.254,2.793,2.8   S65.514,52.713,63.971,52.713z"/></g><g><path d="M63.436,60.457H36.563c-1.543,0-2.794-1.253-2.794-2.801s1.251-2.8,2.794-2.8h26.873c1.545,0,2.793,1.252,2.793,2.8   S64.98,60.457,63.436,60.457z"/></g><text x="0" y="115" fill="#000000" font-size="5px" font-weight="bold" font-family="'Helvetica Neue', Helvetica, Arial-Unicode, Arial, Sans-serif">Created by Royyan Wijaya</text><text x="0" y="120" fill="#000000" font-size="5px" font-weight="bold" font-family="'Helvetica Neue', Helvetica, Arial-Unicode, Arial, Sans-serif">from the Noun Project</text></svg>