<?xml version="1.0" encoding="UTF-8"?>
<svg width="96px" height="56px" viewBox="0 0 96 56" version="1.1" xmlns="http://www.w3.org/2000/svg" xmlns:xlink="http://www.w3.org/1999/xlink">
    <!-- Generator: Sketch 43.1 (39012) - http://www.bohemiancoding.com/sketch -->
    <title>Shape</title>
    <desc>Created with Sketch.</desc>
    <defs></defs>
    <g id="Page-1" stroke="none" stroke-width="1" fill="none" fill-rule="evenodd">
        <path d="M48,56 C13.792,56 1.283,30.29 0.767,29.196 C0.411,28.439 0.411,27.561 0.767,26.803 C1.283,25.71 13.792,0 48,0 C82.209,0 94.717,25.71 95.233,26.804 C95.59,27.561 95.59,28.439 95.233,29.197 C94.717,30.29 82.209,56 48,56 Z M6.464,28.012 C9.239,32.876 21.106,50.4 48,50.4 C74.674,50.4 86.752,32.771 89.536,27.987 C86.76,23.124 74.893,5.6 48,5.6 C21.326,5.6 9.248,23.229 6.464,28.012 Z M48.002,46.375 C37.89,46.375 29.662,38.131 29.662,28 C29.662,17.868 37.89,9.625 48.002,9.625 C58.111,9.625 66.335,17.868 66.335,28 C66.336,38.131 58.111,46.375 48.002,46.375 Z M48.002,15.225 C40.972,15.225 35.25,20.956 35.25,28 C35.25,35.044 40.972,40.775 48.002,40.775 C55.031,40.775 60.748,35.044 60.748,28 C60.748,20.956 55.031,15.225 48.002,15.225 Z M61.436,22.969 L34.563,22.969 C33.02,22.969 31.769,21.716 31.769,20.169 C31.769,18.622 33.02,17.369 34.563,17.369 L61.436,17.369 C62.981,17.369 64.229,18.622 64.229,20.169 C64.229,21.715 62.98,22.969 61.436,22.969 Z M61.971,30.713 L34.029,30.713 C32.486,30.713 31.234,29.459 31.234,27.913 C31.234,26.367 32.486,25.113 34.029,25.113 L61.971,25.113 C63.514,25.113 64.764,26.367 64.764,27.913 C64.764,29.459 63.514,30.713 61.971,30.713 Z M61.436,38.457 L34.563,38.457 C33.02,38.457 31.769,37.204 31.769,35.656 C31.769,34.108 33.02,32.856 34.563,32.856 L61.436,32.856 C62.981,32.856 64.229,34.108 64.229,35.656 C64.229,37.204 62.98,38.457 61.436,38.457 Z" id="Shape" fill="#000000" fill-rule="nonzero"></path>
    </g>
</svg>