<?xml version="1.0" encoding="UTF-8"?>
<svg width="32px" height="28px" viewBox="0 0 32 28" version="1.1" xmlns="http://www.w3.org/2000/svg" xmlns:xlink="http://www.w3.org/1999/xlink">
    <!-- Generator: Sketch 44.1 (41455) - http://www.bohemiancoding.com/sketch -->
    <title>Shapeeye</title>
    <desc>Created with Sketch.</desc>
    <defs></defs>
    <g id="Page-1" stroke="none" stroke-width="1" fill="none" fill-rule="evenodd">
        <path d="M16.8014863,1.85974166 L31.858912,26.328058 C32.2447698,26.9550774 31.7936587,27.7623695 31.0574254,27.7623695 L0.942574544,27.7623695 C0.206341068,27.7623695 -0.244769894,26.9550774 0.141088209,26.328058 L15.1985137,1.85974166 C15.565994,1.26258605 16.434006,1.26258605 16.8014863,1.85974166 Z M2.62671408,25.8801913 L29.3732858,25.8801913 L16,4.14860175 L2.62671408,25.8801913 Z M9.48487678,18.2431528 C9.38820957,18.0113479 9.38820957,17.7505202 9.48487678,17.5187153 C10.5726089,14.9103694 13.1269125,13.1754886 16.0017284,13.1754886 C18.8765444,13.1754886 21.4308482,14.9103694 22.5185802,17.5187153 C22.6152474,17.7505202 22.6152474,18.0113479 22.5185802,18.2431528 C21.4308482,20.8514987 18.8765444,22.5863795 16.0017284,22.5863795 C13.1269125,22.5863795 10.5726089,20.8514987 9.48487678,18.2431528 Z M16.0017284,20.7042013 C17.9742345,20.7042013 19.7408142,19.5908002 20.6137298,17.880934 C19.7408142,16.1710679 17.9742345,15.0576668 16.0017284,15.0576668 C14.0292224,15.0576668 12.2626427,16.1710679 11.3897271,17.880934 C12.2626427,19.5908002 14.0292224,20.7042013 16.0017284,20.7042013 Z M16,19.2925677 C15.2203763,19.2925677 14.5883664,18.6605577 14.5883664,17.880934 C14.5883664,17.1013103 15.2203763,16.4693004 16,16.4693004 C16.7796237,16.4693004 17.4116336,17.1013103 17.4116336,17.880934 C17.4116336,18.6605577 16.7796237,19.2925677 16,19.2925677 Z M26.8361666,9.2770204 C26.3904851,9.54442913 25.8124113,9.39991069 25.5450027,8.95422948 C25.2775941,8.50854827 25.4221124,7.93047465 25.8677934,7.66306588 L30.5732389,4.83979861 C31.0189203,4.57238988 31.5969942,4.71690832 31.8644028,5.16258953 C32.1318113,5.60827074 31.987293,6.18634436 31.541612,6.45375313 L26.8361666,9.2770204 Z M22.9820764,4.60585539 C22.7773373,5.08358026 22.2240908,5.30487881 21.7463657,5.10013961 C21.2686412,4.89540036 21.0473426,4.34215394 21.2520818,3.86442908 L22.6637154,0.57061726 C22.8684545,0.0928923934 23.421701,-0.128406165 23.8994261,0.0763330368 C24.3771506,0.281072286 24.5984492,0.834318705 24.3937101,1.31204357 L22.9820764,4.60585539 Z M27.6305234,15.5187529 C27.115998,15.4452493 26.7584792,14.9685575 26.831983,14.4540321 C26.9054867,13.9395067 27.3821785,13.5819879 27.8967039,13.6554916 L31.1905157,14.1260361 C31.7050411,14.1995397 32.0625599,14.6762315 31.9890561,15.1907569 C31.9155524,15.7052823 31.4388606,16.0628011 30.9243352,15.9892974 L27.6305234,15.5187529 Z M6.13220633,7.66306588 C6.57788754,7.93047465 6.72240598,8.50854827 6.45499726,8.95422948 C6.18758849,9.39991069 5.60951487,9.54442913 5.16383366,9.2770204 L0.458388206,6.45375313 C0.0127069997,6.18634436 -0.131811441,5.60827074 0.135597283,5.16258953 C0.403006055,4.71690832 0.981079675,4.57238988 1.42676088,4.83979861 L6.13220633,7.66306588 Z M10.7479183,3.86442908 C10.9526575,4.34215394 10.7313589,4.89540036 10.2536341,5.10013961 C9.77590919,5.30487881 9.22266277,5.08358026 9.01792353,4.60585539 L7.60628989,1.31204357 C7.40155069,0.834318705 7.62284925,0.281072286 8.10057411,0.0763330368 C8.57829898,-0.128406165 9.1315454,0.0928923934 9.33628465,0.57061726 L10.7479183,3.86442908 Z M4.10329627,13.6554916 C4.61782167,13.5819879 5.09451341,13.9395067 5.16801704,14.4540321 C5.24152066,14.9685575 4.88400185,15.4452493 4.36947645,15.5187529 L1.07566463,15.9892974 C0.561139231,16.0628011 0.0844474915,15.7052823 0.0109438693,15.1907569 C-0.062559753,14.6762315 0.294959051,14.1995397 0.809484454,14.1260361 L4.10329627,13.6554916 Z" id="Shape" fill="#000000"></path>
    </g>
</svg>