<?xml version="1.0" encoding="UTF-8"?>
<svg width="114px" height="114px" viewBox="0 0 114 114" version="1.1" xmlns="http://www.w3.org/2000/svg" xmlns:xlink="http://www.w3.org/1999/xlink">
    <!-- Generator: Sketch 42 (36781) - http://www.bohemiancoding.com/sketch -->
    <title>Combined Shape</title>
    <desc>Created with Sketch.</desc>
    <defs></defs>
    <g id="Page-7" stroke="none" stroke-width="1" fill="none" fill-rule="evenodd">
        <path d="M58.2884121,79.7685438 L65.5411124,79.7685438 L65.5411124,61.7010634 L71.3412853,61.6806786 L72.2420974,54.8401864 L65.3647424,54.8393338 L65.3647424,50.3741172 C65.3647424,48.3492034 65.9517034,47.1924386 68.8439414,47.1924386 L72.5326525,47.1906794 L72.5326525,41.0368556 C71.8948822,40.9517919 69.7296032,40.7203003 67.1821817,40.7203003 C61.863652,40.7203003 58.176297,43.8785612 58.176297,49.8641346 L58.176297,54.8401864 L52.2517543,54.8401872 L52.2517543,61.6806786 L58.2884121,61.6806786 L58.2884121,79.7685438 L58.2884121,79.7685438 Z M33.2587713,35.9418269 C33.2587713,34.8346425 34.1450905,33.9370921 35.254436,33.9370921 L77.7076664,33.9370921 C78.8098416,33.9370921 79.7033311,34.8281028 79.7033311,35.9418269 L79.7033311,77.5620487 C79.7033311,78.6692331 78.8170119,79.5667835 77.7076664,79.5667835 L35.254436,79.5667835 C34.1522608,79.5667835 33.2587713,78.6757728 33.2587713,77.5620487 L33.2587713,35.9418269 Z M57,0 C88.4805818,0 114,25.5194182 114,57 C114,88.4805818 88.4805818,114 57,114 C25.5194182,114 0,88.4805818 0,57 C0,25.5194182 25.5194182,0 57,0 Z M57,3.10909091 C27.2843455,3.10909091 3.10909091,27.2843455 3.10909091,57 C3.10909091,86.7156545 27.2843455,110.890909 57,110.890909 C86.7156545,110.890909 110.890909,86.7156545 110.890909,57 C110.890909,27.2843455 86.7156545,3.10909091 57,3.10909091 Z" id="Combined-Shape" fill="#4A4A4A"></path>
    </g>
</svg>