<svg xmlns="http://www.w3.org/2000/svg" xmlns:xlink="http://www.w3.org/1999/xlink" version="1.1" x="0px" y="0px" viewBox="0 0 93.7 117.125" style="enable-background:new 0 0 93.7 93.7;" xml:space="preserve"><style type="text/css">
	.st0{fill:none;stroke:#000000;stroke-miterlimit:10;}
	.st1{fill:#010202;}
	.st2{fill:none;}
	.st3{fill:none;stroke:#000000;stroke-width:0.5;stroke-miterlimit:10;}
	.st4{fill:#FFFFFF;}
	.st5{fill:none;stroke:#000000;stroke-linecap:round;stroke-linejoin:round;stroke-miterlimit:10;}
	.st6{fill:#706F6F;}
	.st7{fill:#FFFFFF;stroke:#000000;stroke-miterlimit:10;}
	.st8{fill:none;stroke:#000000;stroke-linecap:round;stroke-miterlimit:10;}
	.st9{clip-path:url(#SVGID_2_);}
	.st10{fill:#030304;}
	.st11{fill:none;stroke:#000000;stroke-width:1.5;stroke-miterlimit:10;}
	.st12{fill:none;stroke:#000000;stroke-width:1.5;stroke-linecap:round;stroke-linejoin:round;stroke-miterlimit:10;}
	.st13{fill:none;stroke:#000000;stroke-width:1.5;stroke-linecap:round;stroke-miterlimit:10;}
</style><line class="st3" x1="74.8" y1="54.8" x2="74.8" y2="61.2"/><line class="st3" x1="74.8" y1="32.5" x2="74.8" y2="38.8"/><line class="st3" x1="19.8" y1="54.8" x2="19.8" y2="61.2"/><line class="st3" x1="19.8" y1="32.5" x2="19.8" y2="38.8"/><path class="st0" d="M34.6,46.1H9.9c-0.4,0-0.7,0.3-0.7,0.7s0.3,0.7,0.7,0.7h24.8V46.1z"/><path class="st0" d="M83.7,46.1H59.9v1.4h23.8c0.4,0,0.7-0.3,0.7-0.7S84.1,46.1,83.7,46.1z"/><g><path class="st0" d="M58.1,51.5H36.5c-1,0-1.9-0.8-1.9-1.9v-6.2c0-1,0.8-1.9,1.9-1.9h21.6c1,0,1.9,0.8,1.9,1.9v6.2   C59.9,50.6,59.1,51.5,58.1,51.5z"/></g><line class="st5" x1="45.2" y1="44.1" x2="45.2" y2="48.9"/><line class="st5" x1="47.3" y1="44.1" x2="47.3" y2="48.9"/><line class="st5" x1="49.3" y1="44.1" x2="49.3" y2="48.9"/><text x="0" y="108.7" fill="#000000" font-size="5px" font-weight="bold" font-family="'Helvetica Neue', Helvetica, Arial-Unicode, Arial, Sans-serif">Created by Romain Potier</text><text x="0" y="113.7" fill="#000000" font-size="5px" font-weight="bold" font-family="'Helvetica Neue', Helvetica, Arial-Unicode, Arial, Sans-serif">from the Noun Project</text></svg>