<svg xmlns="http://www.w3.org/2000/svg" xmlns:xlink="http://www.w3.org/1999/xlink" version="1.1" x="0px" y="0px" viewBox="0 0 93.7 117.125" style="enable-background:new 0 0 93.7 93.7;" xml:space="preserve"><style type="text/css">
	.st0{fill:none;stroke:#000000;stroke-miterlimit:10;}
	.st1{fill:#010202;}
	.st2{fill:none;}
	.st3{fill:none;stroke:#000000;stroke-width:0.5;stroke-miterlimit:10;}
	.st4{fill:#FFFFFF;}
	.st5{fill:none;stroke:#000000;stroke-linecap:round;stroke-linejoin:round;stroke-miterlimit:10;}
	.st6{fill:#706F6F;}
	.st7{fill:#FFFFFF;stroke:#000000;stroke-miterlimit:10;}
	.st8{fill:none;stroke:#000000;stroke-linecap:round;stroke-miterlimit:10;}
	.st9{clip-path:url(#SVGID_2_);}
	.st10{fill:#030304;}
	.st11{fill:none;stroke:#000000;stroke-width:1.5;stroke-miterlimit:10;}
	.st12{fill:none;stroke:#000000;stroke-width:1.5;stroke-linecap:round;stroke-linejoin:round;stroke-miterlimit:10;}
	.st13{fill:none;stroke:#000000;stroke-width:1.5;stroke-linecap:round;stroke-miterlimit:10;}
</style><path class="st0" d="M45.7,87L45.7,87c0,0.4,0.3,0.7,0.7,0.7h0.8c0.4,0,0.7-0.3,0.7-0.7v0H45.7z"/><path class="st0" d="M47.9,64.6v-58c0-0.4-0.3-0.7-0.7-0.7h-0.8c-0.4,0-0.7,0.3-0.7,0.7v58H47.9z"/><path class="st0" d="M56.6,85.6v-20c0-0.5-1.1-1-2.4-1H39.4c-1.3,0-2.4,0.4-2.4,1v20c0,0,0,0,0,0c0,0.8,1.5,1.4,3,1.4h13.4  C55.1,87,56.6,86.4,56.6,85.6C56.6,85.6,56.6,85.6,56.6,85.6z"/><line class="st5" x1="42.6" y1="79" x2="51" y2="79"/><line class="st5" x1="42.6" y1="75.9" x2="51" y2="75.9"/><line class="st5" x1="42.6" y1="72.6" x2="51" y2="72.6"/><line class="st3" x1="58.6" y1="14.5" x2="51" y2="14.5"/><line class="st3" x1="42.6" y1="14.5" x2="35.1" y2="14.5"/><text x="0" y="108.7" fill="#000000" font-size="5px" font-weight="bold" font-family="'Helvetica Neue', Helvetica, Arial-Unicode, Arial, Sans-serif">Created by Romain Potier</text><text x="0" y="113.7" fill="#000000" font-size="5px" font-weight="bold" font-family="'Helvetica Neue', Helvetica, Arial-Unicode, Arial, Sans-serif">from the Noun Project</text></svg>