<svg xmlns="http://www.w3.org/2000/svg" xmlns:xlink="http://www.w3.org/1999/xlink" version="1.1" x="0px" y="0px" viewBox="0 0 93.7 117.125" style="enable-background:new 0 0 93.7 93.7;" xml:space="preserve"><style type="text/css">
	.st0{fill:none;stroke:#000000;stroke-miterlimit:10;}
	.st1{fill:#010202;}
	.st2{fill:none;}
	.st3{fill:none;stroke:#000000;stroke-width:0.5;stroke-miterlimit:10;}
	.st4{fill:#FFFFFF;}
	.st5{fill:none;stroke:#000000;stroke-linecap:round;stroke-linejoin:round;stroke-miterlimit:10;}
	.st6{fill:#706F6F;}
	.st7{fill:#FFFFFF;stroke:#000000;stroke-miterlimit:10;}
	.st8{fill:none;stroke:#000000;stroke-linecap:round;stroke-miterlimit:10;}
	.st9{clip-path:url(#SVGID_2_);}
	.st10{fill:#030304;}
	.st11{fill:none;stroke:#000000;stroke-width:1.5;stroke-miterlimit:10;}
	.st12{fill:none;stroke:#000000;stroke-width:1.5;stroke-linecap:round;stroke-linejoin:round;stroke-miterlimit:10;}
	.st13{fill:none;stroke:#000000;stroke-width:1.5;stroke-linecap:round;stroke-miterlimit:10;}
</style><path class="st0" d="M47.9,7.2L47.9,7.2c0-0.5-0.3-0.9-0.7-0.9h-0.8c-0.4,0-0.7,0.4-0.7,0.9v0H47.9z"/><path class="st0" d="M45.7,28.2V87c0,0.4,0.3,0.7,0.7,0.7h0.8c0.4,0,0.7-0.3,0.7-0.7V28.2H45.7z"/><path d="M56.6,8c0-0.8-1.5-1.4-3-1.4H40.1c-1.6,0-3,0.6-3,1.4c0,0,0,0,0,0v20c0,0.5,1.1,1,2.4,1h14.8c1.3,0,2.4-0.4,2.4-1L56.6,8  C56.6,8,56.6,8,56.6,8z M51,21.5h-8.4c-0.3,0-0.5-0.2-0.5-0.5s0.2-0.5,0.5-0.5H51c0.3,0,0.5,0.2,0.5,0.5S51.3,21.5,51,21.5z   M51,18.2h-8.4c-0.3,0-0.5-0.2-0.5-0.5s0.2-0.5,0.5-0.5H51c0.3,0,0.5,0.2,0.5,0.5S51.3,18.2,51,18.2z M51,15.1h-8.4  c-0.3,0-0.5-0.2-0.5-0.5s0.2-0.5,0.5-0.5H51c0.3,0,0.5,0.2,0.5,0.5S51.3,15.1,51,15.1z"/><text x="0" y="108.7" fill="#000000" font-size="5px" font-weight="bold" font-family="'Helvetica Neue', Helvetica, Arial-Unicode, Arial, Sans-serif">Created by Romain Potier</text><text x="0" y="113.7" fill="#000000" font-size="5px" font-weight="bold" font-family="'Helvetica Neue', Helvetica, Arial-Unicode, Arial, Sans-serif">from the Noun Project</text></svg>