<svg xmlns="http://www.w3.org/2000/svg" xmlns:xlink="http://www.w3.org/1999/xlink" version="1.1" x="0px" y="0px" viewBox="0 0 93.7 117.125" style="enable-background:new 0 0 93.7 93.7;" xml:space="preserve"><style type="text/css">
	.st0{fill:none;stroke:#000000;stroke-miterlimit:10;}
	.st1{fill:#010202;}
	.st2{fill:none;}
	.st3{fill:none;stroke:#000000;stroke-width:0.5;stroke-miterlimit:10;}
	.st4{fill:#FFFFFF;}
	.st5{fill:none;stroke:#000000;stroke-linecap:round;stroke-linejoin:round;stroke-miterlimit:10;}
	.st6{fill:#706F6F;}
	.st7{fill:#FFFFFF;stroke:#000000;stroke-miterlimit:10;}
	.st8{fill:none;stroke:#000000;stroke-linecap:round;stroke-miterlimit:10;}
	.st9{clip-path:url(#SVGID_2_);}
	.st10{fill:#030304;}
	.st11{fill:none;stroke:#000000;stroke-width:1.5;stroke-miterlimit:10;}
	.st12{fill:none;stroke:#000000;stroke-width:1.5;stroke-linecap:round;stroke-linejoin:round;stroke-miterlimit:10;}
	.st13{fill:none;stroke:#000000;stroke-width:1.5;stroke-linecap:round;stroke-miterlimit:10;}
</style><path class="st0" d="M47.9,35.6v-29c0-0.4-0.3-0.7-0.7-0.7h-0.8c-0.4,0-0.7,0.3-0.7,0.7v29H47.9z"/><path class="st0" d="M45.7,58v29c0,0.4,0.3,0.7,0.7,0.7h0.8c0.4,0,0.7-0.3,0.7-0.7V58H45.7z"/><path class="st0" d="M37.1,37v20c0,0.5,1.1,1,2.4,1h14.8c1.3,0,2.4-0.4,2.4-1V37c0,0,0,0,0,0c0-0.8-1.5-1.4-3-1.4H40.1  C38.5,35.6,37.1,36.2,37.1,37C37.1,37,37.1,37,37.1,37z"/><line class="st5" x1="51" y1="43.6" x2="42.6" y2="43.6"/><line class="st5" x1="51" y1="46.7" x2="42.6" y2="46.7"/><line class="st5" x1="51" y1="50" x2="42.6" y2="50"/><line class="st3" x1="35.1" y1="15.5" x2="42.6" y2="15.5"/><line class="st3" x1="51" y1="15.5" x2="58.6" y2="15.5"/><line class="st3" x1="35.1" y1="79.1" x2="42.6" y2="79.1"/><line class="st3" x1="51" y1="79.1" x2="58.6" y2="79.1"/><text x="0" y="108.7" fill="#000000" font-size="5px" font-weight="bold" font-family="'Helvetica Neue', Helvetica, Arial-Unicode, Arial, Sans-serif">Created by Romain Potier</text><text x="0" y="113.7" fill="#000000" font-size="5px" font-weight="bold" font-family="'Helvetica Neue', Helvetica, Arial-Unicode, Arial, Sans-serif">from the Noun Project</text></svg>