<svg xmlns="http://www.w3.org/2000/svg" xmlns:xlink="http://www.w3.org/1999/xlink" version="1.1" x="0px" y="0px" viewBox="0 0 100 125" enable-background="new 0 0 100 100" xml:space="preserve"><g><path fill="#000000" d="M83.5,31.6c-0.6-0.1-1.1,0.1-1.5,0.6c-1.5,1.9-2.9,3-4.4,4.2c-2,1.6-4.1,3.3-6.1,6.6   c-1.1,1.9-3.1,3.1-5.2,3.1c-1.7,0-3.1-0.7-3.5-1.8c-0.6-1.5,0.6-3.8,3.2-6.1c6.9-6.2,6.2-16.4,3.6-23.2c-1.3-3.5-2.8-5.3-4.2-5.3   c-0.7,0-1.5,0.4-1.9,1.4c-0.1,0.3-0.2,0.6-0.3,0.8c-0.8,2.7-1.6,5.3-10.7,9.2c-6.6,2.8-8.4,6.7-9.9,9.9c-1.1,2.3-1.9,4.1-4.3,5.4   c-0.4,0.2-0.7,0.3-0.8,0.3c-0.1-0.3-0.6-1.6,0.2-5.8c0.5-2.8,1.3-5.4,1.3-5.4c0.2-0.6,0-1.3-0.6-1.7c-0.5-0.4-1.2-0.4-1.8,0   c-1.2,0.8-2.3,1.4-3.2,2c-3.9,2.2-5.9,3.7-7.2,11.3c-0.6,3.7-2,5.2-3.9,7.4c-2.6,2.9-5.9,6.5-8.4,16.3C10.7,73,16.6,85.9,27.6,90.9   c4.9,2.2,10.1,3.3,15.3,3.3c0,0,0,0,0,0c8.7,0,17-3.1,24-9c8.5-7.2,10.4-15.5,11.8-21.6c0.8-3.7,1.5-6.7,3.3-8.3   c7.6-6.8,2.9-22,2.7-22.7C84.6,32.1,84.1,31.7,83.5,31.6z M37,87.9C30,86,32.4,80,27.9,78.3c-4.1-1.4-6.4-7-6.4-11   c0-11.3,9.2-20.5,20.5-20.5c11.3,0,20.5,9.2,20.5,20.5c0,5.6-6.5,14.4-11.2,14.4C46.1,81.7,47.6,90.6,37,87.9z"/><path fill="#000000" d="M87.6,7.1c-0.3-0.9-1.2-1.4-2.1-1.2C84.6,6,84,6.8,84,7.7c0,0.3-0.3,2.4-3.5,4.4c-4.5,2.8-3.5,8.5-2.3,11   c0.3,0.7,1,1.1,1.7,1.1c0.1,0,0.3,0,0.4,0c3.3-0.7,5.7-2.4,7.1-5C90.1,14.1,87.7,7.4,87.6,7.1z"/><path fill="#000000" d="M16.9,32.3c0.3,0.1,0.5,0.2,0.8,0.2c0.6,0,1.3-0.3,1.6-0.9c0.2-0.3,4.3-7.5,0.3-11.9   c-1.4-1.6-1.7-4.4-1.7-5.3c0-0.8-0.6-1.6-1.4-1.8c-0.8-0.2-1.7,0.1-2.1,0.9c-2.9,4.9-3.7,9.3-2.6,13C13.2,30.5,16.7,32.2,16.9,32.3   z"/><path fill="#000000" d="M29.7,62.4c-2.7,0-5,2.2-5,5c0,2.7,2.2,5,5,5c2.7,0,5-2.2,5-5C34.6,64.6,32.4,62.4,29.7,62.4z"/><circle fill="#000000" cx="49.6" cy="69.4" r="5"/><path fill="#000000" d="M40.3,73.4c-0.4-1.3-2.2-1.5-2.8-0.2L35,78.7c-0.4,0.9,0.2,2,1.2,2.1l4.2,0.5c1.1,0.1,1.9-0.9,1.6-1.9   L40.3,73.4z"/></g><text x="0" y="115" fill="#000000" font-size="5px" font-weight="bold" font-family="'Helvetica Neue', Helvetica, Arial-Unicode, Arial, Sans-serif">Created by Martyn Jasinski</text><text x="0" y="120" fill="#000000" font-size="5px" font-weight="bold" font-family="'Helvetica Neue', Helvetica, Arial-Unicode, Arial, Sans-serif">from the Noun Project</text></svg>