<?xml version="1.0" encoding="UTF-8"?>
<svg width="108px" height="127px" viewBox="0 0 108 127" version="1.1" xmlns="http://www.w3.org/2000/svg" xmlns:xlink="http://www.w3.org/1999/xlink">
    <!-- Generator: Sketch 42 (36781) - http://www.bohemiancoding.com/sketch -->
    <title>Combined Shape@svg</title>
    <desc>Created with Sketch.</desc>
    <defs></defs>
    <g id="mockup" stroke="none" stroke-width="1" fill="none" fill-rule="evenodd">
        <g id="Pricing" transform="translate(-200.000000, -1490.000000)" fill="#585858">
            <g id="Group-31" transform="translate(200.000000, 1167.000000)">
                <g id="Group-29">
                    <g id="Group-23" transform="translate(0.000000, 318.000000)">
                        <path d="M108,107.962792 C108,107.962792 108,111.587021 104.141757,111.587021 L77.4041265,111.606129 C65.1596181,120.725694 39.1896941,132.807366 17.6172244,131.417608 C16.3663519,131.336928 15.2842332,130.416692 17.2492301,129.750627 C19.9000205,128.852228 28.4260932,122.980183 30.0495791,111.59703 L3.85824266,111.576405 C3.85824266,111.576405 0,111.88032 0,107.941864 L0,8.61361286 C0,8.61361286 0.0110860193,5 3.85824266,5 L104.141757,5 C104.141757,5 108,5.01061578 108,8.62422865 L108,107.962792 Z M37.6084335,35.1351049 C43.8115286,35.1351049 49.2263391,37.1870733 53.8530728,41.2908054 L56.1793112,39.2261593 C50.9168844,34.4085834 44.726661,32 37.6084335,32 C29.956448,32 23.4421498,34.7081483 18.0653314,40.1246494 C12.688513,45.5411505 10,52.0600095 10,59.6814308 C10,67.3539724 12.688513,73.8855092 18.0653314,79.2764502 C23.4421498,84.6675956 29.956448,87.3630661 37.6084335,87.3630661 C44.726661,87.3630661 50.8406925,84.9033624 55.9505281,79.9839549 L55.9505281,64.5632137 L55.9509433,61.8497489 L37.0645027,61.8497489 L37.0645027,64.5632137 L52.9381479,64.5632137 L52.9381479,78.9132916 C48.5144541,82.4818966 43.4046185,84.2661991 37.6084335,84.2661991 C30.8462524,84.2661991 25.0691673,81.870089 20.2769707,77.0780733 C15.4847742,72.2860577 13.0889873,66.4871768 13.0889873,59.6814308 C13.0889873,52.9012449 15.4847742,47.1152464 20.2769707,42.3232307 C25.0691673,37.5310105 30.8462524,35.1351049 37.6084335,35.1351049 Z M59.5639648,86 L62.9477539,86 L78.0996094,59.7568359 L93.2890625,86 L96.7104492,86 L79.7915039,56.7866211 L93.6650391,32.8369141 L90.2436523,32.8369141 L78.0996094,53.8540039 L65.9931641,32.8369141 L62.5717773,32.8369141 L76.4077148,56.7866211 L59.5639648,86 Z" id="Combined-Shape"></path>
                    </g>
                </g>
            </g>
        </g>
    </g>
</svg>