<svg xmlns="http://www.w3.org/2000/svg" xmlns:xlink="http://www.w3.org/1999/xlink" version="1.1" x="0px" y="0px" viewBox="0 0 100 125" enable-background="new 0 0 100 100" xml:space="preserve"><g><circle cx="77.062" cy="37.009" r="1.148"/><circle cx="77.062" cy="46.406" r="1.148"/><circle cx="77.062" cy="55.803" r="1.148"/><circle cx="77.062" cy="65.2" r="1.148"/><circle cx="67.665" cy="37.009" r="1.866"/><circle cx="67.665" cy="46.406" r="1.866"/><circle cx="67.665" cy="55.803" r="1.867"/><circle cx="67.665" cy="65.2" r="1.866"/><circle cx="58.268" cy="37.009" r="2.702"/><circle cx="58.268" cy="46.406" r="2.702"/><circle cx="58.268" cy="55.803" r="2.702"/><circle cx="58.268" cy="65.2" r="2.702"/><circle cx="48.871" cy="37.009" r="3.746"/><circle cx="48.871" cy="46.406" r="3.746"/><circle cx="48.871" cy="55.803" r="3.746"/><circle cx="48.871" cy="65.2" r="3.746"/><path d="M82.962,24.773H51.289h-4.837h-3.14h-7.687h-0.705H17.038c-1.116,0-2.019,0.903-2.019,2.018v4.335v2.368v7.029v2.368v7.028   v2.369v7.028v2.368v7.029v2.368v2.126c0,1.114,0.902,2.018,2.019,2.018h27.169h0.98h7.365h3.093h5.241h5.027h3.501h6.71h1.873   h4.964c1.116,0,2.019-0.903,2.019-2.018V26.791C84.98,25.677,84.078,24.773,82.962,24.773z M26.059,70.665   c-0.2-0.271-0.412-0.529-0.647-0.767c0.235-0.237,0.447-0.496,0.647-0.766c0.279,0.287,0.591,0.544,0.928,0.766   C26.649,70.121,26.338,70.378,26.059,70.665z M26.059,61.268c-0.2-0.27-0.412-0.528-0.647-0.766   c0.235-0.237,0.447-0.496,0.647-0.767c0.279,0.287,0.591,0.545,0.928,0.767C26.649,60.724,26.338,60.98,26.059,61.268z    M26.059,51.871c-0.2-0.271-0.412-0.529-0.647-0.767c0.235-0.237,0.447-0.496,0.647-0.767c0.279,0.287,0.591,0.545,0.928,0.767   C26.649,51.327,26.338,51.583,26.059,51.871z M26.059,42.474c-0.2-0.271-0.412-0.529-0.647-0.766   c0.235-0.237,0.447-0.497,0.647-0.767c0.279,0.286,0.591,0.544,0.928,0.767C26.649,41.93,26.338,42.187,26.059,42.474z    M26.059,33.077c-0.2-0.271-0.412-0.529-0.647-0.767c0.235-0.237,0.447-0.496,0.647-0.767c0.279,0.287,0.591,0.545,0.928,0.767   C26.649,32.532,26.338,32.789,26.059,33.077z M36.114,71.19h-1.581c-0.383-0.501-0.84-0.943-1.368-1.292   c0.91-0.599,1.636-1.455,2.073-2.464c0.664,1.257,1.87,2.182,3.31,2.464C37.607,70.083,36.771,70.545,36.114,71.19z M35.238,62.966   c-0.438-1.01-1.163-1.864-2.073-2.464c0.91-0.6,1.636-1.455,2.073-2.465c0.664,1.258,1.87,2.183,3.31,2.465   C37.108,60.784,35.902,61.709,35.238,62.966z M35.238,53.569c-0.438-1.01-1.163-1.865-2.073-2.465   c0.91-0.6,1.636-1.454,2.073-2.464c0.664,1.257,1.87,2.182,3.31,2.464C37.108,51.387,35.902,52.312,35.238,53.569z M35.238,44.172   c-0.438-1.01-1.163-1.865-2.073-2.464c0.91-0.6,1.636-1.455,2.073-2.465c0.664,1.257,1.87,2.182,3.31,2.465   C37.108,41.989,35.902,42.915,35.238,44.172z M35.238,34.775c-0.438-1.01-1.163-1.865-2.073-2.465   c0.91-0.6,1.636-1.455,2.073-2.465c0.664,1.258,1.87,2.183,3.31,2.465C37.108,32.593,35.902,33.518,35.238,34.775z M80.944,71.19   H50.409c-0.471-0.213-0.989-0.339-1.538-0.339c-0.553,0-1.07,0.126-1.542,0.339h-4.513c-0.655-0.642-1.48-1.108-2.416-1.292   c2.2-0.432,3.862-2.37,3.862-4.698s-1.662-4.267-3.862-4.698c2.2-0.432,3.862-2.37,3.862-4.699c0-2.328-1.662-4.266-3.862-4.698   c2.2-0.432,3.862-2.37,3.862-4.698c0-2.329-1.662-4.267-3.862-4.698c2.2-0.433,3.862-2.371,3.862-4.699s-1.662-4.267-3.862-4.698   c1.809-0.354,3.235-1.732,3.692-3.501h1.246c0.5,1.478,1.885,2.548,3.532,2.548s3.028-1.07,3.531-2.548h3.455   c0.441,0.888,1.35,1.504,2.41,1.504c1.058,0,1.968-0.616,2.409-1.504h5.566c0.343,0.405,0.848,0.669,1.422,0.669   c0.571,0,1.077-0.264,1.418-0.669h11.861V71.19z"/></g><text x="0" y="115" fill="#000000" font-size="5px" font-weight="bold" font-family="'Helvetica Neue', Helvetica, Arial-Unicode, Arial, Sans-serif">Created by Fabiano Coelho</text><text x="0" y="120" fill="#000000" font-size="5px" font-weight="bold" font-family="'Helvetica Neue', Helvetica, Arial-Unicode, Arial, Sans-serif">from the Noun Project</text></svg>