<?xml version="1.0" encoding="UTF-8"?>
<svg width="66px" height="66px" viewBox="0 0 66 66" version="1.1" xmlns="http://www.w3.org/2000/svg" xmlns:xlink="http://www.w3.org/1999/xlink">
    <!-- Generator: Sketch 42 (36781) - http://www.bohemiancoding.com/sketch -->
    <title>Happy</title>
    <desc>Created with Sketch.</desc>
    <defs></defs>
    <g id="scratchpad" stroke="none" stroke-width="1" fill="none" fill-rule="evenodd">
        <path d="M33,60.7114958 L33,60.7114958 C48.2604997,60.7114958 60.6315789,48.3576785 60.6315789,33.1184725 C60.6315789,17.8792666 48.2604997,5.52544928 33,5.52544928 C17.7395003,5.52544928 5.36842105,17.8792666 5.36842105,33.1184725 C5.36842105,48.3576785 17.7395003,60.7114958 33,60.7114958 L33,60.7114958 Z M33,65.9673097 C14.8327385,65.9673097 0.105263158,51.2603844 0.105263158,33.1184725 C0.105263158,14.9765607 14.8327385,0.269635327 33,0.269635327 C51.1672615,0.269635327 65.8947368,14.9765607 65.8947368,33.1184725 C65.8947368,51.2603844 51.1672615,65.9673097 33,65.9673097 Z M18.5263158,39.68824 C20.7063872,39.68824 22.4736842,37.9234089 22.4736842,35.7463795 C22.4736842,33.5693501 20.7063872,31.804519 18.5263158,31.804519 C16.3462444,31.804519 14.5789474,33.5693501 14.5789474,35.7463795 C14.5789474,37.9234089 16.3462444,39.68824 18.5263158,39.68824 Z M47.4736842,39.68824 C49.6537556,39.68824 51.4210526,37.9234089 51.4210526,35.7463795 C51.4210526,33.5693501 49.6537556,31.804519 47.4736842,31.804519 C45.2936128,31.804519 43.5263158,33.5693501 43.5263158,35.7463795 C43.5263158,37.9234089 45.2936128,39.68824 47.4736842,39.68824 Z M23.2357691,50.73541 C23.7518854,51.2556521 24.6306918,51.9187436 25.8835429,52.5477444 C27.8762297,53.5481837 30.2452422,54.1417284 32.966789,54.1417284 C35.6848832,54.1417284 38.0617662,53.5499593 40.0713777,52.5536656 C41.33119,51.9290956 42.2185453,51.2720837 42.7407865,50.7587464 C43.7765683,49.7406239 43.7897308,48.0767772 42.7701857,47.0424406 C41.7506406,46.0081041 40.084469,45.99496 39.0486872,47.0130824 C38.9025564,47.1567218 38.4589499,47.4851751 37.730993,47.8460702 C36.4276557,48.4922183 34.846347,48.8859144 32.966789,48.8859144 C31.0906834,48.8859144 29.5264126,48.4939939 28.2476644,47.8519914 C27.8214665,47.6380164 27.4657317,47.4145529 27.1811682,47.1998394 C27.0396928,47.093091 26.9704577,47.032085 26.9747572,47.0364188 C25.9518817,46.0053665 24.2856763,45.9975808 23.2531833,47.019029 C22.2206902,48.0404772 22.2128937,49.7043576 23.2357691,50.73541 Z" id="Happy" fill="#4A4A4A" fill-rule="nonzero" transform="translate(33.000000, 33.118473) rotate(20.000000) translate(-33.000000, -33.118473) "></path>
    </g>
</svg>