<?xml version="1.0" encoding="UTF-8"?>
<svg width="528px" height="608px" viewBox="0 0 528 608" version="1.1" xmlns="http://www.w3.org/2000/svg" xmlns:xlink="http://www.w3.org/1999/xlink">
    <!-- Generator: Sketch 42 (36781) - http://www.bohemiancoding.com/sketch -->
    <title>heart@svg</title>
    <desc>Created with Sketch.</desc>
    <defs></defs>
    <g id="svg" stroke="none" stroke-width="1" fill="none" fill-rule="evenodd">
        <path d="M265.20759,607.528586 C255.134167,569.666409 240.718967,533.975764 221.961559,500.45558 C203.20415,466.935396 167.426667,415.092781 114.628035,344.926178 C75.7237801,293.516984 51.5826626,260.692011 42.2039583,246.450275 C27.2675033,223.871913 16.4995229,203.204338 9.89969393,184.446929 C3.29986498,165.68952 0,146.585039 0,127.132912 C0,91.007532 11.9837202,60.8745544 35.9515201,36.7330749 C59.91932,12.5915953 89.6181048,0.521036523 125.048765,0.521036523 C160.132067,0.521036523 190.699237,13.025788 216.751193,38.0356662 C236.55068,57.1404342 252.702651,85.102448 265.20759,121.922546 C276.670451,80.9341349 294.819708,50.3669646 319.655907,30.2201183 C344.492105,10.073272 372.019926,0 402.240196,0 C437.323497,0 467.022282,11.9837202 491.337441,35.9515201 C515.6526,59.91932 527.809998,88.2286879 527.809998,120.880473 C527.809998,150.406024 520.776075,180.799517 506.708018,212.061865 C492.639962,243.324212 465.112141,284.83304 424.12373,336.589594 C371.325098,403.282602 334.071359,455.819926 312.361395,494.203142 C290.651432,532.586358 274.933654,570.361128 265.20759,607.528586 Z" id="heart" fill="#000000"></path>
    </g>
</svg>