<?xml version="1.0" encoding="UTF-8"?>
<svg width="114px" height="114px" viewBox="0 0 114 114" version="1.1" xmlns="http://www.w3.org/2000/svg" xmlns:xlink="http://www.w3.org/1999/xlink">
    <!-- Generator: Sketch 42 (36781) - http://www.bohemiancoding.com/sketch -->
    <title>Combined Shape Copy</title>
    <desc>Created with Sketch.</desc>
    <defs></defs>
    <g id="Page-7" stroke="none" stroke-width="1" fill="none" fill-rule="evenodd">
        <path d="M57.0098454,0 C56.8502466,0 56.6865025,0.00103636364 56.5269037,0.00207272727 C25.0476061,0.263236364 -0.259158278,25.9940727 0.00200330219,57.4736182 C0.262128527,88.7935636 25.729528,114 56.9901546,114 C57.1497534,114 57.3134975,113.998964 57.4730963,113.997927 C88.9523939,113.736764 114.259158,88.0059273 113.997997,56.5263818 C113.737871,25.2074727 88.270472,-0.00310909091 57.0098454,0 M57.0150272,0 L57.0150272,3.10909091 C71.3136237,3.10909091 84.7831358,8.65570909 94.9414922,18.7270909 C105.106067,28.8036545 110.769749,42.237 110.88893,56.5522909 C111.135583,86.2669091 87.1615716,110.642182 57.4482237,110.888836 L56.9901546,110.890909 C42.6905218,110.890909 29.2199733,105.344291 19.0595442,95.2739455 C8.89393329,85.1973818 3.23025061,71.763 3.11106973,57.4477091 C2.86441713,27.7330909 26.8384284,3.35781818 56.5517763,3.11116364 L57.0098454,3.10909091 L57.0150272,0 Z M56.9998964,27.3733691 C48.9536324,27.3733691 47.9452586,27.4075691 44.7854107,27.5516236 C41.631781,27.6956782 39.4782343,28.1962418 37.5931037,28.9289509 C35.6447554,29.6854964 33.9928048,30.69906 32.3460359,32.3458418 C30.6992671,33.9926236 29.6857114,35.6456236 28.9291719,37.5929509 C28.1964686,39.4780964 27.6959089,41.63166 27.5518555,44.7853145 C27.4078021,47.9451873 27.3736023,48.9535691 27.3736023,56.9998964 C27.3736023,65.0462236 27.4078021,66.0546055 27.5518555,69.2155145 C27.6959089,72.3681327 28.1964686,74.5216964 28.9291719,76.4068418 C29.6857114,78.3552055 30.6992671,80.0071691 32.3460359,81.6539509 C33.9928048,83.3017691 35.6447554,84.3142964 37.5931037,85.0718782 C39.4782343,85.8035509 41.631781,86.3041145 44.7854107,86.4481691 C47.9452586,86.5922236 48.9536324,86.6264236 56.9998964,86.6264236 C65.0461603,86.6264236 66.0545342,86.5922236 69.214382,86.4481691 C72.3680117,86.3041145 74.5215584,85.8035509 76.406689,85.0718782 C78.3550373,84.3142964 80.006988,83.3017691 81.6537568,81.6539509 C83.3005257,80.0071691 84.3140813,78.3552055 85.0706208,76.4068418 C85.8033241,74.5216964 86.3038838,72.3681327 86.4479372,69.2155145 C86.5919907,66.0546055 86.6261904,65.0462236 86.6261904,56.9998964 C86.6261904,48.9535691 86.5919907,47.9451873 86.4479372,44.7853145 C86.3038838,41.63166 85.8033241,39.4780964 85.0706208,37.5929509 C84.3140813,35.6456236 83.3005257,33.9926236 81.6537568,32.3458418 C80.006988,30.69906 78.3550373,29.6854964 76.406689,28.9289509 C74.5215584,28.1962418 72.3680117,27.6956782 69.214382,27.5516236 C66.0545342,27.4075691 65.0461603,27.3733691 56.9998964,27.3733691 Z M56.9998964,32.7116782 C64.9103977,32.7116782 65.8472631,32.7417327 68.9718748,32.8837145 C71.8601975,33.0163691 73.4292397,33.4982782 74.4728497,33.9045327 C75.8553479,34.4413691 76.8429947,35.0839145 77.8793502,36.1202782 C78.9157056,37.1576782 79.558246,38.1442964 80.0950782,39.5268055 C80.5013295,40.57146 80.9842712,42.1394782 81.1158883,45.0278236 C81.257869,48.15246 81.2879233,49.0893327 81.2879233,56.9998964 C81.2879233,64.91046 81.257869,65.8473327 81.1158883,68.9719691 C80.9842712,71.8603145 80.5013295,73.4293691 80.0950782,74.4729873 C79.558246,75.8554964 78.9157056,76.8431509 77.8793502,77.8795145 C76.8429947,78.9158782 75.8553479,79.5584236 74.4728497,80.09526 C73.4292397,80.5015145 71.8601975,80.98446 68.9718748,81.1160782 C65.8482994,81.25806 64.9114341,81.2881145 56.9998964,81.2881145 C49.0883587,81.2881145 48.1514933,81.25806 45.0279179,81.1160782 C42.1395952,80.98446 40.570553,80.5015145 39.526943,80.09526 C38.1444448,79.5584236 37.156798,78.9158782 36.1204426,77.8795145 C35.0840871,76.8431509 34.4415467,75.8554964 33.9047146,74.4729873 C33.4984632,73.4293691 33.0155216,71.8603145 32.8839044,68.9719691 C32.7419237,65.8473327 32.7118694,64.91046 32.7118694,56.9998964 C32.7118694,49.0893327 32.7419237,48.15246 32.8839044,45.02886 C33.0155216,42.1394782 33.4984632,40.57146 33.9047146,39.5268055 C34.4415467,38.1442964 35.0840871,37.1576782 36.1204426,36.1202782 C37.156798,35.0839145 38.1444448,34.4413691 39.526943,33.9045327 C40.570553,33.4982782 42.1395952,33.0163691 45.0279179,32.8837145 C48.1525297,32.7417327 49.089395,32.7116782 56.9998964,32.7116782 Z M56.9998964,41.7862855 C48.5981625,41.7862855 41.786198,48.5972673 41.786198,57.0001036 C41.786198,65.4019036 48.5981625,72.2139218 56.9998964,72.2139218 C65.4016302,72.2139218 72.2135948,65.4019036 72.2135948,57.0001036 C72.2135948,48.5972673 65.4016302,41.7862855 56.9998964,41.7862855 Z M56.9998964,66.8756127 C51.5455575,66.8756127 47.124465,62.4544855 47.124465,57.0001036 C47.124465,51.5457218 51.5455575,47.1245945 56.9998964,47.1245945 C62.4542352,47.1245945 66.8753277,51.5457218 66.8753277,57.0001036 C66.8753277,62.4544855 62.4542352,66.8756127 56.9998964,66.8756127 Z M76.3697948,41.1851945 C76.3697948,39.2212855 74.7779528,37.6304673 72.8150955,37.6304673 C70.8512019,37.6304673 69.2593598,39.2212855 69.2593598,41.1851945 C69.2593598,43.1491036 70.8512019,44.7399218 72.8150955,44.7399218 C74.7779528,44.7399218 76.3697948,43.1491036 76.3697948,41.1851945 Z" id="Combined-Shape-Copy" fill="#CC3B69"></path>
    </g>
</svg>