<svg xmlns="http://www.w3.org/2000/svg" xmlns:xlink="http://www.w3.org/1999/xlink" version="1.1" x="0px" y="0px" viewBox="0 0 100 125" enable-background="new 0 0 100 100" xml:space="preserve"><path d="M70.759,36.472L55.234,24.743c-1.882-1.421-4.559-1.048-5.981,0.833l-7.685,10.171c-1.421,1.883-1.049,4.562,0.833,5.982  l1.894,1.431l-1.272,1.686c-0.474,0.626-0.35,1.52,0.277,1.994l1.515,1.144L28.192,69.984c-1.067,1.412-0.787,3.42,0.625,4.487  l1.326,1.001c1.412,1.066,3.42,0.787,4.486-0.625l4.958-6.563l-2.222-1.679l3.357-4.443l2.221,1.679l2.841-3.761l-2.222-1.679  l3.358-4.443l2.221,1.679l2.109-2.791l1.514,1.144c0.628,0.475,1.521,0.35,1.994-0.277l1.273-1.685l1.893,1.43  c1.883,1.422,4.562,1.049,5.983-0.833l7.684-10.171C73.014,40.573,72.642,37.894,70.759,36.472z M62.2,43.863  c-1.631-1.231-1.953-3.552-0.722-5.183c1.232-1.631,3.552-1.953,5.183-0.722c1.631,1.232,1.954,3.552,0.722,5.183  C66.151,44.772,63.831,45.095,62.2,43.863z"/><text x="0" y="115" fill="#000000" font-size="5px" font-weight="bold" font-family="'Helvetica Neue', Helvetica, Arial-Unicode, Arial, Sans-serif">Created by asianson.design</text><text x="0" y="120" fill="#000000" font-size="5px" font-weight="bold" font-family="'Helvetica Neue', Helvetica, Arial-Unicode, Arial, Sans-serif">from the Noun Project</text></svg>