<?xml version="1.0" encoding="utf-8"?>
<!-- Generator: Adobe Illustrator 19.2.1, SVG Export Plug-In . SVG Version: 6.00 Build 0)  -->
<svg version="1.1" id="Layer_1" xmlns="http://www.w3.org/2000/svg" xmlns:xlink="http://www.w3.org/1999/xlink" x="0px" y="0px"
	 viewBox="0 0 1053.1 239.8" style="enable-background:new 0 0 1053.1 239.8;" xml:space="preserve">
<g>
	<path d="M1034.2,201.1c-1,0.3-0.2,1.6-1,2c0.2,1.6-0.8,3-1.2,4.5c-0.4,1.5-1,3.1-1.3,4.6c-0.3,1.5-1.3,2.9-1.2,4.5
		c0,0.6-0.7,1.1-0.5,2c-20,0-39.9,0-59.9,0c0-0.4,0-0.8,0-1.3c2.2-0.3,4.4-0.7,6.6-1.6c1-0.5,1.5-1.4,1.9-1.6
		c1.1-1.8,0.6-3.4,0.9-4.8c0.9-4.3,0.4-8.7,0.5-13.1c0.1-4.3,0-8.7,0-13c0-7-0.1-14.1,0.1-21.1c0.1-3.3-0.5-6.5-0.6-9.7
		c-0.1-1.2-0.5-2.6-1.4-3.6c-1-1.1-2.3-1.6-3.6-1.9c-1.4-0.3-2.7-0.7-4.2-0.5c0-0.6,0-1,0-1.5c10.4,0,20.7,0,31.1,0
		c0,0.5,0,0.9,0,1.5c-2.5-0.4-4.7,0.5-7.1,1.1c-1.3,1.2-2.5,2.5-3,4.4c-0.2,0.9-0.3,1.7-0.3,2.5c0,19.3,0,38.5,0,57.8
		c0.4,0.4,0.9,0.8,1.3,1.3c0.7,0.8,1.6,1.1,2.7,1.1c5.6,0,11.1,0.2,16.7-0.1c3.6-0.2,7.2-0.7,10.6-2c0.8-0.3,1.5-0.6,2.1-1.2
		c4.1-4.1,4.2-3.4,8.1-10.7c0.1-0.1,0.2-0.2,0.5-0.6c0.6,0,1.5,0,2.3,0C1034.2,200.4,1034.2,200.7,1034.2,201.1z"/>
	<path d="M364.9,177.6c7.1,0,14.1,0.1,21-0.1c3-0.1,5.7-1,6.7-4.4c1.2-1.1,1-2.7,1.4-4.1c0.2-0.8,0.6-1.5,0.8-2.3c0.6,0,1.2,0,1.8,0
		c0,8.8,0,17.5,0,26.4c-0.4,0.4-1.1,0.1-1.6,0.2c-1-1.2-1-2.7-1.3-4.1c-0.4-1.6-1.2-3-2-4.4c-1.2-1.9-3.4-2.4-5.4-2.4
		c-7-0.2-14-0.1-21.1-0.1c0,10,0,20,0,29.9c0.6,0.6,1.2,1.2,1.5,1.6c2.4,1,4.6,0.7,6.8,0.7c4,0,8,0.1,12,0c3.1-0.1,6.1-0.7,9-1.6
		c2-0.6,3.7-1.6,5.3-3c2.7-2.6,5-6,6.6-9.9c0.9,0,1.8,0,2.9,0c-1.8,6.2-3.2,12.5-5.2,18.6c-20,0-39.9,0-59.7,0c0-0.5,0-0.9,0-1.5
		c2,0.3,3.7-0.5,5.5-1c2.4-0.7,3.8-2.6,3.8-5.2c0-2.9,0.8-5.7,0.6-8.6c-0.2-2.9,0-5.9,0-8.9c0-3,0-6.1,0-9.1c0-3,0-5.9,0-8.9
		c0-3,0-5.9,0-8.9s-0.1-5.9,0-8.9c0.1-1.2-0.6-2.2-0.6-3.4c0-1.1,0.4-2.2-0.5-3.2c0-2.6-2.1-3.6-3.9-4.2c-1.6-0.5-3.5-1.2-5.2-0.6
		c-2.1,0.7-4.5,0.9-6.1,2.9c-1.2,1.4-1.7,2.9-2.1,4.6c-0.6,3.1-0.4,6.1-0.4,9.2c-0.1,3.1,0,6.2,0,9.4c0,15.1,0,30.2,0,45.3
		c0,0.8,0,1.6,0,2.3c-0.6,0.5-1.2,0.1-1.8,0.2c-0.5-0.2-0.2-0.7-0.6-1.1c-2.9-2.8-5-6.3-7.7-9.3c-2.2-2.5-4.2-5.2-6.3-7.8
		c-2.6-3.2-5.1-6.6-7.7-9.8c-2.8-3.5-5.6-7-8.5-10.6c-2-2.5-4-4.9-5.9-7.4c-2.3-3.1-4.7-6-7.1-9c-1.9-2.4-3.6-4.9-5.8-7
		c-0.5,0.6-0.2,1.4-0.2,2c0,14.2,0,28.5,0,42.7c0,1.5,0.9,2.8,0.5,4.2c-0.3,1.5,0.2,2.9,0.6,4.2c0.5,1.8,1.3,3.5,3.4,4.3
		c0.5,0.2,1.2,0.2,1.5,0.9c1.7-0.4,3.2,0.9,4.9,0.4c0,0.6,0,1,0,1.5c-8.6,0-17.2,0-25.8,0c-0.4-0.4-0.2-0.9-0.1-1.4
		c3.5-0.5,7-0.9,9.2-4.1c-0.3-0.9,0.4-1.7,0.7-2.5c0.4-1.4,0.4-2.8,0.4-4.2c0-18,0-35.9,0-53.9c-2.5-3.7-5.3-6.8-10.2-6.1
		c-0.3-0.5-0.2-0.9-0.2-1.5c6.3,0,12.6,0,19.1,0c14.1,17.6,28.2,35.4,42.3,53.1c0.6-0.2,0.5-0.6,0.5-0.9c0-13.2,0-26.4,0-39.6
		c0-2-0.4-3.9-1-5.8c-0.4-1.2-0.9-2.5-1.9-3.4c-0.9-0.8-2.2-1.1-3.3-1.4c-1.4-0.3-2.9-1-4.3-0.6c-0.5-0.5-0.1-0.9-0.3-1.3
		c0.4-0.4,76.2-0.6,83.4-0.2c0,1.6,0.1,3.2,0,4.9c-0.2,3.7,1,7.3,0.4,11.1c-0.7,0-1.4,0-2.3,0c-0.9-1.5-1.1-3.4-1.6-5.1
		c-1.3-3.8-3.6-5.7-7.6-6.3c-2.2-0.3-4.4-0.4-6.6-0.4c-6.3-0.1-12.7,0-19,0c-0.5,0.5-0.9,0.9-1.3,1.3
		C364.9,159.3,364.9,168.4,364.9,177.6z"/>
	<path d="M19.2,218.8c-0.3-0.7-0.2-1.3-0.1-2.1c1.9,0.4,3.6-0.3,5.4-0.6c2.3-0.3,4.6-1.1,5.9-3.4c-0.2-0.7,0.5-1.4,0.7-2.2
		c0.5-1.8,0.5-3.7,0.5-5.5c0-19.2,0-38.4,0-57.6c0-3.8,0.4-7.6-1.4-11.5c-1-1-2.2-2.6-4.2-2.7c-0.2,0-0.3-0.4-0.6-0.4
		c-2,0.3-4-1-6-0.4c-0.4-0.7-0.3-1.4-0.1-2.2c0.6,0,1.2,0,1.8,0c12.7,0,25.3,0,38-0.1c1.4,0,2.6,0.6,4,0.6c1.3,0,2.7-0.4,4,0.5
		c2.1-0.2,4.1,0.6,6.1,1c1.3,0.3,2.5,0.8,3.7,1.1c4.3,1.3,8.3,3.9,10.8,7.2c1.1,1.5,1.8,3.4,2.4,5.2c0.4,1.1,0.8,2.2,0.5,3.4
		c-0.2,1,0.6,1.7,0.6,2.7c0,3.2-0.8,6.2-1.7,9.2c-0.3,1.1-1.2,2.2-2,3.1c-1.4,1.6-2.8,3.2-4.7,4.2c-1.9,1-4,1.7-6,2.4
		c-1,0.3-2.1,0.3-2.8,1.3c3.7,1.2,7.3,2.4,10.7,4.4c4,2.3,7.4,5,9.3,9.4c0.8,1.9,1.4,3.8,1.4,5.9c0,1.5,0,3,0,4.4
		c-0.2,6.1-2.5,11.3-7.1,15.2c-2.4,2.1-5.3,3.8-8.5,4.6c-2.3,0.7-4.6,1.8-7.2,1.6c-1.4,0.8-3,0.3-4.5,0.6c-5.1,1-10.3,0.3-15.4,0.5
		c-5.1,0.1-10.2,0-15.4,0c-5.6,0-11.3,0-16.9,0C19.8,218.8,19.5,218.8,19.2,218.8z M77.3,206.5c-0.1-0.4,0.4-0.7,0.6-1.1
		c1.3-2.8,2.3-5.6,2.1-8.8c-0.1-1.3-0.1-2.6,0-3.9c0.2-1.7-0.4-3.2-0.6-4.7c-0.1-1-0.6-2-1.1-2.9c-2.2-3.5-5.3-5.9-9.1-7.4
		c-1-0.4-2.1-0.8-3.2-1c-1.2-0.2-2.5-0.4-3.6-0.8c-1.2-0.4-2.5,0.2-3.5-0.4c-1.3-0.7-2.5-0.3-3.7-0.4c-1.8-0.1-3.6,0-5.5,0
		c-1.5,0-3.1,0-4.6,0c0,11.6,0,23,0,34.3c0,1.3,0.4,2.3,1.3,3.1c0.4,0.4,0.7,0.8,1.1,1.2c1.2-0.5,2.1,0.5,3.2,0.4
		c4.3-0.3,8.6,0.4,12.8-0.5c2.3-0.5,4.6-1.1,6.7-2C72.9,210.6,75.4,209.1,77.3,206.5z M45.1,169.8c0.4,0,0.6,0.1,0.9,0.1
		c3.1-0.2,6.3,0.3,9.4-0.4c2.7-0.6,5.6,0,8.4-0.5c4.2-0.9,7.9-2.5,10.6-5.7c1.6-1.9,2.7-4.2,2.9-6.6c0.2-2.8,0.3-5.6-0.3-8.4
		c-1.3-5.9-5.1-9.3-10.3-11.7c-1.8,0.1-3.3-1-5-1c-1.9,0-3.6-0.8-5.5-0.6c-2.3,0.2-4.7,0-7,0c-1.2,0-2.4-0.1-3.2,0.7
		c-1,0.8-0.8,1.8-0.8,2.8c0,10,0,20,0,29.9C45.1,168.9,45.1,169.3,45.1,169.8z"/>
	<path d="M750.6,148c-2-0.8-4.4-1.6-6.9-1.7c-0.2-0.5-0.2-0.9-0.1-1.3c0.5-0.4,1-0.2,1.5-0.2c9.5,0,19.1,0.1,28.6-0.1
		c2.9,0,5.7,0.6,8.6,0.6c1.8,0,3.6,0.8,5.4,1.2c2.5,0.6,4.7,1.7,6.9,2.9c1.1,0.6,2.2,1.3,2.9,2.3c0.8,1,1.6,2,2.3,3.2
		c0.8,1.3,1.6,2.8,1.9,4.2c0.5,2.4,1,4.8,0.6,7.3c-0.6,4-1.6,7.8-4.9,10.5c-2.6,2.2-5.6,3.9-8.9,4.8c-1.7,0.5-3.4,1.2-5.2,1.1
		c-0.2,0.4-0.8,0.5-0.7,1.3c1.4,1.1,2.5,2.6,3.7,4.2c1.8,2.5,4.1,4.6,5.8,7.2c0.8,1.3,2,2.3,3,3.4c1.1,1.4,2.2,2.8,3.4,4.1
		c1,1.1,2.3,2.2,2.9,3.5c0.7,1.4,2.1,2.1,2.8,3.5c0.7,1.3,1.9,2.4,2.9,3.5c2,2.4,4.9,3.2,7.8,3.7c0.2,0.4,0.1,0.8,0.1,1.3
		c-6,0-11.9,0-18.1,0c-0.2-0.1,0-0.5-0.2-0.8c-1.3-1.5-2.7-2.8-3.8-4.4c-1.8-2.4-3.9-4.6-5.6-7c-0.7-1.1-1.7-2.1-2.6-3.1
		c-2.4-2.8-4.7-5.7-7-8.6c-1.9-2.4-4-4.6-5.8-7c-0.9-1.2-1.8-2.2-2.8-3.3c-1.6-0.4-3.3-0.1-5.1,0.6c0.3,8.9-0.5,18,0.7,27.3
		c0,0,0.2,0.1,0.2,0.2c0.7,2.7,2.9,3.5,5.3,4.1c1.4,0.3,2.7,0.7,4.2,0.5c0,0.6,0,1,0,1.5c-10.2,0-20.3,0-30.5,0
		c-0.4-0.3,0-0.9-0.2-1.3c2.8-0.4,5.4-0.6,7.9-2.7c1.2-1.9,1.6-4.6,1.6-7.4c-0.1-17-0.1-34,0-51C752.9,153.5,752.7,150.8,750.6,148z
		 M763.8,180.7c0.4,0,0.6,0.1,0.9,0.1c2.6-0.2,5.3,0.5,7.8-0.5c2,0.3,3.9-0.3,5.8-0.6c0.9-0.1,1.8-0.2,2.6-0.6
		c2.7-1.4,5.5-2.6,7.1-5.4c0.9-1.6,2.4-5.1,2.4-6.5c-0.1-2.4,0.2-4.7-0.5-7.1c-0.6-2.2-1.4-4.2-3-5.8c-3.1-3.4-7.2-4.7-11.6-5.1
		c-2.5-0.3-5,0-7.5-0.1c-1.3,0-2.5,0.3-3.5,1.4c0.4,1-0.6,1.9-0.5,3c0.1,1.2,0,2.4,0,3.6c0,6.6,0,13.2,0,19.8
		C763.8,178.1,763.8,179.4,763.8,180.7z"/>
	<path d="M347.7,108.4c0,0.8,0,1.3,0,1.8c-0.3,0.4-26.3,0.5-33.2,0.2c-0.3-0.6-0.1-1.2-0.1-1.8c2.7-0.4,5.6-0.3,8.4-2
		c0.1-0.1-0.1-0.7,0.3-0.9c0.7-3.7-0.4-7-1.7-10.2c-1.1-2.9-2.4-5.8-3.5-8.7c-0.6-1.7-1.8-3.3-2.1-5.2c-11.8,0-23.7,0-35.6,0
		c-0.7,1.8-1.4,3.8-2.2,5.7c-1.6,4.2-3.3,8.4-4.7,12.6c-0.5,1.4-0.4,3.1,0,4.6c0.2,1.2,1.2,2.2,2.4,3c1.9,0.2,3.9,1.4,6.1,1
		c0.3,0.8,0.2,1.4,0.1,2.1c-8.6,0-17.2,0-25.8,0c-0.4-0.6-0.1-1.2-0.2-1.9c2.1-0.2,3.9-0.8,5.6-2.1c0.7-0.6,1.2-1.2,1.8-1.9
		c2.1-2.4,3.1-5.3,4.6-8c0.9-1.6,1.5-3.4,2.2-5.1c0.6-1.7,1.4-3.4,2.2-5.1c0.8-1.7,1.5-3.4,2.2-5.1c1.2-2.7,2.3-5.4,3.4-8.2
		c0.6-1.5,1.4-2.9,2-4.4c1.6-4,3.4-8,5.1-11.9c1.4-3.3,2.7-6.5,4.1-9.8c0.8-1.8,1.6-3.7,2.3-5.6c0.7-1.9,1.9-3.6,2.2-5.6
		c1.7-2.5,2.3-5.5,3.6-8.1c1-2,1.8-4.1,2.6-6.2c0.1-0.4,0.4-0.5,0.7-0.9c0.7,0,1.4,0,2.3,0c0.5,1.1,1.3,2.3,1.7,3.6
		c0.2,0.7,0.5,1.4,0.8,2c1.1,1.9,1.9,3.9,2.6,5.9c0.7,2,2.2,3.6,2.3,5.8c1,1.2,1.4,2.7,2,4.1c1.7,3.7,3.4,7.5,5,11.2
		c1.7,4.1,3.6,8.1,5.3,12.1c1.7,4,3.5,7.9,5.2,11.9c1.9,4.3,3.9,8.6,5.7,13c1.4,3.3,2.9,6.5,4.2,9.7c0.8,2.1,2,4.1,3.6,5.8
		c1.2,1.2,2.6,2,4.3,2.2C346.2,107.9,346.8,108.7,347.7,108.4z M282.6,75.4c2.6,0.2,27.8,0.3,30.6,0c-0.3-0.6-0.7-1.2-0.9-1.9
		c-0.5-1.9-1.4-3.8-2.2-5.6c-0.9-1.8-1.3-3.8-2.3-5.5c-0.7-1.2-1.1-2.7-1.6-4c-0.7-1.9-1.4-3.8-2.3-5.6c-0.9-1.8-1.4-3.8-2.3-5.5
		c-0.7-1.4-1-3-1.8-4.5c-0.6-1.2-0.8-2.6-1.7-3.7c-0.6,0.7-1.1,1.6-1.3,2.4c-1,3.5-2.8,6.7-4,10.1c-1.3,3.8-3.3,7.3-4.7,11.1
		c-0.6,1.6-1.3,3.1-2,4.7C285,70,284.2,72.8,282.6,75.4z"/>
	<path d="M590.9,182c0-1.3,0-2.1,0-3c0-1.1-0.3-2.3,0.1-3.4c0.4-1.1,0.1-2.3,0.5-3.2c0.5-1,0-2.2,1-3c0.6-4.3,2.9-7.9,5.2-11.3
		c2.3-3.4,5.5-6.6,10.5-9.7c3.5-2.2,7.5-3.4,10.5-4.2c1.4-0.4,2.9-0.2,4.2-0.6c1.8-0.5,3.5-0.5,5.3-0.4c6,0.5,11.8,1.4,17.1,4.6
		c1.8,1.1,3.8,2.1,5.2,3.7c0.6,0.7,1.6,1,2.2,1.6c3.2,3.5,6.1,7.2,7.8,11.6c1,2.7,2,5.5,2.4,8.4c0.2,1.7,0.5,3.3,0.4,5
		c0,0.8,0.8,1.3,0.6,2.1c-0.1,0.7,0,1.4,0,2.1c0,1.9-0.6,3.8-0.6,5.8c0,1.8-0.6,3.5-1,5.3c-0.4,1.8-0.9,3.6-1.7,5.3
		c-1.5,3.3-3.4,6.3-5.7,9.1c-2.1,2.5-4.5,4.4-7.1,6.3c-1.7,1.3-3.6,2.3-5.7,3.2c-2.5,1-5.1,1.5-7.6,2.4c-0.2,0.1-0.3,0.1-0.5,0.1
		c-3-0.1-5.9,0.9-8.9,0.5c-1.4-0.2-2.7-0.6-4.2-0.6c-1.3,0.1-2.5-0.7-3.7-0.9c-2.6-0.5-5-1.4-7.2-2.7c-2.6-1.4-5.1-3-7.2-5.1
		c-2.1-2.2-4.3-4.3-5.9-6.9c-1.5-2.5-2.9-5-3.8-7.8c-0.7-2.3-1.3-4.7-1.7-7.1C590.8,186.6,591.2,184.1,590.9,182z M651.3,182
		c0.6-3.1-0.8-6.1-0.4-9.1c0-0.2,0.1-0.4,0-0.5c-0.9-2-0.9-4.3-1.5-6.4c-0.6-2.1-1.2-4.3-2.3-6.1c-2-3.6-4.9-6.6-8.3-9
		c-2.4-1.7-5-2.9-7.8-3.2c-2.7-0.3-5.5-0.3-8.4,0.3c-3.3,0.7-6.3,2-8.7,4c-3.3,2.8-6.2,6-7.5,10.4c-0.4,1.2-1.2,2.3-1.4,3.6
		c-0.2,1.2-0.7,2.3-0.9,3.5c-0.3,1.3-0.4,2.6-0.6,3.9c-0.3,2.6,0.1,5.2-0.6,7.9c-0.4,1.6,0.5,3.2,0.5,4.7c0,3.2,0.3,6.4,1.1,9.5
		c0.5,2.1,1,4.3,1.8,6.3c2,4.6,5,8.4,9.1,11.3c2.6,1.8,5.5,2.8,8.5,3.2c2.7,0.3,5.6,0.4,8.4-0.3c2.2-0.6,4.2-1.5,6.2-2.6
		c2-1.1,3.3-2.9,4.9-4.4c1.7-1.7,3-4,4.3-6.8c0.5-1.2,1.2-2.3,1.4-3.6c0.2-1.2,0.7-2.3,0.9-3.5c0.3-1.3,0-2.7,0.7-3.9
		C650.5,187.9,651.8,185,651.3,182z"/>
	<path d="M102.9,73.7c0-2-0.1-3.5,0-5.1c0.3-3.6,1-7.2,2.2-10.5c1.3-3.3,2.9-6.6,5.1-9.3c2.4-2.8,4.9-5.7,8.2-7.6
		c1.5-0.9,2.9-2.1,4.6-2.8c2.5-1,5-1.9,7.6-2.5c1.4-0.3,2.9-0.2,4.2-0.5c1.8-0.5,3.5-0.5,5.3-0.4c6,0.5,11.8,1.4,17.1,4.6
		c1.8,1.1,3.8,2.1,5.2,3.7c0.6,0.7,1.6,0.9,2.2,1.6c3.2,3.5,6,7.2,7.8,11.6c0.5,1.3,1,2.7,1.3,4.2c0.3,1.4,0.7,2.8,1.1,4.2
		c0.5,1.7,0.1,3.4,0.5,5c0.3,1.4,0.5,2.8,0.4,4.2c-0.1,2-0.6,4-0.6,6c0,1.9-0.5,3.8-1.1,5.5c-0.6,1.9-1.1,3.8-2,5.7
		c-1.1,2.3-2.3,4.6-3.8,6.4c-2.2,2.6-4.5,5.1-7.4,7.1c-2,1.4-3.9,2.8-6,3.7c-2.4,1.1-4.9,1.9-7.6,2.5c-1.4,0.3-2.9,0.1-4.2,0.5
		c-1.6,0.5-3.2,0.4-4.8,0.4c-1.1,0-2.1,0-3.2-0.4c-0.9-0.4-2.2,0.3-3-0.2c-1-0.5-2.2,0-3-1c-2.6,0-4.8-1.3-7-2.5
		c-2.7-1.4-5.3-3-7.5-5.3c-2.1-2.2-4.3-4.3-5.9-6.9c-1.5-2.5-2.9-5.1-3.8-7.8c-0.7-2.3-1.8-4.6-1.6-7.1
		C102.3,78.4,103.2,75.8,102.9,73.7z M163.3,73.6c-0.1-1.8,0.4-3.7-0.5-5.5c0.2-3.6-0.7-7.1-1.5-10.6c-0.7-2.9-3-7.9-4.9-10
		c-2.9-3.1-5.9-5.9-10-7.3c-1.5-0.5-3.1-1.1-4.8-1.1c-1,0-2.1,0-3.1,0c-3.9,0-7.4,1-10.7,3.1c-3.6,2.3-6.3,5.4-8.3,9.1
		c-2.4,4.4-3.3,9.1-4.1,13.9c-0.4,2.4,0.1,4.9-0.5,7.3c-0.4,1.6,0.4,3.3,0.4,5c0,3.2,0.3,6.3,1.1,9.5c0.5,2.1,1,4.3,1.9,6.2
		c2,4.5,4.9,8.2,9,11.1c2.6,1.9,5.7,3,8.7,3.3c2.7,0.3,5.6,0.4,8.4-0.3c2.1-0.6,4.1-1.4,6-2.5c2-1.1,3.4-2.9,4.9-4.4
		c2.4-2.4,4.2-5.6,5.4-9.2c1-2.9,1.7-5.8,1.9-8.8C162.8,79.5,163.7,76.6,163.3,73.6z"/>
	<path d="M502.8,71c0,0.5,0,0.9,0,1.3c-1.1,0.5-2.3,0-3.5,0.6c-1,0.5-2.3,0.7-2.9,1.7c-0.8,1.2-1.4,2.6-1.4,4.1c0,1.3,0,2.6,0,3.9
		c0,7.1,0,14.2,0,21.4c-1.7,2.3-4.4,3.1-6.9,4c-2.6,0.9-5.2,1.6-7.8,2.5c-0.9,0.3-2.1-0.3-2.9,0.6c-1.8-0.2-3.5,0.5-5.2,0.6
		c-2.4,0.1-4.7,0.4-7.1,0.5c-1.3,0-2.4-0.8-3.7-0.6c-1.1,0.1-2.3-0.1-3.4-0.4c-1.2-0.2-2.4-0.6-3.7-0.7c-1.1-0.1-2.2-0.6-3.2-1
		c-3.6-1.5-7-3.2-10.2-5.7c-2.2-1.8-4.2-3.8-6.1-5.8c-1.2-1.2-1.9-2.8-2.8-4.3c-1.5-2.4-2.6-5-3.4-7.7c-0.4-1.3-0.5-2.8-0.9-4.1
		c-0.4-1.5,0-2.9-0.5-4.2c-0.4-1.3-0.6-2.6-0.4-4c0.4-4.8,0.9-9.7,2.6-14.3c1.1-2.9,2.6-5.7,4.4-8.3c1.5-2,2.9-4.2,4.8-5.8
		c2.2-1.9,4.5-3.6,6.9-5.2c3-1.9,6.4-2.5,9.5-4c1.5,0.3,2.9-0.9,4.4-0.5c1.2,0.3,2.2-0.6,3.4-0.6c1.2,0,2.4-0.1,3.6,0
		c4.3,0.4,8.6,1,12.8,2.3c2.6,0.8,5.2,1.7,7.3,1.4c2.3-0.7,3.1-2,3.6-3.6c0.7,0,1.5,0,2.3,0c0,0.1,0.2,0.2,0.2,0.3
		c-0.3,5.5,0.9,10.9,0.6,16.4c-0.1,2.3-0.3,4.6,0.8,6.8c-1.1,0.4-1.9,0.2-2.7,0.2c-1-2-2-3.8-2.8-5.7c-0.8-2-2-3.8-3.2-5.4
		c-1.7-2.2-3.7-4.2-6.2-5.6c-2.2-1.3-4.8-2-7-2.6c-2.8-0.8-5.6-0.5-8.4-0.4c-2,0.1-3.9,0.7-5.9,1.4c-3.5,1.3-6.4,3.4-9,5.8
		c-3.6,3.2-5.8,7.5-7.1,12.1c-0.5,1.7-0.9,3.5-1.2,5.3c-0.3,1.8,0,3.6-0.5,5.2c-0.7,2.6-0.6,5.3-0.4,7.9c0.4,4.9,1,9.8,3.1,14.3
		c1.8,3.9,4.2,7.3,7.4,10.2c1.5,1.4,6.9,4.9,9,5.3c2.2,0.4,4.2,1.4,6.6,1.2c1.5-0.1,3.1,0,4.7,0c3.6-0.2,7.1-1,10.4-2.6
		c1.3-0.6,2.2-1.4,3.1-2.4c0-6.9,0-13.7,0-20.6c0-1.1-0.1-2.3,0-3.4c0.1-1.1-0.9-2-0.5-3.1c-0.8-0.8-1.5-1.5-2.2-2.2
		c-2.4-0.6-4.6-1.5-7.1-1.1c0-0.6,0-1,0-1.5C483.8,71,493.3,71,502.8,71z"/>
	<path d="M878.2,197.9c0.4-0.4,0.2-1,0.2-1.5c0-12.9,0-25.9,0.1-38.8c0-1.1-0.6-1.9-0.6-2.9c0-1-0.2-1.9-0.5-2.9
		c-0.8-2.9-2.7-4.3-5.4-4.9c-1.5-0.3-2.9-0.8-4.5-0.5c0-0.6,0-1,0-1.5c8.7,0,17.3,0,25.9,0c0,0.5,0,0.9,0,1.5
		c-1.9-0.5-3.6,0.5-5.3,1c-2.3,0.8-4.1,3.3-4.6,6.2c-0.7,3.9-0.4,7.8-0.4,11.8c-0.1,4,0,8,0,12c0,14.2,0,28.4,0,42.6
		c-0.6,0.5-1.2,0.2-1.8,0.2c-0.2-0.3-0.3-0.8-0.5-1c-2.9-2.9-5-6.3-7.7-9.3c-2.2-2.5-4.2-5.2-6.3-7.8c-2.6-3.2-5.1-6.6-7.7-9.8
		c-2.8-3.5-5.6-7-8.5-10.6c-2-2.5-4-4.9-5.9-7.4c-2.3-3.1-4.7-6-7.1-9c-1.9-2.4-3.6-4.9-5.8-7c-0.5,0.6-0.2,1.3-0.2,2
		c0,14.2-0.1,28.5,0,42.7c0,2.8,0.2,5.7,1,8.4c0.5,1.7,1.3,3.5,3.3,4.3c0.5,0.2,1.2,0.2,1.5,1c1.7-0.5,3.1,1,4.9,0.3
		c0,0.7,0,1.1,0,1.6c-8.6,0-17.3,0-25.9,0c0-0.5,0-0.9,0-1.3c3.4-0.6,6.8-0.8,9-3.8c1.5-3.2,1.4-6.5,1.4-9.7c0-17.2,0-34.4,0-51.5
		c-5.1-5.8-5.2-5.9-10.2-6.1c-0.4-0.4-0.1-0.8-0.2-1.2c0.1-0.1,0.1-0.2,0.2-0.2c6.2,0,12.5,0,19,0c1.5,1.9,3.3,3.9,4.8,6.1
		c0.8,1.2,1.8,2.2,2.6,3.3c2.3,3.2,5,6.1,7.5,9.2c2.7,3.5,5.5,6.9,8.3,10.4c2.8,3.5,5.7,7,8.4,10.6c2.6,3.3,5.2,6.5,7.7,9.8
		c0.9,1.2,2.2,2.2,2.9,3.7C877.8,198,878.1,197.9,878.2,197.9z"/>
	<path d="M376.3,108.8c0,0.6,0,1.1,0,1.5c-8.6,0-17.2,0-25.8,0c-0.4-0.4-0.2-0.9-0.1-1.4c3.4-0.5,6.8-0.8,9.1-4.1
		c0.2-0.7,0.3-1.6,0.6-2.4c0.7-1.7,0.5-3.5,0.5-5.3c0-17.7,0-35.4,0-53.1c-2.4-3.7-5.3-6.7-10.2-6.2c-0.4-0.5-0.2-0.9-0.2-1.5
		c6.3,0,12.6,0,19.1,0c14,17.6,28.2,35.4,42.3,53c0.7-0.1,0.6-0.5,0.6-0.8c0-13.3,0.1-26.6-0.1-39.8c0-2.1-0.6-4.3-1.3-6.5
		c-0.9-2.5-2.7-3.4-4.9-3.9c-1.4-0.3-2.9-1.1-4.4-0.5c-0.5-0.5-0.3-1-0.2-1.5c8.5,0,17.1,0,25.7,0c0.4,0.4,0.2,0.9,0,1.5
		c-1.9-0.4-3.7,0.5-5.4,1.2c-2.5,1.1-3.9,3.2-4.4,6.1c-0.6,3.4-0.4,6.8-0.4,10.2c-0.1,3.5,0,6.9,0,10.4c0,14.4,0,28.8,0,43.2
		c0,0.9,0,1.7,0,2.5c-0.6,0.4-1.3,0.2-1.8,0.2c-0.3-0.5-0.5-1-0.9-1.5c-2-2.4-3.9-4.7-5.8-7.2c-0.9-1.2-1.9-2.4-2.9-3.5
		c-1.8-2.2-3.7-4.5-5.4-6.8c-0.8-1.1-1.7-2.3-2.7-3.3c-1-1-1.9-2.2-2.6-3.4c-0.7-1.2-1.8-1.9-2.4-3.1c-0.6-1.2-1.8-2.2-2.7-3.3
		c-2.4-3-5-5.9-7.3-9c-2-2.6-4-5.1-6.1-7.6c-2.4-3-4.6-6.1-7.1-9c-1.2-1.4-2-3.1-3.6-4.2c-0.4,0.4-0.2,1-0.2,1.5c0,14.5,0,29,0,43.5
		c0,1.5,0.9,2.7,0.5,4.2c-0.3,1.4,0.3,2.7,0.6,3.9c0.5,1.8,1.3,3.5,3.4,4.3c0.5,0.2,1.2,0.2,1.5,0.9
		C373.1,108,374.5,109.4,376.3,108.8z"/>
	<path d="M25.8,110.4c0-0.7,0-1.2,0-2c2.3,0.1,4.4-0.6,6.6-1.1c2.2-0.6,4.4-1.6,4.3-4.6c0.8-1.1,0.1-2.6,0.6-3.7
		c0.5-1.3,0.4-2.5,0.4-3.7c0-19.5,0-39.1,0.1-58.6c0-1.3-0.6-2.4-0.6-3.7c0-1.2,0-2.3-0.4-3.5c-0.4-1.1-1.1-2-1.4-3.1
		c-2.9-1.8-6.1-2.4-9.5-2.6c-0.3-0.6-0.2-1.2,0-1.9c12.4,0,24.8,0,37.3,0c0.2,0.6,0.2,1.3,0,2c-2.4-0.2-4.6,0.3-6.9,1
		c-3.4,1-4.4,2.6-5.1,6.1c-0.6,3.2-0.4,6.5-0.4,9.7c0,18.9,0,37.8,0,56.8c0,1.9-0.2,3.9,0.9,6.3c1,1.4,2.9,2,5.1,2
		c5.5-0.1,10.9-0.1,16.4,0c1.4,0,2.6-0.5,4-0.6c1.3-0.1,2.6-0.2,4-0.4c1.8-0.3,3.6-0.6,5.3-1.2c1.9-0.7,3.7-1.6,5.3-3
		c3.8-3.4,6.3-7.6,8.6-12.1c0.2-0.4,0.5-0.6,0.7-1c0.9,0,1.9,0,2.8,0c-0.4,1.7-0.9,3.3-1.4,4.8c-0.7,2.1-0.9,4.3-1.7,6.3
		c-0.6,1.5-1,3.1-1.4,4.6c-0.3,1.5-1.4,2.9-1.1,4.5c-0.7,0.6-0.2,1.8-1.3,2.5C73.4,110.4,49.7,110.4,25.8,110.4z"/>
	<path d="M551.5,58.4c0.6,0,1.2,0,1.8,0c0,8.8,0,17.6,0,26.3c-0.6,0.4-1.2,0.1-1.8,0.2c-0.9-1.2-0.8-2.8-1.3-4.1
		c-0.5-1.6-1.2-3.2-2.2-4.5c-1.2-1.7-3.3-2.1-5.1-2.2c-7.1-0.2-14.2-0.1-21.3-0.1c0,10,0,19.9,0,29.8c0.6,0.6,1.2,1.2,2.2,2.1
		c1.6,0.8,3.8,0.5,6,0.5c3.8,0,7.6-0.1,11.5,0c3,0.1,5.7-1.1,8.7-1.1c2.1-1.1,4.5-1.8,6.3-3.6c2.9-2.9,5-6.1,6.7-9.9
		c0.9,0,1.8,0,2.8,0c-1.7,6.2-3.4,12.4-5.1,18.6c-20,0-39.8,0-59.8,0c-0.4-0.4,0-0.9-0.2-1.3c3.3-0.6,6.6-0.8,8.9-3.5
		c0-0.6-0.1-1.2,0.6-1.6c-0.2-3.6,0.8-7.1,0.6-10.7c-0.2-3.6,0-7.3,0-10.9c0-3.6,0-7.1,0-10.7c0-3.6,0-7.3,0-10.9
		c0-3.6-0.1-7.3,0-10.9c0.1-1.3-0.6-2.4-0.6-3.7c0-1.2-0.2-2.3-0.4-3.4c-0.5-2.4-2.3-3.4-4.2-3.9c-1.4-0.4-2.9-1.3-4.3-0.5
		c-0.6-0.6-0.4-1-0.3-1.6c19.5,0,39,0,58.7,0c0,1.5,0.1,3,0,4.5c-0.2,3.4,0.9,6.8,0.5,10.2c0,0.4,0,0.8,0,1.3c-0.9,0-1.7,0-2.5,0
		c-0.6-1.8-1.2-3.5-1.7-5.3c-1.1-3.7-3.5-5.6-7.4-6.2c-2.5-0.4-4.9-0.4-7.3-0.4c-6.1-0.1-12.1,0-18.4,0c-0.3,0.4-0.7,0.9-1.2,1.6
		c0,8.7,0,17.8,0,27.1c1.9,0,3.8,0,5.7,0c4.7,0,9.4-0.1,14.1,0.1c1.5,0,2.8-0.5,4.2-0.6c0.6,0,1.2-0.5,1.7-0.9
		c1.6-1.4,2.4-3.3,3-5.3C550.7,61.2,550.8,59.7,551.5,58.4z"/>
	<path d="M686.6,110.4c-19.9,0-39.8,0-59.7,0c0-0.5,0-0.9,0-1.3c3.1-0.6,6.5-0.7,8.3-3c1.1-2.2,0.7-4.1,1.1-5.7
		c0.7-2.9,0.4-5.8,0.4-8.7c0.1-14,0-27.9,0.1-41.9c0-1.3-0.6-2.4-0.6-3.7c0-1.2-0.2-2.3-0.4-3.4c-0.6-2.6-2.5-3.5-4.7-4.1
		c-1.4-0.4-2.7-0.7-4.1-0.5c-0.3-0.6-0.2-1-0.1-1.5c19.6,0,39.1,0,58.7,0c0,1.7,0,3.3,0.1,5c0.1,1.6-0.2,3.1,0.4,4.8
		c0.5,1.5,0.1,3.3,0.1,4.9c0,0.4,0,0.8,0,1.3c-0.9,0-1.6,0-2.5,0c-0.5-1.8-1.1-3.6-1.7-5.5c-0.7-2.2-1.8-4.1-4.1-5
		c-1-0.4-1.9-0.7-3-0.9c-5.4-1-10.8-0.3-16.2-0.5c-3.2-0.1-6.4,0-9.8,0c-0.3,0.4-0.8,0.9-1.3,1.5c0,8.9,0,17.9,0,27.1
		c0.8,0,1.5,0,2.3,0c5.6,0,11.3-0.1,16.9,0.1c1.6,0,3.2-0.3,4.7-0.6c1.4-0.3,2.4-1.3,3.2-2.6c1.1-1.7,1.5-3.6,2.1-5.4
		c0.1-0.4-0.2-0.9,0.2-1.2c0.4-0.3,0.3-0.8,0.5-1.1c0.7,0,1.3,0,1.9,0c0,8.8,0,17.5,0,26.3c-0.5,0.4-1.1,0.1-1.7,0.2
		c-0.9-1.2-1-2.7-1.3-4.1c-0.4-1.7-1.2-3.2-2.2-4.6c-1.3-1.8-3.4-2.2-5.3-2.2c-7-0.2-14-0.1-21.1-0.1c0,10.1,0,20,0,30
		c0.5,0.5,1,1,1.5,1.5c2.1,1,4.2,0.8,6.3,0.8c4.2,0,8.3,0.1,12.5,0c3.1-0.1,6.1-0.7,9-1.6c2-0.6,3.7-1.6,5.3-3
		c2.9-2.8,5-6.1,6.7-9.9c0.9,0,1.8,0,2.8,0c-0.8,3.1-1.5,6.3-2.5,9.4C688.4,104.3,687.9,107.5,686.6,110.4z"/>
	<path d="M179,196.4c0.8,0,1.5,0,2.3,0c0.5,0.2,0.5,0.9,0.6,1.2c1.9,5.8,5.3,10.5,9.9,14.4c2.2,1.8,4.8,3,7.6,3.7
		c2.6,0.7,5.3,0.6,7.9,0.4c2.1-0.2,4.2-1.2,5.9-2.6c1.2-1,2.3-2.2,3.2-3.6c0.4-0.7,0.6-1.4,0.8-2c1.5-3.6,0.9-7.1-0.5-10.5
		c-0.8-1.8-2-3.3-3.5-4.5c-2.1-1.7-4.3-3.3-6.6-4.8c-2.7-1.8-5.5-3.5-8.2-5.2c-2.5-1.6-5.1-3-7.4-4.7c-3.5-2.7-6.5-5.9-8.1-10
		c-0.4-1.1-0.8-2.3-0.7-3.6c0.2-2.2-0.1-4.4,0.5-6.6c0.8-3,2.1-5.6,4-8c1.5-1.9,3.4-3.2,5.5-4.4c1.5-0.8,3.3-1.6,5-1.7
		c2.2-0.2,4.3-1,6.5-0.6c3.1,0.6,6.2,1.2,9.2,2.3c1.7,0.6,3.3,1.5,5.2,1.4c2.4-0.1,3.3-0.9,3.7-3.5c0.9-0.2,1.8-0.4,2.6,0.7
		c0,0.5,0.1,1.2,0,1.9c-0.1,1.4,0.3,2.8,0.5,4.2c0.2,1.3-0.4,2.7,0.5,4c0.1,0.1,0,0.3,0,0.5c-0.4,2.8,0.7,5.5,0.6,8.4
		c0,1.3,0.6,2.6,0.4,4.1c-0.8,0.3-1.6,0.1-2.6,0.1c0.2-1.8-0.6-3.4-1.2-5c-1.3-3.6-3.3-6.8-6.2-9.4c-2.7-2.4-5.6-4.1-9.2-4.9
		c-2.3-0.6-4.6-0.4-6.8-0.3c-1.4,0.1-2.9,0.7-4,1.6c-1.4,1.1-2.9,2.4-3.7,4.1c-0.4,0.9-0.7,1.8-0.7,2.8c0,0.9-0.6,1.6-0.1,2.7
		c0.5,1,0.1,2.4,0.7,3.6c1.4,2.5,3,4.1,5.8,6.4c2,1.7,4.3,3,6.6,4.4c2.1,1.3,4.3,2.6,6.4,4c2.5,1.7,5.1,3.3,7.5,5.2
		c2.3,1.7,4.2,3.8,6.1,5.8c1.1,1.1,2,2.4,2.4,4c0.1,0.7,0.4,1.4,0.9,1.8c0.3,2.3,0.7,4.6,0.7,6.9c-0.1,2-0.5,4-1.3,5.7
		c-1,2.4-2.3,4.7-4.3,6.6c-1.8,1.7-3.7,3.2-5.7,4.5c-1.3,0.8-2.8,1.2-4.3,1.5c-2.8,0.6-5.5,1.3-8.4,1.2c-1.1,0-2.1-0.4-3.2-0.6
		c-1-0.1-2.1,0.5-2.9-0.5c-2.6,0.1-4.8-1.3-7.2-2c-1.7-0.4-3.4-1.1-5.4-0.5c-0.9,0.8-1.7,1.8-1.7,3.4c-0.8,0.3-1.6,0.1-2.4,0.1
		C181.2,212.4,180.1,204.5,179,196.4z"/>
	<path d="M450.7,146.8c1.7-1.1,1.9-1.3,2.2-3.4c0.9-0.3,1.8-0.4,2.6,0.6c0,0.5,0,1.1,0,1.6c-0.2,2.5,0.9,4.8,0.5,7.3
		c0.8,1.5,0.4,3.2,0.5,4.7c0.1,1.1,0.6,2.2,0.5,3.4c-0.1,1.1-0.2,2.3,0.4,3.5c0.3,0.6,0.1,1.5,0.1,2.4c-0.8,0.3-1.6,0.1-2.5,0.1
		c0-1.9-0.9-3.5-1.4-5.2c-1.3-4-3.7-7.3-6.8-9.9c-2.4-2-5-3.5-8.1-4.2c-2.2-0.5-4.4-0.4-6.6-0.4c-1.5,0-3,0.7-4.3,1.6
		c-1.5,1-2.9,2.3-3.8,4c-0.8,1.6-1.1,3.9-0.9,5.7c0.2,1.2,0,2.4,0.7,3.6c1.4,2.5,3,4,5.8,6.4c2,1.7,4.4,2.9,6.6,4.3
		c2.1,1.4,4.3,2.6,6.4,4c4.9,3.2,9.9,6.4,13.7,11c1.8,2.2,2.8,4.6,3.4,7.4c0.4,1.8,0.4,3.5,0.4,5.3c0,2.3-0.8,4.3-1.5,6.4
		c-1.3,3.7-4,6.3-6.8,8.6c-2.2,1.8-5,3-7.9,3.5c-2.5,0.5-5,1-7.6,1.1c-1.2,0-2.1-0.5-3.2-0.6c-1-0.1-2.1,0.5-2.9-0.5
		c-2.5,0.1-4.7-1.2-7-1.8c-1.8-0.5-3.5-1.1-5.5-0.7c-0.9,0.9-1.8,1.8-1.8,3.4c-0.8,0.4-1.6,0.1-2.7,0.3c0.5-2.3-0.3-4.3-0.5-6.4
		c-0.3-2.7-0.6-5.5-1.1-8.2c-0.2-1.2-0.1-2.6-0.5-3.7c-0.4-1.2-0.4-2.3-0.4-3.5c0-0.8-0.9-1.3-0.4-2.2c0.6-0.4,1.4,0.1,2-0.2
		c0.6,0.2,0.5,0.8,0.7,1.1c1.2,3.2,2.7,6.2,4.8,8.9c3.4,4.3,5.5,6.4,9.6,8.2c2.1,0.9,4.3,1.6,6.6,1.6c1,0,1.9,0,2.9,0
		c3.2,0,5.9-1.3,8.2-3.4c0.7-0.7,1.5-1.4,2.1-2.2c1.8-2.7,2.5-5.7,2-8.8c-0.7-3.9-2.3-7.4-6-9.7c-1.9-1.2-3.5-2.7-5.4-3.9
		c-2.7-1.7-5.5-3.5-8.3-5.2c-2.5-1.6-5.1-2.9-7.4-4.7c-3.5-2.7-6.5-5.9-8.1-10.1c-0.4-1.1-0.8-2.3-0.7-3.6c0.2-2.2-0.1-4.4,0.5-6.6
		c0.8-2.9,2.1-5.4,3.9-7.8c1.5-2,3.5-3.4,5.7-4.6c1.5-0.8,3.3-1.5,5-1.7c2.2-0.2,4.4-1.2,6.5-0.5c1.6,0.5,3.2,0.4,4.8,0.9
		c1.5,0.4,2.9,1,4.4,1.4C446.2,146.3,448.2,147.3,450.7,146.8z"/>
	<path d="M474.6,216.7c-1.2,1-2,2.1-2,3.6c-0.8,0-1.5,0-2.3,0c-1.1-7.9-2.2-15.8-3.3-23.8c0.8,0,1.6,0,2.3,0
		c0.7,1.7,1.5,3.4,2.2,5.1c1.9,4.2,4.8,7.7,8.3,10.6c2.1,1.8,4.8,2.9,7.6,3.6c2.6,0.7,5.3,0.5,7.9,0.4c2-0.1,3.9-1.2,5.5-2.4
		c1.2-0.9,2.5-2,3.2-3.6c0.8-1.6,1.8-4.3,2-5.7c0.2-2.3-0.4-4.5-1.1-6.6c-0.7-2-2.1-3.9-3.9-5.1c-2.2-1.6-4.3-3.3-6.6-4.7
		c-2.8-1.7-5.6-3.4-8.3-5.2c-2.4-1.6-5.2-2.9-7.4-4.7c-3.3-2.7-6.4-5.8-8-9.9c-0.4-1.1-0.6-2.2-0.7-3.3c-0.1-0.9,0-1.9,0-2.9
		c0-5,2-9.2,5.3-12.9c2.1-2.3,4.9-3.3,7.4-4.8c1.2,0.4,2.2-0.8,3.4-0.5c1.1,0.3,2-0.6,3.2-0.6c2.8,0.1,7.2,0.9,11.3,2.3
		c1.6,0.5,3.1,1.4,4.9,1.4c1.1,0,2.1-0.2,3.1-0.9c0.6-0.7,1-1.6,1-2.7c0.6,0,1.2,0,1.8,0c0.2,0.2,0.4,0.4,0.7,0.7c0,1,0.1,2.1,0,3.1
		c-0.2,1.3,0.7,2.2,0.6,3.4c0,1.1-0.5,2.4,0.5,3.4c0.1,0.1,0,0.3,0,0.5c-0.3,2.8,0.7,5.5,0.6,8.4c-0.1,1.4,0.8,2.7,0.3,4.2
		c-0.7,0-1.5,0-2.3,0c-0.2-2-1-3.8-1.7-5.7c-1.3-3.5-3.4-6.5-6.1-8.9c-2.5-2.2-5.4-3.8-8.8-4.6c-2.2-0.6-4.4-0.5-6.6-0.4
		c-1.8,0.1-3.6,0.9-5,2.2c-1.5,1.4-3,2.7-3.7,5.1c0.3,0.8-0.8,2-0.5,3c0.4,1.2,0.3,2.3,0.5,3.5c0.1,0.1,0.3,0.2,0.4,0.4
		c1.2,3.2,3.6,5.3,6.2,7.3c4.1,3.1,8.5,5.5,12.7,8.2c2.5,1.6,5.1,3.3,7.5,5.1c2.3,1.7,4.2,3.8,6.2,5.8c1.7,1.6,2.9,5.1,3.5,7.4
		c0.4,1.8,0.4,3.5,0.4,5.3c0,3.8-2.2,9-4.9,11.8c-0.7,0.7-1.3,1.4-2,2c-2.6,2.6-5.9,4-9.5,4.8c-2.6,0.6-5.2,1.3-7.9,1
		c-1.9-0.2-3.7-0.5-5.6-0.8c-1.6-0.3-3.2-0.7-4.7-1.2c-1.5-0.5-3-1.1-4.6-1.4C476.7,216.6,475.7,216.7,474.6,216.7z"/>
	<path d="M219.8,38.5c1.7-0.5,2.3-1.7,2.4-3.5c0.9,0.1,1.8-0.4,2.5,1c0,0.5,0,1.3,0,2c-0.1,2.3,0.9,4.5,0.5,6.8
		c0.9,1.5,0.3,3.2,0.5,4.7c0.2,1.1,0.6,2.2,0.5,3.4c-0.1,1.2-0.1,2.3,0.4,3.5c0.3,0.6,0.1,1.5,0.1,2.3c-0.8,0.5-1.6,0-2.2,0.3
		c-0.3-0.2-0.4-0.4-0.4-0.7c0.1-1.4-0.7-2.5-1-3.7c-1.4-4.7-4.2-8.5-7.9-11.5c-1.5-1.2-3.3-2.2-5.1-2.8c-2.1-0.7-4.3-1.2-6.6-1.2
		c-1.9,0.1-3.8,0.2-5.5,1.1c-2.2,1.1-3.9,2.9-5.1,5.1c-0.2,0.3-0.2,0.6-0.5,0.8c-0.3,0.9,0.3,1.9-0.5,2.7c-0.2,0.2-0.2,0.8,0.1,1.2
		c0.2,0.3,0.4,0.5,0.4,0.9c-0.1,2.9,1.4,5,3.3,7c2.7,2.8,5.9,4.9,9.2,6.8c4.5,2.7,8.9,5.4,13.2,8.4c3.5,2.4,6.7,5.3,9,8.9
		c1,1.5,1.6,3.3,1.9,5.2c0.4,1.8,0.5,3.5,0.4,5.3c-0.2,4.6-1.8,8.6-5,12c-0.6,0.6-1.2,1.2-1.8,1.8c-2.6,2.6-5.9,4-9.4,4.9
		c-1.2,0.3-2.6,0.1-3.7,0.6c-1.3,0.6-2.5,0.5-3.7,0.4c-4-0.3-8-0.9-11.8-2.3c-2.2-0.8-4.5-1.6-7-1.2c-1,0.9-1.8,1.9-1.8,3.5
		c-0.8,0-1.6,0-2.6,0c0.5-2.3-0.8-4.3-0.5-6.6c-0.8-1.2-0.3-2.7-0.6-3.9c-0.3-1.2-0.3-2.5-0.5-3.7c-0.5-2.5-0.9-4.9-1-7.4
		c0-0.7-0.8-1.3-0.4-2.2c0.7,0,1.5,0,2.3,0c0.7,1.6,1.4,3.3,2.2,5c1.9,4.3,4.8,7.7,8.3,10.6c2.1,1.8,4.8,2.9,7.6,3.7
		c2.6,0.7,5.3,0.5,7.9,0.4c2-0.1,3.9-1.1,5.5-2.3c3.9-2.9,5.7-7,5.2-11.8c-0.2-1.9-0.6-3.9-1.8-5.5c-1.2-1.6-2.3-3.1-4.1-4.3
		c-1.9-1.3-3.6-2.8-5.6-4.1c-2.8-1.7-5.5-3.5-8.3-5.2c-2.5-1.6-5.1-2.9-7.4-4.7c-3.3-2.7-6.4-5.7-8-9.9c-0.4-1.1-0.8-2.3-0.8-3.6
		c0-1.1,0-2.3,0-3.4c0-3.4,1.3-6.3,2.9-9.2c1.1-1.9,2.6-3.5,4.3-4.7c2-1.4,4.2-2.8,6.8-3.1c1.1-1.1,2.6-0.2,3.8-0.8
		c1.1-0.6,2.7-0.5,3.8-0.1c1.6,0.6,3.3,0.2,4.8,0.9c1.4,0.6,2.9,1,4.4,1.4C215.5,37.9,217.5,39,219.8,38.5z"/>
	<path d="M700.5,108.4c-0.9,0.9-1.8,1.8-1.8,3.4c-0.8,0.2-1.6,0.1-2.7,0.1c0.5-2.2-0.3-4.2-0.5-6.3c-0.3-2.7-0.6-5.5-1-8.2
		c-0.2-1.2-0.1-2.6-0.5-3.7c-0.5-1.2-0.4-2.3-0.4-3.5c0-0.8-0.9-1.3-0.4-2.2c0.7,0,1.4,0,2.4,0c0.2,0.1,0.1,0.6,0.2,0.9
		c1.2,3.2,2.7,6.2,4.8,8.9c3.3,4.3,5.5,6.4,9.6,8.2c2.1,0.9,4.3,1.6,6.6,1.6c1,0,1.9,0,2.9,0c3.2,0,5.9-1.3,8.2-3.4
		c0.7-0.7,1.5-1.4,2.1-2.2c1.8-2.7,2.5-5.7,2-8.8c-0.7-3.9-2.3-7.4-6-9.7c-1.9-1.2-3.5-2.7-5.4-3.9c-2.7-1.7-5.5-3.5-8.3-5.2
		c-2.5-1.6-5.1-2.9-7.4-4.7c-3.5-2.7-6.5-5.9-8.1-10.1c-0.4-1.1-0.8-2.3-0.7-3.6c0.2-2.2-0.1-4.4,0.5-6.6c0.8-2.9,2.1-5.4,3.9-7.8
		c1.5-2,3.5-3.4,5.7-4.6c1.5-0.8,3.3-1.5,5-1.7c2.2-0.2,4.4-1.2,6.5-0.5c1.6,0.5,3.2,0.4,4.8,0.9c1.5,0.4,2.9,1,4.4,1.4
		c2.1,0.6,4.2,1.7,6.7,1.2c1.7-1.1,1.9-1.3,2.2-3.4c0.9-0.3,1.8-0.4,2.6,0.6c0,0.5,0,1.1,0,1.6c-0.2,2.5,0.9,4.8,0.5,7.3
		c0.8,1.5,0.4,3.2,0.5,4.7c0.1,1.1,0.6,2.2,0.5,3.4c-0.1,1.1-0.2,2.3,0.4,3.5c0.3,0.6,0.1,1.5,0.1,2.4c-0.8,0.3-1.6,0.1-2.5,0.1
		c0-1.9-0.9-3.5-1.4-5.2c-1.3-4-3.7-7.3-6.8-9.9c-2.4-2-5-3.5-8.1-4.2c-2.2-0.5-4.4-0.4-6.6-0.4c-1.5,0-3,0.7-4.3,1.6
		c-1.5,1-2.9,2.3-3.8,4c-0.8,1.6-1.1,3.9-0.9,5.7c0.2,1.2,0,2.4,0.7,3.6c1.4,2.5,3,4,5.8,6.4c2,1.7,4.4,2.9,6.6,4.3
		c2.1,1.4,4.3,2.6,6.4,4c4.9,3.2,9.9,6.4,13.7,11c1.8,2.2,2.8,4.6,3.4,7.5c0.4,1.8,0.4,3.5,0.4,5.3c0,2.3-0.8,4.3-1.5,6.4
		c-1.3,3.7-4,6.3-6.8,8.6c-2.2,1.8-5,3-7.9,3.5c-2.5,0.5-5,1-7.6,1.1c-1.2,0-2.1-0.5-3.2-0.6c-1-0.1-2.1,0.5-2.9-0.5
		c-2.5,0.1-4.7-1.2-7-1.9C704.2,108.7,702.4,108.1,700.5,108.4z"/>
	<path d="M553,132.5c-0.1-0.9-0.2-1.5,0.1-2.2c12.5,0,25.1,0,37.7,0c0.5,0.6,0,1.3,0.3,2c-2.9,0.1-5.6,0.7-8.1,1.6
		c-1.9,0.7-2.9,2.3-3.3,4c-0.4,1.3-0.7,2.7-0.7,4.2c0.1,17.3,0.1,34.5,0,51.8c0,1.4,0.1,2.8-0.5,4.2c-0.4,1.2,0.3,2.7-0.6,3.9
		c-0.2,3.5-1.6,6.6-3.7,9.4c-2.5,3.4-5.7,6.1-9.8,7.3c-0.9,0.3-1.8,1-2.7,1c-2,0-4,0.8-6,0.6c-3.5-0.4-6.8-1.2-9.5-3.4
		c-2-1.6-3.6-5.3-2.2-8.3c0.1-0.3,0-0.7,0-1c0.9-1,1.8-1.9,3.2-2.4c3.5-1.2,6.5,0.2,8.3,3.7c0.4,0.9,0.8,1.8,1.2,2.6
		c0.7,1.6,1.3,3.5,3.6,4.1c0.5,0,1.4,0,2.2,0c0.9-0.7,1.9-1.5,2.2-2.7c0.3-1.3,0.8-2.5,0.8-3.9c0-22.6,0-45.1,0-67.7
		c0-1.4-0.5-2.7-0.9-4c-0.1-0.4-0.1-0.8-0.2-1c-1.3-2.1-3.1-3.1-5.2-3.5C557.2,132.6,555.2,131.9,553,132.5z"/>
	<path d="M177.8,144.9c0,0.5,0,0.9,0,1.4c-2.3-0.1-4.3,0.8-6.4,1.6c-2.3,0.9-3.2,2.8-3.4,5c-0.2,1.4-0.8,2.7-0.6,4.2
		c0.2,1.4,0,2.8,0,4.2c0,10.2,0.1,20.5,0,30.7c0,3.2-0.3,6.6-1.1,9.7c-0.7,2.7-1.4,5.5-3.1,7.8c-1.4,1.9-2.8,3.8-4.9,5.3
		c-2.2,1.6-4.5,2.9-7.1,3.7c-2.2,0.7-4.4,1.6-6.7,1.3c-1.2-0.1-2.2,0.8-3.4,0.6c-1.2-0.2-2.4,0.1-3.6-0.1c-2.9-0.4-6-0.2-8.7-1.5
		c-3.7-0.2-6.5-2.5-9.4-4.3c-1.7-1-2.8-2.9-3.9-4.6c-2.1-3-3-6.5-3.8-10.2c-0.4-2.1-0.4-4.2-0.4-6.3c0-11.4-0.1-22.7,0-34.1
		c0-2.7-1.1-5.2-0.4-7.8c-0.2-0.3-0.5-0.5-0.5-0.7c-0.7-2.8-2.9-3.5-5.3-4c-1.3-0.3-2.5-1-3.8-0.4c-0.6-0.5-0.4-1-0.2-1.6
		c10.5,0,20.9,0,31.5,0c0.4,0.4,0,0.9,0.4,1.6c-2.6-0.4-4.8,0.3-6.9,1c-1.8,0.5-2.7,2-3.3,3.8c-0.5,1.6-0.5,3.2-0.5,4.7
		c0,13.4-0.1,26.9,0.1,40.3c0,3.6,0.7,7.1,2.5,10.4c1.5,2.7,3.6,4.8,6.3,6.3c1.4,0.7,3,1.1,4.5,1.6c3.3,1,6.8,0.6,10.2,0.4
		c2.4-0.1,4.7-0.9,7-1.9c1.8-0.9,3.4-2,4.8-3.4c1.8-1.9,2.9-4.1,3.6-6.6c0.6-2.2,0.8-4.5,1.2-6.8c0.9-6,0.3-12,0.4-18
		c0.1-6.1,0-12.1,0-18.2c0-2.9-0.5-5.6-1.1-8.4c-0.4-2-2.1-3.5-4-4.1c-1.7-0.5-3.4-1.3-5.3-1.1c0-0.6,0-1,0-1.5
		C160.9,144.9,169.3,144.9,177.8,144.9z"/>
	<path d="M674.3,151.3c-0.2-0.2-0.4-0.3-0.4-0.4c-0.7-2.8-2.9-3.5-5.3-4c-1.4-0.3-2.7-0.7-4.2-0.4c0-0.7,0-1.1,0-1.6
		c10.5,0,21,0,31.6,0c0.4,0.3,0,0.9,0.4,1.6c-2.6-0.4-4.7,0.3-6.9,1c-1.9,0.5-2.7,1.9-3.3,3.8c-0.5,1.6-0.5,3.2-0.5,4.7
		c0,13.4-0.1,26.9,0.1,40.3c0,3.6,0.7,7.2,2.5,10.4c1.5,2.7,3.6,4.9,6.3,6.3c1.4,0.7,3,1.1,4.5,1.6c3.3,1,6.7,0.8,9.9,0.4
		c4.6-0.5,9-1.9,12.3-5.5c1.7-1.9,2.8-4,3.4-6.4c0.6-2.2,0.8-4.5,1.2-6.8c0.8-6,0.3-12,0.4-18c0.1-6.1,0-12.1,0-18.2
		c0-2.9-0.5-5.7-1.1-8.4c-0.4-2.1-2.1-3.6-4-4.1c-1.7-0.5-3.4-1.3-5.1-1.1c-0.3-0.5-0.2-1-0.1-1.5c8.5,0,16.9,0,25.4,0
		c0,0.5,0,0.9,0,1.5c-2.3-0.2-4.3,0.8-6.3,1.5c-2.4,0.9-3.1,3-3.5,5.2c-0.3,1.6-0.6,3.3-0.5,5c0.1,1.6,0,3.3,0,4.9
		c0,8.6-0.1,17.2,0.1,25.8c0.1,3.3-0.5,6.6-0.7,9.9c-0.1,2.2-0.9,4.4-1.7,6.5c-1.2,3.3-2.9,6.1-5.4,8.4c-2.8,2.5-6,4.3-9.8,5.1
		c-2,0.4-4.1,0.7-6.1,1.1c-2.3,0.5-4.6,0.6-6.8,0.3c-2.8-0.3-5.6-0.1-8.2-1.4c-3.7-0.2-6.5-2.5-9.4-4.3c-1.7-1-2.8-2.9-3.9-4.6
		c-2-2.9-3-6.6-3.8-10.2c-0.5-2.2-0.4-4.4-0.4-6.6c-0.1-9.9,0-19.8,0-29.7c0-1.4,0.1-2.8,0-4.2c-0.1-1.3,0.2-2.6-0.4-4
		C673.9,154.3,674.3,152.7,674.3,151.3z"/>
	<path d="M939.9,194.4c-10,0-19.7,0-29.6,0c-1.9,5-3.8,10-5.6,15.1c-0.6,1.6-0.5,3.4,0.2,5.2c0.5,1.1,1.5,1.8,2.4,1.9
		c1.4,0.2,2.7,1,4.1,0.6c0.5,0.4,0.2,0.9,0.3,1.3c-0.3,0.4-15.1,0.5-21.7,0.2c-0.4-0.4,0-0.8-0.3-1.4c1.9,0.2,3.3-1,4.8-1.7
		c0.9-0.4,1.6-1.1,2-1.9c0.8-1.6,2.1-3,2.6-4.6c0.8-2.5,2.3-4.6,3.1-7c0.8-2.3,2.3-4.5,2.7-7c1.2-1.1,1.3-2.7,2-4.1
		c1.9-3.9,3.3-8,5.1-11.9c1.5-3.2,2.6-6.6,4.1-9.8c0.8-1.8,1.7-3.6,2.3-5.6c0.6-1.9,1.5-3.8,2.3-5.6c0.8-1.8,1.6-3.7,2.4-5.5
		c1.4-3,2.5-6.1,3.8-9.2c0.6-0.4,1.4,0.1,2-0.2c0.7,0.3,0.6,0.9,0.8,1.3c0.4,0.9,0.5,1.8,1.2,2.7c0.6,0.7,0.6,1.8,1.1,2.7
		c1.8,3.7,3.3,7.5,5,11.2c1.8,4,3.5,7.9,5.2,11.9c1.9,4.3,3.7,8.6,5.5,12.8c1.8,4.1,3.7,8.2,5.5,12.3c1.2,2.6,2.4,5.3,3.4,8
		c0.8,2,1.9,3.9,2.7,5.9c1.4,3.3,3.9,5.2,7.6,5.3c0,0.4,0,0.6,0,0.9c0,0.2-0.1,0.3-0.1,0.5c-9.2,0-18.5,0-27.8,0
		c-0.4-0.3-0.1-0.8-0.2-1.2c0.1-0.1,0.3-0.3,0.4-0.3c1.7,0.4,3.3-0.6,5-0.6c1.1,0,2.1-0.9,2.4-2.3c0.1-3.3-0.9-6.5-2.2-9.6
		c-1-2.4-1.9-4.8-2.9-7.1C941,196.5,940.4,195.4,939.9,194.4z M925.1,158.8c-1,2.4-1.8,4.7-2.7,6.9c-1.6,3.7-3.3,7.3-4.7,11
		c-0.5,1.4-1.3,2.6-1.7,4c-1,3-2.5,5.8-3.5,8.8c8.5,0,16.9,0,25.6,0c-1.5-3.5-2.8-7-4.3-10.4c-1.4-3.4-2.8-6.8-4.3-10.2
		C928,165.6,927,162.1,925.1,158.8z"/>
	<path d="M563.9,38.3c0-0.8,0-1.2,0-1.5c0.3-0.4,21.7-0.5,31-0.2c0.4,0.4,0.1,0.8,0.2,1.4c-2.4-0.1-4.7,0.5-7.2,1.3
		c-1.3,1.1-2.5,2.5-3.1,4.5c-0.2,0.9-0.2,1.7-0.2,2.5c0,19.2,0,38.4,0,57.6c0.8,0.9,1.6,1.8,3.3,2.4c5.4,0,11.3,0.2,17.2-0.1
		c3.6-0.2,7.2-0.6,10.6-2c0.8-0.3,1.6-0.7,2.3-1.4c3.6-3.7,4.3-3.5,7.9-10.5c0.1-0.2,0.4-0.4,0.6-0.6c0.7,0,1.5,0,2.4,0
		c-1.8,6.2-3.6,12.4-5.4,18.6c-19.8,0-39.6,0-59.5,0c-0.4-0.3-0.1-0.8-0.2-1.3c3.2-0.7,6.6-0.7,8.9-3.7c-0.4-1,0.8-1.6,0.6-2.6
		c-0.2-0.8-0.3-1.8,0-2.6c0.8-2.3,0.4-4.6,0.5-6.8c0-14.6,0.1-29.2,0-43.7c0-2.4-0.5-4.8-1-7.1c-0.5-2.4-2.3-3.4-4.3-3.9
		C567.1,38.3,565.6,37.5,563.9,38.3z"/>
	<path d="M233.6,146.5c0-0.7,0-1,0-1.4c0.3-0.4,25.4-0.5,32.6-0.2c0.3,0.4,0.1,0.8,0.2,1.5c-0.9,0-1.7-0.1-2.5,0
		c-1.9,0.2-3.8,0.6-5.6,1.5c-0.7,0.3-0.9,0.7-1.3,1.3c-1,1.8-1.5,3.6-1.5,5.6c0,18.1,0,36.1,0,54.2c0,1.5,0.4,2.8,0.7,4.2
		c0.3,1.6,1.6,2.6,3.3,3c2.3,0.6,4.5,1.2,6.8,1c0.4,0.5,0.3,1,0.1,1.5c-10.8,0-21.6,0-32.5,0c-0.4-0.3-0.1-0.8-0.2-1.2
		c0.1-0.1,0.3-0.3,0.4-0.3c2.1,0.1,4.1-0.5,6.1-1c2.8-0.7,3.7-2.8,3.9-5c1-8.9,0.5-17.9,0.5-26.9c0.1-8.9,0.1-17.9-0.1-26.8
		c0-2.3-0.3-4.6-0.9-6.9c-0.6-2.2-2.4-3.2-4.3-3.6C237.5,146.7,235.7,145.9,233.6,146.5z"/>
</g>
</svg>
