<svg xmlns="http://www.w3.org/2000/svg" xmlns:xlink="http://www.w3.org/1999/xlink" version="1.1" x="0px" y="0px" viewBox="0 0 8 10" enable-background="new 0 0 8 8" xml:space="preserve"><path fill-rule="evenodd" clip-rule="evenodd" d="M5.385,5H4l0.947,2.273C4.945,7.271,4.939,7.264,4.939,7.264  C5.055,7.479,5,7.751,4.801,7.9C4.578,8.066,4.265,8.021,4.1,7.799c0-0.002-0.002,0-0.002-0.002L1.105,3.808  C1.04,3.723,1,3.615,1,3.5C1,3.223,1.225,3,1.5,3h1.501L1.053,0.402l0.002,0.002C1.021,0.361,1,0.309,1,0.25C1,0.111,1.111,0,1.25,0  h2.83c0.258,0,0.469,0.165,0.557,0.392L5.971,4.2C5.984,4.258,6,4.319,6,4.384C6,4.724,5.724,5,5.385,5L5.385,5z"/><text x="0" y="23" fill="#000000" font-size="5px" font-weight="bold" font-family="'Helvetica Neue', Helvetica, Arial-Unicode, Arial, Sans-serif">Created by Muhamad Ulum</text><text x="0" y="28" fill="#000000" font-size="5px" font-weight="bold" font-family="'Helvetica Neue', Helvetica, Arial-Unicode, Arial, Sans-serif">from the Noun Project</text></svg>