<?xml version="1.0" encoding="utf-8"?>
<!-- Generator: Adobe Illustrator 20.1.0, SVG Export Plug-In . SVG Version: 6.00 Build 0)  -->
<svg version="1.1" id="Layer_1" xmlns="http://www.w3.org/2000/svg" xmlns:xlink="http://www.w3.org/1999/xlink" x="0px" y="0px"
	 viewBox="0 0 130.1 70.6" style="enable-background:new 0 0 130.1 70.6;" xml:space="preserve">
<g>
	<path d="M6.4,63.2v-43H15v35h22.8v8H6.4z"/>
	<path d="M60.9,63.9c-10.9,0-18.5-6.1-18.5-18V20.1H51v25.4c0,7,4,10.2,9.9,10.2s9.9-3.1,9.9-10.2V20.1h8.6V46
		C79.4,57.9,71.9,63.9,60.9,63.9z"/>
	<g>
		<path d="M59.3,12c0,2.9-2.3,5.1-5.2,5.1c-2.9,0-5.1-2.2-5.1-5.1s2.2-5.2,5.1-5.2C57,6.8,59.3,9.1,59.3,12z"/>
		<path d="M72.8,11.9c0,2.9-2.3,5.1-5.2,5.1c-2.9,0-5.1-2.2-5.1-5.1s2.2-5.2,5.1-5.2C70.5,6.7,72.8,9,72.8,11.9z"/>
	</g>
	<path d="M97.3,45.5v17.7h-8.6v-43h8.6v17.4h0.1l14.2-17.4h10.8l-18,21l19.4,22h-11.1L97.3,45.5L97.3,45.5z"/>
</g>
</svg>
