<svg xmlns="http://www.w3.org/2000/svg" xmlns:xlink="http://www.w3.org/1999/xlink" version="1.1" x="0px" y="0px" viewBox="0 0 78.847 125" enable-background="new 0 0 78.847 100" xml:space="preserve"><path d="M8.009,18.407c-0.132,0-0.26-0.008-0.384-0.023c-0.711-0.09-1.214-0.74-1.124-1.451c0.092-0.71,0.741-1.202,1.451-1.124  c1.522,0.216,6.527-3.41,6.757-5.233c0.091-0.709,0.749-1.194,1.451-1.124c0.711,0.09,1.214,0.74,1.125,1.451  C16.903,13.902,11.226,18.407,8.009,18.407z"/><path d="M44.796,44.724c-0.388,0-0.771-0.172-1.026-0.503l-1.589-2.052c-0.355-0.459-0.362-1.096-0.021-1.563l0.122-0.163  L28.21,22.271l-2.161,0.962c-0.668,1.873-2.739,3.609-3.684,4.327c-0.825,0.627-3.668,2.66-5.788,2.385  c-0.711-0.091-1.213-0.741-1.123-1.452c0.091-0.71,0.753-1.198,1.453-1.123c0.488,0.08,2.045-0.476,3.89-1.876  c1.773-1.347,2.784-2.708,2.867-3.356c0.057-0.45,0.346-0.838,0.76-1.023l3.663-1.63c0.546-0.239,1.188-0.082,1.554,0.392  l15.294,19.751c0.354,0.458,0.362,1.096,0.02,1.562l-0.121,0.164l0.195,0.252l1.541-1.192L28.737,17.386l-4.753,1.413l-0.731,0.566  c-0.996,3.095-6.561,7.262-9.527,6.897c-0.711-0.09-1.214-0.74-1.124-1.451c0.091-0.71,0.747-1.204,1.451-1.124  c1.518,0.19,6.527-3.41,6.758-5.233c0.043-0.341,0.22-0.651,0.493-0.862l1.283-0.995c0.127-0.098,0.271-0.171,0.425-0.218  l5.837-1.735c0.521-0.147,1.068,0.026,1.396,0.45l19.17,24.756c0.21,0.273,0.304,0.618,0.261,0.958  c-0.043,0.342-0.221,0.651-0.494,0.863l-3.592,2.781C45.354,44.635,45.075,44.724,44.796,44.724z"/><path d="M63.808,90.738c-0.389,0-0.771-0.172-1.027-0.504L6.762,17.891c-0.438-0.566-0.334-1.381,0.232-1.821  c0.569-0.436,1.381-0.336,1.821,0.232L64.038,87.62l6.159-4.768L14.971,11.534c-0.438-0.567-0.334-1.382,0.232-1.821  c0.566-0.438,1.381-0.335,1.821,0.232l56.02,72.345c0.21,0.271,0.304,0.616,0.261,0.958c-0.043,0.34-0.221,0.651-0.494,0.862  l-8.21,6.356C64.365,90.649,64.086,90.738,63.808,90.738z"/><path d="M7.79,18.394c-0.388,0-0.771-0.172-1.028-0.503l-2.781-3.592c-0.438-0.566-0.334-1.381,0.232-1.821l8.209-6.357  c0.272-0.21,0.616-0.3,0.958-0.261c0.342,0.043,0.651,0.221,0.863,0.493l2.781,3.592c0.438,0.566,0.334,1.382-0.232,1.821  c-0.566,0.437-1.381,0.334-1.821-0.232l-1.986-2.565l-6.157,4.768l1.987,2.565c0.438,0.567,0.334,1.383-0.232,1.821  C8.346,18.305,8.067,18.394,7.79,18.394z"/><path d="M7.061,13.213c-0.388,0-0.772-0.172-1.028-0.503L0.271,5.27C0.061,4.998-0.033,4.653,0.01,4.312  C0.054,3.97,0.231,3.661,0.503,3.449l2.053-1.589c0.568-0.436,1.383-0.336,1.821,0.232c0.438,0.566,0.334,1.383-0.232,1.821  L3.119,4.708l4.967,6.413c0.438,0.567,0.334,1.382-0.232,1.821C7.617,13.124,7.338,13.213,7.061,13.213z"/><path d="M11.165,10.034c-0.388,0-0.771-0.172-1.028-0.503L5.171,3.118L4.146,3.913C3.577,4.349,2.763,4.249,2.325,3.681  C1.886,3.114,1.99,2.299,2.557,1.859L4.608,0.27c0.271-0.209,0.62-0.301,0.958-0.261c0.342,0.043,0.651,0.22,0.863,0.493l5.76,7.44  c0.438,0.566,0.335,1.381-0.232,1.821C11.721,9.945,11.442,10.034,11.165,10.034z"/><path d="M74.501,98.188c-0.213,0-0.426-0.054-0.62-0.157l-8.507-4.629c-0.157-0.086-0.294-0.203-0.406-0.345l-2.188-2.821  c-0.438-0.567-0.334-1.381,0.23-1.822c0.568-0.437,1.38-0.337,1.823,0.23l2.02,2.608l7.523,4.091l1.384-1.069  c0.561-0.436,1.377-0.34,1.82,0.233c0.438,0.565,0.335,1.381-0.233,1.819l-2.053,1.59C75.064,98.096,74.783,98.188,74.501,98.188z"/><path d="M74.501,98.188c-0.388,0-0.771-0.173-1.026-0.505c-0.438-0.565-0.334-1.382,0.233-1.82l1.382-1.069l-2.081-8.309  l-2.019-2.606c-0.438-0.567-0.334-1.384,0.231-1.822c0.567-0.436,1.381-0.337,1.822,0.23l2.185,2.821  c0.109,0.145,0.188,0.307,0.233,0.481l2.353,9.396c0.124,0.5-0.059,1.024-0.467,1.341l-2.053,1.59  C75.059,98.099,74.78,98.188,74.501,98.188z"/><path d="M77.548,100c-0.388,0-0.771-0.172-1.026-0.501l-2.021-2.606c-0.438-0.567-0.334-1.381,0.231-1.822  c0.57-0.438,1.381-0.337,1.822,0.23l2.021,2.605c0.438,0.568,0.334,1.382-0.231,1.823C78.105,99.912,77.827,100,77.548,100z"/><text x="0" y="115" fill="#000000" font-size="5px" font-weight="bold" font-family="'Helvetica Neue', Helvetica, Arial-Unicode, Arial, Sans-serif">Created by Claire Skelly</text><text x="0" y="120" fill="#000000" font-size="5px" font-weight="bold" font-family="'Helvetica Neue', Helvetica, Arial-Unicode, Arial, Sans-serif">from the Noun Project</text></svg>