<?xml version="1.0" encoding="utf-8"?>
<!-- Generator: Adobe Illustrator 19.2.1, SVG Export Plug-In . SVG Version: 6.00 Build 0)  -->
<svg version="1.1" id="Layer_1" xmlns="http://www.w3.org/2000/svg" xmlns:xlink="http://www.w3.org/1999/xlink" x="0px" y="0px"
	 viewBox="0 0 530.6 197.5" style="enable-background:new 0 0 530.6 197.5;" xml:space="preserve">
<style type="text/css">
	.st0{fill:none;stroke:#000000;stroke-width:2;stroke-linecap:round;stroke-linejoin:round;stroke-miterlimit:10;}
</style>
<g>
	<path d="M309.5,101.5c-3.2,0-6,0-8.9,0c-21.1,0-42.2,0-63.4,0c-4.2,0-9-2.3-12.6-4.5c-3.7-2.3-5.7-5.7-7.8-9
		c-1.3-2.2-2.4-5-2.4-7.6c-0.2-24.6-0.1-49.1-0.1-74c1.6,0,3.1,0,4.5,0c21.6,0,43.1,0,64.7,0c4.6,0,9,1.3,13,3.6
		c6.5,3.7,10.6,9.9,12.1,16.7c0.6,2.8,0.8,5.5,0.8,8.2C309.5,57,309.5,79,309.5,101.5z M302.9,95c0.1-0.3,0.2-0.4,0.2-0.5
		c0-16.1,0-32.3,0-48.4c0-2.3-0.2-4.7-1.1-6.8c-2.5-5.7-7.1-10.4-14.5-10.3c-15.7,0.1-31.4,0-47.1,0c-1.1,0-2.3,0.1-3.4,0.1
		c0,17.5,0,34.7,0,51.9c0,2.2,0.7,4.2,1.6,6.1c2.6,5.3,7.5,7.7,12.9,7.8c16.7,0.3,33.5,0.1,50.2,0.1C302.2,95.1,302.6,95,302.9,95z
		 M229.8,22.7c19.8,0,39.1,0.1,58.4,0c4.9,0,9,1.4,12.7,4.5c0.2,0.2,0.8,0,1.2-0.1c-0.4-1.3-0.8-2.4-1.2-3.5
		c-0.9-2.5-3.3-3.7-4.8-5.7c-1.9-2.5-4.7-3.3-7.4-4.1c-2.8-0.9-5.7-1-8.7-1c-18.3,0.1-36.5,0-54.8,0c-1.5,0-2.9,0-4.5,0
		c0,1.8,0,3.3,0,4.8c0,19.2,0,38.3,0,57.5c0,3.2-0.4,6.4,1.8,9.2c0.2,0.3,0,0.9,0,1.2c3.2,4.3,6.8,8.1,12.9,8.9
		c-1.5-2.4-3.3-4-3.9-6.5c-0.8-3.2-1.8-6.3-1.7-9.7c0-5.9,0-11.8,0-17.7C229.8,48,229.8,35.5,229.8,22.7z"/>
	<path d="M6.2,124.6c3.2,2.9,5.9,5.4,8.7,8c3.9,3.6,7.6,7.5,11.9,10.8c2.7,2.1,5,4.5,7.5,6.8c4.1,3.7,8,7.5,12.1,11.2
		c1.4,1.3,3,2.3,4.6,3.4c-0.1,0,0.1,0,0.1-0.1c0.1-0.1,0.2-0.2,0.2-0.4c0-12.4,0-24.7,0-37.2c3.8,0,7.6,0,11.3,0
		c0.7,3.8,0.9,46.4,0.3,64c-2.3-1.8-4.6-3.4-6.6-5.3c-4.6-4.2-9.2-8.5-13.7-12.8c-4.1-3.8-8.1-8-12.5-11.4
		c-3.7-2.9-6.7-6.3-10.1-9.4c-0.5-0.4-1.1-0.7-2.2-1.3c0,6.8,0,13.1,0,19.4c0,6.3,0,12.6,0,19c-4,0-7.7,0-11.6,0
		C6.2,167.9,6.2,146.5,6.2,124.6z"/>
	<path d="M518.7,130.4c0,4.8,0,9.1,0,13.8c-4.5-3.6-9.7-5.4-14.8-7.1c-2.2-0.7-4.8-0.7-7.2-1.2c-2.4-0.5-4.6,0.8-6.9,1
		c-2.2,0.2-3.8,2-5.3,3.9c0,0.8,0,1.8,0,2.8c2.9,3.5,6.9,4.6,11.1,5.9c6.9,2.1,14.3,3.3,20.3,8c1.8,1.4,3.3,2.7,4.3,4.6
		c0.7,1.4,1.4,2.7,2.2,4.4c0,1.2-0.1,2.7,0,4.2c0.3,5-1.3,9-5.1,12.4c-2.2,2-4.3,3.9-7,5c-2.5,1.1-5.1,1.7-7.8,2
		c-1.5,0.2-3.1,0.6-4.6,0.9c-2.4,0.5-4.6-1.1-6.9-0.8c-2.3,0.2-4.3-0.7-6.4-1.1c-2.1-0.4-4.3-1.2-6.2-2.5c-1.7-1.1-3.8-1.8-5.7-2.7
		c0-4.7,0-9.1,0-14c2.6,1.9,4.8,4.2,7.4,5.3c2.7,1.1,5.2,2.8,8.2,3c2.4,2.4,5.9-0.5,8.3,1.7c2.6-2.2,6.3,0.9,8.8-1.7
		c1.3-1.4,2.7-2.8,4.3-4.5c0-0.6,0.1-1.6,0-2.7c-0.3-2-0.8-3.6-3-4.7c-4.3-2.3-9-3.1-13.6-4.5c-6.1-1.8-12.4-3.3-16.9-8.5
		c-2.1-2.5-3.8-5-3.7-8.4c0-0.6-0.5-1.3-0.8-1.8c0.3-1.1,0.8-2.2,0.8-3.3c-0.2-4.1,2.1-7.1,4.9-9.3c4.9-3.8,10.7-5.9,17-5.8
		c1.7,0,3.3-0.1,5,0c4.8,0.4,9.6,1.1,14.1,3.2C515.2,129.1,517,129.7,518.7,130.4z"/>
	<path d="M447.6,189.2c-4.8,0-9.1,0-13.9,0c-1.5-2.7-3.1-5.8-4.8-8.8c-10.2,0-20.1,0-30.6,0c-1.8,2.9-3.7,6-5.5,8.9
		c-4.4,0-8.4,0-12.9,0c1.4-3,2.4-5.9,3.9-8.4c5.3-8.9,9.5-18.4,14.5-27.5c3.9-7,7.3-14.2,10.9-21.3c1.2-2.5,2.8-4.7,4.5-7.4
		c0.7,1,1.3,1.7,1.7,2.5c2,4,3.5,8.3,5.8,12c4.7,7.5,8.1,15.7,12.3,23.4c4,7.2,7.5,14.7,11.2,22
		C445.5,186.1,446.5,187.4,447.6,189.2z M413.4,149.1c-3.3,7-6.9,13.4-9.9,20.2c7,0,13.5,0,20.1,0
		C420.2,162.5,416.9,156,413.4,149.1z"/>
	<path d="M108.3,180.3c-1.5,2.7-3.2,5.6-5,8.9c-4,0-8.4,0-13.4,0c0.8-1.5,1.5-2.7,2.1-3.9c3.4-6.7,6.5-13.7,10.3-20.1
		c4.5-7.5,7.9-15.4,12-23.1c3.1-5.7,6-11.4,9-17.1c0-0.1,0.3,0,0.9,0c0.2,0.4,0.4,1,0.7,1.5c5,8.6,9,17.7,13.8,26.4
		c3.9,7,7.2,14.2,11,21.2c2.5,4.5,4.9,9.1,7.3,13.7c0.2,0.3,0.1,0.8,0.2,1.4c-4.1,0-8.2,0-12.7,0c-1.7-2.8-3.7-5.9-5.5-8.9
		C128.7,180.3,118.8,180.3,108.3,180.3z M113.5,169.1c7.7,0.7,17.5,0.5,20.4-0.3c-3.1-5.7-6.1-11.3-9.1-17c-0.3-0.5-0.5-1.1-1-2
		C120.2,156.5,116.9,162.7,113.5,169.1z"/>
	<path d="M204.9,191.6c-2.6-5-4.8-9.4-7-13.7c-5.3-10.2-10.7-20.3-16-30.5c-3.7-7-7.3-14.1-11.1-21.3c4.6,0,9,0,13.7,0
		c1.7,3.4,3.6,7,5.5,10.7c2.9,5.7,5.7,11.6,8.6,17.3c2,4,4.3,7.8,6.5,11.7c3.2-4,5.2-8.9,7.5-13.5c3.8-7.5,7.5-15,11.3-22.5
		c0.7-1.4,1.8-2.6,2.4-3.5c4.5,0,8.5,0,13,0c-1.5,2.8-2.7,5.3-4,7.7c-3.6,6.8-7.2,13.6-10.7,20.5c-4.6,8.8-9.1,17.7-13.7,26.5
		C208.9,184.3,207,187.7,204.9,191.6z"/>
	<path d="M312.4,126.9c17.8,0,35.4,0,53.1,0c0,3.5,0,6.9,0,10.6c-6.4,0.4-12.9,0-19.7,0.2c0,17.2,0,34.3,0,51.5c-4.3,0-8.3,0-12.7,0
		c0-17.1,0-34.2,0-51.5c-6.7,0-13.2,0-19.5,0c-0.5-0.5-0.8-0.8-1.3-1.3C312.4,133.6,312.4,130.4,312.4,126.9z"/>
	<path d="M281.3,189.3c-3.9,0-7.6,0-11.5,0c0-20.7,0-41.3,0-62.4c1.7,0,3.6,0,5.5,0c1.9,0,3.9,0,6,0
		C281.3,147.7,281.3,168.3,281.3,189.3z"/>
	<path d="M286.9,39.1c1.5,1.3,3.4,2.9,5.5,4.7c1.7,13.6,0.3,27.3,0.9,41.2c-13.3,0-26.4,0-39.3,0c-0.9-0.3-1.7-0.6-3.3-1.2
		c0.4,0.3,0,0-0.3-0.2c-2.5-2.1-3.5-4.7-3.4-8.1c0.2-12.1,0.1-24.1,0.1-36.3C260.2,39.1,273.3,39.1,286.9,39.1z M272.9,69.9
		c-6.5,0-13,0-19.6,0c0.2,2.7-0.5,5.4,1.2,7.8c4.2,2,8.7,0.8,13,1c4.6,0.2,9.2,0,14.3,0C278.5,75.5,275.6,72.7,272.9,69.9z
		 M285.8,73.1c0-8.5,0-17.2,0-25.9c-1.1-0.6-2.1-1.2-3-1.8c-1.6,0-3.3,0-4.9,0c0,6.9,0,13.6,0,19.8
		C280.7,68.1,283.3,70.6,285.8,73.1z M271.3,45.6c-4.4,0-8.8,0-13.3,0c0,0.1,0,0.2,0.1,0.6c4.1,3.8,8.3,7.8,12.5,11.7
		c0.1,0.1,0.3,0,0.6-0.1C271.3,53.8,271.3,49.7,271.3,45.6z M265.8,63.2c-4.1-4.1-8.2-8.2-12.3-12.3c0,4.1,0,8.2,0,12.3
		C257.7,63.2,261.8,63.2,265.8,63.2z"/>
	<path class="st0" d="M60.8,185.7c0.6,1.7,1.2,3.3,1.8,5"/>
</g>
</svg>
