<svg xmlns="http://www.w3.org/2000/svg" xmlns:xlink="http://www.w3.org/1999/xlink" version="1.1" x="0px" y="0px" viewBox="0 0 100 125" enable-background="new 0 0 100 100" xml:space="preserve"><g><path fill="#000000" d="M73.6,22.1c-0.4-0.1-0.7,0.1-1,0.4c-0.9,1.2-1.9,1.9-2.8,2.7c-1.3,1-2.6,2.1-3.9,4.3c-0.7,1.2-2,2-3.4,2   c-1.1,0-2-0.5-2.3-1.2c-0.4-1,0.4-2.4,2.1-3.9c4.4-4,4-10.5,2.3-14.9c-0.9-2.2-1.8-3.4-2.7-3.4c-0.4,0-1,0.2-1.2,0.9   c-0.1,0.2-0.1,0.4-0.2,0.5c-0.5,1.8-1,3.4-6.9,5.9c-4.2,1.8-5.4,4.3-6.4,6.3c-0.7,1.5-1.2,2.6-2.8,3.5c-0.3,0.2-0.5,0.2-0.5,0.2   c-0.1-0.2-0.4-1,0.1-3.7c0.3-1.8,0.8-3.4,0.8-3.5c0.1-0.4,0-0.8-0.4-1.1c-0.3-0.3-0.8-0.3-1.2,0c-0.8,0.5-1.5,0.9-2.1,1.3   c-2.5,1.4-3.8,2.4-4.6,7.3c-0.4,2.4-1.3,3.4-2.5,4.7c-1.7,1.9-3.8,4.2-5.4,10.5c-2,7.9,1.8,16.2,8.9,19.3c3.2,1.4,6.5,2.1,9.8,2.1   c0,0,0,0,0,0c5.6,0,10.9-2,15.4-5.8c5.5-4.6,6.7-10,7.6-13.9c0.5-2.4,1-4.3,2.1-5.3c4.9-4.4,1.9-14.1,1.8-14.6   C74.3,22.5,74,22.2,73.6,22.1z M53,54.3c-3.4,0-2.5,5.7-9.2,4c-4.5-1.2-2.9-5.1-5.9-6.1c-2.6-0.9-4.1-4.5-4.1-7.1   c0-7.3,5.9-13.2,13.2-13.2c7.3,0,13.2,5.9,13.2,13.2C60.2,48.7,56,54.3,53,54.3z"/><path fill="#000000" d="M76.2,6.4c-0.2-0.6-0.8-0.9-1.4-0.8c-0.6,0.1-1,0.6-1,1.2c0,0.2-0.2,1.6-2.2,2.9c-2.9,1.8-2.3,5.4-1.5,7.1   c0.2,0.4,0.6,0.7,1.1,0.7c0.1,0,0.2,0,0.3,0c2.1-0.5,3.6-1.5,4.5-3.2C77.9,11,76.3,6.6,76.2,6.4z"/><path fill="#000000" d="M30.8,22.6c0.2,0.1,0.3,0.1,0.5,0.1c0.4,0,0.8-0.2,1-0.6c0.1-0.2,2.7-4.8,0.2-7.7c-0.9-1-1.1-2.8-1.1-3.4   c0-0.5-0.4-1-0.9-1.1c-0.5-0.1-1.1,0.1-1.3,0.6c-1.8,3.1-2.4,5.9-1.7,8.3C28.4,21.5,30.7,22.5,30.8,22.6z"/><circle fill="#000000" cx="39" cy="45.1" r="3.2"/><circle fill="#000000" cx="51.8" cy="46.4" r="3.2"/><path fill="#000000" d="M45.8,49c-0.2-0.9-1.4-0.9-1.8-0.1l-1.6,3.6c-0.3,0.6,0.1,1.3,0.8,1.3l2.7,0.3c0.7,0.1,1.2-0.6,1-1.2   L45.8,49z"/><path fill="#000000" d="M73,68.8c-1.1-2.1-3.7-3-5.9-2l-6.4,2.8c0,0,0,0,0,0c-1.3,0.6-2.8,1.1-4.2,1.4c0.4-0.7,0.6-1.4,0.6-2.3   c0-2.6-2.1-4.7-4.7-4.7H40.1c-3.3,0-6.4,1.2-8.8,3.4l-7.1,6.6c-0.4,0.4-0.5,1.1-0.1,1.5c0.4,0.4,1.1,0.5,1.5,0.1l7.1-6.6   c2-1.9,4.6-2.9,7.3-2.9h12.2c1.4,0,2.6,1.1,2.6,2.6c0,1.4-1.1,2.6-2.6,2.6h-8.5c-0.6,0-1.1,0.5-1.1,1.1c0,0.6,0.5,1.1,1.1,1.1h9.4   c2.9,0,5.8-0.6,8.3-1.9l6.4-2.8c0,0,0,0,0,0c1.1-0.5,2.5-0.1,3.1,1.1l0,0.1c0.3,0.6,0.3,1.3,0.1,1.9c-0.2,0.6-0.6,1.1-1.2,1.4   c-1.1,0.6-3.1,1.5-5.2,2.4c-2.2,1-4.4,2-5.7,2.7c-2.5,1.2-5.4,1.9-8.2,1.8l-12.4-0.3c-1.7,0-3.2,0.6-4.4,1.9L24.2,92.6   c-0.4,0.4-0.4,1.1,0.1,1.5c0.2,0.2,0.5,0.3,0.7,0.3c0.3,0,0.6-0.1,0.8-0.3L35.8,83c0.7-0.8,1.7-1.2,2.7-1.2l12.4,0.3   c3.2,0.1,6.3-0.6,9.2-2c1.3-0.6,3.5-1.7,5.6-2.6c2.1-1,4.1-1.9,5.2-2.5c1.1-0.5,1.9-1.5,2.3-2.6C73.6,71.2,73.5,70,73,68.8L73,68.8   z"/></g><text x="0" y="115" fill="#000000" font-size="5px" font-weight="bold" font-family="'Helvetica Neue', Helvetica, Arial-Unicode, Arial, Sans-serif">Created by Martyn Jasinski</text><text x="0" y="120" fill="#000000" font-size="5px" font-weight="bold" font-family="'Helvetica Neue', Helvetica, Arial-Unicode, Arial, Sans-serif">from the Noun Project</text></svg>