<?xml version="1.0" encoding="UTF-8"?>
<svg width="51px" height="44px" viewBox="0 0 51 44" version="1.1" xmlns="http://www.w3.org/2000/svg" xmlns:xlink="http://www.w3.org/1999/xlink">
    <!-- Generator: Sketch 44.1 (41455) - http://www.bohemiancoding.com/sketch -->
    <title>Fill 3</title>
    <desc>Created with Sketch.</desc>
    <defs></defs>
    <g id="Page-1" stroke="none" stroke-width="1" fill="none" fill-rule="evenodd">
        <path d="M44.3802,21.6182 L46.5052,18.5352 L48.1892,19.6572 L46.0632,22.7402 L44.3802,21.6182 Z M25.3902,22.0002 C27.9582,23.3392 30.0432,26.4882 30.0432,27.8122 C30.0432,29.5302 30.0432,29.9362 26.7952,29.9362 L25.3902,29.9362 L25.3902,22.0002 Z M41.8002,22.0002 C41.8002,32.9352 32.9352,41.8002 22.0002,41.8002 C11.0652,41.8002 2.2002,32.9352 2.2002,22.0002 C2.2002,11.0652 11.0652,2.2002 22.0002,2.2002 C28.8962,2.2002 34.9662,5.7272 38.5112,11.0732 L31.8972,6.5902 L24.0282,5.0432 C23.7412,4.9032 23.4262,4.8212 23.0912,4.8212 C21.8232,4.8212 20.7932,5.9462 20.7932,7.3322 L20.7932,32.4482 C20.7932,33.8372 21.8252,34.9602 23.0912,34.9602 L26.7952,34.9602 C29.1422,34.9602 34.6412,34.9602 34.6412,27.8122 C34.6412,23.6622 30.2802,18.1192 25.3902,16.7002 L25.3902,8.5792 L27.8542,12.4222 L41.7972,21.8972 L41.8002,22.0002 Z M29.0882,11.2342 L27.4782,8.7072 L28.2672,7.5592 L31.2132,8.1512 L45.0982,17.5852 L42.9732,20.6672 L29.0882,11.2342 Z M50.5242,19.2162 L42.3582,13.6812 C39.0752,5.6582 31.2042,0.0002 22.0002,0.0002 C9.8502,0.0002 0.0002,9.8502 0.0002,22.0002 C0.0002,34.1502 9.8502,44.0002 22.0002,44.0002 C33.6922,44.0002 43.2492,34.8782 43.9542,23.3632 L46.4792,25.0792 L50.5242,19.2162 Z M14.1953,29.698 C11.8323,29.402 11.5953,28.583 11.5953,27.694 C11.5953,26.122 12.5613,23.53 14.1953,22.166 L14.1953,29.698 Z M14.1313,9.844 C12.0073,9.844 10.5103,10.871 9.6803,12.898 C9.1613,14.166 9.6433,15.628 10.8023,16.191 C11.9653,16.763 13.2823,16.166 13.8003,14.9 C13.8003,14.9 14.0623,14.85 14.2983,14.87 C14.3263,15.309 14.2943,16.005 14.2663,16.58 C9.7123,17.992 7.0003,23.55 7.0003,27.694 C7.0003,34.842 14.1443,34.842 16.4963,34.842 C17.7653,34.842 18.7953,33.719 18.7953,32.33 L18.7953,18.748 C18.7953,18.12 18.8273,17.517 18.8553,16.952 C18.9513,14.93 19.0593,12.84 17.7193,11.293 C16.8823,10.331 15.6753,9.844 14.1313,9.844 L14.1313,9.844 Z" id="Fill-3" fill="#000000"></path>
    </g>
</svg>