<svg xmlns="http://www.w3.org/2000/svg" xmlns:xlink="http://www.w3.org/1999/xlink" version="1.1" x="0px" y="0px" viewBox="0 0 100 125" enable-background="new 0 0 100 100" xml:space="preserve"><g><g><path d="M70.76,72.55c-1.194-2.272-12.821-19.173-14.138-21.054c-0.01-0.01-0.017-0.021-0.024-0.033l-1.449-1.872l13.738-19.622    l1.124,0.787L58.057,47.827c-0.171,0.244-0.111,0.582,0.133,0.753c0.094,0.066,0.203,0.098,0.311,0.098    c0.17,0,0.338-0.082,0.443-0.231L71.517,30.49l-2.01-1.407l2.083-2.976c0.271-0.384,0.177-0.915-0.208-1.184l-0.387-0.272    l1.769-2.526c0.823-1.175,0.535-2.802-0.641-3.625l-1.064-0.745c-1.175-0.823-2.8-0.536-3.623,0.64l-1.77,2.525l-0.388-0.271    c-0.185-0.13-0.414-0.18-0.635-0.141c-0.224,0.039-0.421,0.166-0.55,0.35L49.282,42.01L39.115,28.867    c0.207-1.152-0.029-2.384-0.751-3.417c-1.256-1.793-9.132-5.036-10.697-5.667c-0.357-0.144-0.767-0.031-0.999,0.277    c-0.231,0.307-0.227,0.731,0.01,1.034c2.657,3.397,3.012,5.366,3.298,6.948c0.166,0.921,0.323,1.79,0.917,2.639    c0.701,1.001,1.77,1.67,2.955,1.876l10.458,16.56L28.713,71.386c-0.113,0.163-0.159,0.352-0.148,0.536l-1.769,8.823    c-0.067,0.331,0.07,0.67,0.346,0.863c0.146,0.103,0.316,0.153,0.487,0.153c0.153,0,0.307-0.04,0.442-0.123l7.687-4.681    c0.182-0.055,0.342-0.166,0.452-0.322l13.422-19.17c2.665,3.764,12.838,18.005,14.44,19.769c2.39,2.63,5.464,5.48,7.553,5.48    c0.387,0,0.74-0.1,1.05-0.313C74.647,81.019,72.722,76.281,70.76,72.55z M68.826,19.369c0.287-0.407,0.851-0.507,1.259-0.221    l1.063,0.745c0.407,0.285,0.507,0.849,0.222,1.257l-1.769,2.525l-2.543-1.781L68.826,19.369z M31.474,26.836    c-0.241-1.127-0.661-2.517-1.757-4.343c3.25,1.428,6.703,3.145,7.254,3.932c0.591,0.845,0.659,1.9,0.275,2.783    c-0.677-0.743-1.984-1.12-3.364-1.515C32.989,27.438,32.073,27.175,31.474,26.836z M32.286,29.696    c-0.315-0.451-0.443-0.936-0.563-1.56c0.564,0.22,1.204,0.407,1.862,0.595c1.205,0.345,2.57,0.737,2.947,1.31    c0.021,0.032,0.046,0.06,0.073,0.085c-0.105,0.1-0.215,0.185-0.336,0.271c-0.484,0.339-1.05,0.508-1.636,0.508    C33.698,30.906,32.821,30.46,32.286,29.696z M35.804,32.47c0.511-0.137,0.998-0.359,1.439-0.668    c0.45-0.315,0.826-0.697,1.124-1.123l4.749,6.139l-3.166,2.217L35.804,32.47z M40.528,39.951l3.25-2.276l4.482,5.794l-2.897,4.138    L40.528,39.951z M28.844,79.178l1.171-5.843l3.917,2.743L28.844,79.178z M35.305,74.963l-4.712-3.299l2.504-3.575l4.711,3.299    L35.305,74.963z M38.429,70.502l-4.711-3.298l0.974-1.394l4.711,3.299L38.429,70.502z M40.024,68.224l-4.711-3.298l0.976-1.394    L41,66.831L40.024,68.224z M41.621,65.944l-4.711-3.299l0.976-1.394l4.711,3.299L41.621,65.944z M43.217,63.665l-4.711-3.299    L65,22.529l4.711,3.298L43.217,63.665z M71.7,81.007c-0.074,0.05-0.653,0.052-1.947-0.836c-1.244-0.855-2.774-2.268-4.423-4.08    c-1.552-1.71-12.414-16.91-14.661-20.104l3.458-4.938l1.112,1.439c2.136,3.05,12.951,18.831,14.016,20.853    C72.232,79.003,71.89,80.875,71.7,81.007z"/></g></g><text x="0" y="115" fill="#000000" font-size="5px" font-weight="bold" font-family="'Helvetica Neue', Helvetica, Arial-Unicode, Arial, Sans-serif">Created by Tomek Wołoszyn</text><text x="0" y="120" fill="#000000" font-size="5px" font-weight="bold" font-family="'Helvetica Neue', Helvetica, Arial-Unicode, Arial, Sans-serif">from the Noun Project</text></svg>