<svg xmlns="http://www.w3.org/2000/svg" viewBox="0 0 506.76 505.08"><defs><style>.cls-1{fill:#fff;}.cls-2{fill:#5d2c85;}</style></defs><title>Asset 6</title><g id="Layer_2" data-name="Layer 2"><g id="Layer_1-2" data-name="Layer 1"><rect class="cls-1" width="506.76" height="505.08"/><rect class="cls-1" x="11.89" width="482.98" height="482.98"/><path class="cls-2" d="M479.79,300.61a45.41,45.41,0,0,1-.79-5.38q-.35-3.36-.34-9.19a39.36,39.36,0,0,1-4.7,6.05,36,36,0,0,1-7.17,5.82,39.58,39.58,0,0,1-10,4.37A45.78,45.78,0,0,1,443.93,304a39.26,39.26,0,0,1-14.9-2.69,36.88,36.88,0,0,1-11.31-7.06A30.69,30.69,0,0,1,410.44,284a30,30,0,0,1-2.58-12.32,32.31,32.31,0,0,1,2.46-12.88,28.46,28.46,0,0,1,6.84-9.75,34.24,34.24,0,0,1,10.42-6.5,59.83,59.83,0,0,1,13-3.58l29.13-4.25q4.93-.67,6.61-2.91a8.36,8.36,0,0,0,1.68-5.15,18.91,18.91,0,0,0-5.5-13.56q-5.49-5.71-17.81-5.71-11.2,0-17.25,6.16a25.85,25.85,0,0,0-7.17,15.57l-20.17-4.7a37.09,37.09,0,0,1,4.59-14.12,37.84,37.84,0,0,1,9.52-11.09,44.26,44.26,0,0,1,13.55-7.17,51.82,51.82,0,0,1,16.47-2.58q12.1,0,20.61,3.25a39,39,0,0,1,13.89,8.63,32.42,32.42,0,0,1,6.12,8.48V9.5h-483V192.84H26.75v16.8A37.43,37.43,0,0,1,40.42,196q9.19-5.59,22.4-5.6a49.82,49.82,0,0,1,21.41,4.37,43,43,0,0,1,15.45,12,53.91,53.91,0,0,1,9.42,17.92,73.11,73.11,0,0,1,3.24,22A72,72,0,0,1,109,269a53.55,53.55,0,0,1-9.85,18,45.94,45.94,0,0,1-15.81,12.1,49.24,49.24,0,0,1-21.17,4.37q-12.55,0-21.51-5.15T27.2,286.05v57.14H11.89V492.48h483V300.61ZM224.7,249.76a23.8,23.8,0,0,1-.33,2.91H143.26A37.69,37.69,0,0,0,146,265.89a31,31,0,0,0,6.84,10.42,29.93,29.93,0,0,0,10.3,6.72,34,34,0,0,0,12.66,2.36q13.22,0,20.17-6.27A36.26,36.26,0,0,0,206,263.65l18.15,6.27a47.07,47.07,0,0,1-6.61,13.33A47.81,47.81,0,0,1,207,294a51.05,51.05,0,0,1-14,7.28A53,53,0,0,1,175.75,304a56.7,56.7,0,0,1-20.61-3.81A50.3,50.3,0,0,1,137.77,289a53.22,53.22,0,0,1-11.88-18.15,64.47,64.47,0,0,1-4.37-24.42,60.69,60.69,0,0,1,4.26-23.19,57.76,57.76,0,0,1,11.32-17.93,50.14,50.14,0,0,1,16.46-11.65,47.92,47.92,0,0,1,19.49-4.14,55.93,55.93,0,0,1,22.07,4.14,44.37,44.37,0,0,1,16.24,11.54,51.15,51.15,0,0,1,10,17.81,72.36,72.36,0,0,1,3.47,23C224.82,247.29,224.78,248.56,224.7,249.76Zm103.62,50.86H307.26V235.86A43.41,43.41,0,0,0,306,225.33a21.79,21.79,0,0,0-4.26-8.63,20.83,20.83,0,0,0-7.84-5.82,29.08,29.08,0,0,0-11.76-2.13,24.2,24.2,0,0,0-11,2.36,22.52,22.52,0,0,0-7.84,6.38,27.77,27.77,0,0,0-4.7,9.41,40.48,40.48,0,0,0-1.57,11.43v62.29H236V192.84h20.61V208.3q5.82-10.08,14.79-14.34a42.4,42.4,0,0,1,18.38-4.26A41.24,41.24,0,0,1,306.7,193a33.32,33.32,0,0,1,12.09,9A37.36,37.36,0,0,1,326,215.47a58.19,58.19,0,0,1,2.36,16.8Zm69.46-88.73h-23.3v56q0,7.39,3.36,11.09t11.65,3.7q2,0,4.48-.23a17.5,17.5,0,0,0,3.81-.67v17.92a51.61,51.61,0,0,1-5.16,1.23,46.36,46.36,0,0,1-9.18.79q-13.89,0-22-8T353.41,271V211.89H332.8v-19h5.83q8.73,0,12.66-4.7a17.93,17.93,0,0,0,3.92-11.88V158.79h19.27v34.05h23.3Z"/><path class="cls-2" d="M173.29,208.08a29.08,29.08,0,0,0-12,2.35,27.77,27.77,0,0,0-9,6.27,32.35,32.35,0,0,0-5.94,8.85,26.94,26.94,0,0,0-2.46,10.08h58.92A29.45,29.45,0,0,0,195,216Q187.62,208.09,173.29,208.08Z"/><path class="cls-2" d="M433.85,259.5q-4.48,3.92-4.48,11.09a15.18,15.18,0,0,0,4.7,10.87q4.71,4.82,12.77,4.82a43.14,43.14,0,0,0,12.21-1.68,25.34,25.34,0,0,0,9.86-5.38,25.77,25.77,0,0,0,6.61-9.86,40.25,40.25,0,0,0,2.47-14.9v-4.93l-32.94,4.93A22.17,22.17,0,0,0,433.85,259.5Z"/><path class="cls-2" d="M35.71,274.06a29.86,29.86,0,0,0,10.19,7.84A30.3,30.3,0,0,0,59,284.71a30.12,30.12,0,0,0,13.22-2.8,29.24,29.24,0,0,0,10-7.84A36.31,36.31,0,0,0,88.6,262a50.75,50.75,0,0,0,2.24-15.35,47.82,47.82,0,0,0-2.24-14.9,37.57,37.57,0,0,0-6.28-11.88,28.85,28.85,0,0,0-10-8A29.93,29.93,0,0,0,59,209a29.4,29.4,0,0,0-13.11,2.91,31.28,31.28,0,0,0-10.19,8,35.12,35.12,0,0,0-6.49,11.88A47.45,47.45,0,0,0,27,246.62,50.36,50.36,0,0,0,29.22,262,34.73,34.73,0,0,0,35.71,274.06Z"/></g></g></svg>