<svg xmlns="http://www.w3.org/2000/svg" viewBox="0 0 482.98 482.98"><defs><style>.cls-1{fill:#5d2c85;}.cls-2{fill:#fff;}</style></defs><title>Asset 3</title><g id="Layer_2" data-name="Layer 2"><g id="Layer_1-2" data-name="Layer 1"><rect class="cls-1" width="482.98" height="482.98"/><path class="cls-2" d="M106,449.54V48.32h54.41V93.17q12-21.52,36.48-36.48t59.79-14.94q32.3,0,57.12,11.66a114.86,114.86,0,0,1,41.23,32q16.47,20.33,25.15,47.83a195.11,195.11,0,0,1,8.66,58.59q0,32.3-9,59.8a142.91,142.91,0,0,1-26.28,48.13A122.6,122.6,0,0,1,311.44,332q-24.8,11.65-56.5,11.66-33.5,0-57.4-13.76t-35.88-32.89V449.54ZM331.48,191.82a127.63,127.63,0,0,0-6-39.76,100.28,100.28,0,0,0-16.76-31.69,77,77,0,0,0-26.6-21.23q-15.85-7.76-35.58-7.77a78.47,78.47,0,0,0-35,7.77,83.47,83.47,0,0,0-27.21,21.23A93.74,93.74,0,0,0,167,152.07a126.64,126.64,0,0,0-6,39.76,134.39,134.39,0,0,0,6,41,92.69,92.69,0,0,0,17.33,32.29A79.69,79.69,0,0,0,211.58,286a80.85,80.85,0,0,0,35,7.47q19.73,0,35.28-7.47a78,78,0,0,0,26.63-20.93,96.9,96.9,0,0,0,17-32.29A135.45,135.45,0,0,0,331.48,191.82Z"/></g></g></svg>