<svg xmlns="http://www.w3.org/2000/svg" viewBox="0 0 491.98 491.98"><defs><style>.cls-1{fill:#5d2c85;}.cls-2{fill:#fff;}</style></defs><title>Asset 2</title><g id="Layer_2" data-name="Layer 2"><g id="Layer_1-2" data-name="Layer 1"><circle class="cls-1" cx="245.99" cy="245.99" r="245.99"/><circle class="cls-2" cx="245.99" cy="245.99" r="218.32"/><path class="cls-1" d="M145.9,400.39V96.56h41.2v34q9.05-16.3,27.62-27.62T260,91.59q24.46,0,43.26,8.83a87,87,0,0,1,31.22,24.22,108.94,108.94,0,0,1,19,36.22,147.75,147.75,0,0,1,6.55,44.37,145.54,145.54,0,0,1-6.8,45.28A108.22,108.22,0,0,1,333.37,287a92.84,92.84,0,0,1-31.94,24.46q-18.78,8.82-42.78,8.83-25.37,0-43.46-10.42T188,284.92V400.39ZM316.61,205.23a96.65,96.65,0,0,0-4.52-30.11,75.94,75.94,0,0,0-12.69-24,58.3,58.3,0,0,0-20.14-16.07,60.49,60.49,0,0,0-26.94-5.88,59.42,59.42,0,0,0-26.49,5.88,63.21,63.21,0,0,0-20.6,16.07,71,71,0,0,0-13.13,24,95.89,95.89,0,0,0-4.53,30.11,101.76,101.76,0,0,0,4.53,31,70.19,70.19,0,0,0,13.13,24.45,60.34,60.34,0,0,0,20.6,15.85,65.38,65.38,0,0,0,53.21,0,59.1,59.1,0,0,0,20.16-15.85,73.38,73.38,0,0,0,12.9-24.45A102.57,102.57,0,0,0,316.61,205.23Z"/></g></g></svg>