<svg xmlns="http://www.w3.org/2000/svg" viewBox="0 0 529.97 529.97"><defs><style>.cls-1{fill:#fff;}.cls-2{fill:#5d2c85;}</style></defs><title>Asset 5</title><g id="Layer_2" data-name="Layer 2"><g id="Layer_1-2" data-name="Layer 1"><rect class="cls-1" width="529.97" height="529.97"/><rect class="cls-2" x="23.5" y="23.5" width="482.98" height="482.98"/><rect class="cls-2" x="23.5" y="23.5" width="482.98" height="482.98"/><rect class="cls-2" x="23.5" y="23.5" width="482.98" height="482.98"/><rect class="cls-2" x="23.5" y="23.5" width="482.98" height="482.98"/><path class="cls-1" d="M97,517.3V20.8h67.33V76.3q14.8-26.63,45.14-45.14t74-18.49q40,0,70.69,14.43a142.13,142.13,0,0,1,51,39.59q20.38,25.16,31.12,59.19A241.44,241.44,0,0,1,447,198.38q0,40-11.1,74a176.84,176.84,0,0,1-32.53,59.55,151.72,151.72,0,0,1-52.2,40q-30.69,14.42-69.91,14.43-41.45,0-71-17t-44.41-40.7V517.3ZM376,198.38a157.94,157.94,0,0,0-7.38-49.2c-5-15-11.84-28.11-20.74-39.22A95.28,95.28,0,0,0,314.9,83.7q-19.62-9.6-44-9.61a97.1,97.1,0,0,0-43.29,9.61A103.29,103.29,0,0,0,193.92,110a116,116,0,0,0-21.45,39.22,156.71,156.71,0,0,0-7.4,49.2,166.3,166.3,0,0,0,7.4,50.69q7.38,23.32,21.45,40a98.61,98.61,0,0,0,33.67,25.9q19.6,9.26,43.29,9.24,24.42,0,43.66-9.24A96.57,96.57,0,0,0,347.48,289q13.61-16.64,21.08-40A167.61,167.61,0,0,0,376,198.38Z"/></g></g></svg>