<svg xmlns="http://www.w3.org/2000/svg" viewBox="0 0 529.97 529.97"><defs><style>.cls-1{fill:#fff;}.cls-2{fill:#5d2c85;}</style></defs><title>Asset 4</title><g id="Layer_2" data-name="Layer 2"><g id="Layer_1-2" data-name="Layer 1"><rect class="cls-1" width="529.97" height="529.97"/><rect class="cls-2" x="23.5" y="23.5" width="482.98" height="482.98"/><rect class="cls-2" x="23.5" y="23.5" width="482.98" height="482.98"/><rect class="cls-2" x="23.5" y="23.5" width="482.98" height="482.98"/><rect class="cls-2" x="23.5" y="23.5" width="482.98" height="482.98"/><path class="cls-1" d="M175,404.84V129.64h37.32V160.4q8.2-14.76,25-25t41-10.25q22.16,0,39.18,8a78.78,78.78,0,0,1,28.28,21.94A98.68,98.68,0,0,1,363,187.88,133.83,133.83,0,0,1,369,228.07a131.83,131.83,0,0,1-6.16,41,98,98,0,0,1-18,33,84.1,84.1,0,0,1-28.93,22.15q-17,8-38.75,8-23,0-39.37-9.44t-24.61-22.56V404.84ZM329.61,228.07a87.54,87.54,0,0,0-4.09-27.27A68.79,68.79,0,0,0,314,179.06a52.81,52.81,0,0,0-18.25-14.56,54.79,54.79,0,0,0-24.4-5.33,53.82,53.82,0,0,0-24,5.33,57.25,57.25,0,0,0-18.66,14.56,64.3,64.3,0,0,0-11.89,21.74,86.86,86.86,0,0,0-4.1,27.27,92.18,92.18,0,0,0,4.1,28.1,63.58,63.58,0,0,0,11.89,22.15,54.66,54.66,0,0,0,18.66,14.36,59.22,59.22,0,0,0,48.2,0,53.53,53.53,0,0,0,18.26-14.36,66.46,66.46,0,0,0,11.69-22.15A92.9,92.9,0,0,0,329.61,228.07Z"/></g></g></svg>