<svg xmlns="http://www.w3.org/2000/svg" viewBox="0 0 491.98 491.98"><defs><style>.cls-1{fill:#5d2c85;}.cls-2{fill:#fff;}</style></defs><title>Asset 1</title><g id="Layer_2" data-name="Layer 2"><g id="Layer_1-2" data-name="Layer 1"><circle class="cls-1" cx="245.99" cy="245.99" r="245.99"/><circle class="cls-2" cx="245.99" cy="245.99" r="218.32"/><path class="cls-1" d="M79.34,308.19V206.76H93.1V218.1a25.25,25.25,0,0,1,9.22-9.22q6.2-3.77,15.11-3.78A33.61,33.61,0,0,1,131.87,208a29,29,0,0,1,10.42,8.09,36.37,36.37,0,0,1,6.36,12.09A49.32,49.32,0,0,1,150.84,243a48.59,48.59,0,0,1-2.27,15.12,36.13,36.13,0,0,1-6.64,12.17,31,31,0,0,1-10.66,8.16A33.22,33.22,0,0,1,117,281.43,28.63,28.63,0,0,1,102.47,278a25.12,25.12,0,0,1-9.07-8.31v38.55Zm57-65.15A32.26,32.26,0,0,0,134.82,233a25.35,25.35,0,0,0-4.24-8,19.46,19.46,0,0,0-6.73-5.37,20.19,20.19,0,0,0-9-2,19.84,19.84,0,0,0-8.84,2A21.1,21.1,0,0,0,99.14,225a23.7,23.7,0,0,0-4.38,8A32,32,0,0,0,93.25,243a34,34,0,0,0,1.51,10.36,23.43,23.43,0,0,0,4.38,8.16,20.14,20.14,0,0,0,6.88,5.29,21.83,21.83,0,0,0,17.76,0,19.73,19.73,0,0,0,6.73-5.29,24.5,24.5,0,0,0,4.31-8.16A34.24,34.24,0,0,0,136.33,243Z"/><path class="cls-1" d="M226.27,258.76a31.75,31.75,0,0,1-4.46,9,32.25,32.25,0,0,1-7.1,7.25,34.44,34.44,0,0,1-9.45,4.91,35.73,35.73,0,0,1-11.64,1.81,38.25,38.25,0,0,1-13.91-2.57A33.93,33.93,0,0,1,168,271.61a35.9,35.9,0,0,1-8-12.24A43.49,43.49,0,0,1,157,242.89a40.94,40.94,0,0,1,2.87-15.64,39,39,0,0,1,7.63-12.09,33.82,33.82,0,0,1,11.11-7.86,32.33,32.33,0,0,1,13.15-2.8,37.73,37.73,0,0,1,14.89,2.8,29.94,29.94,0,0,1,11,7.78,34.51,34.51,0,0,1,6.73,12,48.82,48.82,0,0,1,2.34,15.49c0,.91,0,1.76-.08,2.57a16.06,16.06,0,0,1-.22,2H171.7a25.43,25.43,0,0,0,1.81,8.92,20.91,20.91,0,0,0,4.61,7,20.19,20.19,0,0,0,6.95,4.53,22.94,22.94,0,0,0,8.54,1.59q8.92,0,13.61-4.23a24.46,24.46,0,0,0,6.8-10.43Zm-14.36-23.13a19.87,19.87,0,0,0-5.29-13.23Q201.62,217,192,217a19.62,19.62,0,0,0-8.09,1.59,18.73,18.73,0,0,0-6,4.23,21.82,21.82,0,0,0-4,6,18.17,18.17,0,0,0-1.66,6.8Z"/><path class="cls-1" d="M248.48,279.47H234.27V206.76h13.91v10.43a23,23,0,0,1,10-9.67,28.6,28.6,0,0,1,12.4-2.87A27.82,27.82,0,0,1,282,206.84a22.48,22.48,0,0,1,8.16,6A25.21,25.21,0,0,1,295,222a39.25,39.25,0,0,1,1.59,11.34v46.1H282.34V235.78a29.29,29.29,0,0,0-.83-7.1,14.7,14.7,0,0,0-2.87-5.82,14,14,0,0,0-5.29-3.93,19.62,19.62,0,0,0-7.93-1.44,16.33,16.33,0,0,0-7.4,1.59,15.19,15.19,0,0,0-5.29,4.31,18.73,18.73,0,0,0-3.17,6.35,27.31,27.31,0,0,0-1.06,7.71Z"/><path class="cls-1" d="M327.68,206.76H343.4v12.85H327.68V257.4q0,5,2.27,7.48t7.86,2.5q1.36,0,3-.15a11.81,11.81,0,0,0,2.57-.45v12.09a34.83,34.83,0,0,1-3.48.83,31.28,31.28,0,0,1-6.2.53q-9.37,0-14.81-5.37t-5.44-15.34v-39.9H299.57V206.76h3.93q5.89,0,8.54-3.17a12.09,12.09,0,0,0,2.64-8V183.79h13Z"/><path class="cls-1" d="M350.21,260a21.79,21.79,0,0,1,1.66-8.69,19.2,19.2,0,0,1,4.61-6.58,23.1,23.1,0,0,1,7-4.38,40.36,40.36,0,0,1,8.76-2.42L391.92,235q3.33-.45,4.46-2a5.64,5.64,0,0,0,1.13-3.47,12.76,12.76,0,0,0-3.71-9.15q-3.71-3.85-12-3.85-7.56,0-11.64,4.16a17.44,17.44,0,0,0-4.84,10.51l-13.61-3.17a25,25,0,0,1,3.1-9.52,25.53,25.53,0,0,1,6.43-7.48,29.86,29.86,0,0,1,9.14-4.84,35,35,0,0,1,11.11-1.74,39.13,39.13,0,0,1,13.91,2.19,26.31,26.31,0,0,1,9.37,5.82,21.84,21.84,0,0,1,5.29,8.46,30.87,30.87,0,0,1,1.66,10.13v36.43a75.43,75.43,0,0,0,.31,7.71,39.88,39.88,0,0,0,.6,4.23H398.73a30.61,30.61,0,0,1-.53-3.63q-.23-2.27-.23-6.2a26.54,26.54,0,0,1-3.17,4.08,24.3,24.3,0,0,1-4.84,3.93,26.7,26.7,0,0,1-6.73,2.95,30.89,30.89,0,0,1-8.69,1.13,26.49,26.49,0,0,1-10.05-1.81,24.88,24.88,0,0,1-7.63-4.76,20.7,20.7,0,0,1-4.91-6.88A20.25,20.25,0,0,1,350.21,260Zm26.3,9.83a29.11,29.11,0,0,0,8.24-1.13,17.09,17.09,0,0,0,6.65-3.63,17.38,17.38,0,0,0,4.46-6.65,27.15,27.15,0,0,0,1.66-10.05V245l-22.23,3.33a15,15,0,0,0-7.55,3.4,9.42,9.42,0,0,0-3,7.48,10.24,10.24,0,0,0,3.17,7.33A11.49,11.49,0,0,0,376.5,269.79Z"/></g></g></svg>