<?xml version="1.0" encoding="UTF-8"?>
<svg width="114px" height="114px" viewBox="0 0 114 114" version="1.1" xmlns="http://www.w3.org/2000/svg" xmlns:xlink="http://www.w3.org/1999/xlink">
    <!-- Generator: Sketch 42 (36781) - http://www.bohemiancoding.com/sketch -->
    <title>Combined Shape</title>
    <desc>Created with Sketch.</desc>
    <defs></defs>
    <g id="Page-7" stroke="none" stroke-width="1" fill="none" fill-rule="evenodd">
        <path d="M57,0 C88.4805818,0 114,25.5194182 114,57 C114,88.4805818 88.4805818,114 57,114 C25.5194182,114 0,88.4805818 0,57 C0,25.5194182 25.5194182,0 57,0 Z M56.8909091,3 C27.1752545,3 3,27.1752545 3,56.8909091 C3,86.6065636 27.1752545,110.781818 56.8909091,110.781818 C86.6065636,110.781818 110.781818,86.6065636 110.781818,56.8909091 C110.781818,27.1752545 86.6065636,3 56.8909091,3 Z M57.1159484,27 C73.7484198,27 87.2318968,40.483477 87.2318968,57.1159484 C87.2318968,73.747402 73.7484198,87.230879 57.1159484,87.230879 C54.0117361,87.230879 51.0174434,86.7606672 48.1992257,85.8884344 C49.4266618,83.8874897 51.2617093,80.6092379 51.9426004,77.9935573 C52.3079815,76.5839396 53.8183589,70.8345313 53.8183589,70.8345313 C54.8005113,72.7072364 57.6696177,74.2919114 60.7209058,74.2919114 C69.8035257,74.2919114 76.3478159,65.9390358 76.3478159,55.5597711 C76.3478159,45.6110251 68.2290285,38.1670222 57.7825907,38.1670222 C44.7866277,38.1670222 37.8840808,46.8913854 37.8840808,56.3912929 C37.8840808,60.8084344 40.23514,66.3074702 43.9968347,68.0580424 C44.5678062,68.3236815 44.8721208,68.2066374 45.0044315,67.6550037 C45.1041734,67.2366983 45.6120429,65.1909715 45.8400243,64.2403701 C45.9133041,63.9360555 45.877682,63.6744875 45.6313806,63.3762795 C44.3876601,61.8679377 43.3902411,59.0914487 43.3902411,56.5032481 C43.3902411,49.8612515 48.4200828,43.4340054 56.9887266,43.4340054 C64.3869296,43.4340054 69.5684198,48.4760604 69.5684198,55.6859752 C69.5684198,63.8332603 65.4535573,69.4768201 60.1010811,69.4768201 C57.1444461,69.4768201 54.9318042,67.0331434 55.6411931,64.0347796 C56.4910348,60.4552666 58.1357585,56.5917945 58.1357585,54.007665 C58.1357585,51.6952812 56.8950913,49.7655807 54.3252106,49.7655807 C51.303438,49.7655807 48.8760458,52.8921841 48.8760458,57.0793085 C48.8760458,59.7468955 49.7767762,61.550392 49.7767762,61.550392 C49.7767762,61.550392 46.7926613,74.1697784 46.2461164,76.5198198 C45.6405405,79.1212515 45.877682,82.7760799 46.1412856,85.15869 C34.9386413,80.771064 27,69.8737521 27,57.1159484 C27,40.483477 40.483477,27 57.1159484,27 Z" id="Combined-Shape" fill="#BC2025"></path>
    </g>
</svg>