<?xml version="1.0" encoding="UTF-8"?>
<svg width="33px" height="27px" viewBox="0 0 33 27" version="1.1" xmlns="http://www.w3.org/2000/svg" xmlns:xlink="http://www.w3.org/1999/xlink">
    <!-- Generator: Sketch 43.2 (39069) - http://www.bohemiancoding.com/sketch -->
    <title>Shape</title>
    <desc>Created with Sketch.</desc>
    <defs></defs>
    <g id="Page-1" stroke="none" stroke-width="1" fill="none" fill-rule="evenodd">
        <path d="M16.2194245,22.5323741 C12.852518,22.5323741 10.1330935,19.8453237 10.1330935,17.1258993 C14.1798561,17.8057554 18.2266187,17.8057554 22.2733813,17.1258993 C22.3057554,19.8453237 19.5863309,22.5323741 16.2194245,22.5323741 Z M20.2661871,14.4388489 C21.3669065,14.4388489 22.2733813,13.5323741 22.2733813,12.4316547 C22.2733813,11.3309353 21.3669065,10.4244604 20.2661871,10.4244604 C19.1654676,10.4244604 18.2589928,11.3309353 18.2589928,12.4316547 C18.2266187,13.5323741 19.1654676,14.4388489 20.2661871,14.4388489 Z M12.1726619,14.4388489 C13.2733813,14.4388489 14.1798561,13.5323741 14.1798561,12.4316547 C14.1798561,11.3309353 13.2733813,10.4244604 12.1726619,10.4244604 C11.0719424,10.4244604 10.1654676,11.3309353 10.1654676,12.4316547 C10.1330935,13.5323741 11.0719424,14.4388489 12.1726619,14.4388489 Z M31.0467626,0 C32.4064748,0 32.4064748,0 32.4064748,1.35971223 L32.4064748,25.6402878 C32.4064748,27 32.4064748,27 31.0467626,27 L1.35971223,27 C0,27 0,27 0,25.6402878 L0,1.35971223 C0,0 0,0 1.35971223,0 L31.0467626,0 Z M29.7194245,5.40647482 L2.75179856,5.40647482 L2.75179856,24.2805755 L29.7194245,24.2805755 L29.7194245,5.40647482 Z M7.80215827,3.14028777 C8.15975272,3.14028777 8.44964029,2.8504002 8.44964029,2.49280576 C8.44964029,2.13521131 8.15975272,1.84532374 7.80215827,1.84532374 C7.44456383,1.84532374 7.15467626,2.13521131 7.15467626,2.49280576 C7.15467626,2.8504002 7.44456383,3.14028777 7.80215827,3.14028777 Z M5.53597122,3.14028777 C5.89356567,3.14028777 6.18345324,2.8504002 6.18345324,2.49280576 C6.18345324,2.13521131 5.89356567,1.84532374 5.53597122,1.84532374 C5.17837678,1.84532374 4.88848921,2.13521131 4.88848921,2.49280576 C4.88848921,2.8504002 5.17837678,3.14028777 5.53597122,3.14028777 Z M3.26978417,3.14028777 C3.62737861,3.14028777 3.91726619,2.8504002 3.91726619,2.49280576 C3.91726619,2.13521131 3.62737861,1.84532374 3.26978417,1.84532374 C2.91218973,1.84532374 2.62230216,2.13521131 2.62230216,2.49280576 C2.62230216,2.8504002 2.91218973,3.14028777 3.26978417,3.14028777 Z" id="Shape" fill="#25D8FC" fill-rule="nonzero"></path>
    </g>
</svg>