<svg xmlns="http://www.w3.org/2000/svg" viewBox="0 0 96 87.825" x="0px" y="0px"><title>Asset 18</title><g data-name="Layer 2"><g><path d="M51.16,30.73H44.84a3.84,3.84,0,1,1,0-7.68h9a1.5,1.5,0,0,0,0-3H49.5V15.49a1.5,1.5,0,0,0-3,0V20H44.84a6.84,6.84,0,1,0,0,13.68h6.32a3.84,3.84,0,0,1,0,7.68H41.43a1.5,1.5,0,0,0,0,3H46.5v4.36a1.5,1.5,0,1,0,3,0V44.41h1.66a6.84,6.84,0,0,0,0-13.68Z"/><path d="M94.5,0H1.5A1.5,1.5,0,0,0,0,1.5V11.94a1.5,1.5,0,0,0,1.5,1.5H12.14V68.76a1.5,1.5,0,0,0,2.17,1.34L25.9,64.31,37,70.09a1.5,1.5,0,0,0,1.46,0l9.8-5.82,9.79,5.82a1.5,1.5,0,0,0,1.46,0l11.1-5.77,11,5.77a1.5,1.5,0,0,0,2.19-1.33V13.44H94.5a1.5,1.5,0,0,0,1.5-1.5V1.5A1.5,1.5,0,0,0,94.5,0ZM3,10.44V3h9.14v7.44ZM80.86,66.29l-9.54-5a1.5,1.5,0,0,0-1.39,0L58.88,67,49,61.2a1.5,1.5,0,0,0-1.53,0L37.66,67,26.61,61.3a1.5,1.5,0,0,0-1.36,0l-10.1,5V3H80.86ZM93,10.44H83.86V3H93Z"/></g></g><text x="0" y="85.26" fill="#000000" font-size="5px" font-weight="bold" font-family="'Helvetica Neue', Helvetica, Arial-Unicode, Arial, Sans-serif">Created by StoneHub</text><text x="0" y="90.26" fill="#000000" font-size="5px" font-weight="bold" font-family="'Helvetica Neue', Helvetica, Arial-Unicode, Arial, Sans-serif">from the Noun Project</text></svg>