<svg xmlns="http://www.w3.org/2000/svg" xmlns:xlink="http://www.w3.org/1999/xlink" version="1.1" x="0px" y="0px" viewBox="0 0 100 125" enable-background="new 0 0 100 100" xml:space="preserve"><g><rect x="39" y="49" width="22" height="2"/><rect x="39" y="53.5" width="22" height="2"/><path d="M50,5C25.1,5,5,25.1,5,50c0,24.9,20.1,45,45,45s45-20.1,45-45C95,25.1,74.9,5,50,5z M63.8,72.5l-3.4-5l-3.4,5l-3.4-5   l-3.4,5l-3.4-5l-3.4,5l-3.4-5l-3.4,5v-45l3.4,5l3.4-5l3.4,5l3.4-5l3.4,5l3.4-5l3.4,5l3.4-5V72.5z"/><rect x="39" y="58" width="22" height="2"/><path d="M48.4,44.6c-0.2-0.3-0.4-0.8-0.5-1.5l-1.3,0.2c0,0.7,0.2,1.2,0.5,1.7c0.3,0.5,0.6,0.8,1,1c0.4,0.2,0.8,0.3,1.4,0.4v1.3h0.9   v-1.3c0.9-0.1,1.6-0.4,2.1-0.9c0.6-0.6,0.8-1.3,0.8-2.2c0-0.4-0.1-0.8-0.2-1.1c-0.1-0.3-0.3-0.6-0.6-0.9c-0.2-0.2-0.6-0.5-1-0.6   c-0.2-0.1-0.6-0.2-1.2-0.4v-3.6c0.4,0.1,0.7,0.3,0.9,0.5c0.2,0.3,0.4,0.6,0.5,1.1l1.3-0.2c-0.1-0.8-0.4-1.4-1-1.9   c-0.4-0.3-1-0.6-1.7-0.6v-0.6h-0.9v0.6c-0.8,0.1-1.4,0.3-1.8,0.7c-0.6,0.6-1,1.3-1,2.2c0,0.5,0.1,1,0.3,1.4s0.5,0.7,0.9,0.9   c0.5,0.3,1,0.5,1.5,0.6v4C49.1,45.2,48.7,45,48.4,44.6z M50.5,41.5c0.6,0.2,1.1,0.5,1.3,0.7c0.2,0.3,0.3,0.6,0.3,1.1   c0,0.5-0.2,1-0.5,1.4c-0.3,0.3-0.7,0.5-1.2,0.6V41.5z M48.4,39.4c-0.2-0.3-0.4-0.7-0.4-1.1c0-0.4,0.1-0.8,0.4-1.1   c0.3-0.3,0.6-0.5,1-0.5V40C49,39.8,48.7,39.6,48.4,39.4z"/></g><text x="0" y="115" fill="#000000" font-size="5px" font-weight="bold" font-family="'Helvetica Neue', Helvetica, Arial-Unicode, Arial, Sans-serif">Created by Guilhem</text><text x="0" y="120" fill="#000000" font-size="5px" font-weight="bold" font-family="'Helvetica Neue', Helvetica, Arial-Unicode, Arial, Sans-serif">from the Noun Project</text></svg>