<?xml version="1.0" encoding="utf-8"?>
<!-- Generator: Adobe Illustrator 19.2.1, SVG Export Plug-In . SVG Version: 6.00 Build 0)  -->
<svg version="1.1" id="Layer_1" xmlns="http://www.w3.org/2000/svg" xmlns:xlink="http://www.w3.org/1999/xlink" x="0px" y="0px"
	 viewBox="0 0 323 368.3" style="enable-background:new 0 0 323 368.3;" xml:space="preserve">
<style type="text/css">
	.st0{fill:#97BE47;}
	.st1{fill:#5F8D40;}
	.st2{fill:#FCFCF8;}
</style>
<g>
	<path class="st0" d="M208.6,365.4c-11.4-1-22.6-3.8-33.8-5.8c-26.5-4.8-52.9-9.9-79.3-14.9c-27.3-5.1-54.5-10.3-81.8-15.4
		c-0.3-0.1-0.6-0.2-1-0.3c-11-2.3-11-2.3-9.5-13.6c4.4-33.4,9-66.8,13.4-100.3c3.7-28.2,7-56.4,10.6-84.6c0.9-6.8,2-13.5,2.9-20.2
		c0.6-3.8,2.5-6.3,6.3-7.5c10.8-3.3,21.5-6.9,32.3-10.1c3.4-1,5.3-2.3,6.5-6.3c7.3-25.6,17-50,37.3-68.5
		C122.8,8.4,135,3.1,149.2,2.7c6.5-0.2,11.8,2.5,16.3,7.2c1.6,1.7,3.2,3.8,6.1,3.8c15.4,0.3,24.3,10,31.2,22.2
		c1.8,3.2,3.1,6.6,4.4,10c1,2.5,2.3,3.2,5,2.3c3.7-1.2,7.3-3.5,11.5-2.1c0.5,13.8-1,27.5-1.7,41.3c-0.9,17.7-1.2,35.5-2.3,53.3
		c-0.5,8.3-0.3,16.6-1,24.9c-2,23.2-2.1,46.4-3.7,69.6c-0.8,11.6-1.5,23.2-1.9,34.8c-0.7,23.1-2.4,46.1-3.3,69.2
		C209.5,347.9,209,356.7,208.6,365.4z M100.4,311.2c8.2,0.7,16.3-0.4,23.9-3.6c16.4-6.8,26-19.7,29.8-36.6c4.6-20.4,1.4-39-14.5-54
		c-7.8-7.4-16.8-13.3-25-20.2c-4.6-3.9-8.5-8.2-7.5-14.8c1-6.7,6.3-11.8,13-13.4c11.2-2.7,21.8-0.7,32.2,3.5c3.5,1.4,5,0.8,6.1-2.7
		c3.4-10.6,6.6-21.2,10.6-31.6c1.9-4.9,0.1-6.4-4.1-7.6c-19.8-5.5-39.3-4.3-58,4c-21,9.3-33.1,25.9-37.2,48.2
		c-2.8,14.8-0.6,28.8,9.4,40.9c5.2,6.3,11.8,11,18,16.3c4.5,3.9,8.8,8,10.9,13.8c3.6,10.1-2.6,19.9-13.1,20c-4,0-7.9-0.5-11.7-2
		c-7.2-2.8-13.7-6.7-19.8-11.3c-3-2.3-3.7-1.2-4.6,1.7c-2.1,7.6-4.2,15.3-6.9,22.8c-1.4,3.9-0.4,6,2.5,8.4
		C67.8,304.4,83,310.6,100.4,311.2z M153.8,17.6c-2.3-2.9-5-2.7-7.7-2.4c-12.2,1.3-21.9,7.3-29.9,16.2C103,46.2,95.6,64.1,89.3,82.5
		c-0.9,2.6-0.2,3.3,2.5,2.8c6.2-1.2,11.9-4.3,18.1-5.3c6.5-1,7.7-5.2,9-10.5c3.2-13.7,8.5-26.5,17.6-37.5
		C141.4,26.2,147.1,21.3,153.8,17.6z M167,51.6c0.3-5-0.9-11.1-2.3-17.1c-1.3-6-3-6.5-8.1-2.8c-13,9.2-19.7,22.4-24.1,37.1
		c-0.3,1.1-1,2.3-0.2,3.3c1.1,1.3,2.5,0.2,3.7-0.2c7.4-2.3,14.8-4.8,22.2-7.1C167.3,62.1,167.4,62.2,167,51.6z M176.2,29
		c3.1,8.4,2.9,17.4,3.2,26.3c0.1,2,1.2,2.5,3,1.9c3.3-1,6.6-2,10-2.8c3.4-0.9,5.2-1.9,3.2-6.1c-1.7-3.4-3.1-6.9-4.9-10.2
		c-2.5-4.6-6.1-8.3-10.7-10.7C178.6,26.7,176.4,25.4,176.2,29z"/>
	<path class="st1" d="M208.6,365.4c0.4-8.8,0.9-17.6,1.3-26.4c0.9-23.1,2.6-46.1,3.3-69.2c0.3-11.6,1.1-23.2,1.9-34.8
		c1.6-23.2,1.7-46.4,3.7-69.6c0.7-8.3,0.5-16.6,1-24.9c1.1-17.7,1.4-35.5,2.3-53.3c0.7-13.8,2.2-27.5,1.7-41.3
		c2.7-0.6,4.2,1.3,5.8,2.9c5.4,5.4,10.9,10.7,16.2,16.2c2.2,2.4,4.7,3.3,7.9,3.5c7.3,0.3,14.6,1,21.9,1.3c3.9,0.2,5.6,2.1,6.1,5.8
		c4.7,32.2,9.4,64.4,14.1,96.6c4.9,32.9,9.8,65.7,14.7,98.6c3.3,22.5,6.6,45,10,67.5c0.6,3.6-1.7,3.7-4,4.2
		c-15.9,3.4-31.8,6.8-47.7,10.3c-19.1,4.1-38.2,8.3-57.4,12.5C210.6,365.6,209.5,365.5,208.6,365.4z"/>
	<path class="st2" d="M100.4,311.2c-17.4-0.6-32.6-6.7-45.9-18c-2.9-2.5-3.9-4.5-2.5-8.4c2.7-7.5,4.7-15.2,6.9-22.8
		c0.8-2.9,1.5-4,4.6-1.7c6.1,4.5,12.6,8.5,19.8,11.3c3.8,1.5,7.8,2.1,11.7,2c10.5-0.1,16.8-9.9,13.1-20c-2.1-5.9-6.4-9.9-10.9-13.8
		c-6.1-5.3-12.8-10-18-16.3c-9.9-12.1-12.1-26.1-9.4-40.9c4.2-22.3,16.2-39,37.2-48.2c18.8-8.3,38.2-9.5,58-4c4.2,1.2,6,2.6,4.1,7.6
		c-4,10.4-7.2,21-10.6,31.6c-1.1,3.5-2.6,4.1-6.1,2.7c-10.3-4.2-21-6.2-32.2-3.5c-6.7,1.6-12,6.7-13,13.4c-1,6.6,2.9,10.9,7.5,14.8
		c8.2,6.9,17.2,12.8,25,20.2c15.9,15.1,19.1,33.7,14.5,54c-3.8,16.9-13.4,29.8-29.8,36.6C116.7,310.8,108.6,311.9,100.4,311.2z"/>
</g>
</svg>
