<svg xmlns="http://www.w3.org/2000/svg" xmlns:xlink="http://www.w3.org/1999/xlink" version="1.1" x="0px" y="0px" viewBox="0 0 100 125" enable-background="new 0 0 100 100" xml:space="preserve"><g><path fill="#000000" d="M50.9,5.4c-24.3,0-44,19.8-44,44.1c0,12.8,14.1,32.4,26.3,32.4c1.3,0,1.9,0.6,4.1,3.5   c2.8,3.7,6.9,9.2,16.3,9.2c2.5,0,5.1-0.4,8.1-1.1C71.6,90.9,74.3,84.3,76,80c1.3-3.2,1.8-4.2,3.4-4.8c10-3.5,15.4-15.9,15.4-25.7   C94.9,25.2,75.1,5.4,50.9,5.4z M77.8,70.5c-8.7,3.1-4,14.6-17.4,18.1c-2.7,0.7-4.9,1-6.9,1c-12.7,0-11.7-12.7-20.4-12.7   c-8.8,0-21.3-16.7-21.3-27.4c0-21.6,17.5-39.1,39-39.1c21.6,0,39,17.5,39,39.1C89.9,57.2,85.5,67.8,77.8,70.5z"/><path fill="#000000" d="M74.4,40.1c-5.2,0-9.4,4.2-9.4,9.4c0,5.2,4.2,9.4,9.4,9.4c5.2,0,9.4-4.2,9.4-9.4   C83.8,44.3,79.6,40.1,74.4,40.1z"/><path fill="#000000" d="M36.5,44c-5.2,0-9.4,4.2-9.4,9.4c0,5.2,4.2,9.4,9.4,9.4c5.2,0,9.4-4.2,9.4-9.4C45.9,48.2,41.7,44,36.5,44z"/><path fill="#000000" d="M59.5,60.7c-1.1-2.4-4.6-2.1-5.3,0.4L51,72.6c-0.6,1.9,1,3.8,3,3.6l8-0.9c1.9-0.2,3-2.2,2.3-4L59.5,60.7z"/></g><text x="0" y="115" fill="#000000" font-size="5px" font-weight="bold" font-family="'Helvetica Neue', Helvetica, Arial-Unicode, Arial, Sans-serif">Created by Martyn Jasinski</text><text x="0" y="120" fill="#000000" font-size="5px" font-weight="bold" font-family="'Helvetica Neue', Helvetica, Arial-Unicode, Arial, Sans-serif">from the Noun Project</text></svg>