<?xml version="1.0" encoding="utf-8"?>
<!-- Generator: Adobe Illustrator 19.2.1, SVG Export Plug-In . SVG Version: 6.00 Build 0)  -->
<svg version="1.1" id="Layer_1" xmlns="http://www.w3.org/2000/svg" xmlns:xlink="http://www.w3.org/1999/xlink" x="0px" y="0px"
	 viewBox="0 0 395.1 209.1" style="enable-background:new 0 0 395.1 209.1;" xml:space="preserve">
<g>
	<path d="M326.9,112.3c0.3,0.5,0.3,1,0.3,1.5c0,9.6,0,19.3,0,28.9c0,0.4,0,0.8,0,1.2c0.3,0.2,0.5,0.3,0.9,0.5c0.4,0,0.9,0,1.3,0
		c8.7,0,17.4,0,26.1,0c0.9,0,1.8,0.1,2.7-0.4c0.4-0.4,0.4-0.9,0.4-1.6c0-9.6,0-19.1,0-28.7c0-0.4,0-0.8,0-1.1
		c0.1-0.1,0.2-0.2,0.3-0.3c9,0,18,0,27,0c0.1,0.1,0.2,0.2,0.3,0.3c0,30,0,60,0,90.1c-0.2,0.1-0.4,0.3-0.6,0.5c-8.8,0-17.6,0-26.5,0
		c-0.2-0.2-0.3-0.4-0.6-0.6c0-1.1,0-2.2,0-3.3c0-10.4,0-20.8,0-31.2c0-0.8-0.2-1.4-0.8-1.9c-10,0-20,0-30,0
		c-0.1,0.2-0.3,0.4-0.5,0.6c0,11.9,0,23.8,0,35.8c-0.2,0.1-0.4,0.3-0.7,0.6c-8.8,0-17.8,0-26.9,0c-0.1-0.1-0.3-0.4-0.5-0.7
		c0,0.2,0,0.1,0,0c0-29.5,0-59,0-88.6c0-0.5-0.1-1.1,0.5-1.6C308.5,112.3,317.7,112.3,326.9,112.3z"/>
	<path d="M135.7,131.2c-0.2,0.3-0.3,0.6-0.5,0.9c0,4.2,0,8.5,0,12.8c0,0.6,0.2,1,0.6,1.4c14.3,0,28.6,0,42.9,0
		c0.2,0.2,0.5,0.4,0.7,0.6c-0.2,0.3-0.3,0.6-0.3,1c0,4.9,0,9.8,0,14.8c0,0.4,0.4,0.7,0.3,1.1c-0.1,0.3-0.4,0.5-0.6,0.7
		c-14.3,0-28.7,0-43,0c-0.2,0.2-0.3,0.4-0.6,0.7c0,5.6,0,11.2,0,17c0.2,0.1,0.4,0.3,0.7,0.6c0.4,0,0.9,0,1.4,0c14.4,0,28.8,0,43.2,0
		c1,0,2,0.3,3,0.3c0.1,0,0.2,0.2,0.4,0.3c0,6.4,0,12.9,0,19.5c-0.1,0.1-0.4,0.2-0.7,0.5c-25,0-50.2,0-75.4,0
		c-0.1-0.1-0.2-0.2-0.3-0.3c0-8.4,0-16.8,0-25.1c0-21.4,0-42.7,0-64.1c0-0.4-0.2-1,0.4-1.3c24.8,0,49.7,0,74.6,0
		c0.2,0.4,0.3,0.8,0.3,1.3c0,5.7,0,11.3,0,17c-0.2,0.2-0.4,0.4-0.6,0.6C166.6,131.2,151.2,131.2,135.7,131.2z"/>
	<path d="M247.7,183.6c0.6-0.5,1.3-0.7,2-0.9c0.3-0.1,0.7-0.2,0.8-0.3c0.6-0.6,1.5-0.8,2.2-1.4c0.6-0.5,1-1.2,1.7-1.5
		c0.3-0.8,1.3-1.2,1.6-2.1c0.2-0.6,0.9-0.8,1-1.5c0.1-0.5,0.7-0.8,0.7-1.3c0.1-0.5,0.4-0.9,0.6-1.3c0.3-0.5,0.4-1.1,0.5-1.7
		c0.1-0.5,0.3-0.8,0.7-1.2c-0.2-0.7,0.4-1.4,0.2-2.1c0.6-0.6,0.4-1.5,1.1-2c0.3-0.1,0.5,0.2,0.8,0.3c0.5,0.1,0.9,0.4,1.4,0.4
		c0.6,0,1.1,0.2,1.6,0.4c0.6,0.3,1.2,0.5,1.9,0.6c0.4,0,0.9,0.1,1.2,0.4c0.3,0.3,0.8,0.4,1.2,0.4c0.8,0,1.4,0.3,2.1,0.6
		c0.4,0.2,0.8,0.4,1.2,0.4c1,0.1,1.9,0.4,2.8,0.9c1.1-0.1,2,0.4,3.1,0.9c0.8,0.1,1.7,0.3,2.6,0.7c0.7,0.4,1.6,0.6,2.5,0.5
		c0.4,0.4,1,0.4,1.3,0.8c0.1,0.6,0.1,1.2-0.3,1.8c-0.4,0.7-0.3,1.5-0.5,2.2c-0.1,0.3-0.2,0.6-0.3,0.8c-0.3,0.7-0.7,1.3-0.7,2.1
		c0,0.1-0.1,0.2-0.2,0.3c-0.4,0.6-0.7,1.3-0.9,2c-0.2,0.7-0.8,1.2-0.9,2c0,0.1-0.1,0.2-0.2,0.3c-0.4,0.4-0.7,0.8-0.8,1.5
		c0,0.1-0.1,0.4-0.3,0.6c-0.9,1-1.4,2.3-2.4,3.1c-1.1,1.8-2.5,3.2-3.9,4.6c-0.8,0.8-1.6,1.5-2.6,2c-0.5,0.2-0.7,0.7-1.1,1
		c-0.6,0.5-1.5,0.8-2,1.4c-0.2,0.2-0.4,0.2-0.6,0.3c-1.2,0.4-2.2,1.1-3.4,1.6c-0.6,0.2-1.2,0.6-2,0.7c-0.3,0-0.6,0.2-0.8,0.3
		c-0.5,0.4-1.2,0.4-1.8,0.6c-0.6,0.1-1.1,0.3-1.7,0.5c-1,0.3-2,0.6-3,0.5c-0.5-0.1-0.9,0.2-1.4,0.3c-0.5,0-1-0.2-1.4,0.2
		c-0.8,0-1.6,0-2.4,0c-0.2,0.2-0.5,0.3-0.3,0.7c-3.6,0-7.1,0-10.6,0c-0.2-0.2,0-0.6-0.4-0.7c-0.4,0-0.8,0-1.2,0
		c-1.1,0.1-2.1-0.4-3.2-0.2c-0.6-0.4-1.3-0.2-1.9-0.2c-0.4,0-0.8,0.2-1.2-0.1c-0.3-0.2-0.8,0.1-1-0.3c-0.9-0.1-1.7-0.5-2.6-0.5
		c-0.6,0-1.2-0.1-1.7-0.4c-0.7-0.4-1.4-0.6-2.2-0.7c-0.3,0-0.6-0.2-0.8-0.3c-0.6-0.3-1.2-0.6-1.9-0.6c-0.1,0-0.2,0-0.2,0
		c-0.6-0.3-1-0.8-1.6-0.9c-0.7-0.1-1-0.6-1.5-1c-0.5,0.1-0.8-0.2-1.1-0.4c-0.5-0.5-1-0.8-1.5-1.2c-0.6-0.5-1.3-1-2-1.5
		c-0.2-0.2-0.5-0.4-0.7-0.6c-1.2-1.2-2.4-2.3-3.5-3.5c-0.9-1-1.6-2.1-2.5-3.1c-1-1.1-1.6-2.4-2.4-3.5c-0.9-1.3-1.6-2.7-2.2-4.1
		c-0.2-0.4-0.3-0.8-0.5-1.2c-0.3-0.7-0.6-1.4-0.7-2.2c-0.1-0.6-0.5-1-0.7-1.6c-0.2-0.8-0.3-1.7-0.7-2.5c-0.4-0.8-0.6-1.7-0.5-2.6
		c0-0.3-0.2-0.5-0.2-0.7c-0.2-0.9-0.3-1.9-0.6-2.8c-0.3-1-0.1-1.9-0.1-2.9c0-1.2-0.4-2.4-0.3-3.7c0.1-1.3,0-2.6,0-3.9
		c0-1.3,0-2.5,0-3.8c0-0.9,0.4-1.7,0.3-2.6c-0.1-0.9,0-1.7,0-2.6c0-0.4,0.2-0.8,0.3-1.2c0.2-0.6,0.2-1.3,0.4-1.9
		c0.3-0.6,0.2-1.3,0.2-1.9c0-0.5,0.3-1,0.5-1.5c0.3-0.9,0.5-1.8,0.7-2.7c0.2-0.7,0.6-1.3,0.7-1.9c0.2-0.6,0.4-1.2,0.7-1.8
		c0.1-0.2,0.2-0.5,0.3-0.7c0.2-0.4,0.3-0.9,0.6-1.3c0.3-0.3,0.6-0.8,0.5-1.4c0.7-0.8,0.9-1.8,1.6-2.5c0.4-0.3,0.2-0.9,0.6-1.2
		c0.4-0.2,0.6-0.6,0.7-1c0.2-0.7,1-0.9,1.2-1.6c1.2-1,2-2.4,3.2-3.4c0.7-0.5,1.2-1.2,1.9-1.7c1.2-0.8,2.2-1.8,3.5-2.5
		c0.3-0.2,0.5-0.6,0.8-0.6c0.7-0.2,1.3-0.7,1.9-1c0.1-0.1,0.2-0.3,0.4-0.2c0.2,0,0.3,0,0.6,0c0.4-0.6,1.1-0.9,1.8-1.1
		c0.4-0.1,0.7-0.2,1-0.5c0.5-0.4,1.2-0.4,1.8-0.5c0.1,0,0.3,0,0.3,0c0.5-0.5,1.1-0.7,1.8-0.7c0.6-0.1,1.2-0.3,1.8-0.4
		c0.2,0,0.5-0.2,0.7-0.3c0.4-0.1,0.7-0.3,1.1-0.4c0.5-0.1,1.1,0.1,1.7-0.2c0.4-0.2,1-0.2,1.5-0.2c1-0.1,1.9-0.6,2.9-0.5
		c1,0.1,2,0,3.1,0c1,0.1,2-0.4,3.1-0.3c1,0.1,2.1,0.1,3.1,0c1.2-0.1,2.3,0.3,3.4,0.3c1.2,0,2.4,0,3.5,0c0.5,0,0.9,0.2,1.3,0.3
		c0.6,0.2,1.3,0.2,1.8,0.4c0.6,0.3,1.3,0.1,1.9,0.2c0.8,0.1,1.7,0.1,2.4,0.7c0.2,0.2,0.6,0.3,1,0.3c0.6-0.1,1.1,0.2,1.6,0.4
		c0.4,0.1,0.6,0.7,1.1,0.5c0.4-0.1,0.7,0.4,1.1,0.2c0.1,0,0.2,0,0.3,0.1c0.5,0.5,1.2,0.7,1.9,0.9c0.2,0.1,0.5,0.1,0.7,0.4
		c0.3,0.3,0.7,0.5,1.2,0.5c0.4,0.5,0.9,0.8,1.5,1c0.6,0.2,0.9,0.6,1.4,1c2,1.6,3.9,3.3,5.7,5.2c0.6,0.6,0.9,1.4,1.5,2
		c1,1.1,1.5,2.5,2.5,3.7c0.3,1,1.2,1.7,1.3,2.8c0.1,0.4,0.2,0.9,0.7,1.1c0.1,0.1,0.2,0.2,0.2,0.4c0.1,0.5,0.2,1.1,0.7,1.5
		c0.4,0.3,0.2,0.9,0.4,1.3c0.4,0.9,0.7,1.7,1.1,2.7c-0.2,0.2-0.5,0.4-0.8,0.6c-1.4-0.3-2.7,0.3-4.1,0.8c-0.2,0.1-0.3,0.2-0.5,0.2
		c-1.3-0.1-2.5,0.5-3.7,0.8c-0.2,0-0.3,0.2-0.5,0.2c-1.3-0.1-2.5,0.3-3.6,0.7c-0.4,0.2-0.8,0.2-1.2,0.2c-0.2,0-0.4,0-0.7,0.1
		c-0.8,0.3-1.8,0.3-2.5,0.8c-1.6,0-3.1,0.4-4.6,0.8c-0.6,0.2-1.3,0.5-2,0.3c-0.7-0.5-0.8-1.3-1.1-2c-0.1-0.2,0-0.4-0.2-0.6
		c-0.6-1.1-1.2-2.3-1.9-3.3c-0.9-1.2-1.8-2.3-3.1-3.1c-0.3-0.2-0.6-0.5-0.9-0.8c-0.1,0-0.3,0-0.5,0c-0.3-0.3-0.6-0.6-0.8-0.8
		c-0.7-0.2-1.3-0.3-1.8-0.7c-0.5-0.4-1.2-0.4-1.8-0.5c-0.4-0.1-0.8-0.3-1.1-0.4c-1.7-0.5-3.4-0.3-5-0.4c-1.1-0.1-2.1,0.2-3.1,0.5
		c-0.7,0.3-1.4,0.4-2.1,0.5c-0.6,0.4-1.2,0.9-2,0.9c-0.1,0-0.2,0-0.2,0.1c-0.4,0.7-1.2,0.8-1.8,1.3c-0.8,0.6-1.6,1.4-2.3,2.1
		c-0.6,0.6-1.3,1.2-1.6,2c-0.2,0.6-0.8,1-1.2,1.5c-0.7,1-0.8,2.3-1.5,3.4c-0.3,0.4-0.2,1.1-0.3,1.6c-0.1,0.6-0.3,1.2-0.7,1.8
		c0.2,1.1-0.3,2.3-0.2,3.5c-0.4,0.7-0.3,1.4-0.2,2.1c0,0.4-0.2,0.8-0.3,1.2c-0.2,0.6-0.2,1.2-0.2,1.8c0,1.4,0,2.8,0,4.1
		c0,0.8,0.2,1.5,0.4,2.2c0,0.1,0.1,0.2,0.1,0.3c-0.2,1.3,0.3,2.6,0.2,3.9c0,0.5,0.3,0.8,0.3,1.3c-0.1,0.5-0.1,1,0,1.4
		c0.1,0.5,0.3,0.9,0.5,1.3c0.3,0.5,0.5,1.1,0.5,1.7c0,0.5,0.2,1,0.5,1.4c0.3,0.4,0.3,0.8,0.4,1.2c0,0.1,0,0.3,0.1,0.4
		c0.5,0.8,0.9,1.6,1.4,2.4c0.6,1,1.5,1.7,2.3,2.6c0.8,0.8,1.7,1.4,2.6,1.9c1.2,0.7,2.5,1.1,3.7,1.6c0.1,0,0.1,0.1,0.2,0.1
		c0.8-0.2,1.6,0.4,2.4,0.2c0.6-0.1,1.1,0.3,1.7,0.3c0.6,0,1.2-0.1,1.8,0c0.6,0.1,1-0.3,1.6-0.3c0.5,0,1,0.1,1.6-0.2
		C246.6,183.5,247.2,183.6,247.7,183.6z"/>
	<path d="M37.4,134.9c-0.3-0.3-0.6-0.6-0.9-0.9c-9.2,0-18.4,0-27.6,0c-0.1-0.1-0.2-0.2-0.3-0.3c0-6.9,0-13.8,0-20.8
		c0.2-0.2,0.4-0.3,0.6-0.6c28.1,0,56.3,0,84.5,0c0.2,0.4,0.4,0.8,0.4,1.2c0,6.7,0,13.3,0,20c0,0.1,0,0.1,0,0.2
		c-0.1,0.1-0.2,0.2-0.3,0.3c-9.3,0-18.6,0-27.9,0c-0.3,0.3-0.5,0.5-0.8,0.8c0,22.6,0,45.2,0,67.8c-0.2,0.2-0.4,0.4-0.7,0.6
		c-8.8,0-17.7,0-26.6,0c-0.1-0.1-0.2-0.2-0.3-0.3C37.4,180.3,37.4,157.6,37.4,134.9z"/>
	<path d="M283,96.5c-0.8-0.4-1.6-0.9-2.4-0.9c-0.1,0-0.2,0-0.2,0c-0.9-0.7-2-0.9-3-1.4c-0.9-0.5-1.5-1.4-2.5-1.6
		c-0.8-0.8-1.7-1.7-2.5-2.5c-0.6-0.7-0.9-1.6-1.5-2.2c-0.2-0.2-0.3-0.4-0.4-0.7c0-0.5-0.3-0.8-0.6-1.2c-0.2-0.3-0.5-0.6-0.4-1
		c0.1-0.5-0.2-0.9-0.4-1.4c-0.3-0.8-0.6-1.6-0.6-2.5c0-1.8,0-3.5,0-5.3c0-0.8,0.2-1.5,0.5-2.2c0.2-0.5,0.5-1.1,0.5-1.7
		c0-0.4,0.4-0.6,0.2-1c0.8-0.7,0.7-2,1.7-2.6c0.1-0.5,0.6-0.7,0.8-1.1c0.2-0.4,0.5-0.7,0.8-1c0.5-0.5,1-1.1,1.7-1.4
		c0.5-0.3,0.9-0.7,1.4-1.1c0.1,0,0.3,0.1,0.4,0c0.8-0.7,2-0.8,2.8-1.5c0.5-0.4,1.1-0.3,1.7-0.5c0.5-0.2,0.9-0.3,1.3-0.7
		c1.1,0.1,2.1-0.3,3.1-0.7c0.2-0.1,0.4-0.2,0.6-0.2c1.2-0.1,2.4-0.3,3.6-0.7c0.6-0.2,1.3-0.1,1.8-0.5c0.9,0.2,1.8-0.3,2.6-0.3
		c0.7-0.4,1.4-0.7,2.2-0.7c1,0.1,2-0.2,2.9-0.6c0.4-0.2,0.9,0,1.3-0.4c1.3,0.2,2.3-0.5,3.5-0.7c0.2,0,0.3-0.3,0.6-0.3
		c1.2,0.1,2.2-0.3,3.3-0.7c0.6-0.3,1.4-0.3,2-0.5c0.1,0,0.3,0,0.4-0.1c0.6-0.4,1.2-0.7,1.9-0.7c0.9-0.1,1.7-0.7,2.6-0.9
		c0.1,0,0.2-0.1,0.3-0.1c0.9,0,1.4-0.5,1.8-1.4c0-0.6-0.1-1.4,0-2.1c0-0.5-0.3-0.9-0.3-1.3c-0.6-0.4-0.6-1.2-1-1.7
		c-0.6-0.9-1.2-1.7-2.3-1.9c-0.5-0.1-0.7-0.6-1.4-0.6c-0.3,0.1-0.8-0.3-1.4-0.3c-0.6,0-1.2,0.1-1.8,0c-0.4-0.1-0.7-0.3-1.1-0.2
		c-1.1,0.4-2.2,0.1-3.2,0.2c-1.3,0.2-2.6,0.1-3.8,0.9c-0.2,0.1-0.4,0-0.6,0.1c-1,0.4-3.1,2-3.7,2.8c-0.6,0.8-0.9,1.7-1.6,2.4
		c-0.3,0.3-0.1,1-0.6,1.3c-0.6,0-1.4,0.2-1.9-0.1c-0.6-0.3-1.3,0.2-1.9-0.3c-0.1-0.1-0.5-0.1-0.8,0c-1.5,0.2-2.9-0.2-4.4-0.3
		c-0.9,0-1.9-0.1-2.8-0.4c-1.1-0.4-2.1-0.1-3.2-0.2c-1.2-0.1-2.4-0.3-3.6-0.2c-0.9-0.4-1.9-0.3-2.8-0.7c-0.6-0.2-1.2,0-1.8,0
		c-0.1-0.1-0.2-0.2-0.3-0.3c-0.3-0.6,0-1.3,0.2-1.7c0.3-0.7,0.5-1.5,0.6-2.2c0-0.1,0.1-0.2,0.1-0.3c0.3-0.7,0.7-1.4,0.8-2.1
		c0-0.3,0.3-0.5,0.4-0.8c0.1-0.2,0.2-0.3,0.3-0.5c1-2.2,2.8-3.8,4.5-5.4c0.4-0.4,0.8-0.7,1.3-1.1c0.1,0,0.2,0,0.4,0
		c0.3-0.3,0.6-0.6,0.9-0.9c0.3-0.1,0.6,0,0.9-0.2c0.9-0.7,2-0.9,2.9-1.5c0.4-0.3,0.8-0.2,1.2-0.3c0.7-0.1,1.3-0.5,2-0.7
		c0.6-0.2,1.2-0.4,1.8-0.4c1,0,1.8-0.4,2.7-0.6c0.1,0,0.2-0.2,0.4-0.2c0.4,0,0.7,0,1.1,0c0.4,0.1,0.6-0.3,1-0.3
		c1.7,0.2,3.4-0.1,5.1-0.3c1.7-0.2,3.4-0.1,5.1-0.2c1.7,0,3.4,0,5.1,0c0.9,0,1.6,0.3,2.5,0.3c0.9-0.1,1.8-0.2,2.6,0
		c1.2,0.3,2.3,0.2,3.5,0.2c0.4,0,0.7,0.3,1.2,0.3c0.4-0.1,0.9-0.1,1.1,0.1c0.4,0.3,0.8,0,1.2,0.3c0.3,0.3,1-0.2,1.4,0.3
		c0.8-0.1,1.5,0.4,2.2,0.2c0.9,0.6,1.8,0.9,2.8,1c0.2,0.2,0.5,0.5,0.7,0.8c0.8,0.1,1.5,0.3,2.1,0.7c1.3,0.7,2.3,1.7,3.5,2.4
		c0.7,0.4,1.4,1.1,1.7,2c0.2,0.6,0.7,0.9,1,1.5c0.2,0.6,0.8,0.9,1,1.6c0.1,0.5,0.6,1,0.9,1.6c0,0.6,0.1,1.1,0.4,1.7
		c0.3,0.5,0.4,1.2,0.5,1.8c0.2,0.9,0.4,1.9,0.9,2.8c0,0.7-0.1,1.6,0,2.5c0.4,4,0.2,8,0.2,12.1c0,4.1,0,8.1,0,12.2
		c0,4.1,0,8.1,0,12.1c0.4,0.4,0.4,0.9,0.5,1.4c0.2,1.3,0.3,2.7,1,3.9c0.3,0.5,0.2,1.1,0.5,1.6c0.4,0.5,1,0.9,0.9,1.6
		c0,0.2-0.3,0.3-0.4,0.4c-7.6,0-15.1,0-22.7,0c-1-1-1.2-2.5-2-3.7c0.2-0.9-0.5-1.8-0.2-2.7c-0.2-0.3-0.3-0.6-0.5-0.8
		c-0.1,0-0.2-0.1-0.2-0.1c-0.5-0.1-0.9,0.1-1.2,0.4c-0.6,0.7-1.4,1.2-2.1,1.8c-1,0.8-1.9,1.6-3.1,2.2c-0.2,0.1-0.4,0.1-0.6,0.3
		c-0.2,0.3-0.4,0.6-0.9,0.4c-0.9,0.8-2,0.9-3,1.3c-0.8,0.4-1.7,0.6-2.5,0.7c-0.3,0.1-0.6,0.2-0.9,0.3c-0.5,0.2-1,0.4-1.6,0.4
		c-0.7,0.1-1.3,0.3-2,0.2c-0.6-0.1-1.2,0.4-1.9,0.2c-0.5,0.4-1.1,0.1-1.7,0.2c-1.8,0.5-3.6,0.1-5.3,0.2c-0.7,0-1.5,0.2-2.1-0.1
		c-0.7-0.3-1.4,0.2-2-0.4c-0.8,0.2-1.5-0.3-2.3-0.3C284.2,96.7,283.6,96.3,283,96.5z M316.8,65.2c-0.2-0.2-0.3-0.4-0.6-0.4
		c-0.7,0.1-1.3,0.2-2,0.4c-1,0.2-1.8,0.8-2.8,0.9c-0.6,0.1-1.1,0.3-1.7,0.6c-0.3,0.1-0.7,0.3-1.2,0.3c-0.6,0-1.2,0.2-1.7,0.4
		c-0.8,0.2-1.5,0.7-2.3,0.7c-0.9,0-1.5,0.5-2.3,0.8c-0.6,0.2-1.2,0.2-1.8,0.4c-0.4,0.1-0.7,0.7-1.2,0.5c-1.1,0.4-2.1,1-3,1.6
		c-1.1,0.7-1.8,1.8-2.4,3c-0.1,0.3-0.2,0.5-0.2,0.7c0,1.3,0,2.7,0,4c0.2,0.7,1.1,0.9,1,1.6c0.7,1.2,2,1.7,3,2.5c0.2,0,0.4-0.1,0.6,0
		c1,0.4,2,0.5,3.1,0.5c0.7,0,1.4,0,2.1,0c0.4,0,0.8,0.1,1.2,0c0.7-0.2,1.4-0.4,2.2-0.4c0.3,0,0.4-0.4,0.7-0.3
		c0.2-0.5,0.8-0.5,1.2-0.6c0.7-0.2,1.2-0.5,1.7-1c0.2-0.1,0.4,0.1,0.6-0.1c0.4-0.4,0.7-0.8,1.2-1c0.3-0.1,0.5-0.3,0.7-0.5
		c0.4-0.4,0.8-0.9,1.2-1.4c0.5-0.7,1.7-2.6,2-3.4c0.1-0.5,0.2-1,0.5-1.5c0.2-0.4,0.3-0.9,0.3-1.4C316.8,69.8,316.8,67.4,316.8,65.2z
		"/>
	<path d="M162.8,45.1c-0.1,0.3,0,0.6,0.2,0.8c0.7,0.9,0.8,2.2,1.6,3c0.1,0.1,0,0.4,0.1,0.5c0.3,0.4,0.1,1.1,0.5,1.5
		c0.4,0.4,0.3,1,0.5,1.4c0.1,0.1,0.1,0.3,0.1,0.4c-0.1,0.9,0.2,1.6,0.5,2.4c0.2,0.5,0.2,1,0.4,1.5c0.2,0.3,0.1,0.8,0,1.2
		c-0.1,1.2,0.3,2.4,0.3,3.6c0,1.2-0.1,2.4,0,3.7c0,0.7-0.3,1.4-0.3,2.1c0.1,0.7,0.1,1.4,0,2.1c-0.1,0.9-0.4,1.7-0.7,2.5
		c-0.1,0.3-0.2,0.6-0.2,1c0,0.5-0.2,1-0.4,1.5c-0.3,0.6-0.6,1.2-0.7,1.8c-0.1,0.4-0.3,0.9-0.5,1.3c-0.5,0.9-0.7,1.9-1.4,2.7
		c-0.2,0.2-0.1,0.4-0.2,0.7c-0.3,0.3-0.6,0.6-0.9,0.9c0,0.1,0,0.3,0,0.4c-0.4,0.6-0.8,1.3-1.3,1.8c-1.2,1.5-2.6,2.8-3.9,4.2
		c-0.7,0.7-1.3,1.5-2.3,1.9c-0.4,0.2-0.6,0.8-1.2,0.9c-0.5,0.7-1.4,0.9-2,1.5c-0.3,0.3-0.8,0.5-1.3,0.4c-0.5,0.5-0.9,1-1.7,1
		c-0.1,0-0.2,0-0.3,0.1c-0.6,0.7-1.5,0.8-2.3,1c-0.6,0.2-1.1,0.5-1.8,0.7c-1,0.1-2.2,0.3-3.3,0.8c-0.1,0.1-0.2,0.2-0.3,0.1
		c-1-0.2-1.9,0.3-2.9,0.2c-0.8-0.1-1.4,0.2-2.1,0.3c-0.2,0-0.4,0.2-0.7,0.2c-1.3-0.1-2.6,0.3-3.9,0.3c-1.3-0.1-2.7,0-4,0
		c-1.2,0-2.4-0.5-3.6-0.2c-0.4-0.5-1-0.6-1.5-0.5c-1,0.1-2-0.4-3.1-0.3c-0.3,0-0.7-0.3-1-0.4c-0.9-0.2-1.8-0.6-2.5-0.6
		c-1-0.4-1.6-0.9-2.6-1c-0.5,0-1.2-0.3-1.5-0.9c-0.3,0-0.7,0-1,0c-0.5-0.4-0.9-0.9-1.6-1c-0.2,0-0.4-0.2-0.5-0.3
		c-0.5-0.6-1.3-0.8-1.9-1.3c-0.6-0.5-1.2-0.8-1.8-1.2c-0.1-0.1-0.2-0.1-0.3-0.2c-0.8-0.9-1.8-1.6-2.7-2.4c-1.3-1.1-2.3-2.6-3.4-3.9
		c-0.8-1-1.4-2.2-2.1-3.3c-0.1-0.1,0-0.3,0-0.5c-0.9-0.5-0.9-1.4-1.2-2.2c0-0.1,0-0.3,0-0.3c-1-1-0.9-2.5-1.5-3.7
		c-0.2-0.5-0.4-1.1-0.4-1.7c0.1-0.4-0.1-0.7-0.2-1.1c-0.2-0.9-0.2-1.8-0.7-2.7c-0.1-0.1,0-0.2,0-0.3c0-0.5,0.5-0.9,0.1-1.5
		c-0.3-0.4-0.1-1-0.1-1.5c0-0.5,0-1.1,0-1.7c0-0.5,0-1,0-1.5c-0.1-1,0.4-1.9,0.3-2.9c-0.1-0.9,0.5-1.7,0.5-2.6
		c0.3-0.3,0.3-0.7,0.2-1.1c0-0.4,0.4-0.6,0.3-1c-0.1-0.5,0.1-1,0.3-1.3c0.4-0.7,0.5-1.5,0.7-2.2c0,0,0-0.1,0-0.1
		c0.6-0.7,0.7-1.7,1.2-2.4c0-0.1,0.1-0.1,0.2-0.2c0.1-0.5,0.4-1,0.6-1.5c0.2-0.5,0.6-0.9,0.9-1.4c0.6-0.9,1.1-1.8,1.9-2.7
		c0.9-1.1,1.7-2.2,2.8-3.2c0.8-0.8,1.6-1.6,2.5-2.2c1-0.7,1.9-1.6,3.1-2.2c0.2-0.1,0.4-0.1,0.6-0.2c0.5-0.4,0.9-1,1.6-1
		c0.2,0,0.4-0.2,0.5-0.2c0.4-0.5,1-0.6,1.6-0.8c0.4-0.2,0.8-0.3,1.2-0.6c0.4-0.3,0.9-0.2,1.3-0.4c0.9-0.4,1.8-0.8,2.8-1
		c0.1,0,0.2-0.1,0.3-0.1c0.7,0.1,1.4-0.3,2.1-0.5c0.9-0.3,1.9-0.5,2.9-0.5c1.2,0,2.4-0.4,3.6-0.3c1.3-0.5,2.7-0.1,4-0.2
		c0.5,0,0.9,0,1.4,0c1.4-0.2,2.8,0.4,4.3,0.2c0.9,0.4,1.9,0.1,2.9,0.2c1.1,0.2,2.3,0.3,3.3,0.8c0.2,0.1,0.3,0.2,0.5,0.2
		c0.6-0.2,1.1,0.3,1.7,0.3c0.6-0.1,0.9,0.4,1.4,0.6c0.2,0.1,0.5,0,0.6,0.1c0.5,0.4,1.2,0,1.7,0.5c0.4,0.5,1,0.5,1.5,0.6
		c0.3,0.1,0.5,0.3,0.8,0.4c0.2,0.1,0.3,0.2,0.5,0.3c0.4,0.3,1,0.2,1.3,0.6c0.3,0.3,0.8,0.4,1.1,0.7c0.7,0.4,1.4,0.8,2,1.3
		c1.4,1.1,2.9,2.3,4.2,3.7c0.6,0.7,1.1,1.4,1.7,2.1c0.4,0.5,0.8,1,1.3,1.5c0.2,0.3,0.4,0.6,0.5,0.8C162,44.2,162.4,44.7,162.8,45.1z
		 M142.3,60.6c-0.3-0.8-0.6-1.6-0.5-2.4c0.1-0.9-0.3-1.6-0.3-2.5c-0.6-0.7-0.7-1.5-0.9-2.3c-0.3-0.8-1-1.4-1-2
		c-0.9-1.6-2.2-2.6-3.4-3.6c-1.2-1-2.6-1.5-4.2-2.1c-0.3,0-0.8-0.2-1.2-0.2c-1.6,0-3.3-0.4-4.8,0.7c-0.1,0.1-0.3,0-0.3,0
		c-0.4,0.3-1.1,0.1-1.5,0.5c-0.6,0.6-1.5,0.7-2,1.5c-0.1,0.2-0.3,0.1-0.5,0.2c-0.5,0.3-0.9,0.7-1.2,1.1c-0.5,0.7-0.9,1.4-1.4,2
		c-0.4,0.5-0.5,1.1-0.7,1.7c-0.2,0.1-0.4,0.4-0.7,0.6c-0.2,0.7-0.2,1.3-0.2,1.9c-0.1,0.2-0.2,0.2-0.2,0.3c-0.5,1-0.6,2.1-0.7,3.2
		c-0.1,1.6,0,3.1,0,4.7c0,1.6-0.1,3.2,0.2,4.7c0.1,0.7,0.4,1.4,0.7,2.2c0,0.9,0.1,0.9,0.7,2.1c0.1,0.2,0.2,0.4,0.3,0.6
		c0.1,0.7,0.5,1.2,0.9,1.7c0.4,0.4,0.8,0.8,1.1,1.3c0.7,1.3,2,1.7,3,2.5c0.1,0.1,0.2,0.2,0.3,0.2c0.8,0.1,1.3,0.7,2,1
		c0.3,0,0.7,0.1,1.1,0c0.4-0.1,0.8,0.2,1.1,0.3c0.8,0.3,1.6,0.3,2.4,0.2c0.8-0.1,1.7-0.4,2.5-0.4c0.1,0,0.2,0,0.2,0
		c0.9-0.4,1.7-0.9,2.6-1.2c0.5-0.2,1-0.7,1.4-1.2c1.3-1.1,2.5-2.3,3.1-4c0.2-0.5,0.6-0.9,0.8-1.5c0.1-0.3,0-0.6,0.1-0.9
		c0.6-1.3,0.9-2.8,0.9-3.8c0-0.4-0.1-0.9,0.2-1.3c0.2-0.4-0.1-1,0.2-1.4c-0.5-1.2-0.1-2.5-0.2-3.7C142,61.1,142,60.8,142.3,60.6z"/>
	<path d="M9.1,78.1c0.4-0.3,0.9-0.3,1.4-0.3c1.3,0,2.6-0.4,3.9-0.2c0.9-0.4,1.9-0.2,2.9-0.2c0.8,0,1.6,0,2.4-0.3
		c0.6-0.2,1.1-0.3,1.7-0.2c0.6,0.1,1.1-0.3,1.7-0.3c0.5,0,1.2,0.2,1.6,0c0.7-0.3,1.4-0.2,2-0.2c1.1,0.1,2.2-0.4,3.3-0.3
		c0.7-0.4,1.5-0.2,2.3-0.2c0.4,0,0.8-0.4,1.4-0.1c0.4,1.2,1,2.3,1.7,3.4c0.8,1.2,1.9,2.1,2.8,3.1c0.7,0,1.2,0.5,1.6,0.9
		c0.6-0.1,1.1,0.4,1.8,0.3c0.6-0.1,1.1,0.5,1.6,0.6c1.5,0.3,3,0.1,4.4,0.1c0.5,0,1.1-0.3,1.7-0.7c0.9,0,1.9-0.1,2.7-0.8
		c0.1-0.1,0.3-0.1,0.4-0.1c0.3-0.1,0.6-0.2,0.8-0.4c0.9-0.8,1.9-1.6,2.3-2.8c0.1-0.3,0.3-0.4,0.5-0.7c0-0.7,0-1.5,0-2.4
		c-0.3-0.6-0.7-1.1-1-1.7c-0.4-0.6-1.2-0.8-1.5-1.4c-0.7-0.2-1.3-0.3-1.8-0.6c-0.8-0.4-1.6-0.6-2.4-0.7c-0.7,0-1.2-0.5-1.9-0.5
		c-0.1,0-0.1-0.2-0.3-0.2c-0.8,0.1-1.6-0.4-2.4-0.2c-0.5,0.1-0.8-0.2-1.2-0.3C42.2,70.3,41,70,39.7,70c-1.1,0-2.1-0.5-3.1-0.8
		c-0.3-0.1-0.6-0.2-0.9-0.2c-0.9,0.1-1.7-0.3-2.5-0.2c-0.2,0-0.3-0.2-0.5-0.3c-0.7-0.2-1.3-0.5-2.1-0.5c-1.1,0-2.1-0.4-3.1-0.9
		c-0.8,0-2-0.3-3-0.8c-0.2-0.1-0.3-0.2-0.5-0.2c-0.5-0.1-1.1-0.2-1.6-0.5C22,65.4,21.6,65,20.9,65c-0.5-0.7-1.4-1-2.1-1.6
		c-1-0.8-1.9-1.6-2.7-2.6C15.3,60,14.5,59,13.9,58c-0.1-0.2-0.1-0.4-0.1-0.6c-0.7-0.6-1.2-1.3-0.9-2.2c-0.3-0.7-0.6-1.2-1-1.9
		c0-0.9,0-1.9,0-2.9c0-0.4,0.2-0.8-0.2-1.1c-0.1,0-0.1-0.3,0-0.3c0.4-0.8,0.2-1.6,0.2-2.4c0-1.2,0.3-2.2,0.6-3.3
		c0.5-1.7,1.4-3.2,2.3-4.7c0.4-0.6,0.9-1.2,1.4-1.8c0.5-0.6,1.1-1.1,1.7-1.7c0.2-0.2,0.4,0,0.6-0.1c0.8-0.9,1.8-1.5,2.8-2.1
		c0.8-0.5,1.6-0.8,2.5-1.2c0.3-0.1,0.4-0.3,0.7-0.5c0.7,0.1,1.4-0.2,2-0.5c0.9-0.5,1.8-0.6,2.8-0.7c0.5,0,1-0.1,1.4-0.4
		c0.5-0.3,1.1-0.4,1.6-0.4c0.6,0.1,1.1-0.4,1.7-0.3c0.5,0.1,1.1,0.2,1.6,0c1-0.3,1.9,0,2.9-0.2c1.7-0.4,3.4-0.2,5.1-0.2
		c1.7,0,3.4,0,5.1,0c0.6,0,1.2,0.3,1.8,0.3c0.6-0.1,1.3-0.2,1.9,0c1,0.3,2.1,0.2,3.1,0.2c0.5,0,0.8,0.4,1.3,0.2
		c0.4-0.1,0.8,0.2,1.2,0.3c0.8,0.2,1.5,0.4,2.3,0.5c0.6,0.1,1.2,0.1,1.8,0.6c0.4,0.3,1,0.5,1.5,0.6c0.4,0.1,0.8,0.2,1.1,0.5
		c0.3,0.3,0.6,0.5,1,0.5c0.2,0,0.3,0.1,0.4,0.2c0.3,0.4,0.7,0.5,1.1,0.8c0.8,0.6,1.7,1,2.4,1.7c0.7,0.7,1.4,1.4,2.1,2.1
		c0.4,0.4,0.9,0.8,1,1.4c0,0.2,0.1,0.3,0.3,0.4c0.8,0.6,1.1,1.6,1.6,2.4c0.2,0.3,0.4,0.7,0.6,1.1c0.3,0.4,0.5,0.9,0.6,1.4
		c0.1,0.5,0.3,0.9,0.7,1.3c0.1,0.4,0.1,0.8-0.3,1.1c-0.8,0-1.7-0.1-2.6,0.4c-0.1,0.1-0.4,0-0.6,0c-0.5,0-0.9,0-1.4,0
		c-1.6-0.2-3.2,0.2-4.9,0.3c-0.5,0-1.1,0.1-1.7,0.2c-0.5,0.1-1,0.1-1.5,0.4c-0.1,0.1-0.4,0-0.6,0c-0.9,0-1.8,0.1-2.7,0
		c-0.6-0.1-1.2,0.3-1.8,0.3c-0.6,0-1.2,0-1.8,0c0,0-0.1,0-0.1,0c-1,0.7-2.2,0.4-3.3,0.5c-0.2-0.2-0.4-0.3-0.4-0.5
		c-0.1-1.1-0.8-2-1.6-2.8c-0.5-0.6-1-1.3-1.9-1.4c-0.4-0.6-0.9-0.8-1.5-0.9c-0.4-0.1-0.7-0.3-1.1-0.3c-0.3,0-0.4-0.3-0.7-0.5
		c-0.6,0.2-1.2-0.3-1.9-0.2c-0.7,0-1.4,0.1-2.1,0c-1-0.1-1.9,0.3-2.9,0.2c-0.2,0-0.3,0.2-0.4,0.2c-0.5,0.1-0.9,0.6-1.4,0.5
		c-0.8,0.5-1.6,1.1-2.2,1.8c0,0.5-0.6,0.6-0.7,1c-0.4,1.2-0.4,2.5,0,3.8c0.6,0.6,1.3,1.3,2,1.9c0.6,0,1,0.4,1.5,0.6
		c0.3,0.1,0.5,0.4,0.9,0.4c0.9-0.1,1.8,0.2,2.6,0.5c0.6,0.2,1.3,0.1,1.8,0.4c1.1-0.1,2.2,0.1,3.3,0.3c1,0.1,2.1,0.3,3.1,0.5
		c0.2,0,0.3,0.2,0.5,0.2c1.2-0.2,2.4,0.3,3.6,0.2c0.1,0,0.3,0,0.4,0.1c0.5,0.3,1.1,0.5,1.7,0.4c0.1,0,0.2,0,0.2,0
		c0.4,0.5,1,0,1.4,0.4c0.1,0.1,0.3,0.1,0.4,0.1c1-0.1,2,0.3,2.9,0.6c0.5,0.2,1,0.3,1.5,0.3c0.5,0,1,0.2,1.5,0.4
		c0.6,0.2,1.2,0.7,1.9,0.6c0.2,0,0.4,0.2,0.6,0.3c0.6,0.3,1,0.7,1.7,0.7c0.5,0,0.8,0.6,1.1,0.9c0.2,0,0.4,0,0.6,0.1
		c0.7,0.3,1.1,1,1.9,1.2c1,1,2.2,1.8,3,3c0.7,1,1.4,1.9,2,3c0.2,0.4,0.6,0.7,0.8,1.2c0.1,0.4-0.1,0.9,0.4,1.3
		c0.3,0.2,0.4,0.7,0.5,1.1c0,0.1,0.2,0.3,0.2,0.5c-0.2,0.9,0.2,1.8,0.3,2.7c0.1,0.8,0.1,1.7,0.2,2.5c0.1,0.6-0.3,1-0.3,1.6
		c0,0.5,0.2,1-0.2,1.5c-0.1,0.1-0.1,0.5,0,0.7c0.1,0.5-0.3,0.9-0.2,1.3c-0.7,0.6-0.6,1.6-0.9,2.3C77,82.8,77,83,76.8,83.1
		c-0.4,0.5-0.5,0.7-0.7,1.7c-0.7,0.4-0.9,1.3-1.4,2c-0.6,0.7-1.2,1.3-1.8,2c-0.6,0.6-1.2,1.2-1.8,1.8c-0.9,0-1.2,1.2-2.2,1.2
		c-0.4,0.5-1,0.8-1.6,1.2c-1,0.5-2.2,0.9-3.1,1.7c-1.1-0.1-1.9,0.4-2.9,0.9c-1.1,0.1-2.2,0.3-3.3,0.8c-0.1,0-0.2,0.2-0.3,0.1
		c-1.1-0.2-2.1,0.3-3.2,0.2c-1-0.1-1.9,0.1-2.8,0.4c-0.1,0.1-0.3,0-0.5,0c-1.7-0.1-3.5,0.3-5.2,0.3c-1.7-0.1-3.5,0-5.2,0
		c-1.4,0-2.8-0.4-4.3-0.2c-1.5-0.5-3.1-0.4-4.6-0.5c-1.3-0.1-2.6-0.1-3.8-0.8c-0.1,0-0.1-0.1-0.2-0.1c-0.9,0.1-1.6-0.4-2.4-0.2
		c-0.9-0.5-1.7-1-2.7-0.9c-0.3,0-0.6-0.2-0.8-0.3c-0.4-0.3-0.8-0.6-1.4-0.6c-0.6,0-1-0.6-1.4-0.9c-0.2,0-0.3,0-0.5,0
		c-0.5-0.5-0.9-1-1.5-1.2c-0.1,0-0.2-0.1-0.3-0.2c-0.7-0.6-1.4-1.2-2-1.9c-0.8-0.9-1.7-1.7-2.4-2.8c-0.4-0.7-0.9-1.3-1.2-2
		c-0.3-0.5-0.6-0.9-0.7-1.5c0-0.5-0.7-0.8-0.7-1.4c0-0.3-0.4-0.5-0.2-0.8c0.2-0.4-0.1-0.7-0.3-0.9C9,79.5,9,78.8,9.1,78.1z"/>
	<path d="M239.7,32.2c0.5,0.5,0.9,1,1.6,1c0.1,0,0.4,0.2,0.5,0.2c1,0.9,2.2,1.5,3.2,2.4c1.2,1,2.2,2,3.3,3.2
		c0.6,0.7,1.2,1.4,1.9,2.1c0.1,0.9,1.3,1.3,1.2,2.4c0.4,0.5,1,0.8,0.9,1.6c0.7,0.9,0.9,2.1,1.5,3c0.5,0.9,0.7,1.7,0.7,2.7
		c-0.5,0.4-1.1,0.5-1.8,0.5c-0.5,0.1-1.1,0.1-1.7,0c-0.9-0.1-1.8,0.3-2.7,0.3c-0.7,0-1.4,0.3-2,0.5c-0.3,0.1-0.6,0.2-0.9,0.1
		c-1.4-0.1-2.8,0.3-4.3,0.2c-0.2,0-0.3,0.1-0.4,0.1c-1,0.3-1.9,0.6-3,0.6c-1.2-0.1-2.4,0.4-3.6,0.3c-0.7,0.4-1.5,0.2-2.2,0.5
		c-0.2,0.1-0.2,0.2-0.4,0.2c-0.5-0.2-0.3-0.8-0.5-1.2c-0.1-0.2-0.2-0.5-0.3-0.7c-0.5-0.9-1-1.9-1.6-2.8c-0.7-1-1.6-1.6-2.5-2.2
		c-0.5-0.3-0.8-0.9-1.4-0.9c-0.7,0-1.3-0.2-1.9-0.5c-0.7-0.3-1.5-0.5-2.3-0.5c-1.1,0.1-2.2,0-3.3,0c-1,0-1.9,0.2-2.7,0.7
		c-0.4,0.3-0.9,0.2-1.3,0.2c-1.2,0.6-2.2,1.3-3.2,1.9c-0.1,0.1-0.2,0.2-0.3,0.3c-1.1,1.1-2,2.3-3,3.5c-0.2,0.3-0.2,0.8-0.4,1.1
		c-0.4,0.7-0.8,1.4-0.9,2.2c-0.1,0.8-0.5,1.5-0.7,2.3c-0.1,0.5-0.2,1-0.2,1.6c0,1.2,0,2.4-0.5,3.6c-0.2,0.5,0,1,0,1.5
		c-0.1,0.5,0.2,0.9,0.3,1.3c0.2,0.6,0.2,1.1,0.2,1.7c0,1.5,0.2,2.8,0.9,4.1c0.1,0.1,0,0.2,0,0.3c0.2,0.9,0.6,1.6,1.1,2.4
		c0.4,0.8,1,1.4,1.6,2.1c0.9,1.1,2,1.8,3,2.7c0.2,0.2,0.5,0.4,0.7,0.4c0.8,0,1.3,0.8,2.1,1c0.4,0,0.9-0.1,1.3,0
		c0.4,0.1,0.7,0.2,1,0.4c0.2,0.1,0.3,0,0.4,0.1c0.4,0,0.8-0.1,1.1,0.2c0.1,0.1,0.3,0,0.5,0c1.1-0.3,2.3-0.1,3.4-0.6
		c0.1,0,0.2-0.1,0.3-0.1c1.5,0.1,2.6-0.8,3.9-1.5c1.4-0.8,2.4-2,3.6-3.1c0.2-0.2,0.3-0.4,0.4-0.7c0.4-0.8,1-1.5,1.3-2.4
		c0.1-0.2,0.1-0.4,0.3-0.5c0.4-0.3,0.5-0.7,0.5-1.2c0-0.2,0.2-0.3,0.3-0.5c0.3,0,0.6-0.2,0.9,0.1c0.2,0.2,0.4,0.1,0.6,0.1
		c1-0.1,1.9,0.2,2.9,0.3c0.7,0.1,1.4,0.3,2.1,0.4c0.7,0.1,1.5-0.1,2.2,0.1c0.7,0.1,1.3,0.3,2,0.2c0.7-0.1,1.3,0.4,2,0.2
		c1.1,0.4,2.3,0.4,3.5,0.5c1.2,0.2,2.3,0.2,3.5,0.2c0.3,0,0.5,0.3,0.8,0.3c0.3,0,0.6,0.1,0.9,0.2c0.5,0.2,1.1,0,1.7,0.3
		c0.4,0.2,0.4,0.1,0.6,0.8c-0.7,0.5-0.8,1.4-0.9,2.2c-0.1,0.4-0.2,0.7-0.4,1c-0.2,0.4-0.5,1.2-0.6,1.6c-0.3,0.2-0.5,0.5-0.7,0.7
		c0.2,0.6-0.4,0.9-0.2,1.3c-0.4,0.4-0.8,0.8-1,1.4c-0.2,0.6-0.7,1.1-1.1,1.7c-0.8,1.1-1.6,2.2-2.7,3.2c-1,1-2,2-3,3
		c-0.6,0.5-1.3,0.9-1.9,1.3c-0.4,0.2-0.8,0.4-1.1,0.8c-0.1,0.1-0.3,0.1-0.4,0.2c-0.4,0.3-1,0.2-1.4,0.6c-0.3,0.4-0.8,0.5-1.3,0.6
		c-0.2,0.1-0.4,0.1-0.6,0.3c-0.5,0.5-1.2,0.7-1.9,0.8c-0.6,0.1-1,0.5-1.6,0.7c-0.6-0.2-1.3,0.4-1.9,0.2c-0.7,0.4-1.4,0.7-2.2,0.7
		c-0.8,0.1-1.5,0.2-2.3,0.2c-0.7,0-1.4,0.1-2.1,0.4c-0.1,0-0.2,0-0.2,0c-1.7-0.1-3.5,0.3-5.2,0.3c-1.7-0.1-3.5,0.1-5.2-0.1
		c-1.2-0.1-2.3-0.1-3.4-0.2c-0.5,0-1-0.1-1.4-0.3c-0.5-0.1-0.9-0.2-1.3-0.2c-1.2,0.1-2.3-0.4-3.4-0.2c-0.2,0-0.3-0.1-0.4-0.1
		c-1.1-0.4-2.2-0.8-3.3-0.8c-0.5,0-0.8-0.2-1.1-0.4c-0.7-0.3-1.4-0.7-2.2-0.6c-0.7-0.4-1.3-0.9-2.2-0.9c-0.9-0.7-1.9-1.1-2.9-1.7
		c-1.5-0.9-2.7-2-4.1-3.1c-0.8-0.6-1.5-1.2-2.1-2c-0.7-0.8-1.5-1.5-2.1-2.3c-0.4-0.6-0.7-1.2-1.3-1.7c0-0.2,0-0.3,0-0.5
		c-0.4-0.4-0.7-0.9-1-1.4c-0.6-0.9-1-2-1.6-2.9c-0.3-0.5-0.5-1-0.5-1.6c0-0.5-0.2-0.9-0.4-1.3c-0.4-0.8-0.7-1.7-0.6-2.6
		c0-0.4-0.2-0.7-0.3-1.1c-0.3-1.2-0.3-2.4-0.7-3.5c-0.1-0.2,0-0.5,0-0.7c0-2.2,0-4.3,0-6.5c0-0.7-0.1-1.4,0-2c0.2-0.6,0-1.3,0.4-1.8
		c-0.1-1.3,0.6-2.5,0.5-3.8c0-0.5,0.2-1.1,0.4-1.6c0.3-0.5,0.4-1.1,0.5-1.7c0.1-0.5,0.2-1.1,0.6-1.6c0.3-0.4,0.4-1,0.6-1.7
		c0.3-0.3,0.8-0.7,0.8-1.4c0-0.2,0.2-0.3,0.3-0.4c0.2-0.2,0.3-0.4,0.4-0.7c0.5-0.9,1.1-1.7,1.7-2.5c1.4-1.8,3.1-3.2,4.6-4.8
		c0.7-0.7,1.4-1.3,2.3-1.8c0.7-0.4,1.3-0.9,1.9-1.3c0.1-0.1,0.2-0.2,0.3-0.2c0.7-0.2,1.3-0.7,1.9-1c0.2-0.1,0.4-0.3,0.6-0.2
		c0.3,0.1,0.7-0.1,0.8-0.3c0.6-0.7,1.5-0.7,2.2-0.9c0.2-0.1,0.4-0.1,0.6-0.2c0.9-0.5,1.9-0.6,2.9-0.7c0.7-0.1,1.4-0.4,2.1-0.5
		c0.1,0,0.1-0.1,0.2-0.1c0.6,0.1,1.2-0.2,1.8-0.2c1.6,0.1,3.3-0.2,4.9-0.3c1.4-0.1,2.8-0.1,4.2-0.2c1.4,0,2.8-0.1,4.1,0
		c1.1,0.1,2.2,0.3,3.3,0.2c0.6,0.4,1.3,0.3,1.9,0.2c0.7-0.1,1.3,0.3,1.9,0.3c0.6,0,1.1,0.3,1.7,0.4c0.6,0.1,1.2,0.3,1.8,0.4
		c0.9,0.1,2,0.1,2.8,0.7c0.3,0.3,0.7,0.1,1,0.2c0.6,0.3,1.2,0.3,1.7,0.8C238.6,32.3,239.2,32.2,239.7,32.2z"/>
	<path d="M386,5.1c0,0.4,0,0.8,0,1.2c0,29.1,0,58.1,0,87.2c0,0.4-0.1,0.9,0.2,1.3c-0.2,0.3-0.3,0.6-0.3,0.9c-8.2,0-16.5,0-24.7,0
		c-0.2-0.5-0.6-1-0.1-1.6c0.2-0.2,0-0.7,0-1c0-28.8,0-57.6,0-86.3c0-0.5,0-1.1,0-1.7C369.5,5.1,377.7,5.1,386,5.1z"/>
</g>
</svg>
