<svg xmlns="http://www.w3.org/2000/svg" xmlns:xlink="http://www.w3.org/1999/xlink" version="1.1" x="0px" y="0px" viewBox="0 0 100 125" enable-background="new 0 0 100 100" xml:space="preserve"><g><path fill="#000000" d="M50.063,14c-9.24,0-18.48,3.54-25.5,10.56c-0.06,0-0.12,0.06-0.12,0.12l0,0   c-13.98,14.1-13.92,36.839,0.12,50.879c6.24,6.24,14.58,9.96,23.4,10.44h0.06c0.12,0,0.24,0,0.36-0.06l1.32,0.06l0.6-0.3l0.18-0.72   l-0.48-0.54h-0.06L84.384,50v1.2l0.3,0.66l0.66,0.12l0.54-0.48l0.06-0.3l0.061-1.32l0,0l-0.061-1.5   c0.061-0.12,0.061-0.24,0.061-0.36c-0.48-8.82-4.2-17.16-10.5-23.46C68.483,17.54,59.243,14,50.063,14L50.063,14L50.063,14z    M50.063,15.62c8.76,0,17.58,3.36,24.36,10.08c5.76,5.76,9.24,13.44,9.899,21.54c-0.96-0.06-1.92-0.06-2.88,0l0,0   c-1.319,0.06-2.64,0.18-3.899,0.42c-0.54-6.36-3.301-12.48-7.98-17.16l0,0c-5.34-5.4-12.42-8.1-19.5-8.1l0,0   c-7.08,0-14.16,2.7-19.56,8.1c-10.8,10.8-10.8,28.32,0,39.12c4.68,4.62,10.74,7.38,17.16,7.979c-0.36,2.16-0.48,4.44-0.42,6.721   c-8.1-0.66-15.78-4.141-21.54-9.9c-13.5-13.5-13.5-35.28,0-48.72C32.424,18.98,41.244,15.56,50.063,15.62L50.063,15.62z    M50.063,24.02c6.66,0,13.32,2.52,18.42,7.62c4.38,4.44,7.021,10.26,7.5,16.32c-6.84,1.38-13.2,4.74-18.24,9.78   s-8.399,11.399-9.839,18.24c-6-0.48-11.82-3.061-16.26-7.5c-10.2-10.2-10.2-26.701,0-36.84C36.684,26.54,43.404,24.02,50.063,24.02   L50.063,24.02z M83.184,48.98l-34.2,34.2c0-9.12,3.42-17.88,9.84-24.3C65.304,52.4,74.063,48.98,83.184,48.98L83.184,48.98z    M84.804,53.6l-0.601,0.42l-0.06,0.24l-0.18,1.021l0,0l-0.3,1.8l-0.061,0.3l0.18,0.66l0.66,0.3l0.601-0.359l0.12-0.24l0.06-0.3   V57.38l0.36-1.8V55.52l0.119-1.02l-0.239-0.66L84.804,53.6L84.804,53.6z M83.544,59.84l-0.601,0.3l-0.18,0.24v0.18l-0.6,1.681l0,0   l-0.421,1.08v0.72l0.66,0.42l0.66-0.3l0.12-0.24l0.48-1.08l0,0l0.6-1.74v-0.06l0.06-0.18l-0.12-0.721L83.544,59.84L83.544,59.84z    M81.264,65.72l-0.72,0.181l-0.181,0.239l-0.479,0.96l-0.061,0.061l-0.899,1.5l-0.12,0.18l-0.12,0.72l0.54,0.48l0.72-0.12   l0.181-0.18l0.119-0.181l0,0l0.96-1.619h0.061l0.54-1.021V66.2L81.264,65.72L81.264,65.72z M77.903,71.12l-0.72,0.06l-0.24,0.24   l-0.12,0.18h-0.06v0.061l-1.14,1.32l-0.721,0.779l-0.18,0.66l0.42,0.6h0.72l0.24-0.18l0.66-0.78h0.06l1.2-1.439l0,0l0.18-0.24   l0.181-0.72L77.903,71.12L77.903,71.12z M72.924,75.74l-0.24,0.18l-1.02,0.84h-0.061l-1.38,1.08l-0.36,0.66l0.36,0.66l0.72,0.12   l0.24-0.12l1.44-1.141l0,0l1.079-0.899l0.301-0.66l-0.36-0.6L72.924,75.74L72.924,75.74z M67.884,79.46l-0.3,0.12l-0.42,0.24   l-0.061,0.06l-1.56,0.84l0,0l-0.721,0.3l-0.42,0.601l0.181,0.66l0.659,0.3l0.301-0.12l0.72-0.3l0.06-0.061l1.62-0.84V81.2   l0.48-0.24l0.359-0.6l-0.239-0.721L67.884,79.46L67.884,79.46z M62.243,82.22l-0.239,0.061l-1.44,0.479l-1.62,0.48l-0.479,0.479   l0.06,0.721l0.601,0.359l0.3-0.06l1.62-0.48h0.06l1.38-0.479l0.54-0.54l-0.12-0.721L62.243,82.22L62.243,82.22z M56.184,83.9h-0.24   l-0.66,0.119l0,0L53.544,84.2l0,0l-0.721,0.06l-0.6,0.36l-0.06,0.72l0.539,0.48l0.24,0.06l0.721-0.06h0.06l1.8-0.24h0.061   l0.659-0.12l0.54-0.42v-0.72L56.184,83.9L56.184,83.9z"/></g><text x="0" y="115" fill="#000000" font-size="5px" font-weight="bold" font-family="'Helvetica Neue', Helvetica, Arial-Unicode, Arial, Sans-serif">Created by artworkbean</text><text x="0" y="120" fill="#000000" font-size="5px" font-weight="bold" font-family="'Helvetica Neue', Helvetica, Arial-Unicode, Arial, Sans-serif">from the Noun Project</text></svg>