<svg xmlns="http://www.w3.org/2000/svg" xmlns:xlink="http://www.w3.org/1999/xlink" version="1.1" x="0px" y="0px" viewBox="0 0 100 125" style="enable-background:new 0 0 100 100;" xml:space="preserve"><g><path d="M71.2,39C71.2,39,71.2,39,71.2,39L71.2,39c-2.1-3.7-5.1-6.8-8.8-9c-11.6-7-26.8-3.2-33.8,8.4s-3.2,26.8,8.4,33.8   c3.7,2.2,7.9,3.4,12.1,3.5l0,0c0,0,0,0,0,0c0.1,0,0.2,0,0.3,0c0.3-0.1,0.5-0.2,0.6-0.5L71.2,40C71.4,39.7,71.4,39.3,71.2,39z    M30.4,39.4c6.4-10.7,20.3-14.2,31-7.8c2.9,1.7,5.3,4.1,7.2,6.9c-8,0.5-15.5,5-19.7,12c-4.2,7-4.7,15.7-1.3,23   c-3.3-0.3-6.6-1.4-9.4-3.1C27.4,64,24,50.1,30.4,39.4z M49.3,72.5c-3-6.7-2.6-14.6,1.3-21c3.2-5.3,8.3-9,14-10.4   c1.3-0.3,2.6-0.5,3.9-0.6L49.3,72.5z"/><path d="M73.3,57.4c-0.5-0.2-1.1,0.1-1.3,0.6c-0.4,1.1-0.9,2.3-1.4,3.4c-0.3,0.5-0.1,1.1,0.4,1.3c0.2,0.1,0.5,0.1,0.7,0.1   c0.3-0.1,0.5-0.2,0.6-0.5c0.6-1.2,1.1-2.4,1.5-3.6C74.1,58.2,73.8,57.6,73.3,57.4z"/><path d="M74.4,49.9c-0.6,0-1,0.4-1,1c-0.1,1.2-0.2,2.4-0.4,3.6c-0.1,0.5,0.3,1.1,0.8,1.2c0.1,0,0.3,0,0.4,0   c0.4-0.1,0.7-0.4,0.7-0.8c0.2-1.3,0.4-2.6,0.5-3.9C75.4,50.4,75,49.9,74.4,49.9z"/><path d="M74.5,43.1c-0.1-0.5-0.7-0.8-1.2-0.7c0,0,0,0,0,0c-0.5,0.1-0.9,0.7-0.7,1.2l0,0.2c0.3,1.1,0.5,2.3,0.6,3.4   c0.1,0.5,0.6,0.9,1.1,0.9c0,0,0.1,0,0.1,0c0.5-0.1,0.8-0.6,0.8-1.1c-0.1-1.2-0.3-2.5-0.6-3.7L74.5,43.1z"/><path d="M57.4,73.5c-1.1,0.4-2.1,0.8-3.2,1l-0.3,0.1c-0.5,0.1-0.9,0.7-0.7,1.2c0.1,0.5,0.7,0.9,1.2,0.7l0.3-0.1   c1.2-0.3,2.4-0.7,3.5-1.1c0.5-0.2,0.8-0.8,0.6-1.3C58.5,73.6,57.9,73.3,57.4,73.5z"/><path d="M68.7,64.5c-0.7,1-1.5,2-2.3,2.8c-0.4,0.4-0.4,1,0,1.4c0.3,0.2,0.6,0.3,0.9,0.2c0.2,0,0.4-0.1,0.5-0.3c0.9-1,1.7-2,2.5-3.1   c0.3-0.5,0.2-1.1-0.2-1.4C69.6,64,69,64.1,68.7,64.5z"/><path d="M63.7,69.9c-0.9,0.8-2,1.5-3,2.1c-0.5,0.3-0.6,0.9-0.4,1.4c0.2,0.4,0.7,0.6,1.1,0.5c0.1,0,0.2-0.1,0.3-0.1   c1.1-0.7,2.2-1.4,3.2-2.2c0.4-0.3,0.5-1,0.2-1.4C64.8,69.6,64.1,69.5,63.7,69.9z"/></g><text x="0" y="115" fill="#000000" font-size="5px" font-weight="bold" font-family="'Helvetica Neue', Helvetica, Arial-Unicode, Arial, Sans-serif">Created by Artem  Kovyazin</text><text x="0" y="120" fill="#000000" font-size="5px" font-weight="bold" font-family="'Helvetica Neue', Helvetica, Arial-Unicode, Arial, Sans-serif">from the Noun Project</text></svg>