<svg xmlns="http://www.w3.org/2000/svg" data-name="Ebene 1" viewBox="0 0 24 30" x="0px" y="0px"><title>Iconsset</title><path d="M8.44,4.24a.5.5,0,0,0,.2,0A8.42,8.42,0,0,1,10,3.75a.5.5,0,1,0-.24-1,9.37,9.37,0,0,0-1.5.51.5.5,0,0,0,.2,1Z"/><path d="M17.79,4.45a.5.5,0,1,0-.61.79,8.49,8.49,0,0,1,2.15,2.42.5.5,0,0,0,.86-.51A9.49,9.49,0,0,0,17.79,4.45Z"/><path d="M15.31,4.16a.49.49,0,0,0,.19,0,.5.5,0,0,0,.19-1,9.44,9.44,0,0,0-3.54-.73.48.48,0,0,0-.51.49.5.5,0,0,0,.49.51A8.45,8.45,0,0,1,15.31,4.16Z"/><path d="M20.47,11.05a.5.5,0,0,0,.5.45H21a.5.5,0,0,0,.44-.55,9.49,9.49,0,0,0-.31-1.55.5.5,0,1,0-1,.27A8.45,8.45,0,0,1,20.47,11.05Z"/><path d="M7.14,4.18a.5.5,0,0,0-.54,0A9.5,9.5,0,1,0,21.47,13a.5.5,0,0,0-.24-.48ZM7.4,5.49l12.18,7.18a8,8,0,0,1-4.07,1.12A8.13,8.13,0,0,1,7.39,5.68C7.39,5.62,7.4,5.56,7.4,5.49ZM12,20.5A8.48,8.48,0,0,1,6.39,5.66v0a9.13,9.13,0,0,0,9.12,9.12,9,9,0,0,0,4.9-1.46A8.47,8.47,0,0,1,12,20.5Z"/><text x="0" y="39" fill="#000000" font-size="5px" font-weight="bold" font-family="'Helvetica Neue', Helvetica, Arial-Unicode, Arial, Sans-serif">Created by Henning Gross</text><text x="0" y="44" fill="#000000" font-size="5px" font-weight="bold" font-family="'Helvetica Neue', Helvetica, Arial-Unicode, Arial, Sans-serif">from the Noun Project</text></svg>