<svg xmlns="http://www.w3.org/2000/svg" xmlns:xlink="http://www.w3.org/1999/xlink" version="1.1" x="0px" y="0px" viewBox="0 0 100 125" enable-background="new 0 0 100 100" xml:space="preserve"><path d="M87.873,26.823l-11.838-8.602c-0.917-0.699-1.983-1.03-3.044-1.068c-1.433-0.071-2.824,0.405-3.887,1.398  c0.22-2.572-1.28-5.074-3.813-5.883L51.4,8.148c-0.55-0.184-1.103-0.256-1.651-0.295c-2.019,0-3.887,1.066-4.912,2.795  c-0.514-2.5-2.747-4.375-5.427-4.375H24.819c-3.08,0-5.606,2.499-5.606,5.59v74.099c0,3.086,2.526,5.586,5.606,5.586h10.119  l3.84,2.428c2.93,2.024,6.527,1.311,8.211-0.631l42.755-59.76C90.733,31.233,90.036,28.403,87.873,26.823z M21.266,11.86  c0-1.984,1.575-3.492,3.554-3.492H39.41c1.982,0,3.484,1.507,3.484,3.492v15.181H21.266V11.86z M42.895,68.685h-21.63V49.94h21.63  V68.685z M42.895,47.882h-21.63V29.137h21.63V47.882z M44.984,16.492l1.32-4.08c0.439-1.397,1.686-2.354,3.041-2.462  c0.438-0.038,0.916,0.036,1.392,0.184l13.895,4.522c1.871,0.588,2.861,2.571,2.271,4.446l-4.689,14.481L44.984,27.96V16.492z   M44.981,30.166L44.981,30.166l16.571,5.402L55.795,53.36l-10.813-3.53V30.166z M44.981,71.701V52.037h0.001l10.193,3.308  l-5.758,17.789L44.981,71.701z M54.15,79.382l-3.742-2.684l6.085-18.745l8.617,6.286L54.15,79.382z M66.355,62.51l-9.201-6.617  l6.085-18.743l14.076,10.219L66.355,62.51z M87.437,33.437l-8.908,12.277L63.938,35.057l3.556-11.029l2.421-3.344  c0.73-0.995,1.832-1.508,2.968-1.471c0.659,0.035,1.394,0.257,1.98,0.697l11.806,8.564C88.243,29.651,88.574,31.857,87.437,33.437z"/><circle cx="24.355" cy="11.668" r="0.963"/><circle cx="30.135" cy="11.668" r="0.963"/><circle cx="33.214" cy="11.668" r="0.962"/><circle cx="39.375" cy="11.668" r="0.962"/><circle cx="24.355" cy="14.747" r="0.963"/><circle cx="30.135" cy="14.747" r="0.963"/><circle cx="33.214" cy="14.747" r="0.962"/><circle cx="39.375" cy="14.747" r="0.962"/><circle cx="24.355" cy="17.957" r="0.963"/><circle cx="30.135" cy="17.957" r="0.963"/><circle cx="33.214" cy="17.957" r="0.962"/><circle cx="39.375" cy="17.957" r="0.962"/><circle cx="24.355" cy="21.037" r="0.963"/><circle cx="30.135" cy="21.037" r="0.963"/><circle cx="33.214" cy="21.037" r="0.962"/><circle cx="39.375" cy="21.037" r="0.962"/><circle cx="24.355" cy="23.988" r="0.963"/><circle cx="26.958" cy="11.668" r="0.962"/><circle cx="26.958" cy="14.747" r="0.962"/><circle cx="26.958" cy="17.957" r="0.962"/><circle cx="26.958" cy="21.037" r="0.962"/><circle cx="26.958" cy="23.988" r="0.962"/><circle cx="30.135" cy="23.988" r="0.963"/><circle cx="33.214" cy="23.988" r="0.962"/><circle cx="36.294" cy="11.668" r="0.962"/><circle cx="36.294" cy="14.747" r="0.962"/><circle cx="36.294" cy="17.957" r="0.962"/><circle cx="36.294" cy="21.037" r="0.962"/><circle cx="36.294" cy="23.988" r="0.962"/><circle cx="39.375" cy="23.988" r="0.962"/><circle cx="24.353" cy="32.159" r="0.962"/><circle cx="30.135" cy="32.159" r="0.963"/><circle cx="33.214" cy="35.239" r="0.962"/><circle cx="39.375" cy="35.239" r="0.962"/><circle cx="24.353" cy="38.448" r="0.962"/><circle cx="30.135" cy="38.448" r="0.963"/><circle cx="33.214" cy="41.529" r="0.962"/><circle cx="39.375" cy="41.529" r="0.962"/><circle cx="24.353" cy="44.479" r="0.962"/><circle cx="26.958" cy="35.239" r="0.962"/><circle cx="26.958" cy="41.529" r="0.962"/><circle cx="30.135" cy="44.479" r="0.963"/><circle cx="36.294" cy="32.159" r="0.962"/><circle cx="36.294" cy="38.448" r="0.962"/><circle cx="36.294" cy="44.479" r="0.962"/><circle cx="29.295" cy="53.115" r="0.962"/><circle cx="38.535" cy="53.115" r="0.963"/><circle cx="24.675" cy="56.195" r="0.962"/><circle cx="33.916" cy="56.195" r="0.963"/><circle cx="29.295" cy="59.274" r="0.962"/><circle cx="38.535" cy="59.274" r="0.963"/><circle cx="24.675" cy="62.355" r="0.962"/><circle cx="33.916" cy="62.355" r="0.963"/><circle cx="29.295" cy="65.437" r="0.962"/><circle cx="38.535" cy="65.437" r="0.963"/><text x="0" y="115" fill="#000000" font-size="5px" font-weight="bold" font-family="'Helvetica Neue', Helvetica, Arial-Unicode, Arial, Sans-serif">Created by Kaitlin Till-Landry</text><text x="0" y="120" fill="#000000" font-size="5px" font-weight="bold" font-family="'Helvetica Neue', Helvetica, Arial-Unicode, Arial, Sans-serif">from the Noun Project</text></svg>