<svg xmlns="http://www.w3.org/2000/svg" xmlns:xlink="http://www.w3.org/1999/xlink" viewBox="0 0 84 105" version="1.1" xml:space="preserve" style="" x="0px" y="0px" fill-rule="evenodd" clip-rule="evenodd" stroke-linecap="round" stroke-linejoin="round" stroke-miterlimit="1.41421"><g transform="matrix(1,0,0,1,1,35)"><rect x="1" y="33" width="80" height="14" style="" fill="none" stroke-width="2.08px" stroke="black"/></g><g transform="matrix(2.83277e-16,1,-1,2.83277e-16,49,1)"><rect x="1" y="33" width="80" height="14" style="" fill="none" stroke-width="2.08px" stroke="black"/></g><g transform="matrix(1,0,0,1,1,35)"><rect x="1" y="33" width="80" height="14" style="" fill="none" stroke-width="2.08px" stroke="black"/></g><g transform="matrix(2.83277e-16,1,-1,2.83277e-16,49,1)"><rect x="1" y="33" width="80" height="14" style="" fill="none" stroke-width="2.08px" stroke="black"/></g><g transform="matrix(1.33333,0,0,1.33333,45.3333,64)"><circle cx="24.5" cy="10.5" r="1.5" style="" fill="black"/></g><g transform="matrix(1.33333,0,0,1.33333,45.3333,64)"><circle cx="24.5" cy="10.5" r="1.5" style="" fill="black"/></g><g transform="matrix(2.83277e-16,1,-1,2.83277e-16,49,-1.06581e-14)"><path d="M10,33L10,40" style="" fill="none" stroke-width="2.08px" stroke="black"/></g><g transform="matrix(2.83277e-16,1,-1,2.83277e-16,49,-1.06581e-14)"><path d="M10,33L10,40" style="" fill="none" stroke-width="2.08px" stroke="black"/></g><g transform="matrix(1,0,0,1,0,35)"><path d="M20,33L20,40" style="" fill="none" stroke-width="2.08px" stroke="black"/></g><g transform="matrix(2.83277e-16,1,-1,2.83277e-16,49,-1.06581e-14)"><path d="M20,33L20,40" style="" fill="none" stroke-width="2.08px" stroke="black"/></g><g transform="matrix(1,0,0,1,0,35)"><path d="M20,33L20,40" style="" fill="none" stroke-width="2.08px" stroke="black"/></g><g transform="matrix(2.83277e-16,1,-1,2.83277e-16,49,-1.06581e-14)"><path d="M20,33L20,40" style="" fill="none" stroke-width="2.08px" stroke="black"/></g><g transform="matrix(1,0,0,1,0,35)"><path d="M30,40L30,33" style="" fill="none" stroke-width="2.08px" stroke="black"/></g><g transform="matrix(2.83277e-16,1,-1,2.83277e-16,49,-1.06581e-14)"><path d="M30,40L30,33" style="" fill="none" stroke-width="2.08px" stroke="black"/></g><g transform="matrix(1,0,0,1,0,35)"><path d="M30,40L30,33" style="" fill="none" stroke-width="2.08px" stroke="black"/></g><g transform="matrix(2.83277e-16,1,-1,2.83277e-16,49,-1.06581e-14)"><path d="M30,40L30,33" style="" fill="none" stroke-width="2.08px" stroke="black"/></g><g transform="matrix(1,0,0,1,0,35)"><path d="M40,40L40,33" style="" fill="none" stroke-width="2.08px" stroke="black"/></g><g transform="matrix(2.83277e-16,1,-1,2.83277e-16,49,-1.06581e-14)"><path d="M40,40L40,33" style="" fill="none" stroke-width="2.08px" stroke="black"/></g><g transform="matrix(1,0,0,1,0,35)"><path d="M40,40L40,33" style="" fill="none" stroke-width="2.08px" stroke="black"/></g><g transform="matrix(2.83277e-16,1,-1,2.83277e-16,49,-1.06581e-14)"><path d="M40,40L40,33" style="" fill="none" stroke-width="2.08px" stroke="black"/></g><g transform="matrix(1,0,0,1,0,35)"><path d="M50,40L50,33" style="" fill="none" stroke-width="2.08px" stroke="black"/></g><g transform="matrix(2.83277e-16,1,-1,2.83277e-16,49,-1.06581e-14)"><path d="M50,40L50,33" style="" fill="none" stroke-width="2.08px" stroke="black"/></g><g transform="matrix(1,0,0,1,0,35)"><path d="M50,40L50,33" style="" fill="none" stroke-width="2.08px" stroke="black"/></g><g transform="matrix(2.83277e-16,1,-1,2.83277e-16,49,-1.06581e-14)"><path d="M50,40L50,33" style="" fill="none" stroke-width="2.08px" stroke="black"/></g><g transform="matrix(1,0,0,1,0,35)"><path d="M60,33L60,40" style="" fill="none" stroke-width="2.08px" stroke="black"/></g><g transform="matrix(2.83277e-16,1,-1,2.83277e-16,49,-1.06581e-14)"><path d="M60,33L60,40" style="" fill="none" stroke-width="2.08px" stroke="black"/></g><g transform="matrix(1,0,0,1,0,35)"><path d="M60,33L60,40" style="" fill="none" stroke-width="2.08px" stroke="black"/></g><g transform="matrix(2.83277e-16,1,-1,2.83277e-16,49,-1.06581e-14)"><path d="M60,33L60,40" style="" fill="none" stroke-width="2.08px" stroke="black"/></g><g transform="matrix(1,0,0,1,0,35)"><path d="M70,33L70,40" style="" fill="none" stroke-width="2.08px" stroke="black"/></g><g transform="matrix(1,0,0,1,0,35)"><path d="M70,33L70,40" style="" fill="none" stroke-width="2.08px" stroke="black"/></g><g transform="matrix(2.83277e-16,1,-1,2.83277e-16,49,-1.06581e-14)"><path d="M15,33L15,38" style="" fill="none" stroke-width="2.08px" stroke="black"/></g><g transform="matrix(2.83277e-16,1,-1,2.83277e-16,49,-1.06581e-14)"><path d="M15,33L15,38" style="" fill="none" stroke-width="2.08px" stroke="black"/></g><g transform="matrix(1,0,0,1,0,35)"><path d="M25,33L25,38" style="" fill="none" stroke-width="2.08px" stroke="black"/></g><g transform="matrix(2.83277e-16,1,-1,2.83277e-16,49,-1.06581e-14)"><path d="M25,33L25,38" style="" fill="none" stroke-width="2.08px" stroke="black"/></g><g transform="matrix(1,0,0,1,0,35)"><path d="M25,33L25,38" style="" fill="none" stroke-width="2.08px" stroke="black"/></g><g transform="matrix(2.83277e-16,1,-1,2.83277e-16,49,-1.06581e-14)"><path d="M25,33L25,38" style="" fill="none" stroke-width="2.08px" stroke="black"/></g><g transform="matrix(1,0,0,1,0,35)"><path d="M35,33L35,38" style="" fill="none" stroke-width="2.08px" stroke="black"/></g><g transform="matrix(2.83277e-16,1,-1,2.83277e-16,49,-1.06581e-14)"><path d="M35,33L35,38" style="" fill="none" stroke-width="2.08px" stroke="black"/></g><g transform="matrix(1,0,0,1,0,35)"><path d="M35,33L35,38" style="" fill="none" stroke-width="2.08px" stroke="black"/></g><g transform="matrix(2.83277e-16,1,-1,2.83277e-16,49,-1.06581e-14)"><path d="M35,33L35,38" style="" fill="none" stroke-width="2.08px" stroke="black"/></g><g transform="matrix(1,0,0,1,0,35)"><path d="M45,33L45,38" style="" fill="none" stroke-width="2.08px" stroke="black"/></g><g transform="matrix(2.83277e-16,1,-1,2.83277e-16,49,-1.06581e-14)"><path d="M45,33L45,38" style="" fill="none" stroke-width="2.08px" stroke="black"/></g><g transform="matrix(1,0,0,1,0,35)"><path d="M45,33L45,38" style="" fill="none" stroke-width="2.08px" stroke="black"/></g><g transform="matrix(2.83277e-16,1,-1,2.83277e-16,49,-1.06581e-14)"><path d="M45,33L45,38" style="" fill="none" stroke-width="2.08px" stroke="black"/></g><g transform="matrix(1,0,0,1,0,35)"><path d="M55,33L55,38" style="" fill="none" stroke-width="2.08px" stroke="black"/></g><g transform="matrix(2.83277e-16,1,-1,2.83277e-16,49,-1.06581e-14)"><path d="M55,33L55,38" style="" fill="none" stroke-width="2.08px" stroke="black"/></g><g transform="matrix(1,0,0,1,0,35)"><path d="M55,33L55,38" style="" fill="none" stroke-width="2.08px" stroke="black"/></g><g transform="matrix(2.83277e-16,1,-1,2.83277e-16,49,-1.06581e-14)"><path d="M55,33L55,38" style="" fill="none" stroke-width="2.08px" stroke="black"/></g><g transform="matrix(1,0,0,1,0,35)"><path d="M65,33L65,38" style="" fill="none" stroke-width="2.08px" stroke="black"/></g><g transform="matrix(2.83277e-16,1,-1,2.83277e-16,49,-1.06581e-14)"><path d="M65,33L65,38" style="" fill="none" stroke-width="2.08px" stroke="black"/></g><g transform="matrix(1,0,0,1,0,35)"><path d="M65,33L65,38" style="" fill="none" stroke-width="2.08px" stroke="black"/></g><g transform="matrix(2.83277e-16,1,-1,2.83277e-16,49,-1.06581e-14)"><path d="M65,33L65,38" style="" fill="none" stroke-width="2.08px" stroke="black"/></g><g transform="matrix(1,0,0,1,0,35)"><path d="M75,33L75,38" style="" fill="none" stroke-width="2.08px" stroke="black"/></g><g transform="matrix(1,0,0,1,0,35)"><path d="M75,33L75,38" style="" fill="none" stroke-width="2.08px" stroke="black"/></g><text x="0" y="99" fill="#000000" font-size="5px" font-weight="bold" font-family="'Helvetica Neue', Helvetica, Arial-Unicode, Arial, Sans-serif">Created by TS Graphics</text><text x="0" y="104" fill="#000000" font-size="5px" font-weight="bold" font-family="'Helvetica Neue', Helvetica, Arial-Unicode, Arial, Sans-serif">from the Noun Project</text></svg>