<svg xmlns="http://www.w3.org/2000/svg" xmlns:xlink="http://www.w3.org/1999/xlink" version="1.1" x="0px" y="0px" viewBox="-255 347 100 125" enable-background="new -255 347 100 100" xml:space="preserve"><path fill="#000000" d="M-198.6,422C-198.6,422-198.6,422-198.6,422h-13c-0.7,0-1.3-0.4-1.7-0.9c-0.4-0.6-0.4-1.3-0.1-1.9l2.8-5.6  l0-28.5h-11.3l-4.5,3.6c-0.6,0.5-1.4,0.6-2.1,0.2c-0.7-0.3-1.1-1-1.1-1.8l0-11c0-1.1,0.9-2,2-2h45c1.1,0,2,0.9,2,2v11  c0,0.8-0.4,1.5-1.1,1.8c-0.7,0.3-1.5,0.2-2.1-0.2l-4.5-3.6h-11.3v28.5l2.7,5.3c0.2,0.3,0.3,0.7,0.3,1.1  C-196.6,421.1-197.5,422-198.6,422z M-208.4,418h6.5l-1.6-3.1c-0.1-0.3-0.2-0.6-0.2-0.9v-31c0-1.1,0.9-2,2-2h14  c0.5,0,0.9,0.2,1.2,0.4l1.8,1.4V378h-41l0,4.8l1.8-1.4c0.4-0.3,0.8-0.4,1.2-0.4h14c0.5,0,1,0.2,1.4,0.6s0.6,0.9,0.6,1.4l0,31  c0,0.3-0.1,0.6-0.2,0.9L-208.4,418z"/><text x="-255" y="462" fill="#000000" font-size="5px" font-weight="bold" font-family="'Helvetica Neue', Helvetica, Arial-Unicode, Arial, Sans-serif">Created by Elliot Midson</text><text x="-255" y="467" fill="#000000" font-size="5px" font-weight="bold" font-family="'Helvetica Neue', Helvetica, Arial-Unicode, Arial, Sans-serif">from the Noun Project</text></svg>