<svg xmlns="http://www.w3.org/2000/svg" xmlns:xlink="http://www.w3.org/1999/xlink" version="1.1" x="0px" y="0px" viewBox="0 0 100 125" style="enable-background:new 0 0 100 100;" xml:space="preserve"><g><path d="M65.8,96.8H31.3c-1.3,0-2.4-1.1-2.4-2.4c0-1.3,1.1-2.4,2.4-2.4h1.9c3.3,0,5.5-0.9,6.8-2.9c0.4-0.7,1.2-2.7,1.2-8.9V20.3   c0-3.9-3.1-7.2-6.9-7.2h-2.3c-3.9,0-6.7,0.3-8.2,0.8c-2,0.7-3.7,2.2-5.1,4.3c-1.3,2-2.2,4.6-2.5,8c-0.1,1.3-1.2,2.2-2.4,2.2   c-0.8,0-1.4-0.3-1.9-0.7c-0.5-0.5-0.7-1.1-0.7-1.8l0-17.4c0-2.9,2.3-5.3,5.2-5.3h64.9c2.9,0,5.2,2.4,5.2,5.3l0,17.5   c0,0.6-0.2,1.3-0.7,1.8c-0.5,0.5-1.1,0.7-1.7,0.7c-1.4,0-2.4-0.9-2.5-2.1c-0.4-3-1-5.2-1.7-6.5c-1.2-2.3-2.8-4-4.8-5.1   c-2-1.1-4.7-1.7-8.1-1.7h-4.1c-3.8,0-6.9,3.2-6.9,7.2v59.8c0,6.8,0.9,8.8,1.4,9.5c1.4,1.5,3.6,2.3,6.6,2.3h1.8   c1.3,0,2.4,1.1,2.4,2.4C68.2,95.7,67.1,96.8,65.8,96.8z M31.9,10.7h2.3c5.2,0,9.4,4.3,9.4,9.6v59.8c0,5.4-0.5,8.6-1.6,10.3   c-1.7,2.6-4.7,3.9-8.7,4l29.9,0c-3.4-0.1-6-1.2-7.7-3.2c-1.4-1.6-2-5.2-2-11.1V20.3c0-5.3,4.2-9.6,9.4-9.6h4.1c3.8,0,6.9,0.7,9.3,2   c2.4,1.3,4.4,3.4,5.8,6.1c0.8,1.6,1.4,3.9,1.9,7.2L84,8.5c0-1.6-1.2-2.9-2.8-2.9H16.4c-1.5,0-2.8,1.3-2.8,2.9l0,17.5   c0.4-3.7,1.4-6.7,3-9c1.7-2.6,3.8-4.3,6.3-5.3C24.7,11.1,27.7,10.7,31.9,10.7z"/></g><text x="0" y="115" fill="#000000" font-size="5px" font-weight="bold" font-family="'Helvetica Neue', Helvetica, Arial-Unicode, Arial, Sans-serif">Created by SlideGenius</text><text x="0" y="120" fill="#000000" font-size="5px" font-weight="bold" font-family="'Helvetica Neue', Helvetica, Arial-Unicode, Arial, Sans-serif">from the Noun Project</text></svg>