<svg xmlns="http://www.w3.org/2000/svg" xmlns:xlink="http://www.w3.org/1999/xlink" version="1.1" x="0px" y="0px" viewBox="0 0 100 125" enable-background="new 0 0 100 100" xml:space="preserve"><g><g><g><path d="M76.796,71.007c0.146,2.15,0.349,4.289,0.619,6.398c0,3.964-12.263,7.177-27.391,7.177     c-15.128,0-27.391-3.213-27.391-7.177h0.001c0.271-2.113,0.474-4.255,0.619-6.407C12.18,73.143,5,76.583,5,80.464     c0,6.501,20.147,11.771,45,11.771c24.854,0,45-5.27,45-11.771C95,76.589,87.841,73.152,76.796,71.007z"/></g><path d="M81.816,17.57c-0.853,4.201-14.758,7.543-31.793,7.543c-17.032,0-30.94-3.34-31.793-7.54c0,0,6.329,25.827,5.157,50.938    c1.208,3.558,12.669,6.349,26.636,6.349c13.971,0,25.433-2.791,26.637-6.351C75.491,43.442,81.794,17.662,81.816,17.57z"/><path d="M81.857,15.715c0,0.134-0.012,0.266-0.039,0.398c-0.83,4.205-14.748,7.551-31.794,7.551c-17.032,0-30.94-3.34-31.793-7.54    c-0.028-0.135-0.041-0.272-0.041-0.409c0-4.39,14.253-7.949,31.834-7.949C67.605,7.766,81.857,11.324,81.857,15.715z"/></g></g><text x="0" y="115" fill="#000000" font-size="5px" font-weight="bold" font-family="'Helvetica Neue', Helvetica, Arial-Unicode, Arial, Sans-serif">Created by Juan Pablo Bravo</text><text x="0" y="120" fill="#000000" font-size="5px" font-weight="bold" font-family="'Helvetica Neue', Helvetica, Arial-Unicode, Arial, Sans-serif">from the Noun Project</text></svg>