<svg xmlns="http://www.w3.org/2000/svg" xmlns:xlink="http://www.w3.org/1999/xlink" version="1.1" x="0px" y="0px" viewBox="0 0 100 125" enable-background="new 0 0 100 100" xml:space="preserve"><g><polygon fill="none" points="5.364,89.337 5.364,94.351 10.378,89.337  "/><polygon fill="none" points="21.369,78.712 57.043,78.712 21.369,43.038  "/><polygon fill="none" points="5.364,69.149 5.364,75.065 10.845,75.065 10.845,75.88 5.364,75.88 5.364,81.793 10.845,81.793    10.845,82.608 5.364,82.608 5.364,88.522 11.194,88.522 19.739,79.976 19.739,39.102 40.177,59.539 49.289,50.427 7.458,8.594    5.364,8.594 5.364,14.507 10.845,14.507 10.845,15.322 5.364,15.321 5.364,21.235 10.845,21.235 10.845,22.051 5.364,22.051    5.364,27.964 14.073,27.964 14.073,28.78 10.845,28.78 10.845,28.78 5.364,28.78 5.364,34.692 10.845,34.692 10.845,35.508    5.364,35.508 5.364,41.422 10.845,41.422 10.845,42.236 5.364,42.236 5.364,48.149 10.845,48.149 10.845,48.966 5.364,48.966    5.364,54.878 10.845,54.878 10.845,55.694 5.364,55.694 5.364,61.606 14.073,61.606 14.073,62.423 5.364,62.423 5.364,68.336    10.845,68.336 10.845,69.149  "/><polygon fill="none" points="91.409,94.64 91.409,92.545 49.579,50.714 40.465,59.828 60.98,80.344 19.946,80.344 11.481,88.812    11.481,94.64 17.396,94.64 17.396,89.295 18.21,89.295 18.21,94.64 24.123,94.64 24.123,89.295 24.938,89.295 24.938,94.64    30.853,94.64 30.853,89.295 31.667,89.295 31.667,94.64 37.58,94.64 37.58,86.067 38.396,86.067 38.396,94.64 44.31,94.64    44.31,89.295 45.124,89.295 45.124,94.64 51.037,94.64 51.037,89.295 51.854,89.295 51.854,94.64 57.766,94.64 57.766,89.295    58.581,89.295 58.581,94.64 64.496,94.64 64.496,89.295 65.311,89.295 65.311,94.64 71.222,94.64 71.222,89.295 71.222,86.067    72.039,86.067 72.039,89.295 72.039,94.64 77.952,94.64 77.952,89.295 78.768,89.295 78.768,94.64 84.681,94.64 84.681,89.295    85.497,89.295 85.497,94.64  "/><polygon fill="none" points="5.651,94.64 10.666,94.64 10.666,89.626  "/><polygon fill="none" points="6.644,7.778 5.364,6.501 5.364,7.778  "/><polygon fill="none" points="92.225,93.36 92.225,94.64 93.503,94.64  "/><path fill="#000000" d="M3.325,1.578v95.1h95.1L3.325,1.578z M84.681,89.295v5.345h-5.913v-5.345h-0.815v5.345h-5.913v-5.345   v-3.228h-0.816v3.228v5.345h-5.912v-5.345h-0.813v5.345h-5.915v-5.345h-0.814v5.345h-5.912v-5.345h-0.816v5.345h-5.913v-5.345   h-0.814v5.345h-5.914v-8.572h-0.814v8.572H31.67v-5.345h-0.815v5.345h-5.912v-5.345h-0.815v5.345h-5.913v-5.345h-0.814v5.345   h-5.914v-5.828l8.467-8.468H60.98L40.465,59.828l9.114-9.114l41.83,41.831v2.095h-5.912v-5.345H84.681z M5.364,68.336v-5.913h8.709   v-0.816H5.364v-5.912h5.479v-0.815H5.364v-5.912h5.479v-0.816H5.364v-5.913h5.479v-0.814H5.364V35.51h5.479v-0.815H5.364v-5.912   h5.479l0,0h3.229v-0.816H5.364v-5.913h5.479v-0.815H5.364v-5.914l5.479,0.001v-0.815H5.364V8.598h2.094l41.831,41.833l-9.112,9.112   L19.739,39.102v40.874l-8.545,8.547h-5.83v-5.914h5.479v-0.815H5.364V75.88h5.479v-0.814H5.364v-5.914h5.479v-0.814L5.364,68.336   L5.364,68.336z M57.043,78.712H21.37V43.038L57.043,78.712z M5.364,89.337h5.014l-5.014,5.014V89.337z M5.651,94.64l5.015-5.014   v5.014H5.651z M92.225,93.36l1.278,1.279h-1.278V93.36L92.225,93.36z M6.644,7.778H5.366V6.501L6.644,7.778z"/></g><text x="0" y="115" fill="#000000" font-size="5px" font-weight="bold" font-family="'Helvetica Neue', Helvetica, Arial-Unicode, Arial, Sans-serif">Created by Dávid Gladiš</text><text x="0" y="120" fill="#000000" font-size="5px" font-weight="bold" font-family="'Helvetica Neue', Helvetica, Arial-Unicode, Arial, Sans-serif">from the Noun Project</text></svg>