<svg xmlns="http://www.w3.org/2000/svg" xmlns:xlink="http://www.w3.org/1999/xlink" version="1.1" x="0px" y="0px" viewBox="0 0 95 118.75" enable-background="new 0 0 95 95" xml:space="preserve"><path fill="#000000" d="M94.113,92.948H2.052V0.886L94.113,92.948z M7.052,87.948h74.991L7.052,12.957V87.948z"/><path fill="#000000" d="M61.251,80.624H19.853V39.226L61.251,80.624z M24.853,75.624h24.328L24.853,51.297V75.624z"/><path fill="#000000" d="M14.137,36.807H5.921c-1.381,0-2.5-1.119-2.5-2.5s1.119-2.5,2.5-2.5h8.216c1.381,0,2.5,1.119,2.5,2.5  S15.518,36.807,14.137,36.807z"/><path fill="#000000" d="M11.398,47.761H5.921c-1.381,0-2.5-1.119-2.5-2.5s1.119-2.5,2.5-2.5h5.477c1.381,0,2.5,1.119,2.5,2.5  S12.779,47.761,11.398,47.761z"/><path fill="#000000" d="M14.137,58.716H5.921c-1.381,0-2.5-1.119-2.5-2.5s1.119-2.5,2.5-2.5h8.216c1.381,0,2.5,1.119,2.5,2.5  S15.518,58.716,14.137,58.716z"/><path fill="#000000" d="M11.398,69.67H5.921c-1.381,0-2.5-1.119-2.5-2.5s1.119-2.5,2.5-2.5h5.477c1.381,0,2.5,1.119,2.5,2.5  S12.779,69.67,11.398,69.67z"/><path fill="#000000" d="M14.137,80.624H5.921c-1.381,0-2.5-1.119-2.5-2.5s1.119-2.5,2.5-2.5h8.216c1.381,0,2.5,1.119,2.5,2.5  S15.518,80.624,14.137,80.624z"/><path fill="#000000" d="M92.885,69.236l-15.67-3.916l-0.489-0.49L25.664,13.768L37.415,2.017l51.552,51.552L92.885,69.236z   M79.771,60.805l6.24,1.561l-1.561-6.24L37.415,9.088l-4.68,4.68L79.771,60.805z"/><path fill="#000000" d="M37.415,24.483c-0.64,0-1.28-0.244-1.768-0.732c-0.977-0.976-0.977-2.559,0-3.535L43.863,12  c0.976-0.977,2.56-0.977,3.535,0c0.977,0.976,0.977,2.559,0,3.535l-8.216,8.215C38.695,24.239,38.055,24.483,37.415,24.483z"/><text x="0" y="110" fill="#000000" font-size="5px" font-weight="bold" font-family="'Helvetica Neue', Helvetica, Arial-Unicode, Arial, Sans-serif">Created by Vladimir Matsak</text><text x="0" y="115" fill="#000000" font-size="5px" font-weight="bold" font-family="'Helvetica Neue', Helvetica, Arial-Unicode, Arial, Sans-serif">from the Noun Project</text></svg>