<?xml version="1.0" encoding="UTF-8"?>
<svg width="114px" height="115px" viewBox="0 0 114 115" version="1.1" xmlns="http://www.w3.org/2000/svg" xmlns:xlink="http://www.w3.org/1999/xlink">
    <!-- Generator: Sketch 42 (36781) - http://www.bohemiancoding.com/sketch -->
    <title>Combined Shape</title>
    <desc>Created with Sketch.</desc>
    <defs></defs>
    <g id="Page-7" stroke="none" stroke-width="1" fill="none" fill-rule="evenodd">
        <path d="M57.0098454,0.5 C88.270472,0.496890909 113.737871,25.7074727 113.997997,57.0263818 C114.259158,88.5059273 88.9523939,114.236764 57.4730963,114.497927 C57.3134975,114.498964 57.1497534,114.5 56.9901546,114.5 C25.729528,114.5 0.262128527,89.2935636 0.00200330219,57.9736182 C-0.259158278,26.4940727 25.0476061,0.763236364 56.5269037,0.502072727 C56.6865025,0.501036364 56.8502466,0.5 57.0098454,0.5 Z M81.0615823,44.89034 C79.285269,45.6955945 77.3731931,46.2459036 75.3647362,46.5029218 C77.4073929,45.2561763 78.9671079,43.29434 79.6894476,40.9666672 C77.7794445,42.1222127 75.6580248,42.9668491 73.3966972,43.4321763 C71.5675298,41.5149036 68.973532,40.3282672 66.1142272,40.3521036 C60.6236159,40.3977036 56.2097779,44.8861945 56.2553776,50.3768491 C56.2615957,51.1561945 56.3559041,51.9137763 56.5310481,52.6402672 C48.2650769,52.2941218 40.906953,48.3973945 35.9542101,42.4227581 C35.1106168,43.89854 34.6338933,45.6106127 34.6494386,47.4315036 C34.6784565,50.8815581 36.4589153,53.9098127 39.1410032,55.6705945 C37.5108161,55.6322491 35.9739009,55.1980127 34.6276751,54.4642672 L34.6276751,54.5886309 C34.668093,59.4056491 38.1284839,63.3956491 42.6832663,64.2713763 C41.8510728,64.5055945 40.9743161,64.6341036 40.067505,64.6413581 C39.4270373,64.64654 38.8031513,64.58954 38.1948107,64.4786491 C39.4933641,68.4178672 43.1890077,71.2616491 47.539628,71.3062127 C44.1590365,74.0007581 39.8861428,75.6257763 35.227725,75.6641218 C34.4255858,75.67034 33.6338102,75.6299218 32.8555073,75.54494 C37.2786724,78.3296491 42.5174494,79.9318672 48.1324234,79.8852309 C66.4178794,79.7328854 76.2922744,64.5014491 76.1824207,51.3634672 C76.1793116,50.9333763 76.165839,50.5043218 76.1430392,50.0783763 C78.0737694,48.6606309 79.7454108,46.8946672 81.0615823,44.89034 Z M57.0150272,0.5 L57.0150272,3.60909091 L57.0150272,3.60909091 C71.3136237,3.60909091 84.7831358,9.15570909 94.9414922,19.2270909 C105.106067,29.3036545 110.769749,42.737 110.88893,57.0522909 C111.135583,86.7669091 87.1615716,111.142182 57.4482237,111.388836 L56.9901546,111.390909 C42.6905218,111.390909 29.2199733,105.844291 19.0595442,95.7739455 C8.89393329,85.6973818 3.23025061,72.263 3.11106973,57.9477091 C2.86441713,28.2330909 26.8384284,3.85781818 56.5517763,3.61116364 L57.0098454,3.60909091 L57.0150272,0.5" id="Combined-Shape" fill="#439BD5"></path>
    </g>
</svg>