<svg xmlns="http://www.w3.org/2000/svg" xmlns:xlink="http://www.w3.org/1999/xlink" version="1.1" x="0px" y="0px" viewBox="0 0 96 120" enable-background="new 0 0 96 96" xml:space="preserve"><path d="M51.036,66.204h-20c-1.736,0-3.264,1.108-3.804,2.756l-7.204,22.092c-0.684,2.101,0.464,4.36,2.564,5.04  c0.416,0.141,0.832,0.204,1.244,0.204c1.684,0,3.252-1.08,3.804-2.756l6.3-19.336h17.096c2.208,0,4-1.788,4-4  S53.244,66.204,51.036,66.204z"/><path d="M36.812,36.624l-2.784,8.352c-0.7,2.088,0.428,4.36,2.528,5.064c0.42,0.14,0.848,0.204,1.264,0.204  c1.676,0,3.236-1.064,3.788-2.736l2.784-8.352c0.7-2.092-0.428-4.36-2.528-5.06C39.772,33.388,37.512,34.532,36.812,36.624z"/><path d="M43.796,2.436C43.252,0.804,41.724-0.3,40.004-0.3c-1.728,0-3.252,1.1-3.796,2.736l-24.336,73  c-0.7,2.092,0.428,4.36,2.528,5.064c2.104,0.704,4.364-0.428,5.06-2.532l5.256-15.756h30.316c0.084,0,0.151-0.048,0.235-0.056  l5.272,15.812c0.56,1.681,2.12,2.744,3.796,2.744c0.416,0,0.844-0.071,1.26-0.204c2.096-0.703,3.232-2.968,2.532-5.072L43.796,2.436  L43.796,2.436z M27.384,54.204l12.62-37.852l12.607,37.852H27.384z"/><path d="M84.128,87.436l-24.332-73c-0.7-2.092-2.956-3.236-5.056-2.532c-2.092,0.704-3.229,2.968-2.528,5.068l24.332,73  c0.56,1.68,2.12,2.743,3.796,2.743c0.416,0,0.844-0.071,1.26-0.204C83.7,91.796,84.832,89.532,84.128,87.436z"/><text x="0" y="111" fill="#000000" font-size="5px" font-weight="bold" font-family="'Helvetica Neue', Helvetica, Arial-Unicode, Arial, Sans-serif">Created by iconsmind.com</text><text x="0" y="116" fill="#000000" font-size="5px" font-weight="bold" font-family="'Helvetica Neue', Helvetica, Arial-Unicode, Arial, Sans-serif">from the Noun Project</text></svg>