<svg xmlns="http://www.w3.org/2000/svg" xmlns:xlink="http://www.w3.org/1999/xlink" version="1.1" x="0px" y="0px" viewBox="0 0 96 120" enable-background="new 0 0 96 96" xml:space="preserve"><path d="M85.576,38.64l-4.508-6.308c-0.725-1.008-1.885-1.608-3.12-1.608h-33.68V7.684h16.339l3.36,4.696  c0.748,1.048,1.925,1.612,3.12,1.612c0.768,0,1.553-0.236,2.232-0.72c1.724-1.232,2.119-3.632,0.892-5.356l-4.508-6.308  C64.988,0.6,63.824,0,62.584,0H17.872c-1.224,0-2.376,0.58-3.1,1.576l-4.32,5.916c-1.252,1.7-0.876,4.1,0.832,5.352  c1.72,1.26,4.112,0.884,5.364-0.832l3.176-4.332h16.768v23.04h-3.36c-1.224,0-2.376,0.584-3.096,1.576l-4.32,5.912  c-1.252,1.708-0.88,4.108,0.832,5.36c1.716,1.256,4.112,0.88,5.364-0.832L35.18,38.4h1.408v19.2h-3.84  c-2.116,0-3.84,1.717-3.84,3.84c0,2.121,1.724,3.841,3.84,3.841h15.36c2.117,0,3.839-1.72,3.839-3.841  c0-2.123-1.727-3.84-3.839-3.84h-3.84V38.4h7.679v49.92h-3.839c-2.12,0-3.84,1.72-3.84,3.84c0,2.119,1.72,3.84,3.84,3.84h15.36  c2.112,0,3.841-1.721,3.841-3.84c0-2.12-1.729-3.84-3.841-3.84h-3.84V38.4h16.345l3.352,4.696c0.752,1.048,1.924,1.612,3.123,1.612  c0.769,0,1.553-0.24,2.24-0.72C86.408,42.76,86.805,40.36,85.576,38.64z"/><text x="0" y="111" fill="#000000" font-size="5px" font-weight="bold" font-family="'Helvetica Neue', Helvetica, Arial-Unicode, Arial, Sans-serif">Created by iconsmind.com</text><text x="0" y="116" fill="#000000" font-size="5px" font-weight="bold" font-family="'Helvetica Neue', Helvetica, Arial-Unicode, Arial, Sans-serif">from the Noun Project</text></svg>