<?xml version="1.0" encoding="UTF-8"?>
<svg width="29px" height="28px" viewBox="0 0 29 28" version="1.1" xmlns="http://www.w3.org/2000/svg" xmlns:xlink="http://www.w3.org/1999/xlink">
    <!-- Generator: Sketch 43.2 (39069) - http://www.bohemiancoding.com/sketch -->
    <title>Shape</title>
    <desc>Created with Sketch.</desc>
    <defs></defs>
    <g id="Page-1" stroke="none" stroke-width="1" fill="none" fill-rule="evenodd">
        <path d="M18.1210856,28 L18.1210856,28 L10.5219207,28 C10.1127349,28 9.76200418,27.7661795 9.52818372,27.473904 C9.29436326,27.1231733 9.29436326,26.7139875 9.4697286,26.3632568 L11.1064718,23.0897704 L11.1064718,6.43006263 L4.50104384,6.43006263 L1.87056367,8.53444676 C1.51983299,8.82672234 1.05219207,8.88517745 0.643006263,8.65135699 C0.233820459,8.47599165 0,8.06680585 0,7.59916493 L0,1.1691023 C0,0.526096033 0.526096033,0 1.1691023,0 L27.473904,0 C28.1169102,0 28.6430063,0.526096033 28.6430063,1.1691023 L28.6430063,7.59916493 C28.6430063,8.06680585 28.4091858,8.47599165 28,8.65135699 C27.5908142,8.82672234 27.1231733,8.76826722 26.7724426,8.53444676 L24.1419624,6.43006263 L17.5365344,6.43006263 L17.5365344,23.0897704 L19.1148225,26.1878914 C19.2317328,26.3632568 19.2901879,26.5970772 19.2901879,26.8308977 C19.2901879,27.473904 18.7640919,28 18.1210856,28 Z M12.3924843,25.6617954 L16.1920668,25.6617954 L15.256785,23.8496868 C15.1983299,23.6743215 15.1398747,23.4989562 15.1398747,23.3235908 L15.1398747,5.20250522 C15.1398747,4.55949896 15.6659708,4.03340292 16.308977,4.03340292 L24.4926931,4.03340292 C24.7849687,4.03340292 25.0187891,4.15031315 25.1941545,4.26722338 L26.2463466,5.08559499 L26.2463466,2.27974948 L2.27974948,2.27974948 L2.27974948,5.08559499 L3.33194154,4.26722338 C3.565762,4.09185804 3.79958246,4.03340292 4.03340292,4.03340292 L12.217119,4.03340292 C12.5093946,4.03340292 12.8016701,4.15031315 13.0354906,4.38413361 C13.2693111,4.61795407 13.3862213,4.91022965 13.3862213,5.20250522 L13.3862213,23.3235908 C13.3862213,23.4989562 13.3277662,23.6743215 13.2693111,23.8496868 L12.3924843,25.6617954 Z" id="Shape" fill="#25D8FC" fill-rule="nonzero"></path>
    </g>
</svg>