<?xml version="1.0" encoding="utf-8"?>
<!-- Generator: Adobe Illustrator 19.2.1, SVG Export Plug-In . SVG Version: 6.00 Build 0)  -->
<svg version="1.1" id="Layer_1" xmlns="http://www.w3.org/2000/svg" xmlns:xlink="http://www.w3.org/1999/xlink" x="0px" y="0px"
	 viewBox="0 0 648 140" style="enable-background:new 0 0 648 140;" xml:space="preserve">
<style type="text/css">
	.st0{fill:none;stroke:#000000;stroke-width:2;stroke-linecap:round;stroke-linejoin:round;stroke-miterlimit:10;}
</style>
<g>
	<path d="M619.7,81.5c1.3-2.1,1.7-3.7,0.8-5.5c-0.3-0.7-0.1-1.7-0.1-2.6c0-20.2,0-40.5,0-60.9c0.4-0.3,1-0.7,1.9-1.4
		c3.1,0,6.8-0.1,10.4,0c3.6,0.1,7.2-0.6,10.9,0.6c0,1,0,2,0,2.9c0,35.4,0,70.9,0,106.3c0,1.1-0.2,2.1,0.4,3.3
		c0.5,0.9-0.2,2.3-0.3,3.3c-3.6,1.3-7,0.9-10.4,0.9c-3.4,0-6.9,0.4-10.7-0.8c-0.9-1.3-2.4-2.9-3.4-4.7c-2.3-4-4.9-7.6-7.4-11.5
		c-1.8-2.8-3.5-5.5-5.4-8.2c-2.2-3.1-4.1-6.4-6.2-9.6c-1.9-2.9-3.7-5.9-5.6-8.7c-1.2-1.8-2.5-3.4-3.7-5.2c-0.7-1-1.4-2.2-2-3.3
		c-1.5-3-3.6-5.5-5.4-8.2c-0.9-1.4-2-2.6-2.5-4.2c-0.7-2.3-2.6-3.7-4.1-5.3c-0.8,0.4-1,1-0.9,1.8c0.2,1.5-0.2,2.9,0.5,4.4
		c0.4,0.9,0.4,2.3,0,3.1c-0.6,1.1-0.5,2.2-0.5,3.3c0,14.3,0,28.7,0,43c0,4-0.4,8,0.8,11.8c-0.9,0.8-1.5,1.5-2.3,2.2
		c-5.9,0-11.8,0-17.7,0c-1.2,0-2.4-0.1-3.4-0.8c0-38.6,0-77.2,0-115.7c0.3-0.3,0.5-0.5,0.8-0.8c6,0,12,0,18.1,0
		c0.8,0,1.6,0.4,2.3,0.6c1.1,2.8,2.9,5.1,4.5,7.5c0.8,1.1,1.6,2.2,2.3,3.4c1.7,3,3.5,6,5.8,8.7c0.8,1,1.4,2.2,2,3.3
		c1.9,3.2,4,6.3,6,9.4c2.1,3.2,4.1,6.5,6.2,9.6c1.6,2.4,3.3,4.8,4.8,7.3c1.4,2.2,2.9,4.4,4.2,6.7c1.3,2.3,3,4.4,4.5,6.6
		c0.7,1,1.2,2,1.8,3c0.3,0.6,0.5,1.3,0.9,1.9C618.3,79.9,618.9,80.5,619.7,81.5z"/>
	<path d="M492.5,69.8c0,1.7,0.3,3.5-0.1,5.2c-0.9,4.5-0.1,9-0.6,13.4c-0.6,4.8-1.1,9.6-2.8,14.2c-1,2.8-1.5,5.8-3.8,8
		c-0.7,2.4-2.7,3.8-4.3,5.5c-4.1,4.4-9,7.6-14.4,10.1c-0.9,0.4-1.8,0.8-2.7,1.2c-0.4,0.2-0.8,0.6-1.2,0.5c-3-0.2-5.8,1.4-8.8,1.2
		c-2.5,1.2-5.1,0.4-7.6,0.5c-1,0.1-2-0.3-3-0.5c-1.1-0.2-2.2,0.3-3.3-0.5c-0.7-0.5-2,0.3-2.9-0.6c-0.1-0.1-0.6,0-0.8,0
		c-3.6,0.3-6.4-1.9-9.4-3.3c-2-1-3.7-2.7-5.8-3.6c-0.2-0.1-0.5-0.3-0.7-0.5c-1.2-1-2.6-1.9-3.6-3.1c-1.6-1.7-3-3.6-4.3-5.5
		c-1.9-2.7-4.9-9.5-5.8-12.7c-0.3-1.3-0.3-2.8-0.7-4.1c-1-3.7-0.1-7.5-0.7-11.1c-0.6-3.9-0.4-7.8-0.5-11.7c-0.1-4-0.1-7.9,0-11.9
		c0-2.2,0.4-4.3,0.5-6.4c0.1-2.1-0.3-4.3,0.1-6.4c0.3-1.6,0.2-3.2,0.6-4.7c0.4-1.5,1-2.9,1.1-4.5c0-0.2,0.1-0.3,0.2-0.5
		c2-3.1,2.7-6.8,5-9.9c2.3-3.1,4.9-5.7,7.3-7.7c3.6-3,7.7-5.1,11.9-7.1c1.6-0.8,3.2-1.2,4.9-1.6c2.4-0.6,4.7-0.3,7-0.5
		c1-0.1,2-0.4,3-0.5c1.1-0.1,2.2,0.1,3.2-0.1c1.7-0.3,3.1,0.7,4.7,0.6c1.6,0,3.4-0.3,4.9,0.1c1.7,0.4,3.5,0.7,5.2,1.5
		c3.1,1.6,6.2,3.3,9.3,5c3,1.7,5.5,3.9,7.8,6.3c1.8,1.9,3.2,4.1,4.5,6.3c1.2,1.9,2.1,3.9,2.8,6.1c0.7,2.1,1.3,4.3,2,6.4
		c0.4,1.2,0.3,2.5,0.5,3.8c0.4,2.7,0.9,5.4,0.7,8.2c-0.2,2.1-0.2,4.3,0,6.4c0.2,1.4,0.6,2.7,0.5,4.1
		C492.5,66.9,492.5,68.4,492.5,69.8z M468.7,67.7c0-4.4,0-8.7,0-13.1c0-1.9,0.1-3.7-0.5-5.6c-0.7-2.2-0.7-4.7-2.2-6.6
		c-0.1-0.1-0.1-0.2-0.1-0.2c-0.1-1.7-1.3-3.1-2.2-4.3c-2.4-3.2-5.6-5.4-9.5-6.4c-0.6-0.2-1.2-0.5-1.8-0.5c-2.6-0.1-5.2-0.1-7.8,0
		c-0.5,0-1,0.3-1.5,0.5c-4.3,1-7.6,3.7-10.4,7c-1.1,1.3-2.2,2.9-2.2,4.9c0,0.7-0.4,1.4-0.5,2.1c-0.1,0.7,0.1,1.6-0.2,2.2
		c-1,2.8-1.4,5.8-1.5,8.6c-0.2,10.1-0.1,20.1-0.1,30.2c0,0.7,0.1,1.4,0.3,2.2c0.8,2.6,1.4,5.2,2,7.9c0.4,2.1,1.1,4,2.8,5.5
		c1,0.9,1.9,1.9,2.9,2.9c1.2,1.2,4.1,3.1,5,3.3c1.6,0.2,3.1,0.2,4.7,0.5c2,0.4,4.3,0.3,6.3,0c1.2-0.2,2.5-0.2,3.5-0.6
		c0.9-0.4,2-0.3,2.7-1.3c0.6-0.9,1.6-1.6,2.6-2c3.2-1.6,4.2-4.8,5.4-7.6c1-2.6,1.2-5.5,1.8-8.2c0.5-2.8,0.6-5.6,0.6-8.4
		C468.8,76.2,468.7,72,468.7,67.7z"/>
	<path d="M55.6,107.7c0.9-0.7,1.6-1.2,2.4-1.8c2.3-1.7,4.2-3.7,5.7-6.2c1.3-2.2,1.7-4.5,2.4-6.9c0.5-1.8,0.5-3.5,0.5-5.3
		c0-25.2,0-50.3,0-75.5c0.5-0.3,1-0.5,1.6-0.8c6.5,0,13.3,0,20.2,0c0.4,0.6,0.8,1.3,1.4,2.1c0,6,0,12.1,0,18.2c0,19.4,0,38.7,0,58.1
		c0,1.2,0,2.4-0.5,3.6c-0.4,1,0.3,2.5-0.2,3.4c-0.6,1.1,0,2.5-1.1,3.3c0.1,2.5-1.6,4.4-2.1,6.7c-0.1,0.4-0.2,0.9-0.3,1.3
		c-1.4,1.8-2.9,3.5-3.9,5.4c-0.7,1.3-1.7,2.1-2.6,3c-0.9,0.9-1.7,2-3,2.6c-1.4,0.7-2.4,2.1-3.6,3.1c-1.7,1.4-3.6,2.2-5.4,3.2
		c-1.9,1-3.9,1.8-5.9,2.6c-0.3,0.1-0.7,0.3-1,0.3c-1.6-0.4-3.2,0.4-4.7,0.7c-1.5,0.3-3,0.5-4.5,1c-1.4,0.5-3.1,0.1-4.6,0.1
		c-1.4,0-3,0.2-4.2-0.3c-1.3-0.6-2.9,0.4-4-0.8c-1.7,0.2-3.3-0.4-5-0.5c-1.5-0.2-2.8-0.6-4.2-1.1c-4.6-1.5-8.1-4.7-12.2-7
		c-3.5-2.1-5.6-5.4-7.8-8.6c-1.7-2.5-3-5.3-4.2-8.1c-0.5-1.1-0.9-2.2-1-3.4c-0.2-1.6-0.6-3-1-4.5c-0.2-0.8-0.2-1.7-0.2-2.6
		c0-25.2,0-50.3,0-75.5c0-1.1-0.2-2.2-0.7-3.3c0.3-0.7,0.5-1.3,0.9-2.1c0.8-0.2,1.7-0.6,2.5-0.6c6.6-0.1,13.1,0,19.6,0
		c0.3,0.3,0.5,0.5,0.9,0.9c0,0.3,0,0.7,0,1.2c0,24.8,0.1,49.6-0.1,74.3c0,4.5,1,8.5,3.1,12.4c2.1,3.8,5.3,6.5,9.3,8.1
		c1.1,0.4,2.5,0.6,3.8,0.7c2.4,0.2,4.8,0.1,7.3,0c1.1-0.1,2.1-0.6,3.2-0.6C53.7,108.2,54.8,107.9,55.6,107.7z"/>
	<path d="M151,12.6c0.4-0.4,0.9-0.8,1.4-1.4c15.5,0,31.1,0,46.7,0c1.3,0,2.5,0.4,3.8,0.5c1.3,0.1,2.9-0.4,4,0.1
		c2.6,1.1,5.3,1.6,7.8,2.9c4.8,2.5,9.3,5.3,12.9,9.5c2.3,2.6,3.9,5.6,5.3,8.8c1.5,3.5,2.2,7.2,3.2,10.8c0.5,1.7,0.5,3.8-0.1,5.6
		c-0.1,0.4-0.3,0.9-0.3,1.3c0.4,3.3-0.8,6.4-1.9,9.4c-1.9,5.3-4.6,10.2-8.7,14.1c-2.1,2-4.6,3.3-7,4.8c-3.2,2.1-6.9,3.1-10.4,4.4
		c-0.3,0.1-0.5,0.2-0.8,0.2c-1.8,0.2-3.5,0.5-5.3,0.6c-1.7,0.1-3.5,0-5.2,0c-2.2,0-4.5-0.1-6.7,0c-1.1,0-2.2-0.3-3.3,0.5
		c-0.5,0.4-1.6,0.3-2.3,0c-2.8-1.1-5.7-0.2-8.7-0.6c-0.3,0.5-0.7,1.1-1,1.7c-0.1-0.1-0.2-0.2-0.3-0.3c0,0.2-0.1,0.4-0.1,0.5
		c0,11.8,0,23.6,0,35.4c0,1.1-0.1,2.2,0.5,3.3c0.4,0.7-0.3,1.9-0.4,2.7c-2.5,1.2-5,0.9-7.4,0.9c-4.5,0-9.1,0-13.7,0
		c-0.7-0.4-1.4-0.8-2.1-1.2C151,89.1,151,50.9,151,12.6z M176.3,64.1c5.8,0,11.7,0,17.6,0c1.1,0,2.1,0.1,3.2,0c1-0.1,2-0.3,2.9-0.6
		c3.1-1.1,6.2-2.1,8.6-4.5c1.1-1.1,1.4-2.5,2.2-3.7c2.6-4.2,2.3-8.7,1-12.9c-1.2-3.9-4.1-7-8-8.8c-0.7-0.3-1.5-0.5-2.3-0.8
		c-0.6-0.2-4.2-1.2-4.7-1.2c-7.1,0-14.1,0-21,0c-0.6,0.6-1.1,1-1.5,1.3c0,10.1,0,20,0,30C174.9,63.3,175.6,63.7,176.3,64.1z"/>
	<path d="M279.7,31.7c-0.6-0.6-1-1.1-1.5-1.6c0-1.7-0.1-3.4,0-5.2c0-1-0.4-2.1,0.5-3c0.3-0.3,0.2-1.2,0-1.7c-1-2.4-0.3-4.9-0.6-7.5
		c0.5-0.4,1.1-0.9,1.9-1.5c26.9,0,54.2,0,81.3,0c0.6,0.3,1.1,0.6,1.6,0.8c0,5.8,0,11.6,0,17.4c0,0.8,0.2,1.6-1.5,2.1
		c-6.5,0-13.6,0-20.8,0c-0.9,0-1.8,0.2-3,0.4c-1-0.8-2.6-0.2-4-0.4c-1.1,1.2-0.9,2.6-0.9,4c0,29.6,0,59.2,0,88.9c0,1,0,1.9,0,2.8
		c-1.2,0.9-2.5,1.4-3.9,1.4c-5.5,0-11,0-16.6,0c-1.3,0-2.4-0.4-3.3-1.4c0-31.5,0-63.2,0-94.7c-0.3-0.3-0.5-0.5-0.8-0.8
		C298.7,31.7,289.2,31.7,279.7,31.7z"/>
	<path class="st0" d="M170.9,125.1c0.8,0,1.4,1,2.3,0.4"/>
</g>
</svg>
