<?xml version="1.0" encoding="utf-8"?>
<!-- Generator: Adobe Illustrator 20.1.0, SVG Export Plug-In . SVG Version: 6.00 Build 0)  -->
<svg version="1.1" id="Layer_1" xmlns="http://www.w3.org/2000/svg" xmlns:xlink="http://www.w3.org/1999/xlink" x="0px" y="0px"
	 viewBox="0 0 175.3 73.9" style="enable-background:new 0 0 175.3 73.9;" xml:space="preserve">
<style type="text/css">
	.st0{fill:#FFFFFF;}
</style>
<g>
	<rect x="0.4" y="1" width="174.5" height="71.8"/>
	<path class="st0" d="M150.7,48.4h-4l-9.2-14.2v14.2h-4.5V25.3h4l9.2,14.2V25.3h4.5V48.4z"/>
	<path class="st0" d="M41.7,40.5c0,2.4-0.8,4.4-2.4,5.9c-1.6,1.5-3.7,2.3-6.1,2.3c-2.4,0-4.5-0.8-6.1-2.3c-1.6-1.5-2.4-3.5-2.4-5.9
		V25.3h4.5v15.1c0,1.3,0.4,2.4,1.1,3.1c0.7,0.8,1.7,1.1,2.9,1.1c1.2,0,2.2-0.4,2.9-1.1c0.7-0.8,1.1-1.8,1.1-3.1V25.3h4.5V40.5z"/>
	<path class="st0" d="M70.4,32.5c0,2-0.7,3.7-2,5.1c-1.4,1.4-3.3,2.1-5.6,2.1h-4.5v8.7h-4.5V25.3h9c2.3,0,4.2,0.7,5.6,2.1
		C69.7,28.7,70.4,30.4,70.4,32.5z M65.9,32.5c0-1-0.3-1.7-0.9-2.3c-0.6-0.6-1.4-0.9-2.4-0.9h-4.2v6.3h4.2c1,0,1.8-0.3,2.4-0.9
		C65.6,34.2,65.9,33.4,65.9,32.5z"/>
	<path class="st0" d="M95.5,29.3h-6.1v19.1h-4.5V29.3h-6.1v-4h16.6V29.3z"/>
	<path class="st0" d="M120.8,36.8c0,2.5-0.1,4.3-0.3,5.2c-0.3,1.6-1,2.9-2,4c-1.7,1.7-3.8,2.5-6.2,2.5c-2.5,0-4.6-0.8-6.3-2.5
		c-1-1-1.7-2.4-2-4c-0.2-1-0.3-2.7-0.3-5.2c0-2.5,0.1-4.3,0.3-5.2c0.3-1.6,1-3,2-4c1.7-1.7,3.8-2.5,6.3-2.5c2.5,0,4.6,0.8,6.2,2.5
		c1.1,1.1,1.7,2.4,2,4C120.7,32.6,120.8,34.3,120.8,36.8z M116.3,36.8c0-1.8,0-2.9-0.1-3.4c-0.1-1.4-0.5-2.5-1.1-3.1
		c-0.7-0.8-1.7-1.2-2.9-1.2c-1.2,0-2.2,0.4-2.9,1.2c-0.6,0.7-0.9,1.7-1,3.1c0,0.4-0.1,1.5-0.1,3.4s0,3,0.1,3.4
		c0.1,1.4,0.5,2.5,1,3.1c0.7,0.8,1.7,1.2,2.9,1.2c1.3,0,2.4-0.5,3.2-1.6C116,42.2,116.3,40.2,116.3,36.8z"/>
</g>
</svg>
