<?xml version="1.0" encoding="utf-8"?>
<!-- Generator: Adobe Illustrator 19.0.0, SVG Export Plug-In . SVG Version: 6.00 Build 0)  -->
<svg version="1.1" id="Layer_1" xmlns="http://www.w3.org/2000/svg" xmlns:xlink="http://www.w3.org/1999/xlink" x="0px" y="0px"
	 viewBox="0 0 1623 975.2" style="enable-background:new 0 0 1623 975.2;" xml:space="preserve">
<style type="text/css">
	.st0{fill:#7CCAE2;}
	.st1{fill:#00ADD2;}
</style>
<path id="XMLID_110_" class="st0" d="M812.2,23.2c-0.7,0-1,0.3-1,1c-1-1.5-2.7-2.7-2.8-4.8C809.8,20.6,811.5,21.5,812.2,23.2z"/>
<g id="XMLID_25_">
	<path id="XMLID_144_" class="st1" d="M639.9,188.1c4.9-4.5,8.9-9.8,13.3-14.6c3-3.2,6.4-6.2,8.9-9.8c3.4-5,8.7-8.3,11.8-13.6
		c0.2-0.3,0.4-0.5,0.7-0.7c5.8-5.1,10.5-11.4,15.8-17c3.6-3.8,7.4-7.5,10.6-11.6c3-3.8,6.5-6.9,9.6-10.5
		c6.3-7.3,12.9-14.4,19.4-21.5c3-3.3,6.3-6.3,8.9-9.8c3.1-4.1,7.2-7.2,10.2-11.3c2.6-3.4,6-6.1,8.5-9.5c3.2-4.2,7.4-7.5,10.6-11.6
		c2.5-3.3,5.7-5.9,8.2-9.1c3.3-4.3,7.5-7.8,10.9-12c2.1-2.7,4.4-5.1,6.9-7.7c4.8,3.9,7,9.3,10.1,14c-0.4,2.7,1.8,4.6,2.3,7.1
		c1,4.7,2.4,9.5,1.6,14.2c-0.7,3.9-1.7,7.9-3.6,11.5c-2,3.6-4.1,7.2-7.1,10.1c-0.2,0.2-0.5,0.5-0.7,0.7
		c-14.4,14.9-30.3,28.4-44.4,43.5c-4.4,4.7-8.2,9.9-12.2,14.9c-4.7,5.8-8.3,12.2-11.4,18.8c-2.1,4.4-3.7,9.1-4.6,14.1
		c-0.7,3.9-0.8,7.8-0.7,11.6c0.2,8.3,3.1,15.7,7.3,23c5,8.8,12.1,15.4,19.4,21.9c7.5,6.7,15.7,12.7,24.8,17.1
		c4.6,4.2,10.2,6.7,15.3,10.2c4.9,3.4,10.1,6.2,15.1,9.3c6,3.6,12,7.3,18,11c6.4,3.9,12.9,7.6,19.2,11.6c3.9,2.4,7.5,5.3,11.3,7.8
		c3.8,2.6,6.8,6.2,10.2,9.2c5.8,5.1,5.9,15.5,0.8,21.3c-2.5,2.8-4.8,5.8-7.6,8.3c-3.8,3.4-7.9,6.4-12,9.5
		c-11.3,8.5-24.1,14.2-36.7,20.2c-4.7,2.2-9.4,4.8-14.6,5.8c-5.4,3.7-11.9,5.1-17.9,7.5c-5.8,2.4-11.8,4.5-17.8,6.5
		c-11.6,3.8-23.2,7.6-34.8,11.4c-5,1.6-10.1,3-15.1,4.6c-6.5,2.1-13,4.1-19.6,5.7c-6.9,1.8-13.6,4.8-20.9,5.3
		c-2.8,1.9-6.1,2.2-9.3,2.9c-3.2,0.8-6.6,1.3-9.6,2.3c-4,1.4-8.1,2.2-12,3.5c-4,1.3-8.1,2.6-12.2,3.1c-6.9,0.9-13.5,3.2-20.3,4.5
		c-4.8,0.9-9.7,2.2-14.5,3.3c-4,0.9-8,1.8-12,2.6c-4.1,0.8-8.3,1.1-12.3,2.7c-1.9,0.8-4.5-0.3-6.5,1.1c-5.5-0.2-10.8,1.4-16.1,2.2
		c-5.8,0.9-11.4,0.7-17.1,0.7c-68.5,0.1-137,0.1-205.5,0.1c-1.6,0-3.3,0-5.6,0c7.4-7.4,14-14.6,21.3-21c3.4-3,6.8-6.1,10-9.4
		c29.1-29.1,57.9-58.6,87.5-87.1c16.7-16.2,33.1-32.7,49.6-49c16.6-16.4,32.7-33.3,49.7-49.3c10.1-9.5,19.9-19.4,29.8-29.2
		c10-9.8,19.8-19.8,29.7-29.7c0.6-0.6,1.2-1.2,1.8-1.8c0.6-0.7,1.3-0.9,2.1-0.2c6.6,5.7,14.4,9.7,21.3,15.1
		c3.9,3.1,8.4,5.5,12.5,8.4C633.1,183.5,636.4,185.7,639.9,188.1z"/>
	<path id="XMLID_143_" class="st1" d="M812.2,23.2c0.1,1.2,1.1,1.6,1.8,2.3c6.3,6.4,13.1,12.4,19,19.2c8.2,9.3,17.6,17.5,25.8,26.8
		c6.2,7.1,13.3,13.4,19.5,20.4c9.1,10.1,19.1,19.3,28.2,29.4c7.8,8.8,16.8,16.5,24.4,25.4c7.8,9.1,16.9,16.8,24.7,25.8
		c4.8,5.5,10.1,10.4,14.9,15.7c6.3-4.3,12.5-8.5,18.6-12.9c7.2-5.1,14.8-9.6,21.7-15.1c4.3-3.4,4.2-3.5,8,0.3
		c17.3,17.3,34.2,35.1,52.1,51.8c17.2,16.2,33.5,33.1,50.3,49.6c16.9,16.6,33.1,33.9,50.3,50c16.9,15.8,32.8,32.4,49.3,48.6
		c16.5,16.2,32.5,33,49.3,49c8.4,8,16.5,16.2,25,24.1c-0.1,0.2-0.2,0.3-0.3,0.4c-0.1,0.1-0.3,0.2-0.4,0.2
		c-143.6,0-287.3,0-431.1-0.5c2.6-1.2,5.2-2.5,7.8-3.4c3.4-1.2,6.6-2.6,9.8-4c7.8-3.3,15.4-7.1,22.9-11.1c3.8-2,7.5-4.4,11.3-6.4
		c3.9-2,7.5-4.4,11.2-6.6c4.6-2.8,9.1-5.6,13.3-9c2.6-2.1,5.3-4,8.1-5.8c2.2-1.4,3.4-4,6.1-4.5c2.5-3.1,6.2-4.7,8.8-7.7
		c2.1-2.4,4.9-4.3,7.2-6.5c4.9-4.7,9.2-10,13.6-15.2c2.9-3.4,5.4-7.2,8.4-10.6c2.6-3,3.8-6.8,5-10.4c1.4-4.2,2.8-8.6,2.1-13.1
		c-0.9-5.1-1.4-10.1-3.9-14.9c-3.1-6.1-6.5-11.8-11.2-16.9c-2.1-2.2-3.8-5-6.2-6.8c-4.8-3.7-9.3-7.8-14.1-11.6
		c-7-5.5-14.6-9.9-22.1-14.5c-4.3-2.7-8.7-5.5-13.5-7.2c-5.1-1.8-9.7-4.7-14.8-6.5c-4.9-1.7-9.9-3.6-14.6-5.8
		c-6.9-3.2-14.1-5.4-21-8.5c-7.2-3.2-14.6-5.8-21.8-8.9c-6-2.5-11.8-5.3-17.8-7.8c-5-2-9.9-4.4-14.6-6.9c-5-2.7-10.1-5.6-15-8.5
		c-5.1-3-10.1-6.2-15.2-9.2c-5.4-3.2-10.3-7.4-13.7-12.3c-3.2-4.6-5.6-9.9-5.7-16.1c-0.2-8.6,2.7-16.1,6.5-23.4
		c3.1-5.9,7.1-11.1,11.3-16.3c7.3-9.1,15.6-17.3,23.6-25.7c3.6-3.8,6.5-8.3,8-13.7c1.8-6.7,2.1-13.3,1-19.9
		c-0.7-4.4-1.6-8.6-3.2-12.7c-2.1-5.5-4-11-7.5-15.9c-1.1-1.5-1.7-3.3-2.5-4.9C810.8,23.2,811.3,23,812.2,23.2z"/>
	<path id="XMLID_142_" class="st1" d="M166.7,696.3c2-5.4,3.9-10.7,6-16c3.1-7.7,6.2-15.5,9-23.3c2.2-5.9,4.6-11.8,6.7-17.8
		c1.7-5.1,3.8-10.1,5.8-15.1c2.3-5.9,5-11.6,6.9-17.6c1.3-4.1,3-8.1,4.6-12.1c3.5-8.9,6.6-17.9,10.3-26.7c2-4.6,3.5-9.6,5.3-14.3
		c1.7-4.6,3.3-9.3,5.2-13.8c2.6-6.1,4.9-12.3,7.2-18.5c1.4-3.6,3.4-6.9,4.4-11c23.7,62,47.5,124,71.4,186.4
		c3.3-8.8,6.3-17.2,9.8-25.4c2.9-7,5.4-14.1,8.4-21c2.8-6.5,5-13.3,7.6-19.9c2.7-6.7,5.2-13.5,7.9-20.2c2.1-5.1,4.3-10.2,6-15.5
		c1.3-3.9,3.2-7.7,4.7-11.5c2.1-5.5,4-11,6.2-16.4c2.2-5.3,4.1-10.6,6.2-15.9c2.6-6.8,5.4-13.4,7.9-20.2c1.7-4.6,3.2-9.3,5.7-13.6
		c0.6-1,0.8-1.5,1.9-1.5c10.3,0,20.7,0,31,0c1.5,0,1.4,0.7,0.9,1.9c-2.8,6.7-5.5,13.4-8.2,20.1c-1.5,3.7-3.3,7.3-4.4,11.2
		c-1.2,3.9-2.7,7.6-4.3,11.2c-2.5,5.8-4.9,11.7-7.1,17.5c-2.9,7.5-6,14.9-8.8,22.4c-2.2,5.9-4.8,11.7-7.1,17.5
		c-3,7.4-5.9,14.9-8.9,22.3c-2.2,5.6-4.5,11.1-6.8,16.7c-2.2,5.3-4.3,10.6-6.2,15.9c-1.4,3.9-3.2,7.7-4.7,11.6
		c-2.9,7.9-6.5,15.7-9.2,23.7c-1.3,3.8-3.1,7.4-4.6,11.1c-3.2,8-6.3,16.1-9.5,24.1c-2.2,5.4-4.4,10.8-6.6,16.2
		c-1.9,4.5-4,9-5.3,13.8c-0.4,1.6-1.5,3-2.5,4.7c-2.2-1.6-1.6-4.9-3.5-6.7c-1.4-6.1-4.6-11.5-6.5-17.3c-1.9-6-4.8-11.7-6.6-17.8
		c-1.5-5-3.9-9.7-5.8-14.6c-2.1-5.5-3.8-11.1-6.2-16.4c-2-4.7-3.6-9.5-5.5-14.2c-2.6-6.6-5.2-13.2-7.6-19.9
		c-1.8-5-3.9-10.1-5.9-15.1c-2.1-5.3-4-10.7-6.1-16c-2.1-5.1-3.9-10.4-6-15.5c-2.3-5.9-4.6-11.7-7-17.6c-1.1-2.9-1.9-5.9-3.4-8.6
		c-0.8-1.4,0.1-3.5-2.1-4.1C214.2,654.6,190.6,716,167,777.3c-2.7-1.6-2.8-4.4-3.6-6.6c-1.5-4.4-3.6-8.5-5.1-12.9
		c-2.8-8-6.2-15.8-9.2-23.7c-2.2-5.9-4.7-11.7-7.1-17.6c-3-7.4-6.2-14.8-8.8-22.3c-1.3-3.8-3.1-7.4-4.6-11.1c-3.1-8-6.4-16-9.5-24.1
		c-2.2-5.7-4.5-11.5-6.9-17.1c-3.2-7.5-6.3-15.1-9-22.8c-1.3-3.8-3.2-7.3-4.6-11.1c-3-8.1-6.4-16-9.5-24.1
		c-2.3-5.9-4.8-11.7-7.1-17.5c-2.3-5.7-4.6-11.5-6.9-17.2c-1.6-4-2.9-8.1-4.8-12c-2.4-5-4.1-10.3-6.1-15.5c-0.1-0.3,0.1-0.8,0-1
		c-1.1-1.5-2.8-3.4-1.7-5c0.9-1.4,3.4-0.5,5.2-0.5c8.7-0.1,17.3,0,26-0.1c1.7,0,2.5,0.3,3.1,2c2.4,6.7,4.8,13.4,7.5,19.9
		c2,4.7,3.5,9.6,5.5,14.2c3.1,7.2,5.6,14.7,8.5,22c2.1,5.1,4,10.3,6,15.5c2.6,6.7,5.7,13.3,7.9,20.2c1.2,3.8,2.9,7.5,4.4,11.2
		c1.5,3.7,3.3,7.3,4.5,11.1c1.2,3.8,2.7,7.6,4.2,11.2c3,6.9,5.2,14.2,8.5,21c2.2,4.6,3.6,9.5,5.3,14.3c1.7,4.6,4,9,5.2,13.9
		C164.7,693.1,165.7,694.8,166.7,696.3z"/>
	<path id="XMLID_141_" class="st1" d="M945.3,768.1c0-84.3,0-168.4,0-252.7c10.5,0,21,0,31.8,0c0,36.1,0,72.3,0,109.5
		c6.7-6.7,12.9-12.5,18.6-18.8c1.6-1.8,3-3.8,4.7-5.5c12.6-12.6,25.6-24.8,37.7-37.9c14.2-15.4,29.5-29.6,43.9-44.8
		c1.9-1.9,3.7-2.7,6.4-2.7c12.1,0.1,24.3,0.1,37.3,0.1c-38.2,38.2-75.9,75.9-113.8,113.8c1.5,2.6,3.9,4.3,5.5,6.7
		c2.1,3.2,5.3,5.7,7.6,8.9c3.7,5.1,8,9.6,11.9,14.5c2.3,2.9,4.8,5.7,7.2,8.6c4.2,5.1,8.8,9.8,12.5,15.3c1.5,2.2,3.7,4,5.4,6.3
		c3.7,4.9,8.1,9.2,11.8,14.1c3.8,5,8.2,9.4,11.8,14.6c1.6,2.4,3.9,4.3,5.7,6.6c4.1,5.2,8.8,10,13,15.2c5,6.2,10,12.3,15.2,18.2
		c2.7,3.1,5.1,6.6,7.6,9.9c-1,0.7-2.4,0.3-3.6,0.3c-12.2,0-24.3,0-36.5,0c-1.5,0-2.2-0.3-3.3-1.8c-3.4-4.7-7.6-8.8-11.1-13.5
		c-3.2-4.2-6.7-8.1-9.7-12.4c-1.7-2.5-4.1-4.5-6-7c-4.5-5.9-9.5-11.4-14-17.2c-2.9-3.7-6.1-7.1-8.8-10.9c-3-4.1-6.6-7.8-9.4-12.1
		c-1.6-2.4-3.9-4.3-5.6-6.7c-3.7-4.8-7.7-9.4-11.3-14.3c-1.8-2.5-4.1-4.6-6-7c-3.4-4.1-6.3-8.6-10.1-12.4c-0.7-0.7-0.7-2.1-1.9-2.8
		c-3.7,3.7-7.4,7.5-11.2,11.2c-0.9,0.9-1.4,1.7-1.3,3c0.1,1,0,2,0,3c0,31.8,0,63.7,0,95.5c0,1.6,0,3.3,0,5.1
		C966.6,768.1,956.2,768.1,945.3,768.1z"/>
	<path id="XMLID_138_" class="st1" d="M1149.4,515.4c45.3,0,90.4,0,135.7,0c0,9.6,0,19,0,28.8c-34.5,0-69,0-103.7,0
		c0,23.8,0,47.3,0,70.9c33.4,0,66.9,0,100.1,0c0.3,0.3,0.5,0.4,0.6,0.5c0.1,0.1,0.2,0.3,0.2,0.4c0,9,0,18,0,27.1
		c-33.6,0-67.1,0-100.8,0c0,32.1,0,64,0,96.1c34.5,0,68.9,0,103.6,0c0,9.7,0,19.3,0,29c-45.2,0-90.3,0-135.6,0
		C1149.4,684,1149.4,599.9,1149.4,515.4z"/>
	<path id="XMLID_137_" class="st1" d="M921.3,767.6c-0.6,0.9-1.3,0.7-2,0.7c-9.8,0-19.7,0-29.5,0c-1.6,0-2.5-0.2-3.2-2
		c-2.8-6.7-5.8-13.3-8.8-19.9c-4.1-9.1-8.1-18.3-12.3-27.4c-2.8-6.3-5.6-12.7-8.4-19c-2.9-6.3-5.7-12.6-8.5-19
		c-2.5-5.8-5-11.6-7.6-17.3c-3.1-6.9-6.2-13.8-9.4-20.6c-2.7-5.8-5.2-11.8-7.9-17.7c-2.7-6.1-5.3-12.1-8.1-18.1
		c-3-6.4-5.5-13.1-8.7-19.4c-1-1.9-1.4-4.1-2.6-6c-1.1-1.7-2.6-3.6-2.4-6c0-0.4-0.8-1.3-1.3-1.4c-1-0.2-0.4,0.9-0.7,1.3
		c-3.2,5.8-5.5,12.1-8.3,18.1c-1.9,4-3.8,8.1-5.6,12.2c-3.7,8.7-7.9,17-11.4,25.8c-1.6,3.9-3.5,7.9-5.4,11.7c-2,4-3.7,8.1-5.3,12.3
		c-1.5,4-3.5,7.9-5.2,11.8c-2.2,5.1-4.4,10.2-6.8,15.2c-1.8,3.7-3.9,7.4-5.2,11.3c-1.3,4-3.4,7.6-4.9,11.5
		c-1.7,4.2-3.7,8.5-5.7,12.6c-3.1,6.5-6.1,13.2-9,19.8c-1.8,3.9-3.6,7.8-5.1,11.9c-1.5,4.1-4.1,7.6-5.1,11.9c-0.5,2.2-1.6,4.8-3.2,6
		c-1.4,1-4.1,0.4-6.3,0.4c-8.2,0-16.3,0-24.5,0c-0.9,0-1.9-0.1-2.7-0.1c-0.3-1.8,0.9-2.7,1.4-3.7c3.2-6.3,5.8-12.9,9-19.3
		c1.8-3.7,4-7.4,5.3-11.3c1.4-4,3.6-7.5,5.2-11.3c3.6-8.5,7.6-16.9,11.5-25.3c3.2-7,6.3-14,9.6-21c3.8-8.2,7.6-16.5,11.4-24.8
		c3.6-7.9,7.1-15.7,10.6-23.6c3.7-8.1,7.5-16.2,11.3-24.3c3.7-8,7.3-16,11-24s7.3-16,11-24c3.7-8,7.3-16,11-24
		c4-8.8,7.8-17.8,12.4-26.3c1.3,0.6,1.8,2,2.1,3.1c1.2,4.2,3.7,7.8,5.4,11.8c3.3,7.8,7,15.4,10.5,23.2c1.8,3.9,3.8,7.8,5.5,11.7
		c3.7,8.5,7.6,16.8,11.5,25.2c3.5,7.5,7,15.1,10.4,22.7c3.8,8.4,7.7,16.8,11.5,25.2c3.5,7.7,7,15.4,10.6,23.1
		c3.6,7.7,7.1,15.4,10.5,23.1c1.8,3.9,3.8,7.8,5.5,11.7c3.6,8.5,7.6,16.9,11.5,25.2c1.8,3.8,3.9,7.4,5.3,11.3
		c1.4,4,3.6,7.5,5.2,11.3c3.6,8.5,7.5,16.9,11.4,25.3C918.9,762.1,920.2,764.9,921.3,767.6z"/>
	<path id="XMLID_136_" class="st1" d="M625.4,515.3c10.3,0,20.4,0,30.7,0c0,84.2,0,168.3,0,252.6c0.1-0.1,0,0.1-0.2,0.2
		c-0.1,0.1-0.3,0.2-0.4,0.2c-10,0-19.9,0-30.1,0C625.4,684,625.4,599.9,625.4,515.3z"/>
	<path id="XMLID_135_" class="st1" d="M196.5,874.2c1.9,0,3.7,0,5.6,0c3.9,0,4,0,5.1,3.8c2.4,8.3,6.2,16.2,8,24.7
		c3.4,6,4.6,12.8,7,19.1c1.5,3.9,3.4,7.6,4,11.8c0,0.2,0.5,0.6,0.7,0.6c0.4,0,1.1-0.2,1.3-0.5c1-2.4,2-4.9,2.9-7.3
		c2-5.4,4.4-10.5,6.4-15.9c2.8-7.5,6.1-14.8,8.8-22.4c1.6-4.3,3.3-8.6,5.4-12.8c0.7-1.4,0-3.5,2.3-4.1c2.1,5.3,4.2,10.7,6.4,16.1
		c1.8,4.3,3.5,8.5,5.4,12.8c1.8,4.1,3.6,8.2,5.1,12.4c1.5,4.1,3.3,8,4.6,12.1c1,3.3,3,6.4,3.8,9.9c0.1,0.2,0.5,0.5,0.6,0.5
		c0.3-0.1,0.5-0.4,0.7-0.7c1.3-2.1,1.9-4.6,2.6-6.9c2.5-8.3,5.6-16.4,8.4-24.6c2.2-6.6,4.5-13.1,6.8-19.7c1-2.8,2.9-5.2,3-8.3
		c0-0.5,0.4-0.8,1-0.8c3,0,5.9,0,9.3,0c-3,7.3-5.3,14.3-7.9,21.2c-2.2,5.9-4.4,11.9-6.4,17.9c-0.9,2.7-2.4,5.1-3,7.7
		c-0.6,2.6-1.9,4.9-2.6,7.4c-1.8,6.2-4.4,12.2-6.5,18.3c-1.5,4.2-2.5,8.7-5.3,12.8c-2-4.7-4-8.9-5.6-13.3c-1.5-4.2-3.4-8.3-4.9-12.5
		c-2.8-8-6.5-15.7-9.2-23.7c-1.7-5.1-4.2-9.9-6.5-15.2c-1.6,3.9-3.1,7.5-4.4,11.1c-1.3,3.6-2.7,7.3-4.2,10.8
		c-2.5,5.8-4.8,11.7-7.2,17.5c-2.3,5.7-5,11.3-6.7,17.2c-0.7,2.5-3.1,4.4-3,7.3c0,0.5-0.7,0.6-1.2,0.5c-0.3-0.1-0.7-0.3-0.7-0.5
		c-1.1-6.3-4.3-11.9-6.1-18c-1.4-4.9-3.5-9.5-5.3-14.3c-1.9-5.2-3.8-10.4-5.7-15.7c-1.6-4.5-3.4-8.9-5-13.4
		c-2.4-6.5-4.8-13-6.9-19.6C197,876.7,195.4,876,196.5,874.2z"/>
	<path id="XMLID_134_" class="st1" d="M1212.1,874.2c2.7,0,5,0,7.3,0c2.7,0,3.1,0.2,3.9,3c2.5,9.2,6.9,17.9,9,27.3
		c3.4,6.2,4.5,13.1,7.1,19.6c1.5,3.7,2.5,7.6,4.4,11.4c8.7-21.4,17.3-42.7,25.9-64c1.9,0.3,2.2,2.3,2.5,3.5c2,6.5,5,12.6,7.3,19
		c3.7,10,8.4,19.5,11.9,29.6c1.3,3.6,3.1,7,4.4,10.7c0.1,0.4,0.7,0.7,1.2,1.2c2.2-8,5.2-15.5,8-23.2c3.5-9.9,7.2-19.7,10.2-29.7
		c0.7-2.2,2.5-4,2.3-6.6c-0.1-0.8,1.3-1.7,2.7-1.6c2.3,0.2,4.6,0,6.9,0c0.9,2.4-0.7,4.2-1.3,6c-2.3,6.9-4.9,13.6-7.4,20.4
		c-1.8,4.9-3.8,9.8-5.5,14.7c-2.2,6.1-4.3,12.2-6.5,18.3c-1.8,4.9-3.8,9.8-5.5,14.7c-1.3,3.6-2.5,7.3-3.7,11.1c-3-2.6-3-6.3-4.6-9.3
		c-1.4-2.7-2.1-5.8-3.4-8.6c-1.5-3.2-2.6-6.6-4-9.9c-1.3-3.1-2.6-6.3-3.8-9.4c-1.4-3.6-2.8-7.2-4.3-10.7c-2-5-4.2-9.9-5.9-15
		c-0.1-0.4-0.7-0.7-1.2-1.2c-8.7,21.7-17.4,43.2-26.2,64.8c-2.1-5.5-4.3-11-6.4-16.6c-1.9-5.2-3.8-10.4-5.7-15.6
		c-2.1-5.8-4.2-11.6-6.3-17.4c-1.9-5.2-3.9-10.4-5.6-15.6c-2.1-6.3-5.1-12.3-6.4-18.9C1213.1,875.5,1212.6,875.1,1212.1,874.2z"/>
	<path id="XMLID_133_" class="st1" d="M1001.7,894.3c-0.1,0.1-0.2,0.2-0.3,0.3c-0.1,0.1-0.2,0.3-0.2,0.4c0,20.3,0,40.6,0,61.1
		c-2.9,0-5.7,0-8.8,0c0-28.1,0-56.3,0-85.3c2.8,3.5,6.3,5.5,8.2,9.3c0.4,0.9,1.4,1.4,2.1,2.1c4.9,4.9,10.2,9.6,14.8,14.9
		c7.4,8.5,15.9,15.9,23.3,24.4c4.8,5.5,10.2,10.3,15.4,16.3c0.2-7.5,0.1-14.5,0.1-21.4c0-7,0-14,0-21c0-7,0-13.9,0-21.1
		c3,0,5.8,0,8.8,0c0,28.1,0,56.4,0,85.1c-4.8-4.8-9.7-9-13.7-13.9c-3.3-4.1-7.1-7.8-10.8-11.5c-10.7-10.8-20.7-22.3-31.7-32.9
		c-1.9-1.9-3.3-4.4-5.4-6.2C1002.9,894.5,1002.5,894.1,1001.7,894.3z"/>
	<path id="XMLID_132_" class="st1" d="M514.3,956.1c0-28,0-55.7,0-84.3c5.6,6.3,12,10.9,16.4,17.4c0.5,0.8,1.4,1.4,2.1,2.1
		c5.1,5.1,10.4,9.9,15.1,15.3c6.9,8,14.8,15.1,21.9,22.9c2.3,2.5,4.4,5.2,6.9,7.7c0.9-1.2,0.5-2.5,0.5-3.7c0-17.8,0-35.7,0-53.5
		c0-1.2-0.1-2.3,0-3.5c0.2-1.4,0.9-2.4,2.5-2.3c2,0,4,0,6.2,0c0,28.3,0,56.5,0,85.4c-1.8-2.4-4.1-3.5-5-6.1
		c-0.2-0.7-1.1-1.2-1.7-1.8c-13.5-12.8-25.7-26.8-38.7-40c-5.6-5.7-11.2-11.6-16.7-17.5c-0.2,0.1-0.3,0.2-0.4,0.3
		c-0.1,0.1-0.2,0.3-0.2,0.4c0,20.3,0,40.6,0,61.1C520.3,956.1,517.5,956.1,514.3,956.1z"/>
	<path id="XMLID_130_" class="st1" d="M61.4,874.4c3,0,5.7,0,8.7,0c0,10.9,0,21.7,0,32.4c4.3,0.6,34.5,0.7,42.1,0.2
		c0-10.8,0-21.6,0-32.5c2.9,0,5.7,0,8.6,0c0.7,3.9,1,66.2,0.3,81.6c-2.8,0-5.6,0-8.7,0c0-13.1,0-26.3,0-39.7c-14.1,0-27.9,0-42.1,0
		c0,13.2,0,26.4,0,39.8c-3.1,0-5.9,0-8.9,0C61.4,929,61.4,901.9,61.4,874.4z"/>
	<path id="XMLID_123_" class="st1" d="M18.2,823.2c-1.5-0.4-1.3-1.2-0.4-2c0.2-0.2,0.6,0,1,0c1.2,0,2.3,0,3.5,0
		c521.9,0,1043.9,0,1565.8,0c1.5,0,3.1-0.3,4.5,0.1c1,0.3,1.1,1.5-0.4,1.9c-1.7-1-3.6-0.5-5.4-0.5c-521.1,0-1042.2,0-1563.2,0
		C21.8,822.8,19.9,822.3,18.2,823.2z"/>
	<path id="XMLID_122_" class="st1" d="M18.2,823.2c-0.1-0.6,0.3-1,0.8-1c1.5-0.1,3,0,4.5,0c521.1,0,1042.3,0,1563.4,0
		c1.5,0,3,0,4.5,0c0.5,0,0.9,0.3,0.8,1C1067.5,823.2,542.9,823.2,18.2,823.2z"/>
	<path id="XMLID_121_" class="st1" d="M1453.3,883.1c0,8.3,0,16.1,0,24.2c9.1,0,18,0,27,0c1.2,0,2.4-0.2,3.5,0.1
		c1,0.3,3.6,0.1,1.5,2.5c-0.3,0.4-0.1,1.3,0,1.9c0.7,3.1,0.5,3.5-2.6,3.5c-7.5,0-15,0-22.5,0c-1.3,0-2.7,0-4,0
		c-2.2,0.1-2.9,0.8-3,2.9c-0.1,3.2,0,6.3,0,9.5c0,5.7,0,11.3,0,17c0,3.2,0.4,3.6,3.7,3.6c9,0,18,0,27,0c0.6,0,1.3,0,2.1,0
		c0,2.6,0,5.1,0,7.8c-13.8,0-27.7,0-41.7,0c0-27.1,0-54.2,0-81.6c13.9,0,27.8,0,41.8,0c0,2.9,0,5.7,0,8.6
		C1475.3,883.1,1464.5,883.1,1453.3,883.1z"/>
	<path id="XMLID_120_" class="st1" d="M901.2,938.5c0,3.6,0.1,6.6,0,9.5c-0.1,1.6-1.5,2.5-2.7,3.2c-2.4,1.4-4.9,2.6-7.4,3.7
		c-2.4,1.1-5.2,1-7.5,2.3c-8.3-0.1-16.6,0.5-24.5-3.6c-5.8-3-10.8-6.7-15.2-11.4c-3.7-4-6.9-11.2-8.6-16.9
		c-1.7-5.7-0.3-11.4-0.9-17.1c2.1-6.3,4.2-12.5,8.3-18.1c4.5-6,10.1-10.1,16.5-13.2c7.2-3.5,15.1-4.5,22.9-3.5
		c2.8,0.4,6,0.6,8.6,1.9c2.6,1.3,5.3,2.6,7.8,4c1.7,0.9,3,2.3,2.8,4.7c-0.3,2.1,0,4.3-0.1,6.5c0,0.9-1,1-1.5,0.6
		c-1.6-1.1-3-2.4-4.6-3.5c-4.5-3.1-7.8-4.3-14.7-5.4c-4.2-2.7-8.6-0.4-12.6,0.2c-3.8,0.6-7.4,3.1-10.7,5.4
		c-6.6,4.6-10.7,11-12.8,18.6c-2.5,9-1.2,17.5,3.3,25.7c3.1,5.6,7.5,9.9,13,12.9c5.1,2.8,10.4,4.3,16.3,4.1
		c6.4-0.2,12.2-2.5,17.6-5.8C896.6,942.1,898.5,940.5,901.2,938.5z"/>
	<path id="XMLID_119_" class="st1" d="M1170.2,892.9c-4.5-5.4-9.6-8.3-15.6-9.7c-1.9-1.9-4.5-0.5-6.8-1.7c-1.7-0.9-4.5-0.8-6.5,0.8
		c-7.9,0.5-14.1,4.4-19.4,9.8c-4.8,4.9-7.9,10.8-8.9,17.8c-0.4,2.4-1.1,4.7-0.8,7.1c1.1,8.1,3.8,15.5,9.6,21.5
		c3.2,3.4,6.7,6.4,11.1,8.1c1.9,0.7,3.7,2,5.8,1.7c1.9-0.3,3.2,1.2,5.1,1.1c8.7-0.2,16.5-2.4,23-8.4c0.9-0.8,2.3-0.5,2.9-2
		c0.7,1.8,0.3,3.5,0.4,5.1c0.1,1.7,0,3.3,0,5c0,0.7-0.4,0.9-1,1.3c-6.6,4.4-13.6,7.2-21.6,6.9c-1.7-0.1-3.3,0-5,0
		c-8.4,0.1-15.4-3.5-22.1-8.2c-3.6-2.5-6.7-5.5-9.1-9.1c-3-4.5-5.1-9.5-7.2-14.5c0.5-3.8-1.6-7.3-1-11.1c0.8-5.1,1.4-10.3,3.5-15
		c2.1-4.6,4.8-8.8,8.3-12.6c4.3-4.5,9.2-7.9,14.7-10.4c2.3-1.1,4.9-1.7,7.6-2.3c3.4-0.7,6.7-0.6,10.1-0.9c5.6-0.4,10.5,2,15.6,3.4
		c2.4,0.7,3.9,3.1,6.5,3.6c0.5,0.1,0.7,0.5,0.7,1.1C1170.2,885,1170.2,888.6,1170.2,892.9z"/>
	<path id="XMLID_118_" class="st1" d="M630.2,874.2c1.6,0,2.9,0,4.2,0c1.5,0,3.4-0.5,4.3,0.2c1.2,0.9,2,2.8,2.4,4.4
		c2.6,9.9,7.6,18.9,10.1,28.8c2.6,3.6,3.4,8,4.9,12c1.5,4,3.5,7.9,4.4,12.2c0.3,1.3,1.3,2.7,2.1,4.7c2.3-6.4,4.5-12.3,6.7-18.2
		c2.4-6.3,4.7-12.7,7.2-19c1.7-4.1,3.1-8.4,4.7-12.6c1.3-3.5,2.8-6.8,3.9-10.4c0.6-1.8,1.6-2.3,3.2-2.2c1.8,0.1,3.7,0.1,5.5,0
		c1.7-0.1,1.7,1.2,1.3,1.9c-1.5,2.9-2.2,6.1-3.4,9.1c-3.4,8.3-6.7,16.6-9.6,25c-1.7,5.1-4.1,10-5.9,15c-2.3,6.2-4.9,12.3-7.1,18.6
		c-1.4,3.9-3.2,7.7-4.6,11.6c-0.6,1.6-0.9,3.3-1.8,4.8c-0.6-0.7-1.3-1.1-1.6-2.2c-0.9-3.6-2.5-6.9-3.9-10.4
		c-2.5-6.1-4.7-12.4-7-18.6c-1.9-5-3.9-10-5.8-15.1c-2.3-6.2-4.9-12.3-7.1-18.5c-2-5.5-4.2-10.9-6.2-16.4
		C630.5,877.4,630.3,876,630.2,874.2z"/>
	<path id="XMLID_117_" class="st1" d="M1406.2,883.3c-6.8,0-13.2,0-19.8,0c0-2.9,0-5.7,0-8.5c4-0.7,32.2-1,48.6-0.3
		c0,2.8,0,5.5,0,8.5c0.1-0.1,0,0.1-0.2,0.2c-0.1,0.1-0.3,0.2-0.4,0.2c-6.3,0-12.6,0-19.2,0c0,12.3,0,24.4,0,36.5c0,12,0,24,0,36.4
		c-2.9,0.2-5.8,0-9,0.1C1406.2,931.9,1406.2,907.7,1406.2,883.3z"/>
	<path id="XMLID_116_" class="st1" d="M798.3,956.1c0-27.3,0-54.4,0-81.6c2.8,0,5.6,0,8.6,0c-0.1-0.1,0.1,0,0.1,0.1
		c0.1,0.1,0.2,0.3,0.2,0.4c0,24.3,0,48.6,0,73.2c7.3,0,14.6,0,21.9,0c0,2.8,0,5.2,0,7.9C818.9,956.1,808.8,956.1,798.3,956.1z"/>
	<path id="XMLID_115_" class="st1" d="M828.5,705.2c-18.8,0-36.9,0-55.7,0c5-5,9.6-9.6,14.2-14.2c4.6-4.6,9.2-9.2,13.7-13.7
		C809.8,686.5,819,695.6,828.5,705.2z"/>
	<path id="XMLID_114_" class="st1" d="M1082.4,874.3c3,0,5.7,0,8.7,0c0,27.2,0,54.3,0,81.8c-2.7,0.2-5.6,0-8.7,0.1
		C1082.4,929,1082.4,901.9,1082.4,874.3z"/>
	<path id="XMLID_113_" class="st1" d="M421,956.2c-2.9,0-5.7,0-8.7,0c0-27.2,0-54.3,0-81.8c2.7-0.2,5.6,0,8.7-0.1
		C421,901.5,421,928.6,421,956.2z"/>
	<path id="XMLID_112_" class="st1" d="M386.4,874.3c2.9,0,5.7,0,8.7,0c0,27.3,0,54.5,0,81.8c-2.9,0-5.7,0-8.7,0
		C386.4,928.9,386.4,901.7,386.4,874.3z"/>
	<path id="XMLID_111_" class="st1" d="M819.1,467.4c0,3.3,0,6.4,0,9.7c-12.2,0-24.3,0-36.7,0c-0.6-1.3-0.2-3-0.2-4.6
		c-0.1-1.6,0-3.3,0-5.1C794.5,467.4,806.5,467.4,819.1,467.4z"/>
	<path id="XMLID_9_" class="st1" d="M598.9,760.4c-1.8-3.6-3.5-7.2-5.1-10.9c-3.5-7.9-7.1-15.7-10.7-23.6c-3.5-7.6-7-15.1-10.4-22.7
		c-4.3-9.7-9-19.3-13.4-28.9c-1.2-2.5-3-4.8-3.1-7.7c-4.4-7.8-7.7-16.2-11.3-24.3c-1.6-3.7-3.7-7.1-5-10.9c-1.3-3.8-3.2-7.3-5-10.9
		c-4.9-10-9-20.3-14-30.2c-0.8-1.5-2-3.1-2.2-4.5c-0.6-3-2.2-5.6-3.5-8.1c-1.4-2.6-2.3-5.4-3.6-8.1c-3.3-6.9-6.3-14.1-9.5-21
		c-4.1-8.8-8.1-17.6-12.2-26.4c-2.6-5.6-5.2-11.2-8-17.1c-0.6,0.9-1.2,1.4-1.5,2.2c-3.4,6.9-6.4,14-9.6,21
		c-3.7,8.1-7.5,16.2-11.3,24.3c-3.7,8-7.3,16-11,24c-3.7,8.1-7.4,16.3-11.1,24.4c-3.2,7-6.6,13.9-9.4,21.1
		c-1.7,4.3-4.2,8.2-5.8,12.6c-1.7,4.4-4.1,8.6-5.9,13c-1.6,3.8-3.5,7.6-5.3,11.3c-3,5.9-5.4,12.1-8.4,18c-3.4,6.7-5.9,13.9-9.2,20.7
		c-1.6,3.3-3.5,6.6-4.8,10c-1.3,3.5-3.9,6.4-4.3,10.2c-4.6,8.4-8,17.4-12.1,26c-3.1,6.4-5.7,13-9,19.3c-0.8,1.5-1.1,3.1-1.7,4.9
		c11.5,0,22.8,0,33.9,0c0.5-1,0.2-2,0.7-2.9c3.6-7.1,6.7-14.6,10.1-21.8c4.2-9.1,8.2-18.3,12.5-27.3c1.4-2.9,2.3-6.1,3.9-8.9
		c0.7-1.2,1.5-2,3-1.9c1,0.1,2,0,3,0c35.7,0,71.3,0,107,0c5.3,0,5.4,0,7,5.5c0.2,0.8,0.7,1.4,1,2.1c3.2,7.2,6.4,14.4,9.6,21.5
		c4.1,9,8.3,17.9,12.4,26.9c0.7,1.5,2,2.8,2.1,4.6c0.1,1.8,1.2,2.5,2.9,2.4c4.3,0,8.7,0,13,0c6.3,0,12.6,0,19.4,0
		C600.2,765.7,600.1,762.8,598.9,760.4z M523.7,676.2c-27.6,0-55.3,0-82.9,0c-0.7,0-1.3,0-2,0c-1.3,0-2.2-1.2-1.5-2.2
		c1.2-1.9,1.7-4,2.6-5.9c1.9-4.2,4-8.4,5.6-12.7c1.2-3.2,3-6,3.9-9.4c0.9-3.2,2.8-6.1,4.1-9.3c1.6-3.8,3.3-7.6,5.1-11.4
		c1.8-3.7,3.7-7.5,5.1-11.4c1.4-3.8,3.9-7,4.7-11.1c0.5-2.5,2.9-4.4,2.9-7.2c3.9-6,5.6-13,8.9-19.3c0.4-0.8,0.9-1.3,1.6-2.3
		c2.9,6.7,5.6,13.1,8.5,19.3c4,8.7,7.6,17.5,11.6,26.2c2.3,4.9,4.3,9.9,6.3,14.9c2.7,6.6,5.7,12.9,8.5,19.5
		c1.6,3.9,3.5,7.9,5.4,11.8c1.5,3.3,2.9,6.7,4.3,10C525.3,676.6,524.5,676.2,523.7,676.2z"/>
	<path id="XMLID_6_" class="st1" d="M1547.9,765.4c-1.8-3.9-3.8-7.7-5.6-11.7c-3.7-8-7.3-16-11-23.9c-3.7-8-7.3-16-11-24
		c-3.7-8-7.3-16-11-24c-3.7-8-7.3-16-11-24c-3.7-8-7.3-16-11-24c-3.7-8-7.3-16-11-24c-3.3-7.3-6.5-14.6-9.9-21.9
		c-3.9-8.4-7.7-16.8-11.5-25.2c-3.4-7.6-7.1-15.1-10.4-22.7c-2.9-6.5-6.1-12.8-9.1-19.2c-0.5-1.1-1-2.2-1.5-3.4
		c-1.6-4.4-3.8-8.5-6.5-13c-0.8,2.9-1.8,5.2-2.8,7.3c-4.5,9.3-8.7,18.7-12.9,28.1c-1.3,2.9-2.7,5.9-4,8.8
		c-3.6,7.8-7.1,15.7-10.7,23.6c-3.5,7.5-6.9,15.1-10.4,22.7c-3.9,8.4-7.9,16.7-11.5,25.2c-1.7,4-3.7,7.8-5.5,11.7
		c-3.5,7.7-7,15.4-10.5,23.1c-3.6,7.7-7,15.4-10.6,23.1c-3.8,8.3-7.6,16.5-11.4,24.8c-3.5,7.7-7.1,15.4-10.5,23.1
		c-4,9-8.3,17.9-12.4,26.8c-2.3,4.9-4.5,9.8-7,15.2c10.7,0,21.2-0.1,31.6,0.1c2.7,0.1,3.4-1.7,4-3.4c2.3-6.4,5.6-12.3,8.3-18.6
		c2.9-6.9,6.2-13.7,9.2-20.7c2.6-6.1,5.8-11.9,8.1-18.1c0.5-1.3,1.3-3,3.4-2.3c0.5,0.1,1,0,1.5,0c36.2,0,72.3,0,108.5,0
		c0.8,0,1.7,0.1,2.5,0c1.6-0.1,2.4,0.6,2.9,2c0.2,0.7,0.7,1.4,1,2.1c3.1,6.9,5.8,13.9,9.3,20.6c2.7,5.2,4.2,11,7.7,15.8
		c0.2,3.9,2.8,6.8,4.4,10.2c1.5,3.4,2.6,6.9,4.5,10.1c0.9,1.5,1.6,2.2,3.3,2.2c9.7,0,19.3,0,29,0
		C1548.4,768.2,1548.8,767.5,1547.9,765.4z M1383.5,676.1c-0.6-1.1,0.3-1.6,0.6-2.2c1.8-4.1,3.8-8.1,5.3-12.3
		c1.5-4.1,3.6-7.8,5.2-11.8c1.6-3.8,3.1-7.7,5-11.4c1.7-3.3,3.5-6.6,4.5-10.1c1-3.6,3.1-6.7,4.4-10.2c1.3-3.9,3.4-7.6,5-11.4
		c1.6-3.8,3.9-7.4,5.2-11.3c1.3-4,3.5-7.5,4.9-11.5c1.1-3.1,2.6-6.2,4.1-9.4c2.1,1.1,2.7,3.5,3.3,5.3c1.8,5.1,4.2,9.9,6.4,14.8
		c1.6,3.5,2.5,7.3,4.9,10.5c0,4.1,4.1,6.7,4,10.8c2.7,3.5,3.9,7.7,5.6,11.7c2.8,6.7,6.3,13,8.5,20c0.4,1.3,1.3,2.4,2,3.7
		c1.9,3.5,3.3,7.3,4.8,11c1.5,3.5,3.6,6.8,4.4,10.7c0.2,0.9,1,2.1,1.8,3.3C1443.1,676.1,1413.2,676.1,1383.5,676.1z"/>
	<path id="XMLID_12_" class="st1" d="M784.3,904.9c-1.4-4.6-3.2-9.1-6-13c-2.9-4-6.1-7.7-10.4-10.7c-5.5-3.8-15.7-8-22.2-8
		c-2.2,0-4.3,0.2-6.5,0c-2.5-0.3-4.6,1.8-7.1,1.1c-0.8-0.2-1,0.9-1.6,1c-3.3,0.2-5.8,2.2-8.5,3.7c-6.9,3.8-12.3,9.1-16.1,16.1
		c-2.5,4.5-4.7,9.2-4.8,14.5c-2.8,5.6-0.7,11.2,0.5,16.5c1.7,7.5,5.9,14.1,11.4,19.7c2.4,2.5,5.4,4,8.1,5.9
		c4.3,3.1,9.4,5.1,14.6,5.5c6,0.5,12.2,1,18-0.9c3.6-1.2,7.2-2.5,10.7-4.4c4.2-2.4,7.3-5.8,10.8-8.9c3.1-2.7,4.9-6.3,6.5-9.8
		c1-2.1,2.1-4.4,2.7-6.9c0.9-3.4,0.7-6.7,0.9-10.2C785.1,912.3,785.4,908.6,784.3,904.9z M774.2,927.5c-2.3,5.9-5.8,11-10.9,14.7
		c-2.3,1.7-5,3-7.7,4.3c-2.6,1.2-5.3,1.9-7.9,2.5c-3,0.7-6.6,1.2-9.6-0.4c-1.7-0.9-3.4-0.1-5.1-0.8c-3.1-1.2-6-2.6-8.6-4.5
		c-7.6-5.5-12.6-12.7-14.2-22.2c-0.4-2.4-1.2-4.6-0.9-7.1c1-8.1,3.8-15.4,9.4-21.6c4.2-4.6,9.2-7.7,15.2-9.1c1.8-2,4.5-0.5,6.8-1.7
		c1.6-0.9,4.5-0.9,6.5,0.8c4.2-0.5,7.7,1.2,11.2,3c6.1,3.1,10.9,7.5,14,13.7c3.6,7.5,4.2,10.2,4,16.7
		C776.6,919.5,775.7,923.5,774.2,927.5z"/>
	<path id="XMLID_21_" class="st1" d="M1523.4,919.5c5-0.1,8.8-1.5,11.8-3.8c6.5-4.9,8.5-11.7,9.1-19.2c0.1-1.7-1.5-2.8-1.1-4.6
		c0.4-2.1-0.8-4-1.7-5.8c-2.7-5.5-7.6-8.3-13.3-9.7c-1.7-0.4-3.1-1.6-5.1-1.1c-1.8,0.4-3.4-0.7-5.1-0.8c-5.2-0.3-10.5-0.1-15.6-0.1
		c0,27.6,0,54.7,0,82.1c3-0.5,6,0.3,8.9-0.4c0-11.5,0-22.9,0-34.2c0-0.6-0.2-1.4,0.8-1.5c0.8,0,1.8-0.4,2.2,0.5
		c2.4,4.7,6.2,8.4,8.8,12.9c4.1,7.1,9.6,13.2,13.6,20.3c0.5,1,1.4,2.3,3,2.3c1.7,0,3.3,0.1,5,0c1.5-0.1,3.1,0.4,4.6-0.3
		C1540.6,943.9,1532.3,932,1523.4,919.5z M1511.2,912.3c0-9.9,0-19.2,0-29c3.8,0,7.6-0.4,11.3,0.1c4.5,0.6,8.3,2.8,10.8,7
		c1,1.7,0.6,3.5,1,5.1c0.4,1.5,1.8,2.8,0,4.3c-0.3,0.2-0.1,0.9-0.1,1.4c0.1,5.3-3.9,8.2-9.7,10.1
		C1520.3,912.7,1515.9,912.1,1511.2,912.3z"/>
	<path id="XMLID_18_" class="st1" d="M1389.3,947.4c-2-5.8-4.7-11.4-7.2-17c-2.5-5.8-5-11.6-7.5-17.4c-1.4-3.4-3.3-6.6-4.5-10.1
		c-1.2-3.6-3.1-7.1-4.4-10.7c-1.1-3.1-2.7-5.9-3.8-8.9c-1.5-4-3.6-7.9-5.4-12.3c-2.1,4-4.1,7.5-5.2,11c-1.1,3.6-3.4,6.6-4.4,10.2
		c-1,3.7-3.1,7-4.7,10.5c-2,4.3-4,8.7-5.8,13.1c-2.7,6.5-5.8,12.9-8.4,19.5c-1.8,4.7-4.2,9.2-6.3,13.9c-1,2.2-1.8,4.5-2.9,7
		c3.5,0,6.6,0,9.9,0c1.4-3.1,2.9-6.3,4.1-9.6c1.3-3.6,3.4-6.9,4.3-10.7c0.4-1.5,1.4-2.7,3.8-2.6c10.2,0.3,20.3,0.1,30.5,0.1
		c0.5,0,1,0,1.5,0c0.8,0,1.3,0.4,1.1,1.2c-0.4,1.5,0.8,2.4,1.3,3.5c2.4,5.3,4.6,10.8,6.7,16.2c0.6,1.4,1.2,2.2,2.8,2.2
		c2.8-0.1,5.5,0.1,7.7,0C1392.4,952.7,1390.3,950.3,1389.3,947.4z M1367.4,924.2c-8.3,0-16.6,0-25.4,0c2.9-4.3,4.2-8.8,6.1-13
		c1.5-3.5,3.2-7,4.5-10.6c0.8-2.1,1.6-4.3,2.6-6.4c0.2-0.5,0.3-0.9,0.9-0.9c0.8-0.1,0.9,0.4,1.2,1.1c1.5,3.2,2.8,6.5,4,9.8
		c1,2.9,2.5,5.6,3.7,8.4c1.3,2.9,2.1,6.1,3.8,8.9C1369.9,923.2,1369.3,924.2,1367.4,924.2z"/>
	<path id="XMLID_15_" class="st1" d="M976.9,941.7c-1.5-3.5-3.1-7.1-4.6-10.6c-1.5-3.5-3-7.1-4.5-10.6c-3-7.1-6-14.2-9.1-21.2
		c-2.6-6.1-5.7-12-8-18.2c-1.2-3.3-3.5-6.2-3.9-10.1c-0.7,0.9-1.2,1.5-1.6,2.2c-2.4,4-4,8.4-5.7,12.6c-1.5,3.9-3.6,7.5-4.9,11.5
		c-1.3,3.9-3.6,7.5-5.2,11.3c-1.6,3.9-3.6,7.5-5.1,11.4c-2.6,6.8-5.8,13.3-8.5,19.9c-1.9,4.6-3.5,9.6-6.5,13.8
		c-0.3,0.4-0.1,1.3-0.2,2.5c3.1,0,5.9,0,8.7,0c0.7,0,1.1,0,1.4-1c0.8-3.6,2.6-6.9,4-10.3c1.2-3,2.8-5.9,3.9-8.9
		c1.1-2.7,1-2.8,3.6-2.8c10,0,20,0,30,0c1.8,0,2.9,0.4,3.6,2.4c1.1,3.2,2.6,6.2,3.9,9.4c1.3,3.1,2.7,6.2,4,9.3c0.6,1.4,1.4,2,2.9,2
		c2.6-0.1,5.3,0,8,0C980.9,951.2,978.9,946.4,976.9,941.7z M932.3,923.9c4.5-10.5,9-21.1,13.7-32.1c4.5,10.7,8.9,21.2,13.2,31.7
		C956.1,924.5,940.8,924.7,932.3,923.9z"/>
	<path id="XMLID_27_" class="st1" d="M496.7,938.4c-1.5-3.2-2-6.9-4.5-9.6c0.3-3.4-2.4-5.6-3.3-8.7c-0.8-3-2.3-6-3.8-8.9
		c-1.9-3.4-2.2-7.5-4.9-10.5c0.3-3.4-2.4-5.6-3.2-8.7c-0.8-3-2.5-5.9-3.8-8.9c-1.7-4-3.5-7.9-5.4-12c-1.6,3.1-3.7,5.6-4.4,8.5
		c-1,3.8-2.9,7.2-4.4,10.7c-1.6,3.7-2.9,7.5-4.8,11c-2.2,3.9-3.9,8.1-5.6,12.2c-3,7.3-6.3,14.4-9.4,21.6c-2.9,6.8-6,13.5-9,20.3
		c0,0.1,0.1,0.3,0.2,0.8c2.7,0,5.4,0,8.2,0c1,0,1.2-0.3,1.6-1.3c2.8-6.2,5.6-12.3,7.9-18.7c1-2.8,1.1-3,3.8-3
		c10.2,0,20.3,0.1,30.5-0.1c2.1,0,3.1,1.1,3.4,2.4c0.6,2.8,2.4,5,3.3,7.7c1.4,4.1,3,8.1,5,11.9c0.3,0.6,0.4,1.1,1.2,1.1
		c2.9,0,5.9,0,9.1,0C501.8,950,499.5,944.1,496.7,938.4z M454.2,924c0-0.7-0.2-1.4,0-1.9c4.8-9.8,8.5-20.1,14-29.6
		c0,0.6-0.2,1.4,0,1.9c4.8,9.6,8,19.9,12.8,29.7C472.2,924,463.3,924,454.2,924z"/>
	<path id="XMLID_30_" class="st1" d="M202.8,951.3c-2.7-6-5.5-12-8.1-18.1c-1.1-2.6-2.8-5-3.3-7.6c-0.7-3.2-2.6-5.6-3.5-8.6
		c-0.9-3-2.3-6-3.8-8.9c-2.9-5.6-5.2-11.5-7.7-17.3c-2.3-5.5-5-10.9-6.9-16.6c-0.4-1-0.4-2.5-2.3-2.7c-0.8,4.9-3.8,9-5.5,13.6
		c-2.7,7.3-6.2,14.4-9.5,21.5c-1.3,2.8-2.9,5.6-3.7,8.4c-1.1,3.9-3.4,7.3-4.8,11c-1.4,3.8-3,7.8-5.1,11.4c-2.1,3.6-2.6,7.9-5.3,11.3
		c0.2,2.9-2.3,4.8-2.7,7.5c2.7,0,5.2-0.1,7.7,0c1.5,0.1,2.5-0.6,3-1.9c1.3-3.1,2.7-6.2,4-9.3c1.4-3.3,2.7-6.5,4-9.8
		c0.5-1.4,1.4-2,2.9-2c10.3,0.1,20.7,0.1,31,0c1.7,0,2.6,0.6,3.2,2.3c2.2,6.6,5.3,12.8,7.8,19.2c0.4,1.1,0.6,1.6,1.8,1.6
		c2.6-0.1,5.3,0,7.9,0c0.3-0.2,0.5-0.4,0.8-0.6C203,954.5,203.4,952.8,202.8,951.3z M154.2,923.8c4.4-10.5,8.8-20.9,13.5-32
		c4.6,11,9,21.5,13.3,31.9C177.6,924.4,159.5,924.5,154.2,923.8z"/>
	<path id="XMLID_24_" class="st1" d="M376.2,954.1c-1.8-2.4-2-5.5-3.6-8c-2.2-3.5-3.2-7.7-5.1-11.4c-1.2-2.3-2.4-4.7-3.2-7.2
		c-1.6-5-3.9-9.7-5.9-14.6c-2.7-6.7-5.9-13.2-8.7-19.9c-1.1-2.6-2.4-5-3.3-7.6c-1.5-4.2-3.5-8.2-5.1-12.4c-0.2-0.5-0.3-0.8-0.9-0.9
		c-0.6,0-0.9,0.2-1.1,0.7c-0.9,2.8-2.3,5.4-3.5,8c-3.9,8.4-7.4,17-11.1,25.4c-3.7,8.3-7.2,16.7-11,24.9c-3.2,7.2-6.5,14.3-9.5,21.5
		c-1.4,3.3-1.4,3.3,2.2,3.4c1.3,0,2.7-0.1,4,0c1.6,0.1,2.4-0.6,3-2c1.6-3.7,3.9-7.2,4.8-11c0.7-3.1,3.4-5.3,3.4-8.7
		c0-0.9,1.4-1.5,2.8-1.5c10.3,0.1,20.7,0.1,31,0c1.5,0,2.5,0.6,3,1.9c0.7,1.9,1.4,3.8,2,5.7c1.2,3.3,3.3,6.3,4.1,9.8
		c0.4,1.7,1.3,3.6,2.1,5.1c1,1.6,3.7,0.4,5.6,0.6c1.3,0.1,2.6,0,4.2,0C376.2,955.4,376.5,954.5,376.2,954.1z M339.7,924.2
		c-4.4,0.1-8.9,0-13.5,0c4.7-10.9,9.2-21.4,13.9-32.4c4.5,10.7,8.9,21.2,13.4,32C348.7,924.7,344.2,924.1,339.7,924.2z"/>
</g>
</svg>
