<svg id="Layer_1" data-name="Layer 1" xmlns="http://www.w3.org/2000/svg" viewBox="0 0 174.1 200"><defs><style>.cls-1{fill:none;stroke:#000;stroke-linecap:round;stroke-linejoin:round;stroke-width:2px;}</style></defs><title>wearelatech</title><path d="M166.78,20.79l0.74,0.93c0.09,0.52.21,1.12,0.28,1.72a3,3,0,0,0,.26,1.69,0.58,0.58,0,0,1,0,.25c0.08,1.37.15,2.75,0.27,4.12a9.31,9.31,0,0,1,.26,1.69,2.45,2.45,0,0,0,.24,1.69,0.31,0.31,0,0,1,0,.13c0.09,1.37.16,2.75,0.26,4.12a9.75,9.75,0,0,1,.27,1.69,2.23,2.23,0,0,0,.23,1.69,0.58,0.58,0,0,1,0,.25c0.08,1.37.15,2.75,0.27,4.12a9.38,9.38,0,0,1,.26,1.69,2.5,2.5,0,0,0,.24,1.69,0.61,0.61,0,0,1,0,.25c0.08,1.42.16,2.83,0.26,4.25a9.86,9.86,0,0,1,.27,1.69,2.23,2.23,0,0,0,.23,1.69,0.58,0.58,0,0,1,0,.25c0.08,1.37.15,2.75,0.27,4.12a9.42,9.42,0,0,1,.26,1.69,2.46,2.46,0,0,0,.24,1.69,0.31,0.31,0,0,1,0,.13c0.09,1.33.19,2.66,0.25,4a11.72,11.72,0,0,1,.29,1.95,2.38,2.38,0,0,0,.23,1.82,0.58,0.58,0,0,1,0,.25c0.08,1.37.15,2.75,0.27,4.12a9.44,9.44,0,0,1,.26,1.69,2.47,2.47,0,0,0,.24,1.69,0.31,0.31,0,0,1,0,.13c0.09,1.37.16,2.75,0.26,4.12a9.81,9.81,0,0,1,.27,1.69,2.25,2.25,0,0,0,.23,1.69,0.41,0.41,0,0,1,0,.25c-0.18,1.43.38,2.82,0.26,4.25,0,0.58.35,1.07,0.28,1.69a2,2,0,0,0,.22,1.69,0.55,0.55,0,0,1,0,.25c0.08,1.37.16,2.75,0.26,4.12a9.73,9.73,0,0,1,.27,1.69,2.3,2.3,0,0,0,.23,1.69,0.87,0.87,0,0,1,0,.38,39.8,39.8,0,0,0,.29,4.24c0.15,0.91,0,1.85.26,2.71a12.47,12.47,0,0,1,.21,2.34,10.09,10.09,0,0,1,.28,1.69,2.19,2.19,0,0,0,.23,1.69,0.57,0.57,0,0,1,0,.25c0.08,1.37.15,2.75,0.27,4.12a9.15,9.15,0,0,1,.26,1.69,2.47,2.47,0,0,0,.24,1.69,0.31,0.31,0,0,1,0,.13c0.09,1.42.16,2.84,0.26,4.25,0,0.61.18,1.21,0.25,1.82a2.9,2.9,0,0,0,.25,1.69,0.57,0.57,0,0,1,0,.25c0.08,1.37.15,2.75,0.27,4.12a9.11,9.11,0,0,1,.26,1.69,7.66,7.66,0,0,0,.2,1.69,26.61,26.61,0,0,1,0,3.56l-0.67,1.33a10.33,10.33,0,0,1-1.43.18c-4.36,0-8.72,0-13,0l-1-1c-0.25-1.41-.21-3-0.37-4.58a35.78,35.78,0,0,0-.24-3.74,18.4,18.4,0,0,1-.2-3.49,12,12,0,0,1-.29-1.95,5,5,0,0,0,0-2,14.49,14.49,0,0,1-.23-3.24c-0.06-.69-0.2-1.38-0.24-2.07a10.48,10.48,0,0,0-.05-2.17,7.7,7.7,0,0,1-.21-2.08,1.74,1.74,0,0,0-.63-1.31h-4.67l-0.56.71c-0.17,1.53-.22,3.21-0.36,4.86-0.12,1.29,0,2.61-.23,3.86s0,2.61-.26,3.87,0,2.61-.26,3.87,0,2.35-.25,3.48a30.7,30.7,0,0,0-.24,3.87c0,0.65-.23,1.28-0.28,1.94a3.24,3.24,0,0,1-.76,1.2c-4.64,0-9.21,0-13.78,0a7.1,7.1,0,0,1-1.23-.23c-0.2-.6-0.42-1.19-0.57-1.8a1.78,1.78,0,0,1,.07-0.73,4.33,4.33,0,0,0,.17-0.44c0.1-1.37.16-2.75,0.27-4.12,0-.61.17-1.21,0.25-1.82s-0.21-1.26.25-1.82a0.2,0.2,0,0,0,0-.13c-0.19-1.27.31-2.48,0.26-3.74s0.43-2.39.25-3.61a4.58,4.58,0,0,0,.26-2.2c0.06-.61.16-1.21,0.25-1.82s-0.24-1.27.25-1.82a0.19,0.19,0,0,0,0-.13c-0.18-1.26.3-2.48,0.26-3.74s0.43-2.39.25-3.61c0.46-.74.17-1.55,0.26-2.33,0.07-.61.16-1.21,0.25-1.82s-0.21-1.18.25-1.69a0.55,0.55,0,0,0,0-.25c0.08-1.42.16-2.84,0.26-4.25,0-.61.17-1.21,0.25-1.82a3,3,0,0,1,.25-1.69,0.86,0.86,0,0,0,0-.38c0.08-1.42.15-2.84,0.27-4.25a9.49,9.49,0,0,0,.26-1.69,2.5,2.5,0,0,1,.24-1.69,0.61,0.61,0,0,0,0-.25,41.22,41.22,0,0,1,.29-4.25c0.17-1,0-2.1.27-3.09a18.45,18.45,0,0,0,.21-2.21c0.06-.52.2-1,0.24-1.56a5.77,5.77,0,0,1,0-1.65,7,7,0,0,0,.22-2.09c0.06-.52.2-1,0.24-1.56a6.77,6.77,0,0,1,0-1.65,8.19,8.19,0,0,0,.23-2.21c0-.52.2-1,0.24-1.56a6.1,6.1,0,0,1,0-1.65,7.68,7.68,0,0,0,.23-2.21c0.06-.52.2-1,0.24-1.56a5.74,5.74,0,0,1,0-1.65,6.94,6.94,0,0,0,.22-2.09c0.06-.52.2-1,0.24-1.56a6.74,6.74,0,0,1,0-1.65,15.64,15.64,0,0,0,.25-2.21c0.24-1.08.06-2.19,0.29-3.22,0.18-.8.11-1.57,0.21-2.34a7.85,7.85,0,0,0,.26-1.69,2.4,2.4,0,0,1,.24-1.69,0.6,0.6,0,0,0,0-.25,40.72,40.72,0,0,1,.29-4.25c0.17-1,.05-2.1.27-3.09a18.82,18.82,0,0,0,.21-2.34,9,9,0,0,0,.27-1.69,2.27,2.27,0,0,1,.23-1.69,0.41,0.41,0,0,0,0-.25,21.79,21.79,0,0,1,.31-4.25,28.61,28.61,0,0,1,.25-3.09c0.11-.61.1-1.23,0.24-1.82a8.36,8.36,0,0,1,.74-1.61h17.18Zm-6.67,78.57a3.85,3.85,0,0,0,0-1.12,4.14,4.14,0,0,1-.24-1.05,23.31,23.31,0,0,0-.19-3.48c-0.25-1.24,0-2.56-.28-3.85-0.21-1.09-.07-2.22-0.22-3.35-0.2-1.47-.18-3-0.28-4.49-0.07-.94-0.34-1.83-0.44-2.77-0.1.29,0,.61-0.13,0.84a1.92,1.92,0,0,0-.24.8,10.89,10.89,0,0,1-.21,2.85,5.4,5.4,0,0,0,0,2.16,11.74,11.74,0,0,1-.29,2.07,8.19,8.19,0,0,1-.25,3.22c0.19,1.94-.38,3.84-0.26,5.78a1.73,1.73,0,0,1,0,.88,2.09,2.09,0,0,0,.13,2.18h2.33Z" transform="translate(-5.28 -20.79)"/><path d="M119.61,20.79a4,4,0,0,1,.78,2.5q0,42.55,0,85.1v1.37a3.34,3.34,0,0,0,.79.23c0.9,0,1.79,0,2.69,0h11.5a2.4,2.4,0,0,1,.92,2q0,15.51,0,31c0,0.08,0,.16,0,0.25l-0.78,1.1H104.53a4.12,4.12,0,0,1-.81-2.33c0-.17,0-0.34,0-0.51q0-58.76,0-117.53a5.07,5.07,0,0,1,1-3.16h14.87Z" transform="translate(-5.28 -20.79)"/><path d="M5.28,126.41a0.62,0.62,0,0,0,.25-0.2,9.84,9.84,0,0,1,2.08-5.93,12.15,12.15,0,0,1,2.46-2.71c1-.76,2-1.43,3-2.09a14.12,14.12,0,0,1,3-1.35c1.17-.41,2.21-1.06,3.32-1.56a6.62,6.62,0,0,0,1.86-1.33,2.52,2.52,0,0,0,1-2.15,1.33,1.33,0,0,1,.21-1.27l-0.33-1.37-0.74-.51h-1.1a2.18,2.18,0,0,0-.36,1.54,15.25,15.25,0,0,1,0,1.66,12.15,12.15,0,0,1-.25,1.56,3.09,3.09,0,0,1-.3.62,12.86,12.86,0,0,1-2.82-.24,6.52,6.52,0,0,0-2,0c-2.23,0-4.44-.4-6.69-0.28a6.65,6.65,0,0,1-1.65-.34,5.73,5.73,0,0,1-.34-2.76c0-.81,0-1.62,0-2.43a9,9,0,0,1,.27-2.32A17.74,17.74,0,0,1,7.8,98.62a14.28,14.28,0,0,1,2.36-2.86A13.37,13.37,0,0,1,14.56,93a17.58,17.58,0,0,1,4.32-1,17.36,17.36,0,0,1,2.59-.2,4.28,4.28,0,0,1,2,.2c0.51,0.26,1.24-.14,1.8.3A12.61,12.61,0,0,1,30,93.87a6.94,6.94,0,0,1,1.9,1.3c0.32,0.31.74,0.52,1.06,0.83a14.74,14.74,0,0,1,2.59,3.54,14.56,14.56,0,0,1,1.06,3,9.58,9.58,0,0,1,.23,2.72q0,12.55,0,25.1l0.38,0.38h2.09l0.61,0.92c0,1.79.1,3.63,0,5.46a11.85,11.85,0,0,1-2.45,6.55,11.19,11.19,0,0,1-2.72,2.4,5.83,5.83,0,0,1-3.26,1.09c-0.85,0-1.71,0-2.56,0a5.94,5.94,0,0,1-4.24-1.81c-0.71-.76-1.38-1.55-2.13-2.39l-1,1c-0.31.3-.59,0.62-0.91,0.9a17,17,0,0,1-1.64,1.3,8.55,8.55,0,0,1-2,.74,5.3,5.3,0,0,1-2,0,7.18,7.18,0,0,1-1.83-.2A9.54,9.54,0,0,1,8.41,144,12.2,12.2,0,0,1,6,139.6a8.31,8.31,0,0,1-.51-3c0-.18.1-0.46-0.25-0.46v-9.74Zm14.36-1.66c0,2.39,0,4.78,0,7.16a2.07,2.07,0,0,0,.64,1.67h1.28a2.38,2.38,0,0,0,.9-2c0-2.43,0-4.86,0-7.29a1.74,1.74,0,0,0-.45-1.45C20.95,123.06,20.47,123.45,19.63,124.75Z" transform="translate(-5.28 -20.79)"/><path d="M27.88,46a4.38,4.38,0,0,0,.74-2.49c-0.07-1.25.43-2.47,0.25-3.74a4.22,4.22,0,0,0,.26-2.07c0.06-.57.16-1.13,0.25-1.69s-0.23-1.1.25-1.57a0.39,0.39,0,0,0,0-.25c-0.2-1.43.33-2.82,0.28-4.25a11.81,11.81,0,0,1,.23-1.69,2.7,2.7,0,0,1,.25-1.57,0.88,0.88,0,0,0,0-.38c0.08-1.2.16-2.41,0.26-3.61a2.24,2.24,0,0,1,.9-1.42h10l0.81,0.78c0.14,0.79.26,1.43,0.37,2.07s-0.25,1.35.26,1.95a0.19,0.19,0,0,1,0,.13c-0.2,1.18.32,2.31,0.28,3.48a9,9,0,0,0,.24,1.81c0.1,0.56-.27,1.19.24,1.7a0.53,0.53,0,0,1,0,.25c0.08,1.2.16,2.41,0.26,3.61,0,0.52.17,1,.25,1.56a2.38,2.38,0,0,0,.25,1.57,0.55,0.55,0,0,1,0,.25c0.08,1.29.15,2.58,0.27,3.87a4.87,4.87,0,0,0,.33,1.27,1.38,1.38,0,0,0,.45.39,3.9,3.9,0,0,0,.52-1.26c0.25-1,.07-2.09.26-3.1s0.05-2.18.27-3.22,0-2,.24-3,0-2,.27-3,0-1.93.24-2.85c0.24-1.12,0-2.27.28-3.35a24.4,24.4,0,0,0,.21-2.72c0.06-.52.19-1,0.31-1.68l0.66-.55H64.41l0.66,0.83a33.94,33.94,0,0,1-.36,4c-0.13.66-.05,1.33-0.24,1.94a6.33,6.33,0,0,0-.22,2A8.55,8.55,0,0,0,64,31.46a2.7,2.7,0,0,1-.19,1.32c-0.21.59-.11,1.28-0.26,1.94a24.29,24.29,0,0,0-.3,3.09c0,0.48-.16,1-0.25,1.43s0.24,1-.25,1.44a0.56,0.56,0,0,0,0,.25c-0.08,1.08-.16,2.15-0.26,3.23,0,0.44-.19.87-0.24,1.31a1.65,1.65,0,0,1-.26,1.18,0.56,0.56,0,0,0,0,.25,27.29,27.29,0,0,1-.29,3.22c-0.14.7-.09,1.41-0.26,2.07s-0.07,1.42-.25,2.07-0.07,1.42-.26,2.07a9.52,9.52,0,0,0-.23,2c0,0.44-.19.87-0.24,1.31a1.76,1.76,0,0,1-.26,1.18,0.57,0.57,0,0,0,0,.25c-0.08,1.08-.14,2.15-0.27,3.22a7.26,7.26,0,0,0-.26,1.31,2.06,2.06,0,0,1-.13,1.22c-0.2.36,0,.95-0.13,1.35a17.28,17.28,0,0,0-.27,2.07c-0.19.66-.08,1.33-0.25,1.95s-0.09,1.41-.26,2.07-0.09,1.42-.26,2.07A19.23,19.23,0,0,1,58,78.21c-0.27.67,0,1.35-.24,2s-0.07,1.42-.26,2.07-0.08,1.33-.25,1.95A20.63,20.63,0,0,1,57,86.25a8.53,8.53,0,0,0-.21,2c-0.08.39-.23,0.76-0.4,1.3l-0.72.72H41.55a2.14,2.14,0,0,1-.91-1.93,5.15,5.15,0,0,0-.24-1.18A1.49,1.49,0,0,0,40.19,86a1.08,1.08,0,0,1,0-.61A3.36,3.36,0,0,0,39.91,84c-0.17-.39,0-0.85-0.22-1.32a5.33,5.33,0,0,1-.27-1.79c-0.06-1.41-.6-2.74-0.56-4.14a4,4,0,0,1-.28-1.68c-0.1-.52-0.13-1.07-0.27-1.55-0.36-1.29-.25-2.65-0.71-3.93a7.8,7.8,0,0,1-.27-2.32,2.13,2.13,0,0,0-.7-1.63,5.91,5.91,0,0,0-.58,1.25c-0.15.76-.13,1.56-0.29,2.32a11.18,11.18,0,0,1-.49,2.74,0.64,0.64,0,0,0,0,.25A6.24,6.24,0,0,1,35,74c-0.16.53-.09,1.11-0.25,1.69a19,19,0,0,0-.3,2.7c0,0.4-.17.78-0.25,1.18A1.3,1.3,0,0,1,34,80.64,0.76,0.76,0,0,0,34,81a17.64,17.64,0,0,1-.29,2.7c-0.16.62-.08,1.25-0.26,1.81s-0.08,1.25-.25,1.82A6,6,0,0,0,33,89.09l-0.81,1.17H18.54a1.56,1.56,0,0,1-1.68-1.16,4.76,4.76,0,0,0-.27-1.53c-0.21-.47.23-1.1-0.27-1.56a0.56,0.56,0,0,1,0-.25c-0.08-1.08-.16-2.15-0.26-3.23,0-.44-0.19-0.87-0.24-1.31a1.7,1.7,0,0,0-.25-1.18,0.76,0.76,0,0,1,0-.38,5.44,5.44,0,0,0-.23-1.83c-0.19-.52.12-1.16-0.28-1.68a0.6,0.6,0,0,1,0-.25,5.65,5.65,0,0,0-.22-1.83c-0.22-.54.09-1.24-0.3-1.8,0.19-1-.26-1.88-0.27-2.84,0-.52-0.18-1-0.24-1.56a2.23,2.23,0,0,0-.26-1.43c0.19-.85-0.29-1.63-0.25-2.46a4,4,0,0,0-.24-1.57c-0.18-.49.21-1.1-0.27-1.56a0.56,0.56,0,0,1,0-.25c-0.08-1.08-.16-2.15-0.26-3.23,0-.44-0.19-0.87-0.24-1.31a1.75,1.75,0,0,0-.26-1.18,0.57,0.57,0,0,1,0-.25A5.35,5.35,0,0,0,12,52.83c-0.23-.53.11-1.23-0.28-1.81a1,1,0,0,1,0-.5,4.85,4.85,0,0,0-.24-1.69c-0.16-.5.16-1.09-0.27-1.56a0.76,0.76,0,0,1,0-.38,5.3,5.3,0,0,0-.23-1.83c-0.19-.52.13-1.16-0.28-1.68a0.6,0.6,0,0,1,0-.25,5.38,5.38,0,0,0-.22-1.83c-0.23-.53.11-1.24-0.29-1.81a0.94,0.94,0,0,1,0-.38A20.81,20.81,0,0,0,9.85,36a14,14,0,0,0-.26-1.93c-0.26-.64,0-1.26-0.23-1.83s0-1.46-.28-2.06,0-1.37-.24-2,0-1.28-.26-1.81a16.17,16.17,0,0,1-.25-1.82,10.51,10.51,0,0,1-.25-2.68l0.81-.59H24.11a1.75,1.75,0,0,1,1.17,2.09c-0.08,1.25.43,2.47,0.25,3.74,0.45,0.74.18,1.55,0.26,2.33,0.06,0.57.2,1.12,0.24,1.69a6,6,0,0,0,0,1.65A7.61,7.61,0,0,1,26.3,35c0.06,0.57.2,1.12,0.24,1.69a6.56,6.56,0,0,0,0,1.65,17.88,17.88,0,0,1,.25,2.33c0.24,1,.08,2,0.27,3A3.72,3.72,0,0,0,27.88,46Z" transform="translate(-5.28 -20.79)"/><path d="M161.79,220.49l-0.64-.64V194.21l-0.71-.64a8.93,8.93,0,0,0-2.61.18v26.11l-1,.6H140.76l-0.87-1.09V148.82l0.33-.33h17.25l0.34,0.34v25.94a3.1,3.1,0,0,0,3.34-.23V148.84l0.35-.35h17l0.6,0.76v70.6l-0.64.64H161.79Z" transform="translate(-5.28 -20.79)"/><path d="M136.26,176.91c-0.71,0-1.31,0-1.91,0-0.82.05-1.64,0.2-2.46,0.24s-1.71,0-2.56,0a12.52,12.52,0,0,0-2.56,0c-2,.43-4,0.1-6.05.23-1,.07-2,0.21-3,0.32l-1.49-1.14c0-1.6,0-3.13,0-4.67a8.24,8.24,0,0,0-.35-3.47l-0.58-.53h-1.23a2.37,2.37,0,0,0-.9,2q0,14.35,0,28.7a7.7,7.7,0,0,0,.28,1.47,1.6,1.6,0,0,0,2.41.08,5.27,5.27,0,0,0,.37-2.57c0-2.95,0-5.89,0-8.75l0.34-.65a1.85,1.85,0,0,1,1.67-.25,1.7,1.7,0,0,0,.57.17c1.15,0,2.31,0,3.46,0a18.29,18.29,0,0,1,3.5.19,11.72,11.72,0,0,0,3.45,0c2.24-.15,4.44.41,6.72,0.25a2.11,2.11,0,0,1,.28.68c0,1.92.12,3.85,0,5.76a11,11,0,0,1-.27,2.69c-0.27.76,0,1.53-.38,2.28s-0.11,1.48-.35,2.16c-0.56,1.57-.54,3.32-1.5,4.76a14.35,14.35,0,0,1-1.54,3.72,16.82,16.82,0,0,1-1.55,2.43,15.07,15.07,0,0,1-3,3.23,15.52,15.52,0,0,1-5.26,3.07c-0.45.14-.89,0.32-1.34,0.49a20.48,20.48,0,0,1-2.22.5,15.09,15.09,0,0,1-3,.28,19.37,19.37,0,0,1-2.94,0c-1.12-.12-2.22-0.4-3.32-0.64a16.86,16.86,0,0,1-4.69-2,9,9,0,0,1-2.36-1.75c-0.38-.42-0.94-0.68-1.32-1.11a22.12,22.12,0,0,1-3.43-4.59,18,18,0,0,1-1.28-2.55c-0.29-.89-0.74-1.74-1-2.64-0.23-.69-0.33-1.4-0.53-2.09s-0.33-1.32-.49-2,0-1.53-.26-2.2a8.14,8.14,0,0,1-.2-2.34c0-.77,0-1.54,0-2.31,0-7.47,0-15,0-22.42,0-.64.26-1.2,0.29-1.82a4.08,4.08,0,0,1,.2-1.84,6.91,6.91,0,0,0,.25-1.67c0.15-.79.36-1.56,0.56-2.34s0.32-1.32.52-2a29.43,29.43,0,0,1,3.11-6.26,28.07,28.07,0,0,1,4.3-4.37,24.09,24.09,0,0,1,6.27-3.14c0.41-.17.85,0,1.32-0.22a6.79,6.79,0,0,1,2.3-.31c1.15,0,2.31,0,3.46,0,1.79-.08,3.46.57,5.19,0.78a28.59,28.59,0,0,0,3.13,1.44,22.41,22.41,0,0,1,3,1.92,26.82,26.82,0,0,1,3,3,12.84,12.84,0,0,1,1.29,1.89,26,26,0,0,1,2.89,6.1c0.28,0.91.53,1.84,0.75,2.77a22.49,22.49,0,0,0,.72,3.41,0.28,0.28,0,0,1,0,.13c-0.19,1.77.36,3.51,0.26,5.28A6.71,6.71,0,0,1,136.26,176.91Z" transform="translate(-5.28 -20.79)"/><path d="M90,148.46l0.64,0.65q0,8.61,0,17.27a6.11,6.11,0,0,1-.22,1.16,2.73,2.73,0,0,1-1.66.41c-4.74,0-9.48,0-14.22,0H73.34L73,168.3V174l0.69,0.41-0.13.18h8L81.89,175v18l-0.6.61h-8.2l-0.35.35v6.22l0.35,0.35H90.25a2.09,2.09,0,0,1,.66,1.72c0,5.77,0,11.53,0,17.26l-1.05,1H55.43l-0.9-.53V149.06a2.15,2.15,0,0,1,1.77-.62H90Z" transform="translate(-5.28 -20.79)"/><path d="M50.93,148.65a12,12,0,0,1,.22,1.57c0,5.21,0,10.42,0,15.63a2.36,2.36,0,0,1-.94,2.08H39.75l-0.62.78v50.68l-1,1.08H21.29l-1.15-.79v-2q0-23.89,0-47.79a2.35,2.35,0,0,0-.42-1.77,2.42,2.42,0,0,0-1.54-.24H9l-0.87-.87V148.81l0.35-.35H49.23A16.54,16.54,0,0,1,50.93,148.65Z" transform="translate(-5.28 -20.79)"/><path d="M98.34,115.11a2.34,2.34,0,0,1-.68.27c-0.81,0-1.62,0-2.43,0H82.31l-0.38.38v0.52c0,4.74,0,9.48,0,14.22a10.08,10.08,0,0,0,.19,1.39c0.61,0.3,1.14.77,1.76,0a5.53,5.53,0,0,0,.62-2.54c0-1.62,0-3.25,0-4.87l0.39-.38c1.17,0,2.36,0,3.55,0,0.87,0,1.69.37,2.59,0.28a7.28,7.28,0,0,1,2.55,0,25.06,25.06,0,0,0,3.9.24l0.62,0.62c0,2.6,0,5.21,0,7.81a13.62,13.62,0,0,1-2.62,8.26,10.2,10.2,0,0,1-3.79,3.39A16.73,16.73,0,0,1,88.78,146c-1,.25-2,0.47-2.95.66a35,35,0,0,1-6.31.18,8.38,8.38,0,0,1-3.1-.53,16.85,16.85,0,0,1-3.81-1.94,14,14,0,0,1-4.6-5.64A15.7,15.7,0,0,1,66.8,135c-0.14-.79-0.4-1.56-0.49-2.35a23.05,23.05,0,0,1,0-2.43c0-8.16,0-16.32,0-24.47a14.13,14.13,0,0,1,1.64-6.5A12.25,12.25,0,0,1,71.59,95,15.13,15.13,0,0,1,76,92.74,16,16,0,0,1,79.45,92a19.32,19.32,0,0,1,3.61-.19,16.83,16.83,0,0,1,6.69,1.77,14.83,14.83,0,0,1,4.8,3.84,16.11,16.11,0,0,1,3.29,7,18.16,18.16,0,0,1,.49,3.38C98.33,110.2,98.34,112.63,98.34,115.11Zm-14.2-4.88a1.11,1.11,0,0,0,.33-1.09,1.47,1.47,0,0,1-.23-1.19c0-.81,0-1.62,0-2.43a2.58,2.58,0,0,0-.22-1.44,1.29,1.29,0,0,0-1.81-.13c-0.36.91-.43,2.94-0.23,6.28h2.15Z" transform="translate(-5.28 -20.79)"/><path d="M98.34,58.09l-0.67.67H82V74.82l0.63,0.4-0.1.13h1.11l0.57-.57c0.56-1.61.24-3.22,0.31-4.81,0-.81,0-1.62,0-2.42a1.56,1.56,0,0,1,1.71-.16,3.61,3.61,0,0,0,1.64,0,10.09,10.09,0,0,1,2,0c1.63,0.34,3.28.07,4.89,0.28,0.87,0.11,1.72.18,2.71,0.22l0.61,0.84c0-.19,0-0.11,0,0,0,2.6,0,5.21,0,7.81a13.44,13.44,0,0,1-1.75,6.57,10.22,10.22,0,0,1-3,3.62,21.54,21.54,0,0,1-2.76,1.71,16.54,16.54,0,0,1-4.09,1.29c-0.61.12-1.24,0.1-1.81,0.26a7.08,7.08,0,0,1-2,.22,16.38,16.38,0,0,1-1.92,0,21.21,21.21,0,0,1-4.3-.74,15.61,15.61,0,0,1-3.85-1.84,17.2,17.2,0,0,1-1.84-1.76A13,13,0,0,1,67.31,80a26.36,26.36,0,0,1-.81-3.26,16.13,16.13,0,0,1-.19-3.11q0-12.75,0-25.49a15,15,0,0,1,1-4.2,12.42,12.42,0,0,1,4-5.48,6.74,6.74,0,0,1,3.32-1.84c1.1-.81,2.51-0.72,3.71-1.26,0.72,0.19,1.36-.29,2.07-0.26s1.37,0,2,0a15.7,15.7,0,0,1,5.17.84,12.8,12.8,0,0,1,4.2,2.25,19.38,19.38,0,0,1,2,1.84,13.72,13.72,0,0,1,2.71,4,24.77,24.77,0,0,1,1.28,3.71c0.64,2.4.4,4.82,0.46,7.23C98.36,56,98.34,57.05,98.34,58.09Zm-13.77-4.7c-0.23-1.37.11-2.58-.3-3.79a6.72,6.72,0,0,1,0-2l-0.6-.6H82.53L82,47.55v5.71C82.78,54.13,83.6,53.14,84.57,53.39Z" transform="translate(-5.28 -20.79)"/><path d="M64,106l-0.63.63c-0.74.1-1.52-.18-2.2,0.27a4.24,4.24,0,0,0-3.53,3,12.5,12.5,0,0,0-.6,2.84,58.5,58.5,0,0,0-.2,8.36c0,8.07,0,16.14,0,24.22a12.18,12.18,0,0,1-.2,1.56H42l-0.31-.31V92.14l0.37-.31H55.48a6.56,6.56,0,0,1,.76,1.36A2.72,2.72,0,0,0,57,94.63a5.73,5.73,0,0,0,.57-0.87A3.29,3.29,0,0,1,59.87,92a12.82,12.82,0,0,1,3.45-.25L64,92.45Q64,99.24,64,106Z" transform="translate(-5.28 -20.79)"/><path class="cls-1" d="M85.45,67.83a1.61,1.61,0,0,0,.58,1" transform="translate(-5.28 -20.79)"/></svg>