<svg xmlns="http://www.w3.org/2000/svg" xmlns:xlink="http://www.w3.org/1999/xlink" version="1.1" x="0px" y="0px" viewBox="-489 491 100 125" enable-background="new -489 491 100 100" xml:space="preserve"><path d="M-439,563.9c-10.4,0-18.8-8.3-18.8-16.7c12.5,2.1,25,2.1,37.5,0C-420.2,555.6-428.6,563.9-439,563.9z M-426.5,538.9  c3.4,0,6.2-2.8,6.2-6.2c0-3.4-2.8-6.2-6.2-6.2s-6.2,2.8-6.2,6.2C-432.8,536.1-429.9,538.9-426.5,538.9z M-451.5,538.9  c3.4,0,6.2-2.8,6.2-6.2c0-3.4-2.8-6.2-6.2-6.2s-6.2,2.8-6.2,6.2C-457.8,536.1-454.9,538.9-451.5,538.9z M-397.3,516v58.3h-83.3V516  H-397.3z M-393.2,499.3h-91.7c-4.2,0-4.2,0-4.2,4.2v75c0,4.2,0,4.2,4.2,4.2h91.7c4.2,0,4.2,0,4.2-4.2v-75  C-389,499.3-389,499.3-393.2,499.3z"/><text x="-489" y="606" fill="#000000" font-size="5px" font-weight="bold" font-family="'Helvetica Neue', Helvetica, Arial-Unicode, Arial, Sans-serif">Created by Thomas Helbig</text><text x="-489" y="611" fill="#000000" font-size="5px" font-weight="bold" font-family="'Helvetica Neue', Helvetica, Arial-Unicode, Arial, Sans-serif">from the Noun Project</text></svg>