<svg xmlns="http://www.w3.org/2000/svg" xmlns:xlink="http://www.w3.org/1999/xlink" version="1.1" x="0px" y="0px" viewBox="0 0 100 100" enable-background="new 0 0 100 100" xml:space="preserve"><path d="M49.372,34.681c-3.424,0-6.646,0.858-9.474,2.359c-0.811-0.63-1.816-1.021-2.921-1.021c-0.963,0-1.857,0.292-2.609,0.783  l-1.006-1.434c0.307-0.375,0.535-0.811,0.644-1.298c0.182-0.819,0.034-1.661-0.417-2.369l-1.045-1.643  c-0.58-0.913-1.572-1.458-2.654-1.458c-0.296,0-0.587,0.042-0.869,0.124l-1.548-2.058c0.887-0.887,1.197-2.256,0.667-3.473  l-0.775-1.785c-0.5-1.148-1.631-1.89-2.883-1.89c-0.119,0-0.234,0.023-0.352,0.036l-0.807-1.668c1.04-0.708,1.6-2,1.302-3.297  l-0.435-1.896c-0.33-1.438-1.588-2.442-3.061-2.442c-0.236,0-0.474,0.027-0.705,0.08c-1.689,0.388-2.749,2.077-2.362,3.766  l0.435,1.898c0.324,1.412,1.545,2.399,2.984,2.435l0.917,1.896c-0.363,0.323-0.657,0.719-0.841,1.185  c-0.308,0.781-0.293,1.635,0.042,2.405l0.777,1.786c0.499,1.148,1.631,1.89,2.883,1.89c0.169,0,0.335-0.024,0.5-0.051l1.69,2.249  c-0.816,1.021-0.95,2.482-0.211,3.644l1.045,1.643c0.58,0.912,1.572,1.457,2.654,1.457c0.287,0,0.569-0.042,0.842-0.118l1.216,1.734  c-0.511,0.762-0.812,1.678-0.812,2.663c0,0.887,0.259,1.708,0.681,2.422c-2.344,3.303-3.735,7.33-3.735,11.688  c0,11.178,9.062,20.24,20.24,20.24c11.177,0,20.24-9.062,20.24-20.24S60.549,34.681,49.372,34.681z M20.344,15.57l-0.435-1.897  c-0.153-0.671,0.268-1.343,0.94-1.497c0.093-0.021,0.187-0.032,0.281-0.032c0.575,0,1.085,0.409,1.215,0.971l0.435,1.897  c0.154,0.671-0.267,1.344-0.938,1.498C21.17,16.661,20.497,16.233,20.344,15.57z M24.114,24.944l-0.777-1.785  c-0.132-0.306-0.139-0.646-0.016-0.956c0.123-0.31,0.358-0.554,0.666-0.688c0.159-0.069,0.326-0.104,0.496-0.104  c0.498,0,0.948,0.295,1.147,0.751l0.776,1.785c0.274,0.632-0.017,1.371-0.647,1.645C25.135,25.863,24.381,25.558,24.114,24.944z   M29.883,34.058l-1.045-1.643c-0.369-0.581-0.197-1.355,0.383-1.726c0.202-0.128,0.433-0.195,0.669-0.195  c0.43,0,0.825,0.216,1.056,0.58l1.045,1.644c0.179,0.281,0.238,0.616,0.166,0.941c-0.073,0.326-0.268,0.604-0.55,0.783  C31.041,34.803,30.24,34.62,29.883,34.058z M34.08,40.809c0-1.598,1.299-2.897,2.897-2.897c0.387,0,0.754,0.079,1.092,0.217  c-1.439,0.971-2.732,2.136-3.876,3.435C34.127,41.322,34.08,41.072,34.08,40.809z M60.241,66.747  c-0.185,0.185-0.427,0.277-0.669,0.277s-0.484-0.093-0.669-0.277c-0.37-0.37-0.37-0.969,0-1.339c5.782-5.783,5.782-15.191,0-20.975  c-0.37-0.37-0.37-0.969,0-1.338c0.37-0.37,0.969-0.37,1.339,0C66.761,49.616,66.761,60.226,60.241,66.747z"></path><path d="M35.283,90.25c-0.1,0-0.201-0.01-0.302-0.033c-0.766-0.167-1.253-0.922-1.087-1.688l1.301-5.997  c0.166-0.767,0.925-1.253,1.688-1.087c0.767,0.167,1.253,0.922,1.087,1.689l-1.301,5.997C36.525,89.796,35.937,90.25,35.283,90.25z"></path><path d="M21.005,85.194c-0.394,0-0.785-0.163-1.065-0.48c-0.519-0.589-0.462-1.486,0.125-2.004l8.002-7.056  c0.587-0.519,1.486-0.463,2.004,0.125c0.519,0.589,0.462,1.486-0.125,2.004l-8.002,7.056C21.674,85.078,21.339,85.194,21.005,85.194  z"></path><path d="M15.983,71.842c-0.645,0-1.229-0.442-1.381-1.097c-0.178-0.764,0.296-1.528,1.06-1.706l7.845-1.832  c0.762-0.179,1.528,0.295,1.706,1.059c0.179,0.764-0.296,1.528-1.06,1.706l-7.845,1.833C16.199,71.83,16.09,71.842,15.983,71.842z"></path><path d="M61.536,31.396c-0.129,0-0.26-0.018-0.39-0.055c-0.754-0.215-1.191-1-0.977-1.754l2.243-7.878  c0.216-0.754,1.004-1.189,1.755-0.978c0.754,0.215,1.192,1,0.977,1.755l-2.243,7.878C62.723,30.989,62.154,31.396,61.536,31.396z"></path><path d="M69.111,37.512c-0.363,0-0.727-0.139-1.004-0.416c-0.554-0.555-0.554-1.454,0-2.008l8.943-8.939  c0.555-0.554,1.454-0.554,2.009,0c0.554,0.555,0.554,1.454,0,2.009l-8.943,8.939C69.838,37.373,69.475,37.512,69.111,37.512z"></path><path d="M74.288,45.641c-0.669,0-1.266-0.476-1.394-1.157c-0.145-0.771,0.362-1.514,1.133-1.659l9.726-1.833  c0.771-0.147,1.513,0.362,1.658,1.133c0.146,0.771-0.362,1.513-1.132,1.658l-9.726,1.833C74.464,45.633,74.375,45.641,74.288,45.641  z"></path></svg>